<svg xmlns="http://www.w3.org/2000/svg" fill="context-fill" fill-opacity="context-fill-opacity" height="16" width="16" viewBox="0 0 16 16">
  <path d="M11.08003125 10.79995c0 0.463925 -0.3760875 0.84000625 -0.84000625 0.84000625H5.759975c-0.6466375 0 -1.0507875 -0.70000625 -0.72746875 -1.2600125 0.15005625 -0.2599 0.4273625 -0.42 0.72746875 -0.42h4.48005c0.46391875 0 0.84000625 0.37608125 0.84000625 0.84000625Zm-0.84000625 -3.6400375H5.759975c-0.6466375 0 -1.0507875 0.70000625 -0.72746875 1.2600125 0.15005625 0.2599 0.4273625 0.42000625 0.72746875 0.42000625h4.48005c0.6466375 0 1.0507875 -0.70000625 0.7274625 -1.2600125 -0.15005 -0.2599 -0.4273625 -0.42000625 -0.7274625 -0.42000625Zm4.2000375 -4.48004375v11.76011875c0 0.77318125 -0.62683125 1.399975 -1.4000125 1.4000125H2.95995c-0.77323125 0.00003125 -1.4000125 -0.62678125 -1.4000125 -1.4000125V2.67986875c0 -0.77320625 0.62680625 -1.4000125 1.4000125 -1.4000125h2.417125c1.42986875 -1.49314375 3.81598125 -1.49314375 5.24585 0h2.417125c0.77320625 0 1.4000125 0.62680625 1.4000125 1.4000125ZM6.06028125 3.51988125h3.8794375c-0.21659375 -1.4932 -1.9684 -2.191975 -3.15325 -1.2578 -0.3942 0.3108 -0.654125 0.76100625 -0.7261875 1.2578Zm6.69976875 -0.56000625h-1.2187125c0.06534375 0.27523125 0.09846875 0.557125 0.0987 0.84000625v0.56000625c0 0.463925 -0.3760875 0.84000625 -0.84000625 0.84000625H5.199975c-0.463925 0 -0.8400125 -0.37608125 -0.8400125 -0.84000625v-0.56000625c0.00023125 -0.28288125 0.03335625 -0.564775 0.09870625 -0.84000625H3.23995625v11.20010625h9.52009375Z" stroke-width="0.0625"></path>
</svg>