<svg xmlns="http://www.w3.org/2000/svg" fill="context-fill" fill-opacity="context-fill-opacity" height="24" width="24" viewBox="0 0 24 24">
  <path d="M9.5 22c-0.4 0 -0.75 -0.15 -1.05 -0.45 -0.3 -0.3 -0.45 -0.65 -0.45 -1.05V9.5c0 -0.4 0.15 -0.75 0.45 -1.05 0.3 -0.3 0.65 -0.45 1.05 -0.45h11c0.4 0 0.75 0.15 1.05 0.45 0.3 0.3 0.45 0.65 0.45 1.05v11c0 0.4 -0.15 0.75 -0.45 1.05 -0.3 0.3 -0.65 0.45 -1.05 0.45H9.5Zm0 -1.5h11V9.5H9.5v11Zm-4.5 -1.9V6.5c0 -0.4 0.15 -0.75 0.45 -1.05 0.3 -0.3 0.65 -0.45 1.05 -0.45h12.1c0.2125 0 0.39065 0.07235 0.5345 0.217 0.14365 0.1445 0.2155 0.32365 0.2155 0.5375 0 0.21365 -0.07185 0.39135 -0.2155 0.533 -0.14385 0.14165 -0.322 0.2125 -0.5345 0.2125H6.5v12.1c0 0.2125 -0.07235 0.3906 -0.217 0.53425 -0.1445 0.14385 -0.32365 0.21575 -0.5375 0.21575 -0.21365 0 -0.39135 -0.0719 -0.533 -0.21575C5.07085 18.9906 5 18.8125 5 18.6Zm-3 -3V3.5c0 -0.4 0.15 -0.75 0.45 -1.05C2.75 2.15 3.1 2 3.5 2h12.1c0.2125 0 0.39065 0.072335 0.5345 0.217 0.14365 0.1445 0.2155 0.323665 0.2155 0.5375 0 0.213665 -0.07185 0.391335 -0.2155 0.533 -0.14385 0.141665 -0.322 0.2125 -0.5345 0.2125H3.5v12.1c0 0.2125 -0.072335 0.3906 -0.217 0.53425 -0.1445 0.14385 -0.323665 0.21575 -0.5375 0.21575 -0.213665 0 -0.391335 -0.0719 -0.533 -0.21575C2.070835 15.9906 2 15.8125 2 15.6Z" stroke-width="0.5"></path>
</svg>