<svg xmlns="http://www.w3.org/2000/svg" fill="context-fill" fill-opacity="context-fill-opacity" height="24" width="24" viewBox="0 0 24 24">
  <path d="M4.5 21c-0.4 0 -0.75 -0.15 -1.05 -0.45 -0.3 -0.3 -0.45 -0.65 -0.45 -1.05v-3.8c0 -0.21665 0.070835 -0.39585 0.2125 -0.5375 0.141665 -0.14165 0.320835 -0.2125 0.5375 -0.2125s0.395835 0.07085 0.5375 0.2125c0.141665 0.14165 0.2125 0.32085 0.2125 0.5375V19.5h15V5.925H4.5v3.775c0 0.21665 -0.070835 0.39585 -0.2125 0.5375 -0.141665 0.14165 -0.320835 0.2125 -0.5375 0.2125s-0.395835 -0.07085 -0.5375 -0.2125C3.070835 10.09585 3 9.91665 3 9.7V4.5c0 -0.4 0.15 -0.75 0.45 -1.05C3.75 3.15 4.1 3 4.5 3h15c0.4 0 0.75 0.15 1.05 0.45 0.3 0.3 0.45 0.65 0.45 1.05v15c0 0.4 -0.15 0.75 -0.45 1.05 -0.3 0.3 -0.65 0.45 -1.05 0.45H4.5Zm8.275 -7.55H3.75c-0.216665 0 -0.395835 -0.07085 -0.5375 -0.2125C3.070835 13.09585 3 12.91665 3 12.7c0 -0.21665 0.070835 -0.39585 0.2125 -0.5375 0.141665 -0.14165 0.320835 -0.2125 0.5375 -0.2125h9.025l-1.8 -1.825c-0.13335 -0.15 -0.20415 -0.325 -0.2125 -0.525 -0.00835 -0.2 0.0625 -0.375 0.2125 -0.525 0.15 -0.15 0.325 -0.225 0.525 -0.225s0.375 0.075 0.525 0.225l3.1 3.1c0.15 0.15 0.225 0.32915 0.225 0.5375 0 0.20835 -0.075 0.3875 -0.225 0.5375l-3.1 3.1c-0.15 0.15 -0.325 0.22085 -0.525 0.2125 -0.2 -0.00835 -0.375 -0.0875 -0.525 -0.2375 -0.15 -0.15 -0.22085 -0.32085 -0.2125 -0.5125 0.00835 -0.19165 0.07915 -0.3625 0.2125 -0.5125l1.8 -1.85Z" stroke-width="0.5"></path>
</svg>