<svg xmlns="http://www.w3.org/2000/svg" fill="context-fill" fill-opacity="context-fill-opacity" height="24" width="24" viewBox="0 0 24 24">
  <path d="M18.125 16.625H15.5c-0.2125 0 -0.3906 -0.07235 -0.53425 -0.217 -0.14385 -0.1445 -0.21575 -0.32365 -0.21575 -0.5375 0 -0.21365 0.0719 -0.39135 0.21575 -0.533 0.14365 -0.14165 0.32175 -0.2125 0.53425 -0.2125h2.625V12.5c0 -0.2125 0.07235 -0.39065 0.217 -0.5345 0.1445 -0.14365 0.32365 -0.2155 0.5375 -0.2155 0.21365 0 0.39135 0.07185 0.533 0.2155 0.14165 0.14385 0.2125 0.322 0.2125 0.5345v2.625h2.625c0.2125 0 0.39065 0.07235 0.5345 0.217 0.14365 0.1445 0.2155 0.32365 0.2155 0.5375 0 0.21365 -0.07185 0.39135 -0.2155 0.533 -0.14385 0.14165 -0.322 0.2125 -0.5345 0.2125h-2.625v2.625c0 0.2125 -0.07235 0.3906 -0.217 0.53425 -0.1445 0.14385 -0.32365 0.21575 -0.5375 0.21575 -0.21365 0 -0.39135 -0.0719 -0.533 -0.21575 -0.14165 -0.14365 -0.2125 -0.32175 -0.2125 -0.53425v-2.625ZM2.5 21c-0.4 0 -0.75 -0.15 -1.05 -0.45 -0.3 -0.3 -0.45 -0.65 -0.45 -1.05V4.125c0 -0.4 0.15 -0.75 0.45 -1.05 0.3 -0.3 0.65 -0.45 1.05 -0.45h15.375c0.4 0 0.75 0.15 1.05 0.45 0.3 0.3 0.45 0.65 0.45 1.05V9.5c0 0.2125 -0.07235 0.3906 -0.217 0.53425 -0.1445 0.14385 -0.32365 0.21575 -0.5375 0.21575 -0.21365 0 -0.39135 -0.0719 -0.533 -0.21575 -0.14165 -0.14365 -0.2125 -0.32175 -0.2125 -0.53425v-1.875H2.5V19.5h13.375c0.2125 0 0.39065 0.07235 0.5345 0.217 0.14365 0.1445 0.2155 0.32365 0.2155 0.5375 0 0.21365 -0.07185 0.39135 -0.2155 0.533 -0.14385 0.14165 -0.322 0.2125 -0.5345 0.2125H2.5Z" stroke-width="0.5"></path>
</svg>