<svg xmlns="http://www.w3.org/2000/svg" fill="context-fill" fill-opacity="context-fill-opacity" height="16" width="16" viewBox="0 0 16 16">
  <path d="M8.00018125 8.6531375v5.22654375c0.00039375 0.502925 -0.5437875 0.81768125 -0.97953125 0.5665625 -0.049725 -0.02865625 -0.09545 -0.0637375 -0.13600625 -0.1043375l-2.15105625 -2.15186875 -3.45768125 3.45850625c-0.35581875 0.35581875 -0.96339375 0.19301875 -1.09363125 -0.2930375 -0.06044375 -0.22558125 0.00405 -0.466275 0.16918125 -0.6314125l3.45850625 -3.4576875 -2.15186875 -2.15105c-0.35581875 -0.35541875 -0.19345 -0.96274375 0.29226875 -1.09318125 0.055425 -0.0148875 0.11256875 -0.0224 0.16995625 -0.02235625h5.22654375c0.36083125 -0.00001875 0.65331875 0.2924875 0.65331875 0.65331875ZM14.5333625 0.16H4.080275c-0.7216375 0 -1.3066375 0.585 -1.3066375 1.3066375v3.91990625c0 0.502925 0.54443125 0.81725625 0.979975 0.56579375 0.2021375 -0.11670625 0.3266625 -0.33238125 0.3266625 -0.56579375V1.4666375h10.4530875v10.4530875h-3.91990625c-0.502925 0.000025 -0.81725625 0.54446875 -0.565775 0.98000625 0.1167 0.2021125 0.3323875 0.326625 0.565775 0.32663125h3.91990625c0.7216375 0 1.3066375 -0.585 1.3066375 -1.3066375V1.4666375c0 -0.7216375 -0.585 -1.3066375 -1.3066375 -1.3066375Z" stroke-width="0.0625"></path>
</svg>