<!-- This Source Code Form is subject to the terms of the Mozilla Public
   - License, v. 2.0. If a copy of the MPL was not distributed with this
   - file, You can obtain one at http://mozilla.org/MPL/2.0/. -->
<svg xmlns="http://www.w3.org/2000/svg" viewBox="0 0 16 16">
  <path fill="context-fill" d="M0,11 C0,11.5522847 0.4477153,12 1,12 C1.5522847,12 2,11.5522847 2,11 C2,8.23857625 4.2385763,6 7,6 C9.05031904,6 10.81239969,7.23409522 11.58395631,9 L8.9956674,9 C8.44338266,9 7.9956674,9.44771525 7.9956674,10 C7.9956674,10.5522847 8.44338266,11 8.9956674,11 L14,11 C14.5522847,11 15,10.5522847 15,10 L15,5 C15,4.44771525 14.5522847,4 14,4 C13.4477153,4 13,4.44771525 13,5 L13,7.39241339 C11.7751028,5.35958217 9.54632514,4 7,4 C3.1340068,4 0,7.13400675 0,11 Z"/>
</svg>