<!-- This Source Code Form is subject to the terms of the Mozilla Public
   - License, v. 2.0. If a copy of the MPL was not distributed with this
   - file, You can obtain one at http://mozilla.org/MPL/2.0/. -->
<svg xmlns="http://www.w3.org/2000/svg" width="16" height="16" viewBox="0 0 16 16">
  <path fill="context-fill" fill-opacity="context-fill-opacity"
    d="M11 11 L14 9 V5 A2 2 0 0 0 12 3 H4 A2 2 0 0 0 2 5 V11 H1 A1 1 0 0 0 1 13 H8 V12 A1 1 0 0 1 9 11 Z
       M15.2 11.3 l-3.5 3.5 a.5.5 0 0 1 -.7 0 l-1.5-1.5 a.5.5 0 0 1 .7-.7 l1.1 1.1 3.1-3.1 a.5.5 0 0 1 .8.7 z"/>
</svg>