<svg xmlns="http://www.w3.org/2000/svg" fill="context-fill" fill-opacity="context-fill-opacity" viewBox="0 0 16 16" height="16" width="16">
  <path fill-rule="evenodd" d="M10.082 5.629 9.664 7H8.598l1.789 -5.332h1.234L13.402 7h-1.12l-0.419 -1.371zm1.57 -0.785L11 2.687h-0.047l-0.652 2.157z" stroke-width="1"></path>
  <path d="M12.96 14H9.028v-0.691l2.579 -3.72v-0.054H9.098v-0.867h3.785v0.691l-2.567 3.72v0.054h2.645zM4.5 2.5a0.5 0.5 0 0 0 -1 0v9.793l-1.146 -1.147a0.5 0.5 0 0 0 -0.708 0.708l2 1.999 0.007 0.007a0.497 0.497 0 0 0 0.7 -0.006l2 -2a0.5 0.5 0 0 0 -0.707 -0.708L4.5 12.293z" stroke-width="1"></path>
</svg>