<svg xmlns="http://www.w3.org/2000/svg" fill="context-fill" fill-opacity="context-fill-opacity" height="16" width="16" viewBox="0 0 16 16">
  <path d="M8.217 11.068c1.216 0 1.948 -0.869 1.948 -2.31v-0.702c0 -1.44 -0.727 -2.305 -1.929 -2.305 -0.742 0 -1.328 0.347 -1.499 0.889h-0.063V3.983h-1.29V11h1.27v-0.791h0.064c0.21 0.532 0.776 0.86 1.499 0.86zm-0.43 -1.025c-0.66 0 -1.113 -0.518 -1.113 -1.28V8.12c0 -0.825 0.42 -1.343 1.098 -1.343 0.684 0 1.075 0.518 1.075 1.416v0.45c0 0.888 -0.386 1.401 -1.06 1.401zm-5.583 1.035c0.767 0 1.201 -0.356 1.406 -0.737h0.059V11h1.216V7.519c0 -1.314 -0.947 -1.783 -2.11 -1.783C1.355 5.736 0.75 6.42 0.69 7.27h1.216c0.064 -0.323 0.313 -0.552 0.84 -0.552s0.864 0.249 0.864 0.771v0.464H2.346C1.145 7.953 0.5 8.568 0.5 9.496c0 0.977 0.693 1.582 1.704 1.582m0.42 -0.947c-0.44 0 -0.845 -0.235 -0.845 -0.718 0 -0.395 0.269 -0.684 0.84 -0.684h0.991v0.538c0 0.503 -0.444 0.864 -0.986 0.864m8.897 0.567c-0.577 -0.4 -0.9 -1.088 -0.9 -1.983v-0.65c0 -1.42 0.894 -2.338 2.305 -2.338 1.352 0 2.119 0.82 2.139 1.806h-1.187c-0.04 -0.351 -0.283 -0.776 -0.918 -0.776 -0.674 0 -1.045 0.517 -1.045 1.328v0.625c0 0.468 0.121 0.834 0.343 1.067z" stroke-width="1"></path>
  <path d="M14.469 9.414a0.75 0.75 0 0 1 0.117 1.055l-4 5a0.75 0.75 0 0 1 -1.116 0.061l-2.5 -2.5a0.75 0.75 0 1 1 1.06 -1.06l1.908 1.907 3.476 -4.346a0.75 0.75 0 0 1 1.055 -0.117" stroke-width="1"></path>
</svg>