<svg xmlns="http://www.w3.org/2000/svg" fill="context-fill" fill-opacity="context-fill-opacity" height="24" width="24" viewBox="0 0 24 24">
  <path d="M4.50007 21c-0.4125 0 -0.76558 -0.1469 -1.05925 -0.44075 -0.29383 -0.29365 -0.44075 -0.64675 -0.44075 -1.05925V5.225l-0.825 -0.825c-0.15 -0.15 -0.22083 -0.329165 -0.2125 -0.5375 0.008335 -0.208335 0.0875 -0.3875 0.2375 -0.5375 0.15 -0.15 0.32917 -0.225 0.5375 -0.225 0.208335 0 0.3875 0.075 0.5375 0.225L20.92505 21c0.15 0.15 0.225 0.325 0.225 0.525s-0.075 0.37825 -0.225 0.53475c-0.15 0.1435 -0.32915 0.21525 -0.5375 0.21525 -0.2083 0 -0.3875 -0.075 -0.5375 -0.225l-1.075 -1.05H4.50007Zm0 -1.5H17.27505L4.50007 6.7V19.5Zm15.75448 -1.375c-0.1863 0 -0.35865 -0.064 -0.517 -0.192 -0.1583 -0.12815 -0.2375 -0.31415 -0.2375 -0.558v-10.45h-9.9c-0.2073 0 -0.405 -0.04165 -0.593 -0.125 -0.188 -0.08335 -0.34865 -0.19165 -0.482 -0.325l-2.2 -2.2c-0.11665 -0.116665 -0.1833 -0.245835 -0.2 -0.3875 -0.01665 -0.141665 0 -0.279165 0.05 -0.4125 0.05 -0.133335 0.13125 -0.245835 0.24375 -0.3375 0.1125 -0.091665 0.25625 -0.1375 0.43125 -0.1375h12.65c0.4125 0 0.7657 0.146835 1.0595 0.4405 0.2937 0.293835 0.4405 0.647 0.4405 1.0595v12.875c0 0.25 -0.07765 0.4375 -0.233 0.5625 -0.1553 0.125 -0.32615 0.1875 -0.5125 0.1875Z" stroke-width="0.5"></path>
</svg>