<svg height="16" width="16" xmlns="http://www.w3.org/2000/svg">
    <linearGradient id="a" x1="57.737%" x2="19.133%" y1="0%" y2="110.029%">
        <stop offset="0" stop-color="#ab71ff"/>
        <stop offset="1" stop-color="#00b3f4"/>
    </linearGradient>
    <mask id="b" fill="#fff">
        <path d="M.5.5h16v16H.5zm12 16a4 4 0 1 0 0-8 4 4 0 0 0 0 8z" fill-rule="evenodd"/>
    </mask>
    <g fill="none" fill-rule="evenodd">
        <g fill="url(#a)" fill-rule="nonzero" mask="url(#b)" transform="translate(-.5 -.5)">
            <path d="M13.5 2.5h-4V2a.5.5 0 0 0-.5-.5H8a.5.5 0 0 0-.5.5v.5h-2a2 2 0 0 0-1.6.8L2.7 4.9a1 1 0 0 0 .8 1.6h4V15a.5.5 0 0 0 .5.5h1a.5.5 0 0 0 .5-.5V6.5h4z"/>
        </g>
        <path d="M12 14.188c-.364 0-.702-.098-1.005-.256l2.937-2.937c.158.303.255.64.255 1.005A2.188 2.188 0 0 1 12 14.188m0-4.376c.364 0 .702.098 1.005.256l-2.937 2.937A2.163 2.163 0 0 1 9.813 12c0-1.208.979-2.188 2.187-2.188M12 8.5a3.5 3.5 0 1 0 0 7 3.5 3.5 0 0 0 0-7" fill="#ed1c24"/>
    </g>
</svg>
