<svg width="4" height="22" xmlns="http://www.w3.org/2000/svg" fill="#f4f4f7" fill-opacity="context-fill-opacity">
    <path d="M3.5 21a.5.5 0 0 1 .09.992L3.5 22h-3a.5.5 0 0 1-.09-.992L.5 21h3zm0-3a.5.5 0 0 1 .09.992L3.5 19h-3a.5.5 0 0 1-.09-.992L.5 18h3zm0-3a.5.5 0 0 1 .09.992L3.5 16h-3a.5.5 0 0 1-.09-.992L.5 15h3zm0-3a.5.5 0 0 1 .09.992L3.5 13h-3a.5.5 0 0 1-.09-.992L.5 12h3zm0-3a.5.5 0 0 1 .09.992L3.5 10h-3a.5.5 0 0 1-.09-.992L.5 9h3zm0-3a.5.5 0 0 1 .09.992L3.5 7h-3a.5.5 0 0 1-.09-.992L.5 6h3zm0-3a.5.5 0 0 1 .09.992L3.5 4h-3a.5.5 0 0 1-.09-.992L.5 3h3zm0-3a.5.5 0 0 1 .09.992L3.5 1h-3A.5.5 0 0 1 .41.008L.5 0h3z"/>
</svg>
