<svg xmlns="http://www.w3.org/2000/svg" viewBox="0 0 256 256"><defs><linearGradient id="linear-gradient" x1="67.45" x2="67.29" y1="154.72" y2="155.43" gradientUnits="userSpaceOnUse"><stop offset="0" stop-color="#ff1d25" stop-opacity=".5"/><stop offset=".06" stop-color="#ff1d25" stop-opacity=".54"/><stop offset=".37" stop-color="#ff1d25" stop-opacity=".74"/><stop offset=".64" stop-color="#ff1d25" stop-opacity=".88"/><stop offset=".86" stop-color="#ff1d25" stop-opacity=".97"/><stop offset="1" stop-color="#ff1d25"/></linearGradient><linearGradient id="linear-gradient-2" x1="73.09" x2="73.09" y1="170.74" y2="153.5" gradientUnits="userSpaceOnUse"><stop offset="0" stop-color="#ffdd42"/><stop offset="1" stop-color="#fb784b"/></linearGradient><linearGradient id="linear-gradient-3" x1="201.52" x2="207.88" y1="95.13" y2="89.89" gradientUnits="userSpaceOnUse"><stop offset="0" stop-color="#5bcb99"/><stop offset="1" stop-color="#85a8e8"/></linearGradient><linearGradient id="linear-gradient-4" x1="81.17" x2="279.32" y1="158.3" y2="55.49" gradientUnits="userSpaceOnUse"><stop offset="0" stop-color="#34e28b"/><stop offset="1"/></linearGradient><linearGradient id="linear-gradient-5" x1="117.57" x2="133.15" y1="178.22" y2="178.22" gradientUnits="userSpaceOnUse"><stop offset="0" stop-color="#c297ff"/><stop offset="1" stop-color="#ae31bb"/></linearGradient><linearGradient id="linear-gradient-6" x1="54.05" x2="251.08" y1="253.29" y2="99.63" gradientUnits="userSpaceOnUse"><stop offset="0"/><stop offset="1" stop-color="#d23de2"/></linearGradient><linearGradient id="linear-gradient-7" x1="199.8" x2="191.83" y1="86.45" y2="113.37" gradientUnits="userSpaceOnUse"><stop offset="0"/><stop offset="1" stop-opacity="0"/></linearGradient><linearGradient id="linear-gradient-8" x1="126.87" x2="182.9" y1="190.63" y2="204.2" gradientUnits="userSpaceOnUse"><stop offset="0" stop-color="#2db5f9"/><stop offset="1" stop-color="#092432"/></linearGradient><linearGradient id="linear-gradient-9" x1="83.08" x2="46.06" y1="49.55" y2="151.24" gradientUnits="userSpaceOnUse"><stop offset="0"/><stop offset=".21" stop-color="#48080a"/><stop offset=".42" stop-color="#891014"/><stop offset=".61" stop-color="#bc151b"/><stop offset=".78" stop-color="#e01a21"/><stop offset=".91" stop-color="#f71c24"/><stop offset="1" stop-color="#ff1d25"/></linearGradient><style>.cls-4{fill:#f15a24}.cls-6{fill:#c1272d}</style></defs><g style="isolation:isolate"><g id="Layer_1" data-name="Layer 1"><path d="m42.28 150.4.52.82a58 58 0 0 0 9.2 10.27 45.23 45.23 0 0 0 28.74 10.25h2a67.32 67.32 0 0 0 21.13-5.26 67.38 67.38 0 0 1-9.09.83 36.92 36.92 0 0 1-27.44-12.17 66.82 66.82 0 0 1-25.06-4.74Z" style="fill:url(#linear-gradient-2)"/><path d="M80.79 80.88a45.4 45.4 0 0 1 38.89 21.94 37 37 0 0 0-35.25-8.12c8.29 4 19.66 7.08 35.28 8.15 0 0-.77-14.87-19.8-22.64-26.57-10.84-30.33-8.69-37.06-19.9a30.09 30.09 0 0 0 6 22.15 45.45 45.45 0 0 1 11.94-1.58Z" class="cls-4"/><path d="M99.92 80.21c-9.1-3.71-15.52-5.9-20.3-7.62A33.4 33.4 0 0 0 84.54 81a45.42 45.42 0 0 1 35.13 21.78 36.87 36.87 0 0 0-20.54-9.34 109 109 0 0 0 20 9.32h.59s-.78-14.76-19.8-22.55Z" style="fill:#ed1c24"/><path d="M119.69 102.85h.1c.29-1.62 2.07-14.46-12.4-25.7-21.61-16.78-25.83-18.33-26.86-27.21a27.8 27.8 0 0 0-.91 22.65c4.78 1.72 11.21 3.91 20.3 7.62 19 7.77 19.8 22.64 19.8 22.64Z" class="cls-6"/><path d="M185.28 88.22a33.64 33.64 0 0 1 22.08 8.23 29.8 29.8 0 0 1 19 8S208.22 78 176.19 89a41.72 41.72 0 0 0-8.2 4 33.64 33.64 0 0 1 17.29-4.78Z" style="fill:url(#linear-gradient-3)"/><path d="M185.28 88.22A33.62 33.62 0 0 0 168 93l.93-.56c-25.88 15.24-57.6 62.06-101.56 62.65a36.92 36.92 0 0 0 27.44 12.17 67.38 67.38 0 0 0 9.09-.83c28.6-11.79 56.09-40 68.55-53.64 11.56-12.67 24.22-17 34.91-16.34a33.64 33.64 0 0 0-22.08-8.23Z" style="fill:url(#linear-gradient-4)"/><path d="M118.48 179a20.94 20.94 0 0 0-.92 5.86 22.25 22.25 0 0 0 1 6.74 16.56 16.56 0 0 1 5.5-14.74c0-.17.09-.34.14-.51a20.37 20.37 0 0 1 8.91-11.47h-.08a37.84 37.84 0 0 0-4 1.53A20.87 20.87 0 0 0 118.48 179Z" style="fill:url(#linear-gradient-5)"/><path d="M234.26 129.11a42.41 42.41 0 0 0-7.94-24.76 29.82 29.82 0 0 0-19-7.9A33.69 33.69 0 0 1 219.06 122c0 11.34-4.12 24.3-17.45 31.28-19.42 10.16-49.21 5.33-68.54 11.6h.08a20.37 20.37 0 0 0-8.91 11.47c-.05.17-.09.34-.14.51 5.67-5 16.84-8.54 38.63-5.73 15.56 2 27.93 2.55 38.54-.5a41.2 41.2 0 0 0 25.23-17 42.41 42.41 0 0 0 7.76-24.52Z" style="fill:url(#linear-gradient-6)"/><path d="M234.26 129.11a42.41 42.41 0 0 0-7.94-24.76 29.82 29.82 0 0 0-19-7.9A33.69 33.69 0 0 1 219.06 122c0 11.34-4.12 24.3-17.45 31.28-19.42 10.16-49.21 5.33-68.54 11.6h.08a20.37 20.37 0 0 0-8.91 11.47c-.05.17-.09.34-.14.51 5.67-5 16.84-8.54 38.63-5.73 15.56 2 27.93 2.55 38.54-.5a41.2 41.2 0 0 0 25.23-17 42.41 42.41 0 0 0 7.76-24.52Z" style="opacity:.49;fill:url(#linear-gradient-7)"/><path d="M137.8 201.88a20.44 20.44 0 0 1-13.68-25.12v.08a16.56 16.56 0 0 0-5.5 14.73 20.94 20.94 0 0 0 33.63 9.38 20.37 20.37 0 0 1-14.45.93Z" style="fill:url(#linear-gradient-8)"/><path d="M144.91 200.4c2.12-6.17 9-15.7 16.33-11.34 0 0 6 3.36 7.23-6.11 0 0 4.49 22.28-17.1 21.53 0 0 4.86-3.55 4.81-7.2a24.73 24.73 0 0 1-11.27 3.12Z" style="fill:#2db5f9;mix-blend-mode:screen"/><path d="M153.52 186.75c2.14-1.09 4.16-2.18 8.08-.44 3 1.35 6.88-3.94 3.56-8.66 0 0 .21 4.88-3.72 4.84a8.81 8.81 0 0 0-7.92 4.26Z" style="fill:#5fd2ff;mix-blend-mode:screen"/><path d="M175.21 115.88c-5.17 7-12.75 12.95-13.64 14.39s1.5 6.11 5 6.45.82-1.36.52-3 1.06 1 5.27.42-1.53-2.2-1.14-4.33 4.74-6.17 6.47-10.25 4.7 0 3.18 3.18c-.6 1.26 4.81-3.54 2.08-7.21s-4.73-3.76-7.74.35Zm-14.74 15.4c-.76.73-3 2.37-3 2.37s2.19 3.05 5 3c0 0 .61-.29-.27-1.18s-1.93-3.65-1.73-4.19Z" style="fill:#219058"/><path d="M84.43 94.7c-7.35-3.56-12.27-7.88-15.54-12.24a45.42 45.42 0 0 0-26.61 67.94 66.82 66.82 0 0 0 25.09 4.67A37 37 0 0 1 84.43 94.7Z" style="fill:url(#linear-gradient-9)"/><path d="M84.52 81c2 2.91 7.81 7.94 14.63 12.44a36.87 36.87 0 0 1 20.52 9.33A45.42 45.42 0 0 0 84.52 81Z" style="fill:#f7b852"/><path d="M84.52 81c-1.23-.1-2.48-.16-3.74-.16a45.45 45.45 0 0 0-11.89 1.58c3.27 4.36 8.19 8.67 15.54 12.24a36.72 36.72 0 0 1 14.72-1.22C92.33 89 86.54 83.95 84.52 81Z" style="fill:#ff8431"/><path d="M109.73 91.38a33.29 33.29 0 0 0-12.21-7.29c2.94 5.57 5.48 7.29 12.21 7.29Z" style="fill:#f4f4f7b69"/><path d="M96.89 67.66a63.16 63.16 0 0 1 6.54 4.58c.52.39-.93-3.55-2.62-4.3a7.5 7.5 0 0 0-3.92-.28Zm8.11 5.71a70.75 70.75 0 0 1 6.5 4.64c.53.38-.9-3.56-2.57-4.33a7.5 7.5 0 0 0-3.93-.31Zm7.55 5.63a19.59 19.59 0 0 1 3.52 4.39c.26.38.07-2.58-.92-3.42a5.28 5.28 0 0 0-2.6-.97Z" class="cls-6"/><path d="M77.55 151c-.2-.65 2.35-1.48 3-1.51a11.91 11.91 0 0 1 3.57 1.19 16.34 16.34 0 0 1-4.89 1 4.46 4.46 0 0 1-1.68-.68Zm9.18-2.22c-.22-.51 1.75-1.38 2.29-1.46a9.58 9.58 0 0 1 3 .65 13.15 13.15 0 0 1-3.83 1.23 3.59 3.59 0 0 1-1.46-.42Zm7.68-2.78c-.22-.4 1.32-1.29 1.76-1.41a7.92 7.92 0 0 1 2.48.27 10.87 10.87 0 0 1-3 1.35 3 3 0 0 1-1.24-.21Zm6.11-2.81c-.23-.35 1.11-1.27 1.5-1.41a7.25 7.25 0 0 1 2.29.07 10 10 0 0 1-2.67 1.45 2.72 2.72 0 0 1-1.12-.11Zm5.71-3.12c-.22-.29.9-1.16 1.24-1.3a6.31 6.31 0 0 1 2 0 8.66 8.66 0 0 1-2.25 1.39 2.36 2.36 0 0 1-.99-.09Zm-37.89 11.62c-.11-.73 2.73-1.16 3.46-1.09a12.76 12.76 0 0 1 3.57 1.86 17.51 17.51 0 0 1-5.35.26 4.78 4.78 0 0 1-1.68-1.03Z" style="fill:#44c688"/><path d="M70.08 65.82c2 2.27 6.68 3.74 6.68 3.74a19 19 0 0 1-.93-7.56c0-.18-5.75-.09-6.73-4.81-.19-.96-1 6.36.98 8.63Z" class="cls-6"/><path d="M50.54 174.68a5.49 5.49 0 0 1 2.24-3.88l.19-.11a14 14 0 0 0-1.43-.25c-6.85-1-8.59 3.06-8.95 7.64v.78a8.31 8.31 0 0 1 7.89-4.2Z" class="cls-4"/><path d="M58.88 173.19c-6.81-4.13-10.63-4.43-12.15 7.14 0 0 7.17-5.67 10.55-1.92 3.68 4.07 8.68.32 6.05-2.06a18.77 18.77 0 0 0-4.45-3.16Z" class="cls-4"/><path d="M56.06 174.53c-3.86 2.57-3.86 8.62-3.86 8.62s7-3.81 6.5-6.19a2.93 2.93 0 0 0-2.64-2.43ZM24 127a5.49 5.49 0 0 1 4.43-.68l.2.08a14 14 0 0 0-.7-1.27c-3.49-6-7.76-4.79-11.56-2.21-.22.15-.43.31-.63.47a8.31 8.31 0 0 1 8.21 3.53Z" class="cls-4"/><path d="M31.29 134.08c-2.48-9.82-4.47-13.62-14-6.83 0 0 8.13-2.34 9.06 9.22.44 5.47 5.69 6.57 5.63 3a18.77 18.77 0 0 0-.69-5.39Z" class="cls-4"/><path d="M27.83 128.82c-4.52-1.07-8.94 3.06-8.94 3.06s6.94-.24 7.78 4c.47 2.35 1.16-7.06 1.16-7.06Z" class="cls-4"/><path d="M172.45 112.79a55.39 55.39 0 0 1 15.49-12.5c5.64-3 13.66-4.84 18.5-4.61l1.85 1.59-1-.08a37.75 37.75 0 0 0-19 3.76 55 55 0 0 0-15.84 11.84Z" style="fill:#29b36e"/><path d="M207.12 95.74a34.5 34.5 0 0 1 10.45 2.68 27.42 27.42 0 0 1 8.81 6 27.05 27.05 0 0 0-9.09-5.29 43.65 43.65 0 0 0-9-1.84l-1.84-1.59Z" style="fill:#6fd191"/><path d="M124.52 175.47a27.43 27.43 0 0 1 3.11-1.9 25.35 25.35 0 0 1 2.31-1c.78-.34 1.58-.58 2.38-.84a45.63 45.63 0 0 1 9.84-1.81 95.67 95.67 0 0 1 19.84.78 194.33 194.33 0 0 0 19.66 1.89 66.25 66.25 0 0 0 19.6-1.93 66.44 66.44 0 0 1-19.6 2.3 194.82 194.82 0 0 1-19.75-1.52 94.77 94.77 0 0 0-19.65-.41 44.43 44.43 0 0 0-9.55 1.94c-.76.27-1.53.52-2.27.85a24 24 0 0 0-2.18 1 21.38 21.38 0 0 0-3.93 2.7l-.53.47a18.42 18.42 0 0 1 .72-2.52Z" style="fill:#c83ad7"/><path d="M85.66 97.64c-6.36 1.4-5.37 6.45-5.37 6.45s2-2.43 13.09-3.74a52.36 52.36 0 0 1-7.72-2.71Z" class="cls-6"/><path d="M118.59 191.58a16.4 16.4 0 0 1-.08-4.24 18.64 18.64 0 0 1 .91-4.18 18.86 18.86 0 0 1 1.87-3.9 19.81 19.81 0 0 1 2.78-3.38l.46-.42s-.63 2-.7 2.51a19.27 19.27 0 0 0-1.61 1.93 17.84 17.84 0 0 0-3.33 7.5 16.22 16.22 0 0 0-.3 4.18Z" style="fill:#fba9ff"/><path d="M65.89 155.08c-3.61-4-6.65-10.29-7.95-16.2a36.79 36.79 0 0 1-.82-9.49l.14-2.38.33-2.36a23 23 0 0 1 .47-2.33 19.65 19.65 0 0 1 .6-2.3 35.6 35.6 0 0 1 3.83-8.64 39.45 39.45 0 0 1 2.68-3.89l1.53-1.8c.51-.6 1.1-1.13 1.64-1.69a37.2 37.2 0 0 1 7.47-5.68 39.82 39.82 0 0 1 8.62-3.62A39.67 39.67 0 0 0 76 98.56a36.78 36.78 0 0 0-7.22 5.83c-.52.57-1.08 1.11-1.56 1.71l-1.45 1.81a38.67 38.67 0 0 0-2.51 3.89 34.62 34.62 0 0 0-3.48 8.52 18.77 18.77 0 0 0-.52 2.24 21.9 21.9 0 0 0-.38 2.27l-.25 2.28-.06 2.3a35.25 35.25 0 0 0 1.06 9.07 36.17 36.17 0 0 0 8.62 15.83l.66.71s-2.47.1-3.02.06Z" style="fill:#ff737d"/><path d="M103.89 166.42a47.14 47.14 0 0 1-9.89 1.13 37.09 37.09 0 0 1-10-1.64 46.7 46.7 0 0 1-9.29-3.91 34.57 34.57 0 0 1-8.12-6.17l-.69-.74s2.38 0 3-.06a33.57 33.57 0 0 0 6.72 5.5 45.26 45.26 0 0 0 8.82 4.27 36.2 36.2 0 0 0 9.56 2.11 47.78 47.78 0 0 0 9.89-.49Z" style="fill:#fdc666"/></g></g></svg>