<svg width="256" height="140" preserveAspectRatio="xMidYMid">
  <defs>
    <linearGradient id="marko_svg__a" x1="49.911%" x2="49.911%" y1="99.908%" y2="-.09%">
      <stop offset="0%" stop-color="#8AC23E"/>
      <stop offset="100%" stop-color="#8AC23E" stop-opacity="0"/>
    </linearGradient>
    <linearGradient id="marko_svg__b" x1="49.984%" x2="49.984%" y1=".064%" y2="100.062%">
      <stop offset="0%" stop-color="#698932"/>
      <stop offset="100%" stop-color="#698932" stop-opacity="0"/>
    </linearGradient>
    <linearGradient id="marko_svg__c" x1="50.06%" x2="50.06%" y1=".064%" y2="100.062%">
      <stop offset="0%" stop-color="#FFED01"/>
      <stop offset="100%" stop-color="#FFED01" stop-opacity="0"/>
    </linearGradient>
    <linearGradient id="marko_svg__d" x1="50.017%" x2="50.017%" y1=".064%" y2="100.093%">
      <stop offset="0%" stop-color="#E02A89"/>
      <stop offset="100%" stop-color="#E02A89" stop-opacity="0"/>
    </linearGradient>
    <linearGradient id="marko_svg__e" x1="49.963%" x2="49.963%" y1="-.092%" y2="99.907%">
      <stop offset="0%" stop-color="#7F1E4F"/>
      <stop offset="100%" stop-color="#7F1E4F" stop-opacity="0"/>
    </linearGradient>
    <linearGradient id="marko_svg__f" x1="49.965%" x2="49.965%" y1="-.092%" y2="99.907%">
      <stop offset="0%" stop-color="#E95506"/>
      <stop offset="100%" stop-color="#E95506" stop-opacity="0"/>
    </linearGradient>
    <linearGradient id="marko_svg__g" x1="49.977%" x2="49.977%" y1="99.908%" y2="-.027%">
      <stop offset="0%" stop-color="#88D0F1"/>
      <stop offset="100%" stop-color="#88D0F1" stop-opacity="0"/>
    </linearGradient>
    <linearGradient id="marko_svg__h" x1="50.021%" x2="50.021%" y1=".064%" y2="99.999%">
      <stop offset="0%" stop-color="#00828B"/>
      <stop offset="83.25%" stop-color="#00828B" stop-opacity="0"/>
    </linearGradient>
    <linearGradient id="marko_svg__i" x1="50.078%" x2="50.078%" y1="99.975%" y2=".071%">
      <stop offset="0%" stop-color="#2073BA"/>
      <stop offset="100%" stop-color="#2073BA" stop-opacity="0"/>
    </linearGradient>
    <linearGradient id="marko_svg__j" x1="50.018%" x2="50.018%" y1=".064%" y2="99.999%">
      <stop offset="0%" stop-color="#8ED0E1"/>
      <stop offset="100%" stop-color="#88D0F1" stop-opacity="0"/>
    </linearGradient>
  </defs>
  <path fill="#8DC220" d="M128.1 0h36.1c-13.3 21.8-28 45.8-42.7 69.7H85.4c14.7-23.9 29.4-47.9 42.7-69.7Z"/>
  <path fill="#44BFEF" d="M42.7 0h36.1c-7.1 11.6-14.3 23.3-21.4 34.9L36.1 69.7c7.1 11.6 14.2 23.3 21.3 34.9 7.1 11.6 14.2 23.2 21.4 34.8H42.7c-7.1-11.6-14.3-23.2-21.4-34.8C14.2 93.1 7.1 81.4 0 69.8L21.3 35c7.1-11.7 14.3-23.3 21.4-35Z"/>
  <path fill="#00AC71" d="M42.7 0c14.7 24 29.4 48 42.7 69.7h36.1C108.2 48 93.5 24 78.8 0H42.7Z"/>
  <path fill="#F9BC00" d="M164.2 0h-36.1c7.1 11.6 14.2 23.3 21.4 34.9 7.1 11.6 14.2 23.2 21.4 34.8-7.1 11.6-14.3 23.3-21.4 34.9-7.1 11.6-14.2 23.2-21.4 34.8h36.1c7.1-11.6 14.2-23.2 21.4-34.8 7.1-11.6 14.2-23.2 21.4-34.9-7.2-11.6-14.3-23.2-21.4-34.8-7.1-11.6-14.3-23.2-21.4-34.9Z"/>
  <path fill="url(#marko_svg__a)" d="M149.3 24.6h-36.1c-4.6 7.5-9.2 15.1-13.8 22.6-4.6 7.5-9.2 15.1-13.9 22.6h36.1c4.6-7.5 9.3-15.1 13.9-22.6 4.5-7.6 9.1-15.1 13.8-22.6Z"/>
  <path fill="url(#marko_svg__b)" d="M100.5 45.2h36.1c4.6-7.5 9.2-15.1 13.8-22.6 4.6-7.5 9.2-15.1 13.8-22.6h-36.1c-4.6 7.5-9.2 15.1-13.8 22.6-4.6 7.6-9.2 15.1-13.8 22.6Z"/>
  <path fill="url(#marko_svg__c)" d="M191.9 45.2h-36.1c-4.6-7.5-9.3-15.1-13.9-22.6-4.6-7.5-9.2-15.1-13.8-22.6h36.1c4.6 7.5 9.2 15.1 13.8 22.6 4.7 7.6 9.3 15.1 13.9 22.6Z"/>
  <path fill="#DF1B1C" d="M213.2 0h-36.1c7.1 11.7 14.2 23.3 21.3 34.9 7.1 11.6 14.3 23.2 21.4 34.8-7.1 11.6-14.3 23.3-21.4 34.9-7.1 11.6-14.2 23.2-21.4 34.8h36.1c7.1-11.6 14.2-23.2 21.4-34.8 7.1-11.6 14.2-23.2 21.4-34.9-7.1-11.6-14.2-23.2-21.4-34.8-7-11.6-14.2-23.2-21.3-34.9Z"/>
  <path fill="url(#marko_svg__d)" d="M240.9 45.2h-36.1c-4.7-7.5-9.3-15.1-13.9-22.6-4.6-7.5-9.2-15.1-13.8-22.6h36.1c4.6 7.5 9.2 15.1 13.8 22.6 4.6 7.6 9.3 15.1 13.9 22.6Z"/>
  <path fill="url(#marko_svg__e)" d="M192.2 115h36.1c4.6-7.5 9.2-15 13.8-22.6 4.6-7.5 9.2-15.1 13.9-22.6h-36.2c-4.6 7.5-9.2 15.1-13.8 22.6-4.6 7.5-9.2 15-13.8 22.6Z"/>
  <path fill="url(#marko_svg__f)" d="M143.2 115h36.1c4.6-7.5 9.2-15.1 13.8-22.6 4.6-7.5 9.2-15.1 13.9-22.6h-36.1c-4.6 7.5-9.2 15.1-13.8 22.6-4.7 7.5-9.3 15-13.9 22.6Z"/>
  <path fill="url(#marko_svg__g)" d="M63.8 24.6H27.7c-4.6 7.5-9.2 15.1-13.8 22.6C9.2 54.7 4.6 62.3 0 69.8h36.1c4.6-7.5 9.2-15 13.8-22.6 4.6-7.5 9.2-15.1 13.9-22.6Z"/>
  <path fill="url(#marko_svg__h)" d="M15 45.2h36.1c4.6-7.5 9.2-15.1 13.8-22.6C69.6 15.1 74.2 7.5 78.8 0H42.7c-4.6 7.5-9.2 15-13.8 22.6-4.6 7.5-9.2 15.1-13.9 22.6Z"/>
  <path fill="url(#marko_svg__i)" d="M15 94.3h36.1c4.6 7.5 9.2 15.1 13.8 22.6 4.6 7.5 9.2 15.1 13.8 22.6H42.6c-4.6-7.5-9.3-15-13.9-22.6-4.5-7.5-9.1-15-13.7-22.6Z"/>
  <path fill="url(#marko_svg__j)" d="M106.5 45.2H70.4c-4.6-7.5-9.2-15.1-13.8-22.6C51.9 15.1 47.3 7.5 42.7 0h36.1c4.6 7.5 9.2 15 13.8 22.6 4.7 7.5 9.3 15.1 13.9 22.6Z"/>
</svg>
