<svg width="32" height="40">
  <path fill="#f4f4f7" d="M31.617 10.435V5.009a1.74 1.74 0 0 0-1.443-1.74L16.296.87a1.687 1.687 0 0 0-.592 0L1.87 3.288"/>
  <path fill="#1b1d24" d="M15.704.87 1.87 3.287" opacity=".5"/>
  <path fill="#FBFBFE" d="M12.878 11.635c-1.4.174-2.295 2.191-2.052 4.122.122.982.713 1.452.87 3.217 0 .174 0 .322.043.47a16.66 16.66 0 0 0 3.044-.166 5.009 5.009 0 0 1-.053-.87c.219-1.13.347-2.275.383-3.425-.226-1.757-.983-3.505-2.235-3.348zm2.052 8.487c-.84.135-1.688.202-2.539.2h-.548c.025.398.083.794.174 1.182.14.566.618 1.557 1.687 1.418a1.452 1.452 0 0 0 1.374-1.809c-.035-.348-.095-.67-.148-.991zm4.2-5.879c-1.252-.156-2.008 1.592-2.234 3.34.036 1.15.164 2.296.382 3.426.008.29-.01.581-.052.87 1.002.146 2.015.202 3.026.164v-.47c.174-1.738.765-2.234.87-3.216.295-1.922-.6-3.94-1.992-4.114zm-2.208 9.47a1.452 1.452 0 0 0 1.339 1.809c1.07.139 1.548-.87 1.687-1.418a7.07 7.07 0 0 0 .174-1.174H19.6c-.845 0-1.688-.066-2.522-.2-.06.322-.121.644-.156.983z"/>
</svg>
