<svg width="16" height="16">
  <path fill="#f4f4f7" fill-opacity="context-fill-opacity" d="M13 1H3a3 3 0 0 0-3 3v8a3 3 0 0 0 3 3h10a3 3 0 0 0 3-3V4a3 3 0 0 0-3-3zm1 11a1 1 0 0 1-1 1H3a1 1 0 0 1-1-1V4a1 1 0 0 1 1-1h10a1 1 0 0 1 1 1z"/>
  <path fill="#f4f4f7" fill-opacity="context-fill-opacity" d="m3.25 10.07 2-1.76a.49.49 0 0 1 .49-.1l1.93.67a.5.5 0 0 0 .56-.17L10 6.37a.5.5 0 0 1 .77 0l2.13 2.27A.58.58 0 0 1 13 9l.12 2.82-10 .45-.08-1.75a.53.53 0 0 1 .21-.45z"/>
  <circle cx="4.89" cy="6.14" r="1" fill="#f4f4f7"/>
</svg>
