<svg xmlns="http://www.w3.org/2000/svg" height="24" width="24" viewBox="0 0 24 24">
  <path fill="context-fill" fill-opacity="context-fill-opacity" d="M3.799805 22.00005c-0.233335 0 -0.416665 -0.07915 -0.55 -0.2375 -0.133335 -0.15835 -0.2 -0.32915 -0.2 -0.5125 0 -0.08335 0.016665 -0.17085 0.05 -0.2625 0.033335 -0.09165 0.091665 -0.17915 0.175 -0.2625l17.449995 -17.45c0.08335 -0.083335 0.17085 -0.14167 0.2625 -0.175 0.09165 -0.033335 0.17915 -0.05 0.2625 -0.05 0.18335 0 0.35415 0.066665 0.5125 0.2 0.15835 0.13333 0.2375 0.316665 0.2375 0.55v17.075c0 0.31665 -0.10835 0.58335 -0.325 0.8s-0.48335 0.325 -0.8 0.325H3.799805Z" stroke-width="0.5"></path>
</svg>