<svg width="86" height="86" viewBox="0 0 86 86" fill="none" xmlns="http://www.w3.org/2000/svg">
<g clip-path="url(#clip0_1_12)">
<path fill-rule="evenodd" clip-rule="evenodd" d="M85.4 42.7C85.4 19.1 66.3 0 42.7 0C19.1 0 0 19.1 0 42.7C0 66.3 19.1 85.4 42.7 85.4C66.3 85.4 85.4 66.3 85.4 42.7Z" fill="#428234"/>
<path fill-rule="evenodd" clip-rule="evenodd" d="M81.8 42.7C81.8 21.1 64.3 3.6 42.7 3.6C21.1 3.6 3.60001 21.1 3.60001 42.7C3.60001 64.3 21.1 81.8 42.7 81.8C64.2 81.8 81.8 64.3 81.8 42.7Z" fill="#4A9741"/>
<path fill-rule="evenodd" clip-rule="evenodd" d="M20.8 54.2L20.8 27.5C20.8 23.9 23.7 21 27.3 21H54L20.8 54.2ZM64.5 31V57.8C64.5 61.4 61.6 64.3 58 64.3H31.2L64.5 31Z" fill="#113107"/>
</g>
<defs>
<clipPath id="clip0_1_12">
<rect width="85.4" height="85.4" fill="white" transform="matrix(0 -1 1 0 0 85.4)"/>
</clipPath>
</defs>
</svg>
