<?xml version="1.0" encoding="utf-8"?>
<svg enable-background="new 0 0 85.4 85.4" viewBox="0 0 85.4 85.4" width="16" height="16" xmlns="http://www.w3.org/2000/svg">
  <g clip-rule="evenodd" fill-rule="evenodd" style="" transform="matrix(1, 0, 0, -1, 0, 85.400002)">
    <path d="m42.7 85.4c23.6 0 42.7-19.1 42.7-42.7s-19.1-42.7-42.7-42.7-42.7 19.1-42.7 42.7 19.1 42.7 42.7 42.7z" fill="#428234"/>
    <path d="m42.7 81.8c21.6 0 39.1-17.5 39.1-39.1s-17.5-39.1-39.1-39.1-39.1 17.5-39.1 39.1c0 21.5 17.5 39.1 39.1 39.1z" fill="#4a9741"/>
    <path d="m9.2 43.7h26.7c3.6 0 6.5 2.9 6.5 6.5v26.7zm67.2 -2.8h-26.8c-3.6 0-6.5-2.9-6.5-6.5v-26.8z" fill="#113107"/>
  </g>
</svg>