<svg enable-background="new 0 0 85.4 85.4" viewBox="0 0 85.4 85.4" width="16" height="16" xmlns="http://www.w3.org/2000/svg"><g clip-rule="evenodd" fill-rule="evenodd"><path d="m42.7 85.4c23.6 0 42.7-19.1 42.7-42.7s-19.1-42.7-42.7-42.7-42.7 19.1-42.7 42.7c0 23.5 19 42.7 42.7 42.7z" fill="#a67f36"/><path d="m42.7 81.7c21.6 0 39.1-17.5 39.1-39.1s-17.5-39.1-39.1-39.1-39.1 17.5-39.1 39.1c-.1 21.6 17.4 39.1 39.1 39.1z" fill="#b8923b"/><path d="m17.7 39.1h49.9c1.9 0 3.5 1.6 3.5 3.5v.1c0 1.9-1.6 3.5-3.5 3.5h-49.9c-1.9 0-3.5-1.6-3.5-3.5v-.1c0-1.9 1.6-3.5 3.5-3.5z" fill="#532a0a"/></g></svg>