<svg xmlns="http://www.w3.org/2000/svg" width="32" height="16" fill="#f4f4f7" fill-opacity="context-fill-opacity">
    <path
        d="M13.003 6v-.004a2 2 0 0 0-2-2H6.175l-1.11-.887A.506.506 0 0 0 4.753 3H3a2 2 0 0 0-2 2v6a2 2 0 0 0 2 2h9.25a1.5 1.5 0 0 0 1.44-1.079l1.169-4A1.5 1.5 0 0 0 13.419 6h-.416zM3 4h1.578l1.109.887a.5.5 0 0 0 .312.109h5.004a1 1 0 0 1 1 1V6H4.25a1.5 1.5 0 0 0-1.44 1.08L2 9.857V5a1 1 0 0 1 1-1zm.77 3.36A.5.5 0 0 1 4.25 7h9.169a.5.5 0 0 1 .48.64l-1.169 4a.5.5 0 0 1-.48.36H3.083a.5.5 0 0 1-.48-.64l1.167-4z" />
    <path
        d="m5.118 7.447-.448.616h1.232l.448-.616H5.118zM4.67 9.911h1.232l.448-.616H5.118l-.448.616zm0 1.848h1.232l.448-.616H5.118l-.448.616zm2.296-4.312-.448.616h4.312l.448-.616H6.966zm3.696 1.848H6.966l-.448.616h3.696l.448-.616zm-4.144 2.464h4.312l.448-.616H6.966l-.448.616z" />
</svg>