<svg width="32" height="16" fill="context-fill" fill-opacity="context-fill-opacity" xmlns="http://www.w3.org/2000/svg">
    <path
        d="M14.854 1.146a.5.5 0 0 0-.707 0l-4.671 4.67c-1.452-1.102-3.507-.936-4.823.374l-.684.639-2.676 1.216a.5.5 0 0 0-.147.808l6 6a.5.5 0 0 0 .81-.146l1.212-2.668.685-.685a3.668 3.668 0 0 0 .33-4.83l4.67-4.67a.5.5 0 0 0 0-.708ZM4.14 7.85l4.01 4.01-.808 1.777-4.98-4.98 1.778-.807Zm4.609 3.194-3.78-3.78.371-.347.012-.012c1.065-1.065 2.75-1.095 3.793-.05a2.67 2.67 0 0 1 0 3.792l-.396.397Z" />
</svg>