<svg xmlns="http://www.w3.org/2000/svg" width="32" height="16" fill="context-fill" fill-opacity="context-fill-opacity"><path d="m15.85 7.36-.62-2.75-1.42-2.13L10.94.55 7.46 0 5 .55l-.79.55-2 1.49-.43.53-.96 1.43-.75 2L0 9l.45 1.6.8 1.69.81 1.14 2.66 1.79.68.27 3.75.51 3.54-1.44 1.87-1.88.94-2.18.5-2.11zM5.54 14.3l-.66-.44.68.15zM7.35 1.18v.55H5.7zm4.89 2.13.31 1.52-1.35-1.46zm0-.59.33.23h-.1zM14 5.12l-1 .1-.32-1.52zM12.79 3.3H13l.4.69zm1.39 2.16-.33 3-.77-2.87zm-1.43.26.86 3.19L11.22 7zm-3.08 7.69-1.27-.73 2-1.19zm.21.42 1.28-.11-1.55.75zM3.55 5.66 4.65 8h-1.9zM3.39 5l-1.2.05 1.5-1.21zm4.09 4.81 1.21-2.06 1.67 3zm2.84 1.32-2.17 1.29-.66-2.23zM7.17 9.65 5.34 8.31l3-.65zm2.44-5.57L8.12 2.34l2.37.94zm0 .73 1 2L9 7.17zm-1 2.26L6.16 4.69l3.19-.16zm-.27.23L5.16 8l.69-3.11zm-2.64-3-1.34-.88L7 2.3zm-.83 3.37L3.78 5.3l1.73-.51zm-.14.73-.35 3.06-1.59-3.09zm.34.15 1.86 1.37-2.22 1.74zm2.05 1.66.67 2.25L4.9 12zM8 12.89l1.11.63-2.6.13zm1-5.36 1.78-.34-.16 3.27zm1-2.9 2.54.84L11 6.69zm1.15 2.7 2.5 2-2.67 1.43zM11 3l-.14-1.14L12 3zm1.29 2-2.35-.74.87-.79zm-4.1-3 2.25-.36L10.6 3zm-.49-.3v-.56l1.76.28zm1.53 2.48-3.14.16L7.54 2.2zm-2.59-2.1-2.32 1 .42-1zM5.33 4.47l-1.55.46.32-1.26zM3.86 3.23l-.76.15 1.08-.88zm-.54.47-1.14.92.38-.77zm-.13 1.68L1.7 7.56l.13-2.12zm-.93 5.15-.74-.35L1.6 9zm-.51-2.16h.58l.06 1.54zM2.43 11l.08 1-.75-1.33zm-.05-3h-.56l1.12-1.63zM4 11.57l-1.27-.79L2.71 9zm-1-.19 1.21.75-.27.87zM3.54 13l-.62-.34-.08-1zm1-.59.81 1.16-1.13-.26zm.34-.14 2.63.47-1.7.87zm1 1.8 1.65.45-1.67-.1zm.97-.07 2.64-.14-.33.77zm3.67-.57 2.05-1.19L12 13.3zm-.42-.16.75-2 1.72.52zM11.2 11l2.39-1.28-.68 1.79zm1.89 1 .37.17-.8.63zm.23-.29.79-.76-.41.94zm.14-.62L14 9.72l.4.48zm.67-1.73.52-1-.16 1.43zm.07-.9.25-2.21.29 1.16zm-13.07-.1v-.63l.14.43zm.13.4v.52l-.1-.34zm-.07-2 .24-.52-.07 1z"/></svg>