<svg data-name="icon" xmlns="http://www.w3.org/2000/svg" width="32" height="16" fill="context-fill"
    fill-opacity="context-fill-opacity">
    <path
        d="m15.85 12.15-3-3a.49.49 0 0 0-.7.7L14.29 12H9.5a.5.5 0 0 0 0 1h4.79l-2.14 2.15a.48.48 0 0 0 0 .7.48.48 0 0 0 .7 0l3-3a.36.36 0 0 0 .11-.16.5.5 0 0 0 0-.38.36.36 0 0 0-.11-.16z" />
    <path
        d="M13 1H3a3 3 0 0 0-3 3v8a3 3 0 0 0 3 3h4a1 1 0 0 0 0-2H3a1 1 0 0 1-1-1V6h12v2a1 1 0 0 0 2 0V4a3 3 0 0 0-3-3zM2 5V4a1 1 0 0 1 1-1h10a1 1 0 0 1 1 1v1z" />
</svg>