<svg xmlns="http://www.w3.org/2000/svg" width="16" height="16" fill="#f4f4f7" fill-opacity="context-fill-opacity" data-name="icon" viewBox="0 0 16 16"><path d="M15.85 12.15l-3-3a0.49 0.49 0 0 0-0.7 0.7L14.29 12H9.5a0.5 0.5 0 0 0 0 1h4.79l-2.14 2.15a0.48 0.48 0 0 0 0 0.7 0.48 0.48 0 0 0 0.7 0l3-3a0.36 0.36 0 0 0 0.11-0.16 0.5 0.5 0 0 0 0-0.38 0.36 0.36 0 0 0-0.11-0.16z"/><path d="M13 1H3a3 3 0 0 0-3 3v8a3 3 0 0 0 3 3h4a1 1 0 0 0 0-2H3a1 1 0 0 1-1-1V6h12v2a1 1 0 0 0 2 0V4a3 3 0 0 0-3-3zM2 5V4a1 1 0 0 1 1-1h10a1 1 0 0 1 1 1v1z"/></svg>