<svg xmlns="http://www.w3.org/2000/svg" width="32" height="16" viewBox="0 0 495.003 495.003"
    style="enable-background:new 0 0 495.003 495.003" xml:space="preserve">
    <g fill="context-fill" fill-opacity="context-fill-opacity">
        <path
            d="M164.711 456.687a8.007 8.007 0 0 0 4.266 7.072 7.992 7.992 0 0 0 8.245-.468l55.09-37.616-67.6-32.22v63.232zM492.431 32.443a8.024 8.024 0 0 0-5.44-2.125 7.89 7.89 0 0 0-3.5.816L7.905 264.422a14.154 14.154 0 0 0 .153 25.472L133.4 349.618l250.62-205.99-219.565 220.786 156.145 74.4a14.115 14.115 0 0 0 6.084 1.376c1.768 0 3.519-.322 5.186-.977a14.188 14.188 0 0 0 7.97-7.956l154.596-390a7.968 7.968 0 0 0-2.005-8.814z" />
    </g>
</svg>