<svg xmlns="http://www.w3.org/2000/svg" width="32" height="16" fill="context-fill" fill-opacity="context-fill-opacity"><path d="M2.951 7h-.75l-.25.25V8l.25.25h.75l.25-.25v-.75L2.951 7zM2.951 10h-.75l-.25.25V11l.25.25h.75l.25-.25v-.75l-.25-.25zM2.951 4h-.75l-.25.25V5l.25.25h.75l.25-.25v-.75L2.951 4zM13.227 5.25H5.479a.626.626 0 1 1 0-1.25h7.748a.626.626 0 1 1 0 1.25zM11.228 8.25h-5.75a.625.625 0 0 1 0-1.25h5.75a.625.625 0 0 1 0 1.25zM9.228 11.25h-3.75a.625.625 0 0 1 0-1.25h3.75a.625.625 0 0 1 0 1.25z"/></svg>