<svg xmlns="http://www.w3.org/2000/svg" width="32" height="16" fill="#f4f4f7" fill-opacity="context-fill-opacity">
    <path
        d="M5 1a.5.5 0 0 1 .462.308l2.5 6a.5.5 0 0 1-.924.384L6.333 6H3.667l-.705 1.692a.5.5 0 1 1-.923-.384l2.5-6A.5.5 0 0 1 5 1Zm0 1.8L4.083 5h1.834L5 2.8ZM3 9a.5.5 0 1 0 0 1h2.54l-2.95 4.213A.5.5 0 0 0 3 15h3.5a.5.5 0 1 0 0-1H3.96l2.95-4.213A.5.5 0 0 0 6.5 9H3Zm5.147 2.146a.5.5 0 0 1 .707 0L11 13.293V1.5a.5.5 0 1 1 1 0v11.793l2.146-2.146a.5.5 0 1 1 .708.707l-3 3a.5.5 0 0 1-.707 0l-3-3a.5.5 0 0 1 0-.708Z" />
</svg>