<svg xmlns="http://www.w3.org/2000/svg" width="16" height="16" fill="#f4f4f7" fill-opacity="context-fill-opacity"><path d="M15.727 6.545H8.273V7.81L4.336 6.604V5.382a4.713 4.713 0 0 1 3.937-2.109c1.127 0 2.145.4 2.945 1.055L13.545 2C12.127.764 10.309 0 8.272 0a7.973 7.973 0 0 0-6.95 4.034L.091 3.659v10.108L3.279 16l1.415-.843A7.987 7.987 0 0 0 8.273 16c4 0 7.636-2.909 7.636-8 0-.473-.073-.982-.182-1.455zM3.335 12.03l3.14-1.652-1.476-.668-.996-2.162 4.93 1.51v2.409l-1.838 1.095-3.384 2.016-.388.232-2.232-1.564V5.009l2.245.687-.001 6.334zm5.498.661 1.101-.656-.001-2.399h2.631c-.366 1.793-1.798 2.878-3.731 3.055z"/></svg>