<svg xmlns="http://www.w3.org/2000/svg" width="16" height="16" fill="#f4f4f7" fill-opacity="context-fill-opacity">
    <path d="M10.9 3.189s-.016-.148-.132-.148H5.241s-.115.049-.115.148v8.216s0 .166.115.166h5.527s.132-.033.132-.166V3.189z"/>
    <path d="m4.305 3.918-2.804 1.02s-.091.086-.058.179l2.81 7.72s.045.123.131.123a.117.117 0 0 0 .035-.006l1.546-.563h-.724c-.525 0-.936-.433-.936-.986V3.918zM11.616 12.96c.086 0 .131-.123.131-.123l2.81-7.72c.034-.093-.058-.179-.058-.179L11.72 3.927v7.477a.99.99 0 0 1-.752.961.843.843 0 0 1-.2.025h-.733l1.546.563a.095.095 0 0 0 .035.007z"/>
    <path d="M15.481 3.891a1.44 1.44 0 0 0-.49-.302l-2.789-1.015a1.556 1.556 0 0 0-1.433-.969H5.241c-.195 0-.385.039-.565.116a1.598 1.598 0 0 0-.845.841L1.009 3.589a1.43 1.43 0 0 0-.49.302 1.604 1.604 0 0 0-.425 1.717l2.81 7.72c.294.808 1.187 1.267 2.006.975L8 13.177l3.095 1.127c.157.056.357.091.522.091.663 0 1.244-.419 1.48-1.067l2.81-7.72a1.606 1.606 0 0 0-.426-1.717zm-.153 1.506-2.81 7.72c-.147.402-.5.663-.901.663-.096 0-.225-.023-.315-.056L8 12.523l-3.301 1.201c-.09.033-.219.056-.315.056-.401 0-.755-.26-.902-.663l-2.81-7.72A.988.988 0 0 1 .94 4.34a.821.821 0 0 1 .28-.173l3.108-1.131a.99.99 0 0 1 .59-.75.833.833 0 0 1 .323-.066h5.527c.474 0 .854.346.932.826l3.079 1.121c.104.038.2.097.281.173a.988.988 0 0 1 .268 1.057z"/>
</svg>
