<svg xmlns="http://www.w3.org/2000/svg" viewBox="0 0 600 600"><style>.svg_context{fill:context-fill;fill-opacity:context-fill-opacity}</style><path d="M285.61.23c-55.93 3.2-108.13 20.56-153.4 51.13-31.32 20.99-59.87 49.54-80.86 80.86C24.4 172.16 7.14 219.25 1.6 267.51c-1.7 14.81-1.7 49.86 0 64.45 3.73 31.96 11.61 61.36 24.18 89.8l5.01 11.29 3.2-1.7c5.22-2.66 14.27-11.82 19.6-19.81 5.33-7.99 12.04-22.48 17.26-37.39l3.41-9.59-2.13-9.05c-3.94-16.83-5.54-29.3-6.18-47.51-1.38-40.16 6.18-75.42 23.54-110.79 23.65-47.94 59.12-83.52 107.17-107.49 89.38-44.42 197.93-26.42 268.99 44.64 51.03 50.92 75.42 121.34 67.01 193.24l-1.6 14.17 5.43 16.09c2.98 8.74 6.39 20.03 7.56 24.93 2.45 10.65 2.88 11.72 9.69 20.24 4.37 5.54 14.7 14.91 19.71 17.68 2.13 1.28 12.46-27.27 17.9-49 20.13-81.71 4.58-169.27-42.72-239.48-25.67-38.14-61.15-70.84-101.84-93.85-32.07-18.22-72.87-31.64-110.04-36.11C324.28.76 296.16-.41 285.61.23z" class="svg_context"/><path d="M346.65 152.56c-2.98 1.49-10.44 12.78-10.44 15.66 0 2.45 6.6 7.46 15.77 11.93 11.08 5.33 17.47 9.48 20.13 13.1 2.02 2.77 2.13 3.62 1.17 8.31-1.92 9.16-7.67 19.71-17.26 31.85-11.08 13.85-11.82 15.13-10.87 20.24 1.38 7.03 18.43 22.9 24.61 22.9.96 0 4.15-1.28 7.14-2.77 4.15-2.13 5.97-2.56 7.67-1.7 2.24.96 13.64 18.75 19.07 29.51 5.75 11.51 32.7 74.04 35.47 82.03 2.13 6.39 2.88 10.87 2.98 17.58.11 8.31-.21 9.8-3.41 16.19-2.88 5.86-5.75 9.27-16.19 18.96-6.92 6.5-13.42 13-14.38 14.49-1.6 2.56-1.49 2.77 4.37 10.33 3.3 4.15 6.5 7.56 7.03 7.35.53-.11 7.24-2.88 14.91-6.07 25.14-10.65 42.08-14.38 64.88-14.38 16.19 0 27.06 1.6 43.57 6.39 6.18 1.7 11.51 3.2 11.82 3.2.75 0 10.55-16.83 10.55-18 0-.43-2.88-2.77-6.5-5.43-9.27-6.71-24.4-23.01-27.91-29.93-1.6-3.3-4.58-12.25-6.6-19.81-6.5-25.35-15.55-47.62-41.01-100.99-15.87-33.24-25.67-55.08-32.92-72.97-2.66-6.71-2.77-7.78-2.88-29.62l-.11-22.8-3.09-2.02c-3.94-2.56-7.67-2.56-19.07.21-16.19 3.84-47.09 2.77-63.6-2.13-10.43-3.1-11.81-3.31-14.9-1.61zm-219.13 14.17c-3.62 5.33-6.82 10.33-7.14 11.19-.32.96 3.41 2.66 12.68 5.86 7.24 2.45 14.7 5.43 16.62 6.6l3.62 2.13-.64 8.31c-.75 8.95-4.15 20.88-12.68 43.25-2.88 7.56-5.01 14.81-4.9 15.98.21 1.28 1.81 2.66 4.58 3.73 2.34.85 7.67 3.62 11.72 6.07 7.67 4.58 17.04 7.56 20.24 6.39.96-.43 3.94-5.43 6.6-11.08 8.63-18.75 9.27-18.75 26.63-1.17 20.56 21.09 32.17 38.56 43.04 64.77 12.57 30.36 20.35 58.7 30.25 109.3 4.15 21.31 4.47 26.95 2.24 35.58-.85 3.2-1.49 5.97-1.38 5.97.11.11 5.75 2.88 12.46 6.29 7.24 3.62 12.36 5.65 12.57 4.9.21-.64 2.66-4.69 5.43-8.84 6.92-10.65 18.11-21.2 35.79-33.88 8.2-5.97 16.09-11.61 17.47-12.68l2.66-1.81-1.92-6.92c-1.07-3.73-5.22-16.94-9.27-29.4-10.97-33.77-12.78-41.76-13.42-59.98-.53-13.64-.32-16.51 1.7-23.76 1.28-4.58 3.94-11.61 5.97-15.66 5.22-10.33 5.01-12.89-1.92-21.94-6.6-8.52-11.4-12.14-16.3-12.14-5.54 0-8.52 1.6-16.41 9.05-4.05 3.84-7.56 6.92-7.88 6.92-.96 0-20.56-28.34-31-44.74-12.46-19.71-22.9-38.78-32.92-59.76l-7.46-15.55-23.97-.64c-13.21-.43-35.9-1.07-50.28-1.49l-26.21-.64-6.57 9.79z" class="svg_context"/><path d="M128.16 281.57c-8.74 13.74-16.73 33.45-31 75.64-11.4 33.77-17.15 48.26-23.65 59.23-7.88 13.53-18.75 25.35-28.34 31l-5.01 2.88 5.86 9.27c3.3 5.11 6.39 9.16 7.03 8.95.64-.21 3.09-1.6 5.54-3.3 8.95-5.97 22.58-10.97 37.18-13.64 8.84-1.6 31-2.13 49.22-1.07l4.26.21.32-6.6.32-6.6-5.65-3.62c-6.29-4.05-14.27-12.14-15.77-16.19-.53-1.49-.75-3.94-.53-5.54.32-1.7 1.28-8.42 2.13-15.13 1.92-13.96 6.82-30.57 14.49-49.86 13-32.49 19.28-50.49 18.64-53.16-.64-2.24-3.2-3.94-13.74-8.95-17.78-8.63-18.1-8.63-21.3-3.52zm350.91 187.28c-17.68 3.3-21.2 4.69-30.79 12.57-31.64 25.88-71.91 43.89-112.6 50.28-15.13 2.34-43.46 3.2-58.16 1.7-17.04-1.81-36.22-5.86-51.35-10.87-26.74-8.95-56.57-25.89-78.41-44.53l-10.12-8.63-7.99-.11c-17.68-.11-24.82.32-33.88 2.13-10.55 2.24-23.76 7.35-28.55 11.19l-3.09 2.56 3.09 4.05c7.03 9.27 24.08 26.95 35.26 36.54 68.82 59.34 157.03 84.59 245.45 70.42 75.63-12.25 144.45-53.59 191.01-114.73 4.26-5.54 4.69-6.6 3.2-7.14-16.73-5.01-23.86-6.29-39.2-6.6-10.66-.22-18.65.1-23.87 1.17z" class="svg_context"/></svg>