<svg xmlns="http://www.w3.org/2000/svg" width="16" height="16" fill="#f4f4f7" fill-opacity="context-fill-opacity">
    <path d="M14.4 2.4H7.104L6.4 0H1.6C.72 0 0 .72 0 1.6V12c0 .88.72 1.6 1.6 1.6h5.6L8 16h6.4c.88 0 1.6-.72 1.6-1.6V4c0-.88-.72-1.6-1.6-1.6zM4.136 10.072a3.27 3.27 0 1 1 0-6.544 3.16 3.16 0 0 1 2.192.856l.056.048-.984.944-.048-.04a1.738 1.738 0 0 0-1.216-.472c-1.048 0-1.904.872-1.904 1.936s.856 1.936 1.904 1.936c1.096 0 1.568-.696 1.696-1.168H4.064v-1.24h3.16l.008.056c.032.168.04.32.04.488 0 1.88-1.288 3.2-3.136 3.2zM8.96 8.704c.264.48.592.944.952 1.36l-.432.424-.52-1.784zm.616-.608h-.792l-.248-.832h3.192s-.272 1.048-1.248 2.192a7.345 7.345 0 0 1-.904-1.36zM15.2 14.4c0 .44-.36.8-.8.8H8.8l1.6-1.6-.648-2.216.736-.736 2.144 2.152.584-.584-2.168-2.144c.72-.824 1.28-1.8 1.536-2.808H13.6v-.832h-2.912V5.6h-.832v.832H8.288L7.344 3.2H14.4c.44 0 .8.36.8.8v10.4z"/>
</svg>
