<svg width="16" height="16" fill="#f4f4f7" fill-opacity="context-fill-opacity">
  <path d="M4.083 10.244C3.041 8.766 2.889 6.952 3.22 2.912c2.03.164 4.325-.195 4.336-1.821C7.558.738 7.434.36 7.259 0c-2.41 1.733-5.694 1.312-5.694 1.312.025 4.348-.168 7.617 1.237 9.706 1.449 2.155 2.722 3.33 4.794 4.982l-.158-2.194c-1.513-1.243-2.381-2.179-3.355-3.562zM8.741 0c-.175.36-.299.738-.297 1.091.011 1.626 2.306 1.985 4.336 1.821.331 4.039.178 5.853-.863 7.332-.974 1.383-1.842 2.319-3.355 3.562L8.404 16c2.072-1.652 3.345-2.827 4.794-4.982 1.405-2.089 1.212-5.358 1.238-9.706-.001 0-3.285.421-5.695-1.312z"/>
  <path d="m9.291 3.717-.654 9.053c1.189-.855 1.824-1.435 2.877-3.208.773-1.301.617-4.474.641-6.004 0 0-1.193.655-2.864.159zM4.486 9.562c1.053 1.773 1.688 2.353 2.877 3.208l-.654-9.053c-1.671.496-2.864-.159-2.864-.159.024 1.529-.131 4.703.641 6.004z"/>
</svg>
