<svg xmlns="http://www.w3.org/2000/svg" width="16" height="16" fill="#f4f4f7" fill-opacity="context-fill-opacity">
    <path d="M14 0H2a2 2 0 0 0-2 2v12a2 2 0 0 0 2 2h12a2 2 0 0 0 2-2V2a2 2 0 0 0-2-2zM3.333 13.133H1V2.867h2.333v.929H1.929v8.407h1.404v.93zm.444-7.494-.211.988-.105.478-.294.066-.172-.044c-.244-1.214-.367-1.843-.367-1.888 0-.148.068-.288.203-.419.136-.131.316-.197.542-.197.116 0 .208.011.281.033a.28.28 0 0 1 .155.102.384.384 0 0 1 .06.13c.01.041.014.093.014.156 0 .053-.036.251-.106.595zm6.334 6.063L8.714 6.811 7.31 11.702H6.052L4.353 5.735H5.42l1.333 4.657 1.328-4.657H9.34l1.333 4.657 1.328-4.657h1.067l-1.699 5.968h-1.258zM15 13.134h-2.333v-.929h1.404V3.797h-1.404v-.93H15v10.267z"/>
</svg>
