<?xml version="1.0" encoding="UTF-8"?>
<!-- Generator: visioncortex VTracer 0.6.5 -->
<svg version="1.1" xmlns="http://www.w3.org/2000/svg" width="2048" height="2048">
<path d="M0 0 C1.64 4.32 3.23 8.64 4.76 13 C14.46 40.52 28.66 64.62 44.25 89.22 C45.8 91.69 47.35 94.17 48.88 96.65 C78.07 143.71 111.49 188.46 146.57 231.26 C147.86 232.83 149.14 234.41 150.43 235.98 C154.86 241.43 159.37 246.82 163.92 252.17 C166.78 255.54 169.59 258.94 172.38 262.38 C177.02 268.08 181.83 273.61 186.66 279.16 C189.88 282.85 193.07 286.58 196.25 290.31 C199.67 294.32 203.14 298.29 206.69 302.19 C209.66 305.46 212.48 308.8 215.25 312.25 C219.35 317.32 223.73 322.06 228.2 326.81 C232.22 331.1 235.95 335.56 239.62 340.16 C242.46 343.56 245.46 346.78 248.5 350 C253.13 354.91 257.47 359.95 261.69 365.22 C264.35 368.42 267.15 371.46 270 374.5 C274.48 379.28 278.68 384.21 282.79 389.32 C285.11 392.13 287.53 394.82 290 397.5 C294.01 401.87 297.79 406.37 301.52 410.98 C304.47 414.57 307.51 418.06 310.56 421.56 C314.87 426.5 319.07 431.48 323.12 436.62 C325.15 439.19 327.23 441.72 329.31 444.25 C334.12 450.11 338.8 456.06 343.46 462.03 C345.08 464.1 346.7 466.16 348.32 468.23 C356.76 479 364.95 489.93 373 501 C373.45 501.61 373.9 502.23 374.36 502.86 C382.87 514.49 391.04 526.31 399 538.31 C399.28 538.74 399.28 538.74 400.72 540.9 C409.06 553.45 417.34 566.02 425 579 C425.58 579.99 426.16 580.97 426.76 581.99 C450.28 622 471.14 663.17 489 706 C480.75 660.1 469.54 615.32 455 571 C454.78 570.34 454.57 569.68 454.34 568.99 C439.73 524.28 421.33 481.19 401.05 438.78 C400.73 438.1 400.4 437.42 400.07 436.72 C399.2 434.89 398.32 433.06 397.44 431.23 C396.09 428.19 394.99 425.17 394 422 C399.06 423.44 403.1 425.65 407.5 428.44 C407.85 428.66 407.85 428.66 409.61 429.77 C416.79 434.38 423.43 439.57 430 445 C430.54 445.44 431.07 445.88 431.63 446.33 C447.09 459 462.32 472.78 475.3 488.02 C477.28 490.33 479.33 492.57 481.38 494.81 C486.11 500.06 490.59 505.48 495 511 C495.41 511.51 495.82 512.02 496.24 512.54 C499.54 516.66 502.78 520.82 506 525 C506.5 525.64 506.99 526.29 507.5 526.95 C515.89 537.91 523.65 549.28 531.31 560.75 C531.78 561.44 532.24 562.14 532.72 562.85 C539.1 572.4 545.18 582.09 551 592 C551.53 592.89 552.06 593.79 552.6 594.71 C599.22 674.02 626.32 764.02 657 1020 C657.01 1020.49 657.01 1020.49 657.05 1022.97 C657.14 1028.65 657.1 1034.32 657 1040 C656.98 1041.22 656.96 1042.44 656.95 1043.69 C655.99 1104.91 651.32 1167.14 638 1227 C637.62 1228.72 637.24 1230.45 636.86 1232.17 C621.64 1301.01 598.59 1368.16 568.47 1431.9 C567.02 1434.97 565.58 1438.04 564.14 1441.12 C552.87 1465.11 540.28 1488.43 526.68 1511.18 C525.58 1513.03 524.48 1514.88 523.39 1516.73 C505.14 1547.63 484.68 1577.24 462.79 1605.67 C461.26 1607.66 459.74 1609.66 458.21 1611.66 C448.39 1624.55 438.08 1637.03 427.47 1649.29 C426.01 1650.99 424.56 1652.71 423.11 1654.42 C416.05 1662.77 408.67 1670.77 401.15 1678.71 C399.04 1680.96 396.95 1683.23 394.87 1685.51 C388.55 1692.41 382.05 1699.1 375.43 1705.7 C373.73 1707.39 372.05 1709.08 370.36 1710.78 C365.26 1715.88 360.16 1720.92 354.64 1725.57 C352.84 1727.14 351.17 1728.8 349.5 1730.5 C346.51 1733.54 343.38 1736.35 340.16 1739.12 C337.8 1741.17 335.49 1743.27 333.19 1745.38 C328.87 1749.27 324.43 1752.97 319.91 1756.62 C317.35 1758.72 314.82 1760.84 312.31 1762.99 C305.66 1768.67 298.86 1774.12 291.96 1779.48 C289.83 1781.13 287.72 1782.79 285.61 1784.45 C277.18 1791.06 268.69 1797.52 259.92 1803.66 C257.8 1805.14 255.7 1806.63 253.6 1808.13 C177.6 1862.04 94.2 1904.41 6 1934.32 C4.07 1934.98 2.14 1935.64 0.21 1936.29 C-70.71 1960.38 -144.65 1974.77 -219.19 1981.25 C-219.67 1981.29 -219.67 1981.29 -222.08 1981.5 C-224.86 1981.74 -227.64 1981.97 -230.42 1982.2 C-230.81 1982.24 -230.81 1982.24 -232.8 1982.4 C-248.22 1983.64 -263.62 1984.17 -279.09 1984.2 C-280.86 1984.21 -282.64 1984.22 -284.42 1984.22 C-290.07 1984.24 -295.72 1984.25 -301.38 1984.25 C-301.86 1984.25 -301.86 1984.25 -304.29 1984.25 C-332.45 1984.26 -360.48 1984.1 -388.52 1981.25 C-391.11 1980.99 -393.69 1980.74 -396.28 1980.5 C-483.51 1972.12 -569.29 1951.64 -776.46 1860.48 C-779.05 1858.97 -781.66 1857.5 -784.28 1856.03 C-813.2 1839.82 -841.24 1821.3 -867.89 1801.56 C-870.16 1799.88 -872.45 1798.22 -874.75 1796.55 C-884.52 1789.45 -894.01 1782.08 -903.32 1774.38 C-905.59 1772.52 -907.89 1770.7 -910.19 1768.88 C-915.65 1764.52 -920.97 1759.99 -926.29 1755.46 C-927.99 1754.01 -929.7 1752.56 -931.41 1751.12 C-938.28 1745.31 -944.96 1739.34 -951.5 1733.16 C-954.84 1730 -958.22 1726.9 -961.66 1723.85 C-966.68 1719.34 -971.49 1714.65 -976.26 1709.87 C-977.1 1709.04 -977.93 1708.2 -978.79 1707.34 C-980.54 1705.6 -982.29 1703.85 -984.03 1702.1 C-986.69 1699.44 -989.35 1696.78 -992.01 1694.13 C-993.72 1692.42 -995.43 1690.71 -997.14 1689 C-997.53 1688.6 -997.53 1688.6 -999.52 1686.62 C-1003.67 1682.46 -1007.66 1678.21 -1011.49 1673.75 C-1013.87 1670.99 -1016.38 1668.35 -1018.88 1665.69 C-1023.41 1660.81 -1027.69 1655.8 -1031.86 1650.6 C-1033.96 1648.05 -1036.14 1645.62 -1038.38 1643.19 C-1042.36 1638.81 -1046.02 1634.25 -1049.64 1629.58 C-1052.6 1625.77 -1055.62 1622.01 -1058.69 1618.28 C-1066.51 1608.79 -1073.81 1598.97 -1081 1589 C-1081.47 1588.35 -1081.94 1587.7 -1082.43 1587.03 C-1109.31 1549.99 -1133.08 1510.89 -1154.64 1470.55 C-1155.81 1468.35 -1157 1466.16 -1158.2 1463.98 C-1198.75 1389.74 -1226.13 1306.7 -1263 1085 C-1263.02 1084.66 -1263.02 1084.66 -1263.14 1082.95 C-1264.22 1067.11 -1264.25 1051.25 -1264.25 1035.38 C-1264.25 1034.67 -1264.25 1033.97 -1264.25 1033.24 C-1264.26 1009.05 -1263.53 985.07 -1261 961 C-1260.92 960.18 -1260.83 959.36 -1260.74 958.51 C-1253.74 890.95 -1242.82 823.07 -1223 758 C-1222.89 757.62 -1222.89 757.62 -1222.3 755.71 C-1203.56 694.39 -1177.66 634.99 -1144.74 579.92 C-1143.6 578 -1142.46 576.09 -1141.33 574.17 C-1122.04 541.53 -1099.93 510.4 -1076 481 C-1075.31 480.15 -1074.62 479.29 -1073.9 478.41 C-1065.83 468.49 -1057.63 458.7 -1049.03 449.24 C-1047.26 447.29 -1045.53 445.31 -1043.81 443.31 C-1033.38 431.42 -1022.3 420.19 -1011.12 409 C-1010.49 408.36 -1009.85 407.72 -1009.2 407.07 C-996.84 394.67 -996.84 394.67 -990.65 389.4 C-988.09 387.22 -985.65 384.92 -983.19 382.62 C-978.54 378.33 -973.75 374.26 -968.81 370.29 C-966.38 368.31 -963.99 366.28 -961.62 364.22 C-944.51 349.45 -926.08 336.32 -906.31 325.38 C-905.35 324.84 -904.4 324.31 -903.41 323.76 C-902.51 323.27 -901.61 322.78 -900.68 322.27 C-899.87 321.83 -899.07 321.4 -898.24 320.94 C-896 320 -896 320 -892 320 C-892 320.88 -892.01 321.76 -892.01 322.67 C-892.05 331.18 -892.08 339.69 -892.1 348.2 C-892.11 352.57 -892.13 356.94 -892.15 361.31 C-892.31 392.28 -891.53 423.19 -888.19 454 C-888.1 454.79 -888.02 455.58 -887.93 456.4 C-884.37 489.96 -879.31 524.78 -862.38 554.5 C-861 557 -861 557 -860 560 C-858.85 558.85 -857.7 557.7 -856.55 556.55 C-855.49 555.49 -854.43 554.44 -853.36 553.39 C-850.4 550.48 -847.56 547.54 -844.88 544.38 C-841.06 539.94 -836.91 535.88 -832.75 531.78 C-829.92 528.96 -827.18 526.14 -824.62 523.06 C-820.69 518.42 -816.16 514.41 -811.7 510.29 C-807.9 506.79 -804.19 503.24 -800.56 499.56 C-797.18 496.14 -793.71 492.9 -790.05 489.77 C-787.72 487.76 -785.46 485.7 -783.19 483.62 C-778.95 479.8 -774.59 476.15 -770.15 472.56 C-767.81 470.67 -765.5 468.75 -763.19 466.81 C-752.77 458.09 -742.03 449.93 -731 442 C-730.28 441.48 -729.57 440.96 -728.83 440.43 C-700.23 419.79 -669.96 401.42 -638.12 386.19 C-637.23 385.76 -636.34 385.33 -635.42 384.89 C-629.26 382 -629.26 382 -627 382 C-627.11 382.55 -627.22 383.1 -627.33 383.67 C-627.68 385.4 -628.03 387.13 -628.37 388.86 C-628.81 391.03 -629.24 393.2 -629.68 395.38 C-636.33 428.56 -640.42 461.1 -640.31 495 C-640.31 496.2 -640.31 497.41 -640.31 498.65 C-640.26 517.28 -639.67 535.54 -637 554 C-636.83 555.21 -636.67 556.41 -636.5 557.66 C-635.44 565.18 -634.19 572.64 -632.75 580.1 C-632.23 582.8 -631.73 585.5 -631.27 588.22 C-626.52 615.26 -626.52 615.26 -617.93 622.38 C-615.04 624.39 -612.09 626.18 -609.01 627.86 C-606.14 629.49 -603.7 631.5 -601.19 633.62 C-600.76 633.98 -600.76 633.98 -598.59 635.78 C-594.21 639.54 -589.97 643.44 -585.75 647.37 C-584.02 648.98 -582.29 650.58 -580.55 652.19 C-569.76 662.19 -559.36 672.55 -549 683 C-545.77 686.25 -542.54 689.5 -539.31 692.75 C-538.59 693.48 -537.88 694.2 -537.14 694.95 C-517.59 714.59 -494.56 730.6 -471 745 C-470.2 745.49 -469.41 745.98 -468.59 746.48 C-438.05 765.15 -406.45 781.9 -374.41 797.82 C-373.49 798.28 -372.56 798.74 -371.6 799.22 C-362.99 803.5 -354.37 807.77 -345.74 812.03 C-340.95 814.4 -336.17 816.77 -331.39 819.15 C-329.6 820.04 -327.8 820.93 -326.01 821.82 C-316.89 826.31 -308.05 830.71 -300 837 C-302.62 854.49 -316.69 868.74 -328.41 881.22 C-330.71 883.68 -332.92 886.2 -335.12 888.75 C-345.05 899.8 -356.29 909.88 -368 919 C-368.99 919.8 -369.98 920.59 -371 921.41 C-384.51 932.18 -400.73 944.88 -418.59 945.25 C-419.93 945.28 -421.27 945.31 -422.61 945.34 C-422.96 945.35 -422.96 945.35 -424.74 945.39 C-487.78 946.82 -551.57 955.65 -609 983 C-609.78 983.37 -610.56 983.73 -611.37 984.11 C-629.79 992.81 -647.21 1003.09 -663 1016 C-663.88 1016.69 -664.76 1017.38 -665.67 1018.09 C-671.43 1022.66 -676.86 1027.55 -682.25 1032.56 C-682.58 1032.87 -682.58 1032.87 -684.26 1034.42 C-698.51 1047.84 -710.55 1063.9 -720 1081 C-720.35 1081.63 -720.71 1082.25 -721.07 1082.89 C-723.18 1086.64 -725.19 1090.42 -727.11 1094.27 C-727.92 1095.85 -728.81 1097.39 -729.71 1098.92 C-741.38 1121.84 -724.26 1164.45 -716.92 1187.38 C-703.62 1227.74 -683.37 1265.63 -657 1299 C-656.36 1299.82 -655.73 1300.63 -655.07 1301.47 C-637.99 1323.12 -619.1 1345.28 -597.28 1362.22 C-595.04 1363.97 -592.96 1365.82 -590.88 1367.75 C-568.79 1387.56 -542.9 1403.81 -516.92 1417.95 C-514.99 1419.01 -513.07 1420.08 -511.15 1421.16 C-423 1470.03 -310.82 1477.54 -183.52 1450.02 C-138.15 1436.84 -95.77 1416.54 -58 1388 C-57.35 1387.51 -56.71 1387.03 -56.04 1386.52 C-48.96 1381.15 -42.2 1375.55 -35.7 1369.48 C-33.56 1367.52 -31.4 1365.61 -29.21 1363.72 C-24.82 1359.89 -20.67 1355.87 -16.56 1351.75 C-15.82 1351 -15.07 1350.25 -14.3 1349.48 C-9.6 1344.73 -5.21 1339.91 -1.09 1334.64 C0.83 1332.21 2.83 1329.87 4.87 1327.53 C53.34 1271.62 80.9 1197.49 91 1125 C91.17 1123.82 91.33 1122.65 91.5 1121.44 C104.96 1020.81 78.98 912.42 17.63 831.13 C10.35 821.62 2.72 812.47 -5.47 803.71 C-7.77 801.25 -9.98 798.73 -12.19 796.19 C-21.78 785.51 -32.68 775.81 -44 767 C-44.6 766.52 -45.21 766.05 -45.83 765.56 C-66.87 748.98 -89.21 735.24 -113 723 C-112.67 722.34 -112.34 721.68 -112 721 C-46.03 702.64 38.65 729.67 95.54 761.73 C102.45 765.67 109.28 769.74 116 774 C104.7 755.26 92.66 737.12 79 720 C78.5 719.37 77.99 718.73 77.47 718.08 C71.34 710.38 65.12 702.83 58.41 695.62 C56.56 693.6 54.77 691.56 52.99 689.47 C48.31 684.11 43.27 679.12 38.23 674.1 C36.57 672.44 34.91 670.78 33.25 669.11 C27.67 663.53 22.04 658.08 16 653 C14.94 652.09 13.89 651.18 12.83 650.26 C-58.02 589.86 -144.77 550.66 -266 535 C-266.41 534.96 -266.41 534.96 -268.51 534.78 C-343.26 528.58 -420.02 543.63 -488.46 573.59 C-492.1 575.18 -495.74 576.76 -499.41 578.29 C-500.18 578.6 -500.94 578.92 -501.73 579.25 C-508.57 581.5 -515.22 580.27 -521.67 577.39 C-527.79 573.73 -532.07 567.81 -534 561 C-534.87 552.16 -534.07 545.22 -528.82 538.01 C-526.05 534.78 -522.83 532.96 -519 531.19 C-518.31 530.86 -517.61 530.52 -516.9 530.18 C-514.61 529.1 -512.31 528.05 -510 527 C-509.6 526.82 -509.6 526.82 -507.61 525.91 C-454.69 502.01 -388.7 481.71 -330 484 C-329.89 483.16 -329.78 482.33 -329.67 481.47 C-328.45 472.54 -326.88 463.75 -325 454.94 C-324.85 454.24 -324.7 453.54 -324.55 452.82 C-318.07 422.59 -309.25 393.15 -299 364 C-298.57 362.77 -298.13 361.53 -297.69 360.26 C-284.97 324.34 -269.32 288.77 -250.47 255.6 C-248.92 252.85 -247.39 250.09 -245.86 247.32 C-238.41 233.88 -230.4 220.87 -222 208 C-221.6 207.39 -221.21 206.78 -220.8 206.16 C-200.11 174.32 -176.34 144.29 -150.44 116.55 C-148.18 114.12 -145.97 111.65 -143.75 109.19 C-139.22 104.24 -134.55 99.44 -129.81 94.69 C-129.16 94.03 -128.51 93.37 -127.83 92.69 C-123.99 88.86 -120.04 85.23 -115.93 81.69 C-112.94 79.08 -110.07 76.35 -107.19 73.62 C-101.33 68.15 -95.27 63.01 -89 58 C-87.81 57.02 -86.62 56.04 -85.43 55.05 C-62.64 36.23 -38.24 19.37 -13 4 C-12.68 3.8 -12.68 3.8 -11.03 2.79 C-7.11 0.45 -4.6 -0.45 0 0 Z " fill="#a230e8" transform="translate(1328,0)"/>
<path d="M0 0 C2 1 2 1 2 1 Z " fill="#a230e8" transform="translate(529,486)"/>
<path d="" fill="#a230e8" transform="translate(0,0)"/>
<path d="" fill="#a230e8" transform="translate(0,0)"/>
</svg>
