<svg width="64" height="64" viewBox="0 0 16 16">
  <path fill="#F4f4f7" stroke="#000" stroke-width=".1" d="M15.952 7.315c0-.145-.046-.23-.046-.23s-.057.065-.155.19a5.25 5.25 0 0 0-.19-1 6.811 6.811 0 0 0-.486-1.21 5.006 5.006 0 0 0-.444-.735l-.18-.28c-.295-.465-.635-.75-1.033-1.29a3.84 3.84 0 0 1-.516-1.345c-.108.286-.19.58-.247.88-.403-.395-.754-.675-.966-.865C10.657.5 10.776 0 10.776 0S8.83 2.105 9.672 4.3a4.23 4.23 0 0 0 1.45 1.87c.815.65 1.693 1.165 2.157 2.5A4.258 4.258 0 0 0 11.653 7c.208.474.313.985.31 1.5a3.529 3.529 0 0 1-1.381 2.807 3.775 3.775 0 0 1-3.13.693 3.47 3.47 0 0 1-.913-.3 3.67 3.67 0 0 1-1.094-1h.067c.152.05.307.091.464.12a2.996 2.996 0 0 0 1.853-.21c.583-.315.934-.545 1.223-.455.279.085.516-.175.3-.45a1.574 1.574 0 0 0-1.476-.555c-.584.08-1.12.5-1.884.095l-.145-.08c-.051-.03.166.045.114 0a3.82 3.82 0 0 1-.48-.28s.114.035.103.025a1.825 1.825 0 0 1-.516-.5.85.85 0 0 1-.036-.78.703.703 0 0 1 .31-.285l.16.085-.067-.12c.087.035.278.13.376.19a.51.51 0 0 1 .176.15s.036 0 0-.085a.459.459 0 0 0-.18-.21c.077.039.151.084.221.135.089-.133.145-.283.165-.44a.573.573 0 0 0-.036-.25c-.026-.05 0-.07.062 0a.49.49 0 0 0-.041-.12l.041-.045a.734.734 0 0 1 .114-.09c.241-.145.495-.27.758-.375l.429-.18c.053-.035.103-.073.15-.115a.994.994 0 0 0 .34-.57.77.77 0 0 0 0-.09c-.031-.115-.232-.195-1.28-.295a.907.907 0 0 1-.748-.68l-.042.115.042-.115c.2-.507.562-.94 1.032-1.235H6.93c.09-.043.18-.082.274-.115.046 0-.202-.11-.423-.09a1.166 1.166 0 0 0-.393.09c.052-.045.207-.1.17-.1-.28.026-.554.097-.81.21a.15.15 0 0 1 0-.07 1.241 1.241 0 0 0-.516.375.625.625 0 0 0 0-.085c-.09.066-.17.141-.242.225a3.35 3.35 0 0 0-1.822-.15 1.518 1.518 0 0 1-.325-.35 1.656 1.656 0 0 1-.124-.195l-.093-.17s0 .055-.03.04a2.1 2.1 0 0 1-.145-.845.95.95 0 0 0-.372.47c-.03.07-.052.105-.072.145-.02.04 0-.105 0-.1a.869.869 0 0 0-.13.185 1.163 1.163 0 0 0-.077.19V2.58a4.65 4.65 0 0 0-.418 1.5c-.008.09-.008.18 0 .27a3.33 3.33 0 0 0-.423.55 7.69 7.69 0 0 0-.898 2.13 5.14 5.14 0 0 1 .454-.815A7.293 7.293 0 0 0 0 8.97c.061-.276.139-.548.232-.815A6.739 6.739 0 0 0 .878 11.4a7.623 7.623 0 0 0 3.096 3.385 6.836 6.836 0 0 0 1.796.835l.258.085-.077-.035a8.37 8.37 0 0 0 2.307.33c2.792 0 3.715-1.03 3.798-1.135.138-.12.25-.267.33-.43l.165-.07h.036l.062-.03a5.88 5.88 0 0 0 1.177-.715 2.755 2.755 0 0 0 1.1-1.555.942.942 0 0 0 0-.715l.087-.14c.6-.937.94-2.008.986-3.11v-.09a3.761 3.761 0 0 0-.047-.695Z"/>
</svg>
