<svg xmlns="http://www.w3.org/2000/svg" width="24" height="24"><path fill="#008EA4" fill-opacity=".989" d="M12,24L12,24C5.4,24,0,18.6,0,12l0,0C0,5.4,5.4,0,12,0l0,0c6.6,0,12,5.4,12,12l0,0 C24,18.6,18.6,24,12,24z"/><g><circle cx="12" cy="6" r="2" fill="#f4f4f7"/><path fill="#f4f4f7" d="M18.1,8.5h-3.6l0,0h-5l0,0H6c-0.6,0-1,0.4-1,1s0.4,1,1,1h3.5v0.6l0,0v7.8c0,0.6,0.4,1.1,1,1.1s1-0.5,1-1.1 v-4.1h1v4.1c0,0.6,0.4,1.1,1,1.1s1-0.5,1-1.1v-4.1l0,0v-4.5H18c0.6,0,1-0.4,1-1C19,8.8,18.6,8.5,18.1,8.5z"/></g></svg>