<svg width="16" height="16" fill="#f4f4f7" fill-opacity="context-fill-opacity" viewBox="0 0 18 18">
  <path d="M3.52 5.367a2.43 2.43 0 0 0-2.422 2.422v2.422a2.43 2.43 0 0 0 2.422 2.422h1.516l4.102 3.633V1.735L5.035 5.367H3.52zM12.059 9c0-.727-.484-1.211-1.211-1.211v2.422c.726 0 1.211-.484 1.211-1.211zm2.421 0a3.636 3.636 0 0 0-2.785-3.512l-.363 1.09A2.475 2.475 0 0 1 13.27 9c0 1.211-.848 2.18-1.938 2.422l.484 1.09C13.27 12.148 14.48 10.695 14.48 9zm-1.937-5.812-.484 1.09c2.179.605 3.632 2.542 3.632 4.722 0 2.18-1.453 4.117-3.512 4.601l.484 1.09c2.422-.605 4.238-2.906 4.238-5.691.001-2.785-1.815-5.086-4.358-5.812z"/>
</svg>
