<svg width="32" height="32">
  <circle cx="16" cy="16" r="14" fill="#f9f9fa" fill-opacity=".8"/>
  <path fill="#1B1D24" fill-opacity=".6" d="M16 31a15 15 0 1 1 15-15 15.017 15.017 0 0 1-15 15zm0-29a14 14 0 1 0 14 14A14.016 14.016 0 0 0 16 2z"/>
  <path fill="#1B1D24" fill-opacity=".8" d="M10.707 11.293a1 1 0 0 0-1.414 0l-4 4a1 1 0 0 0 0 1.414l4 4a1 1 0 0 0 1.414-1.414L7.414 16l3.293-3.293a1 1 0 0 0 0-1.414zm16 4-4-4a1 1 0 0 0-1.414 1.414L24.586 16l-3.293 3.293a1 1 0 1 0 1.414 1.414l4-4a1 1 0 0 0 0-1.414z"/>
  <circle cx="16" cy="16" r="2" fill="#1B1D24" fill-opacity=".6"/>
</svg>
