<svg height="32" width="32" xmlns="http://www.w3.org/2000/svg">
    <circle cx="16" cy="16" fill="#f9f9fa" fill-opacity=".8" r="14"/>
    <g fill="#0c0c0d">
        <path d="M16 31a15 15 0 1 1 15-15 15.017 15.017 0 0 1-15 15zm0-29a14 14 0 1 0 14 14A14.016 14.016 0 0 0 16 2z" fill-opacity=".6"/>
        <path d="M10.707 11.293a1 1 0 0 0-1.414 0l-4 4a1 1 0 0 0 0 1.414l4 4a1 1 0 0 0 1.414-1.414L7.414 16l3.293-3.293a1 1 0 0 0 0-1.414zm16 4-4-4a1 1 0 0 0-1.414 1.414L24.586 16l-3.293 3.293a1 1 0 1 0 1.414 1.414l4-4a1 1 0 0 0 0-1.414z" fill-opacity=".8"/>
        <circle cx="16" cy="16" fill-opacity=".6" r="2"/>
    </g>
</svg>
