<svg viewBox="0 0 76.8 76.8">
  <linearGradient id="avatar-color_svg__a" x1="-92.971" x2="-32.8" y1="81.79" y2="146.09"
    gradientTransform="matrix(1.3333 0 0 -1.3333 118.867 193.933)" gradientUnits="userSpaceOnUse">
    <stop offset=".26" stop-color="#f4f4f7" />
    <stop offset=".76" stop-color="#d5d5d6" />
  </linearGradient>
  <circle cx="38.4" cy="38.4" r="32.7" fill="#fbfbfe00" />
  <path fill="url(#avatar-color_svg__a)"
    d="M38.4 0C17.2 0 0 17.2 0 38.4s17.2 38.4 38.4 38.4 38.4-17.2 38.4-38.4S59.6 0 38.4 0zm0 11c9.1 0 16.5 7.4 16.5 16.5S47.5 44 38.4 44s-16.5-7.4-16.5-16.5c0-9.2 7.4-16.5 16.5-16.5zM61 53.8c-8.4 12.5-25.3 15.8-37.7 7.4-2.9-2-5.5-4.5-7.4-7.4-1.4-2.1-1.2-4.8.4-6.7 5.8-6.7 13.8 2.3 22.2 2.3s16.4-9 22.2-2.3c1.5 1.9 1.7 4.6.3 6.7z" />
</svg>