<svg xmlns="http://www.w3.org/2000/svg" xmlns:xlink="http://www.w3.org/1999/xlink" width="16" height="16"><defs><path id="a" d="M.5.5h16v16H.5V.5zm12 8a4 4 0 1 0 0-8 4 4 0 0 0 0 8z"/><linearGradient id="c" x1="52.946%" x2="6.481%" y1="0%" y2="114.055%"><stop offset="0%" stop-color="#7542E5"/><stop offset="100%" stop-color="#0060DF"/></linearGradient></defs><g fill="#f4f4f7" fill-rule="evenodd"><g transform="translate(-.5 -.5)"><mask id="b" fill="#f4f4f7"><use xlink:href="#a"/></mask><g fill="url(#c)" fill-rule="nonzero" mask="url(#b)"><path d="M8 1a7 7 0 0 1 7 7 10.18 10.18 0 0 1-1.37 5.21A3.91 3.91 0 0 0 13 15a1 1 0 0 1-2 0c.054-.965.35-1.9.86-2.72A8.24 8.24 0 0 0 13 8 5 5 0 0 0 3 8a1 1 0 1 1-2 0 7 7 0 0 1 7-7zm0 3a4 4 0 0 1 4 4 8.84 8.84 0 0 1-2.11 6.01 9.74 9.74 0 0 0-1 1.44A1 1 0 0 1 8 16a.93.93 0 0 1-.45-.11 1 1 0 0 1-.44-1.34 11 11 0 0 1 1.15-1.75A6.88 6.88 0 0 0 10 8a2 2 0 1 0-4 0 4 4 0 0 1-4 4 1 1 0 0 1 0-2 2 2 0 0 0 2-2 4 4 0 0 1 4-4zm0 3a1 1 0 0 1 1 1c0 5.66-6.41 7.86-6.68 8A1.25 1.25 0 0 1 2 16a1 1 0 0 1-.32-1.95C1.74 14 7 12.21 7 8a1 1 0 0 1 1-1z"/></g></g><path fill="#ED1C24" d="M12 6.188c-.364 0-.702-.098-1.005-.256l2.937-2.937c.158.303.255.64.255 1.005 0 1.208-.979 2.188-2.187 2.188m0-4.375c.364 0 .702.097 1.005.255l-2.937 2.937A2.163 2.163 0 0 1 9.813 4c0-1.208.979-2.188 2.187-2.188M12 .5a3.5 3.5 0 1 0 0 7 3.5 3.5 0 0 0 0-7"/></g></svg>