<svg width="660" height="33">
  <svg>
    <defs>
      <mask id="bookmark-animation_svg__b" mask-type="alpha">
        <path fill="#1b1d24" d="M16.352 17.593z"/>
      </mask>
      <mask id="bookmark-animation_svg__a" mask-type="alpha">
        <path fill="#1b1d24" d="M16.463 17.517z"/>
      </mask>
    </defs>
    <path fill="#f4f4f7" stroke="#f4f4f7" stroke-linecap="round" stroke-linejoin="round" stroke-width="1.584" d="m16.457 9.307 1.71 3.363.722 1.422 1.57.267 3.653.624-2.66 2.897-1.03 1.12.23 1.506.587 3.824-3.32-1.762-1.496-.792-1.49.8-3.225 1.73.584-3.798.233-1.514-1.043-1.124-2.676-2.882 3.718-.624 1.613-.272.713-1.472 1.606-3.31"/>
    <g fill="#f4f4f7" mask="url(#bookmark-animation_svg__a)">
      <path d="m16.456 9.271 1.716 3.376.725 1.427 1.577.269 3.666.626-2.67 2.907-1.033 1.125.23 1.512.589 3.838-3.333-1.768-1.5-.796-1.496.803-3.238 1.737.586-3.813.234-1.52-1.047-1.128-2.686-2.892 3.732-.627 1.619-.273.716-1.477 1.612-3.324"/>
      <path stroke="#1b1d24" stroke-linecap="round" stroke-linejoin="round" stroke-width="1.59" d="m16.456 9.271 1.716 3.376.725 1.427 1.577.269 3.666.626-2.67 2.907-1.033 1.125.23 1.512.589 3.838-3.333-1.768-1.5-.796-1.496.803-3.238 1.737.586-3.813.234-1.52-1.047-1.128-2.686-2.892 3.732-.627 1.619-.273.716-1.477 1.612-3.324"/>
    </g>
    <g fill="#f4f4f7" mask="url(#bookmark-animation_svg__b)" opacity=".08">
      <path fill-opacity="context-fill-opacity" d="m16.502 10.083 2.255 4.57 5.044.734-3.65 3.557.862 5.023-4.511-2.371-4.512 2.371.862-5.023-3.65-3.557 5.044-.733 2.256-4.57z"/>
      <path d="m16.502 10.083 2.255 4.57 5.044.734-3.65 3.557.862 5.023-4.511-2.371-4.512 2.371.862-5.023-3.65-3.557 5.044-.733 2.256-4.57z"/>
    </g>
  </svg>
  <svg x="33">
    <defs>
      <mask id="bookmark-animation_svg__d" mask-type="alpha">
        <path fill="#1b1d24" d="M9.957 11.594h12.8v9.6h-12.8z"/>
      </mask>
      <mask id="bookmark-animation_svg__c" mask-type="alpha">
        <path fill="#1b1d24" d="M10.127 12.218h12.8v9.6h-12.8z"/>
      </mask>
    </defs>
    <path fill="#f4f4f7" stroke="#f4f4f7" stroke-linecap="round" stroke-linejoin="round" stroke-width="1.584" d="m16.457 9.307 1.71 3.363.722 1.422 1.57.267 3.653.624-2.66 2.897-1.03 1.12.23 1.506.587 3.824-3.32-1.762-1.496-.792-1.49.8-3.225 1.73.584-3.798.233-1.514-1.043-1.124-2.676-2.882 3.718-.624 1.613-.272.713-1.472 1.606-3.31"/>
    <g fill="#f4f4f7" mask="url(#bookmark-animation_svg__c)">
      <path d="m16.457 9.283 1.712 3.37.724 1.425 1.575.268 3.66.626-2.665 2.902-1.032 1.124.23 1.509.588 3.831-3.328-1.765-1.498-.794-1.493.802-3.233 1.734.585-3.807.233-1.517-1.045-1.127-2.681-2.887 3.726-.626 1.616-.272.715-1.476 1.609-3.318"/>
      <path stroke="#1b1d24" stroke-linecap="round" stroke-linejoin="round" stroke-width="1.587" d="m16.457 9.283 1.712 3.37.724 1.425 1.575.268 3.66.626-2.665 2.902-1.032 1.124.23 1.509.588 3.831-3.328-1.765-1.498-.794-1.493.802-3.233 1.734.585-3.807.233-1.517-1.045-1.127-2.681-2.887 3.726-.626 1.616-.272.715-1.476 1.609-3.318"/>
    </g>
    <g mask="url(#bookmark-animation_svg__d)" opacity=".08">
      <path fill="#1b1d24" d="m16.502 10.094 2.252 4.563 5.036.732-3.644 3.552.86 5.015-4.504-2.368-4.504 2.368.86-5.015-3.644-3.552 5.036-.732 2.252-4.563z"/>
      <path fill="#f4f4f7" d="m16.502 10.094 2.252 4.563 5.036.732-3.644 3.552.86 5.015-4.504-2.368-4.504 2.368.86-5.015-3.644-3.552 5.036-.732 2.252-4.563z"/>
    </g>
  </svg>
  <svg x="66">
    <defs>
      <mask id="bookmark-animation_svg__f" mask-type="alpha">
        <path fill="#1b1d24" d="M3.562 5.594h25.6v19.2h-25.6z"/>
      </mask>
      <mask id="bookmark-animation_svg__e" mask-type="alpha">
        <path fill="#1b1d24" d="M3.791 6.92h25.6v19.2h-25.6z"/>
      </mask>
    </defs>
    <path fill="#f4f4f7" stroke="#f4f4f7" stroke-linecap="round" stroke-linejoin="round" stroke-width="1.584" d="m16.457 9.307 1.71 3.363.722 1.422 1.57.267 3.653.624-2.66 2.897-1.03 1.12.23 1.506.587 3.824-3.32-1.762-1.496-.792-1.49.8-3.225 1.73.584-3.798.233-1.514-1.043-1.124-2.676-2.882 3.718-.624 1.613-.272.713-1.472 1.606-3.31"/>
    <g fill="#f4f4f7" mask="url(#bookmark-animation_svg__e)">
      <path d="m16.457 9.308 1.708 3.359.721 1.42 1.569.267 3.649.624-2.657 2.892-1.029 1.12.23 1.504.585 3.819-3.316-1.76-1.493-.791-1.488.799-3.223 1.729.584-3.794.232-1.513-1.041-1.123-2.673-2.878 3.714-.624 1.61-.27.713-1.471 1.604-3.307"/>
      <path stroke="#1b1d24" stroke-linecap="round" stroke-linejoin="round" stroke-width="1.582" d="m16.457 9.308 1.708 3.359.721 1.42 1.569.267 3.649.624-2.657 2.892-1.029 1.12.23 1.504.585 3.819-3.316-1.76-1.493-.791-1.488.799-3.223 1.729.584-3.794.232-1.513-1.041-1.123-2.673-2.878 3.714-.624 1.61-.27.713-1.471 1.604-3.307"/>
    </g>
    <g mask="url(#bookmark-animation_svg__f)" opacity=".387">
      <path fill="#1b1d24" d="m16.502 10.116 2.245 4.548 5.019.729-3.632 3.54.858 4.999-4.49-2.36-4.489 2.36.858-4.999-3.632-3.54 5.019-.73 2.244-4.547z"/>
      <path fill="#f4f4f7" d="m16.502 10.116 2.245 4.548 5.019.729-3.632 3.54.858 4.999-4.49-2.36-4.489 2.36.858-4.999-3.632-3.54 5.019-.73 2.244-4.547z"/>
    </g>
  </svg>
  <svg x="99">
    <defs>
      <mask id="bookmark-animation_svg__h" mask-type="alpha">
        <path fill="#1b1d24" d="M-2.833-.405h38.4v28.8h-38.4z"/>
      </mask>
      <mask id="bookmark-animation_svg__g" mask-type="alpha">
        <path fill="#1b1d24" d="M-2.545 1.62h38.4v28.8h-38.4z"/>
      </mask>
    </defs>
    <path fill="#f4f4f7" stroke="#f4f4f7" stroke-linecap="round" stroke-linejoin="round" stroke-width="1.584" d="m16.457 9.307 1.71 3.363.722 1.422 1.57.267 3.653.624-2.66 2.897-1.03 1.12.23 1.506.587 3.824-3.32-1.762-1.496-.792-1.49.8-3.225 1.73.584-3.798.233-1.514-1.043-1.124-2.676-2.882 3.718-.624 1.613-.272.713-1.472 1.606-3.31"/>
    <g fill="#f4f4f7" mask="url(#bookmark-animation_svg__g)">
      <path d="m16.458 9.336 1.7 3.347.72 1.414 1.562.266 3.635.621-2.646 2.882-1.025 1.115.229 1.498.583 3.804-3.304-1.752-1.487-.789-1.482.796-3.21 1.722.58-3.78.233-1.506-1.038-1.118-2.662-2.867 3.699-.622 1.604-.27.71-1.464 1.598-3.295"/>
      <path stroke="#1b1d24" stroke-linecap="round" stroke-linejoin="round" stroke-width="1.576" d="m16.458 9.336 1.7 3.347.72 1.414 1.562.266 3.635.621-2.646 2.882-1.025 1.115.229 1.498.583 3.804-3.304-1.752-1.487-.789-1.482.796-3.21 1.722.58-3.78.233-1.506-1.038-1.118-2.662-2.867 3.699-.622 1.604-.27.71-1.464 1.598-3.295"/>
    </g>
    <g mask="url(#bookmark-animation_svg__h)" opacity=".693">
      <path fill="#1b1d24" d="m16.503 10.141 2.236 4.53 5 .727-3.618 3.526.854 4.98-4.472-2.351-4.471 2.35.854-4.979-3.618-3.526 5-.726 2.235-4.53z"/>
      <path fill="#f4f4f7" d="m16.503 10.141 2.236 4.53 5 .727-3.618 3.526.854 4.98-4.472-2.351-4.471 2.35.854-4.979-3.618-3.526 5-.726 2.235-4.53z"/>
    </g>
  </svg>
  <svg x="132">
    <defs>
      <mask id="bookmark-animation_svg__j" mask-type="alpha">
        <path fill="#1b1d24" d="M-9.228-6.404h51.2v38.4h-51.2z"/>
      </mask>
      <mask id="bookmark-animation_svg__i" mask-type="alpha">
        <path fill="#1b1d24" d="M-8.88-3.678h51.2v38.4h-51.2z"/>
      </mask>
    </defs>
    <g fill="#f4f4f7" mask="url(#bookmark-animation_svg__i)">
      <path d="m16.459 9.355 1.696 3.338.717 1.41 1.559.266 3.625.62-2.64 2.874-1.022 1.112.229 1.495.581 3.794-3.295-1.748-1.484-.787-1.478.794-3.201 1.718.58-3.77.23-1.503-1.035-1.115-2.655-2.86 3.69-.62 1.6-.269.708-1.46 1.593-3.287"/>
      <path stroke="#1b1d24" stroke-linecap="round" stroke-linejoin="round" stroke-width="1.572" d="m16.459 9.355 1.696 3.338.717 1.41 1.559.266 3.625.62-2.64 2.874-1.022 1.112.229 1.495.581 3.794-3.295-1.748-1.484-.787-1.478.794-3.201 1.718.58-3.77.23-1.503-1.035-1.115-2.655-2.86 3.69-.62 1.6-.269.708-1.46 1.593-3.287"/>
    </g>
    <g mask="url(#bookmark-animation_svg__j)">
      <path fill="#1b1d24" d="m16.504 10.158 2.23 4.519 4.986.724-3.608 3.518.852 4.966-4.46-2.345-4.46 2.345.851-4.966-3.608-3.518 4.987-.724 2.23-4.519z"/>
      <path fill="#f4f4f7" d="m16.504 10.158 2.23 4.519 4.986.724-3.608 3.518.852 4.966-4.46-2.345-4.46 2.345.851-4.966-3.608-3.518 4.987-.724 2.23-4.519z"/>
    </g>
  </svg>
  <svg x="165">
    <defs>
      <mask id="bookmark-animation_svg__l" mask-type="alpha">
        <path fill="#1b1d24" d="M-15.623-12.404h64v48h-64z"/>
      </mask>
      <mask id="bookmark-animation_svg__k" mask-type="alpha">
        <path fill="#1b1d24" d="M-15.216-8.977h64v48h-64z"/>
      </mask>
    </defs>
    <g fill="#f4f4f7" mask="url(#bookmark-animation_svg__k)">
      <path d="m16.46 9.4 1.686 3.318.712 1.402 1.55.264 3.602.615-2.623 2.856-1.016 1.106.227 1.485.578 3.77-3.275-1.737-1.474-.781-1.469.789-3.181 1.707.575-3.746.23-1.494-1.028-1.109-2.639-2.841 3.667-.616 1.59-.268.703-1.452 1.584-3.265"/>
      <path stroke="#1b1d24" stroke-linecap="round" stroke-linejoin="round" stroke-width="1.562" d="m16.46 9.4 1.686 3.318.712 1.402 1.55.264 3.602.615-2.623 2.856-1.016 1.106.227 1.485.578 3.77-3.275-1.737-1.474-.781-1.469.789-3.181 1.707.575-3.746.23-1.494-1.028-1.109-2.639-2.841 3.667-.616 1.59-.268.703-1.452 1.584-3.265"/>
    </g>
    <g mask="url(#bookmark-animation_svg__l)">
      <path fill="#1b1d24" d="m16.505 10.199 2.216 4.49 4.956.72-3.586 3.496.846 4.935-4.432-2.33-4.432 2.33.846-4.935-3.586-3.496 4.956-.72 2.216-4.49z"/>
      <path fill="#f4f4f7" d="m16.505 10.199 2.216 4.49 4.956.72-3.586 3.496.846 4.935-4.432-2.33-4.432 2.33.846-4.935-3.586-3.496 4.956-.72 2.216-4.49z"/>
    </g>
  </svg>
  <svg x="198">
    <defs>
      <mask id="bookmark-animation_svg__n" mask-type="alpha">
        <path fill="#1b1d24" d="M-15.623-12.404h64v48h-64z"/>
      </mask>
      <mask id="bookmark-animation_svg__m" mask-type="alpha">
        <path fill="#1b1d24" d="M-15.216-8.977h64v48h-64z"/>
      </mask>
    </defs>
    <g fill="#f4f4f7" mask="url(#bookmark-animation_svg__m)">
      <path d="m16.457 9.299 1.71 3.363.722 1.422 1.57.267 3.653.625-2.66 2.896-1.03 1.12.23 1.506.587 3.824-3.32-1.762-1.496-.792-1.49.8-3.225 1.73.584-3.798.233-1.514-1.043-1.124-2.676-2.882 3.718-.624 1.613-.272.713-1.472 1.606-3.31"/>
      <path stroke="#1b1d24" stroke-linecap="round" stroke-linejoin="round" stroke-width="1.584" d="m16.457 9.299 1.71 3.363.722 1.422 1.57.267 3.653.625-2.66 2.896-1.03 1.12.23 1.506.587 3.824-3.32-1.762-1.496-.792-1.49.8-3.225 1.73.584-3.798.233-1.514-1.043-1.124-2.676-2.882 3.718-.624 1.613-.272.713-1.472 1.606-3.31"/>
    </g>
    <g mask="url(#bookmark-animation_svg__n)">
      <path fill="#1b1d24" d="m16.502 10.108 2.247 4.553 5.025.73-3.636 3.545.858 5.004-4.494-2.363-4.494 2.363.858-5.004-3.636-3.545 5.025-.73 2.247-4.553z"/>
      <path fill="#f4f4f7" d="m16.502 10.108 2.247 4.553 5.025.73-3.636 3.545.858 5.004-4.494-2.363-4.494 2.363.858-5.004-3.636-3.545 5.025-.73 2.247-4.553z"/>
    </g>
    <path fill="#f4f4f7" fill-opacity="context-fill-opacity" d="M16.559 4.97v-.26"/>
    <path fill="#f4f4f7" stroke="#1b1d24" stroke-linecap="round" stroke-width="1.6" d="M16.559 4.97v-.26"/>
  </svg>
  <svg x="231">
    <defs>
      <mask id="bookmark-animation_svg__p" mask-type="alpha">
        <path fill="#1b1d24" d="M-15.623-12.404h64v48h-64z"/>
      </mask>
      <mask id="bookmark-animation_svg__o" mask-type="alpha">
        <path fill="#1b1d24" d="M-15.216-8.977h64v48h-64z"/>
      </mask>
    </defs>
    <g fill="#f4f4f7" mask="url(#bookmark-animation_svg__o)">
      <path d="m16.448 9.017 1.774 3.492.75 1.475 1.63.278 3.792.648-2.76 3.007-1.07 1.163.24 1.563.608 3.97-3.447-1.83-1.552-.822-1.546.83-3.35 1.797.607-3.943.241-1.572-1.082-1.167-2.777-2.99 3.859-.65 1.674-.281.74-1.528 1.667-3.437"/>
      <path stroke="#1b1d24" stroke-linecap="round" stroke-linejoin="round" stroke-width="1.644" d="m16.448 9.017 1.774 3.492.75 1.475 1.63.278 3.792.648-2.76 3.007-1.07 1.163.24 1.563.608 3.97-3.447-1.83-1.552-.822-1.546.83-3.35 1.797.607-3.943.241-1.572-1.082-1.167-2.777-2.99 3.859-.65 1.674-.281.74-1.528 1.667-3.437"/>
    </g>
    <g mask="url(#bookmark-animation_svg__p)">
      <path fill="#1b1d24" d="m16.495 9.857 2.332 4.727 5.217.758-3.775 3.68.891 5.194-4.665-2.453-4.666 2.453.891-5.195-3.774-3.68 5.216-.757 2.333-4.727z"/>
      <path fill="#f4f4f7" d="m16.495 9.857 2.332 4.727 5.217.758-3.775 3.68.891 5.194-4.665-2.453-4.666 2.453.891-5.195-3.774-3.68 5.216-.757 2.333-4.727z"/>
    </g>
    <path fill="#f4f4f7" fill-opacity="context-fill-opacity" d="M28.738 14.306s.33-.16.772-.377"/>
    <path fill="#f4f4f7" stroke="#1b1d24" stroke-linecap="round" stroke-width="1.6" d="M28.738 14.306s.33-.16.772-.377"/>
    <path fill="#f4f4f7" fill-opacity="context-fill-opacity" d="M16.559 4.97v-.859"/>
    <path fill="#f4f4f7" stroke="#1b1d24" stroke-linecap="round" stroke-width="1.6" d="M16.559 4.97v-.859"/>
  </svg>
  <svg x="264">
    <defs>
      <mask id="bookmark-animation_svg__r" mask-type="alpha">
        <path fill="#1b1d24" d="M-15.623-12.404h64v48h-64z"/>
      </mask>
      <mask id="bookmark-animation_svg__q" mask-type="alpha">
        <path fill="#1b1d24" d="M-15.216-8.977h64v48h-64z"/>
      </mask>
    </defs>
    <g fill="#f4f4f7" mask="url(#bookmark-animation_svg__q)">
      <path d="m16.437 8.692 1.85 3.64.781 1.538 1.7.29 3.953.675-2.878 3.133-1.115 1.213.25 1.63.633 4.137-3.593-1.906-1.617-.858-1.612.866-3.491 1.873.632-4.11.252-1.639-1.129-1.216-2.895-3.118 4.023-.676 1.745-.294.772-1.593 1.737-3.583"/>
      <path stroke="#1b1d24" stroke-linecap="round" stroke-linejoin="round" stroke-width="1.714" d="m16.437 8.692 1.85 3.64.781 1.538 1.7.29 3.953.675-2.878 3.133-1.115 1.213.25 1.63.633 4.137-3.593-1.906-1.617-.858-1.612.866-3.491 1.873.632-4.11.252-1.639-1.129-1.216-2.895-3.118 4.023-.676 1.745-.294.772-1.593 1.737-3.583"/>
    </g>
    <g mask="url(#bookmark-animation_svg__r)">
      <path fill="#1b1d24" d="m16.486 9.568 2.432 4.927 5.437.79-3.935 3.835.93 5.415-4.864-2.557-4.863 2.557.929-5.415-3.935-3.835 5.437-.79 2.432-4.927z"/>
      <path fill="#f4f4f7" d="m16.486 9.568 2.432 4.927 5.437.79-3.935 3.835.93 5.415-4.864-2.557-4.863 2.557.929-5.415-3.935-3.835 5.437-.79 2.432-4.927z"/>
    </g>
    <path fill="#f4f4f7" fill-opacity="context-fill-opacity" d="M16.559 4.97V3.324"/>
    <path fill="#f4f4f7" stroke="#1b1d24" stroke-linecap="round" stroke-width="1.6" d="M16.559 4.97V3.324"/>
  </svg>
  <svg x="297">
    <defs>
      <mask id="bookmark-animation_svg__t" mask-type="alpha">
        <path fill="#1b1d24" d="M-15.623-12.404h64v48h-64z"/>
      </mask>
      <mask id="bookmark-animation_svg__s" mask-type="alpha">
        <path fill="#1b1d24" d="M-15.216-8.977h64v48h-64z"/>
      </mask>
    </defs>
    <g fill="#f4f4f7" mask="url(#bookmark-animation_svg__s)">
      <path d="m16.426 8.351 1.928 3.795.815 1.603 1.772.302 4.121.705-3 3.267-1.162 1.264.26 1.7.66 4.313-3.746-1.987-1.686-.895-1.68.903-3.64 1.952.659-4.285.262-1.708-1.176-1.268-3.018-3.251 4.194-.705 1.819-.306.805-1.66 1.811-3.736"/>
      <path stroke="#1b1d24" stroke-linecap="round" stroke-linejoin="round" stroke-width="1.787" d="m16.426 8.351 1.928 3.795.815 1.603 1.772.302 4.121.705-3 3.267-1.162 1.264.26 1.7.66 4.313-3.746-1.987-1.686-.895-1.68.903-3.64 1.952.659-4.285.262-1.708-1.176-1.268-3.018-3.251 4.194-.705 1.819-.306.805-1.66 1.811-3.736"/>
    </g>
    <g mask="url(#bookmark-animation_svg__t)">
      <path fill="#1b1d24" d="m16.477 9.264 2.535 5.137 5.669.824-4.102 3.998.968 5.646-5.07-2.666-5.07 2.666.968-5.646-4.102-3.998 5.669-.824 2.535-5.137z"/>
      <path fill="#f4f4f7" d="m16.477 9.264 2.535 5.137 5.669.824-4.102 3.998.968 5.646-5.07-2.666-5.07 2.666.968-5.646-4.102-3.998 5.669-.824 2.535-5.137z"/>
    </g>
    <path fill="#f4f4f7" fill-opacity="context-fill-opacity" d="M16.559 4.97V2.433"/>
    <path fill="#f4f4f7" stroke="#1b1d24" stroke-linecap="round" stroke-width="1.6" d="M16.559 4.97V2.433"/>
  </svg>
  <svg x="330">
    <defs>
      <mask id="bookmark-animation_svg__v" mask-type="alpha">
        <g clip-path="url(#bookmark-animation_svg__f10_BkV3WrqkR1)" transform="matrix(.2 0 0 .2 -15.623 -12.404)">
          <path fill="#1b1d24" d="M0 0h320v240H0z"/>
        </g>
      </mask>
      <mask id="bookmark-animation_svg__u" mask-type="alpha">
        <g clip-path="url(#bookmark-animation_svg__f10_4P5xKEAlF3)" transform="matrix(.2 0 0 .2 -15.216 -8.977)">
          <path fill="#1b1d24" d="M0 0h320v240H0z"/>
        </g>
      </mask>
    </defs>
    <g fill="#f4f4f7" mask="url(#bookmark-animation_svg__u)">
      <path d="m16.415 8.021 2.005 3.945.847 1.667 1.842.314 4.284.732-3.119 3.397-1.208 1.314.27 1.766.687 4.484-3.894-2.065-1.753-.93-1.747.938-3.784 2.03.685-4.455.273-1.776-1.223-1.318-3.138-3.38 4.36-.732 1.891-.318.837-1.727 1.883-3.883"/>
      <path stroke="#1b1d24" stroke-linecap="round" stroke-linejoin="round" stroke-width="1.858" d="m16.415 8.021 2.005 3.945.847 1.667 1.842.314 4.284.732-3.119 3.397-1.208 1.314.27 1.766.687 4.484-3.894-2.065-1.753-.93-1.747.938-3.784 2.03.685-4.455.273-1.776-1.223-1.318-3.138-3.38 4.36-.732 1.891-.318.837-1.727 1.883-3.883"/>
    </g>
    <g mask="url(#bookmark-animation_svg__v)">
      <path fill="#1b1d24" d="m16.468 8.97 2.636 5.34 5.893.857-4.265 4.156 1.007 5.87-5.27-2.771-5.272 2.77 1.007-5.869-4.265-4.156 5.894-.857 2.635-5.34z"/>
      <path fill="#f4f4f7" d="m16.468 8.97 2.636 5.34 5.893.857-4.265 4.156 1.007 5.87-5.27-2.771-5.272 2.77 1.007-5.869-4.265-4.156 5.894-.857 2.635-5.34z"/>
    </g>
    <path fill="#f4f4f7" fill-opacity="context-fill-opacity" d="M8.816 28.826 6.63 31.43"/>
    <path fill="#f4f4f7" stroke="#1b1d24" stroke-linecap="round" stroke-width="1.6" d="M8.816 28.826 6.63 31.43"/>
    <path fill="#f4f4f7" fill-opacity="context-fill-opacity" d="M16.559 4.97v-3.4"/>
    <path fill="#f4f4f7" stroke="#1b1d24" stroke-linecap="round" stroke-width="1.6" d="M16.559 4.97v-3.4"/>
  </svg>
  <svg x="363">
    <defs>
      <mask id="bookmark-animation_svg__x" mask-type="alpha">
        <g clip-path="url(#bookmark-animation_svg__f11_BkV3WrqkR1)" transform="matrix(.2 0 0 .2 -15.623 -12.404)">
          <path fill="#1b1d24" d="M0 0h320v240H0z"/>
        </g>
      </mask>
      <mask id="bookmark-animation_svg__w" mask-type="alpha">
        <g clip-path="url(#bookmark-animation_svg__f11_4P5xKEAlF3)" transform="matrix(.2 0 0 .2 -15.216 -8.977)">
          <path fill="#1b1d24" d="M0 0h320v240H0z"/>
        </g>
      </mask>
    </defs>
    <g fill="#f4f4f7" mask="url(#bookmark-animation_svg__w)">
      <path d="m16.406 7.738 2.07 4.074.875 1.721 1.902.324 4.424.756-3.221 3.508-1.248 1.357.28 1.824.709 4.63-4.022-2.133-1.81-.96-1.804.97-3.907 2.095.707-4.6.282-1.834-1.263-1.361-3.24-3.49 4.502-.757 1.953-.328.864-1.783 1.945-4.01"/>
      <path stroke="#1b1d24" stroke-linecap="round" stroke-linejoin="round" stroke-width="1.918" d="m16.406 7.738 2.07 4.074.875 1.721 1.902.324 4.424.756-3.221 3.508-1.248 1.357.28 1.824.709 4.63-4.022-2.133-1.81-.96-1.804.97-3.907 2.095.707-4.6.282-1.834-1.263-1.361-3.24-3.49 4.502-.757 1.953-.328.864-1.783 1.945-4.01"/>
    </g>
    <g mask="url(#bookmark-animation_svg__x)">
      <path fill="#1b1d24" d="m16.46 8.718 2.722 5.515 6.086.884-4.404 4.292 1.04 6.061-5.443-2.861-5.444 2.861 1.04-6.06-4.404-4.293 6.086-.884 2.722-5.515z"/>
      <path fill="#f4f4f7" d="m16.46 8.718 2.722 5.515 6.086.884-4.404 4.292 1.04 6.061-5.443-2.861-5.444 2.861 1.04-6.06-4.404-4.293 6.086-.884 2.722-5.515z"/>
    </g>
    <path fill="#f4f4f7" fill-opacity="context-fill-opacity" d="M8.724 28.935 6.63 31.43"/>
    <path fill="#f4f4f7" stroke="#1b1d24" stroke-linecap="round" stroke-width="1.6" d="M8.724 28.935 6.63 31.43"/>
    <path fill="#f4f4f7" fill-opacity="context-fill-opacity" d="M16.559 4.828V1.57"/>
    <path fill="#f4f4f7" stroke="#1b1d24" stroke-linecap="round" stroke-width="1.6" d="M16.559 4.828V1.57"/>
  </svg>
  <svg x="396">
    <defs>
      <mask id="bookmark-animation_svg__z" mask-type="alpha">
        <g clip-path="url(#bookmark-animation_svg__f12_BkV3WrqkR1)" transform="matrix(.2 0 0 .2 -15.623 -12.404)">
          <path fill="#1b1d24" d="M0 0h320v240H0z"/>
        </g>
      </mask>
      <mask id="bookmark-animation_svg__y" mask-type="alpha">
        <g clip-path="url(#bookmark-animation_svg__f12_4P5xKEAlF3)" transform="matrix(.2 0 0 .2 -15.216 -8.977)">
          <path fill="#1b1d24" d="M0 0h320v240H0z"/>
        </g>
      </mask>
    </defs>
    <g fill="#f4f4f7" mask="url(#bookmark-animation_svg__y)">
      <path d="m16.401 7.59 2.104 4.141.89 1.75 1.933.33 4.497.768-3.274 3.565-1.269 1.38.284 1.854.721 4.707-4.087-2.169-1.84-.975-1.834.984-3.972 2.131.72-4.676.286-1.864-1.284-1.384-3.293-3.547 4.576-.77 1.985-.333.878-1.812 1.977-4.077"/>
      <path stroke="#1b1d24" stroke-linecap="round" stroke-linejoin="round" stroke-width="1.95" d="m16.401 7.59 2.104 4.141.89 1.75 1.933.33 4.497.768-3.274 3.565-1.269 1.38.284 1.854.721 4.707-4.087-2.169-1.84-.975-1.834.984-3.972 2.131.72-4.676.286-1.864-1.284-1.384-3.293-3.547 4.576-.77 1.985-.333.878-1.812 1.977-4.077"/>
    </g>
    <g mask="url(#bookmark-animation_svg__z)">
      <path fill="#1b1d24" d="m16.457 8.587 2.766 5.605 6.186.899-4.476 4.363 1.056 6.16-5.532-2.908-5.533 2.909 1.057-6.161-4.476-4.363 6.185-.899 2.767-5.605z"/>
      <path fill="#f4f4f7" d="m16.457 8.587 2.766 5.605 6.186.899-4.476 4.363 1.056 6.16-5.532-2.908-5.533 2.909 1.057-6.161-4.476-4.363 6.185-.899 2.767-5.605z"/>
    </g>
    <path fill="#f4f4f7" fill-opacity="context-fill-opacity" d="M8.502 29.199 6.63 31.43"/>
    <path fill="#f4f4f7" stroke="#1b1d24" stroke-linecap="round" stroke-width="1.6" d="M8.502 29.199 6.63 31.43"/>
    <path fill="#f4f4f7" fill-opacity="context-fill-opacity" d="M16.559 4.483V1.57"/>
    <path fill="#f4f4f7" stroke="#1b1d24" stroke-linecap="round" stroke-width="1.6" d="M16.559 4.483V1.57"/>
  </svg>
  <svg x="429">
    <defs>
      <mask id="bookmark-animation_svg__B" mask-type="alpha">
        <g clip-path="url(#bookmark-animation_svg__f13_BkV3WrqkR1)" transform="matrix(.2 0 0 .2 -15.623 -12.404)">
          <path fill="#1b1d24" d="M0 0h320v240H0z"/>
        </g>
      </mask>
      <mask id="bookmark-animation_svg__A" mask-type="alpha">
        <g clip-path="url(#bookmark-animation_svg__f13_4P5xKEAlF3)" transform="matrix(.2 0 0 .2 -15.216 -8.977)">
          <path fill="#1b1d24" d="M0 0h320v240H0z"/>
        </g>
      </mask>
    </defs>
    <g fill="#f4f4f7" mask="url(#bookmark-animation_svg__A)">
      <path d="m16.406 7.738 2.07 4.074.875 1.721 1.902.324 4.424.756-3.221 3.508-1.248 1.357.28 1.824.709 4.63-4.022-2.133-1.81-.96-1.804.97-3.907 2.096.707-4.6.282-1.835-1.263-1.361-3.24-3.49 4.502-.757 1.953-.328.864-1.783 1.945-4.01"/>
      <path stroke="#1b1d24" stroke-linecap="round" stroke-linejoin="round" stroke-width="1.918" d="m16.406 7.738 2.07 4.074.875 1.721 1.902.324 4.424.756-3.221 3.508-1.248 1.357.28 1.824.709 4.63-4.022-2.133-1.81-.96-1.804.97-3.907 2.096.707-4.6.282-1.835-1.263-1.361-3.24-3.49 4.502-.757 1.953-.328.864-1.783 1.945-4.01"/>
    </g>
    <g mask="url(#bookmark-animation_svg__B)">
      <path fill="#1b1d24" d="m16.46 8.718 2.722 5.515 6.086.884-4.404 4.292 1.04 6.061-5.444-2.861-5.443 2.861 1.04-6.06-4.404-4.293 6.086-.884 2.721-5.515z"/>
      <path fill="#f4f4f7" d="m16.46 8.718 2.722 5.515 6.086.884-4.404 4.292 1.04 6.061-5.444-2.861-5.443 2.861 1.04-6.06-4.404-4.293 6.086-.884 2.721-5.515z"/>
    </g>
    <path fill="#f4f4f7" fill-opacity="context-fill-opacity" d="M8.197 29.563 6.63 31.43"/>
    <path fill="#f4f4f7" stroke="#1b1d24" stroke-linecap="round" stroke-width="1.6" d="M8.197 29.563 6.63 31.43"/>
    <path fill="#f4f4f7" fill-opacity="context-fill-opacity" d="M16.559 4.008V1.57"/>
    <path fill="#f4f4f7" stroke="#1b1d24" stroke-linecap="round" stroke-width="1.6" d="M16.559 4.008V1.57"/>
  </svg>
  <svg x="462">
    <defs>
      <mask id="bookmark-animation_svg__D" mask-type="alpha">
        <g clip-path="url(#bookmark-animation_svg__f14_BkV3WrqkR1)" transform="matrix(.2 0 0 .2 -15.623 -12.404)">
          <path fill="#1b1d24" d="M0 0h320v240H0z"/>
        </g>
      </mask>
      <mask id="bookmark-animation_svg__C" mask-type="alpha">
        <g clip-path="url(#bookmark-animation_svg__f14_4P5xKEAlF3)" transform="matrix(.2 0 0 .2 -15.216 -8.977)">
          <path fill="#1b1d24" d="M0 0h320v240H0z"/>
        </g>
      </mask>
    </defs>
    <g fill="#f4f4f7" mask="url(#bookmark-animation_svg__C)">
      <path d="m16.413 7.97 2.017 3.968.852 1.677 1.853.316 4.31.736-3.138 3.417-1.216 1.322.272 1.777.691 4.51-3.917-2.078-1.763-.935-1.758.944-3.805 2.042.688-4.482.275-1.786-1.23-1.326-3.156-3.4 4.386-.736 1.902-.32.841-1.737 1.895-3.906"/>
      <path stroke="#1b1d24" stroke-linecap="round" stroke-linejoin="round" stroke-width="1.869" d="m16.413 7.97 2.017 3.968.852 1.677 1.853.316 4.31.736-3.138 3.417-1.216 1.322.272 1.777.691 4.51-3.917-2.078-1.763-.935-1.758.944-3.805 2.042.688-4.482.275-1.786-1.23-1.326-3.156-3.4 4.386-.736 1.902-.32.841-1.737 1.895-3.906"/>
    </g>
    <g mask="url(#bookmark-animation_svg__D)">
      <path fill="#1b1d24" d="m16.467 8.925 2.65 5.371 5.928.862-4.289 4.18 1.013 5.905-5.302-2.788-5.302 2.788 1.012-5.904-4.289-4.181 5.928-.862 2.65-5.371z"/>
      <path fill="#f4f4f7" d="m16.467 8.925 2.65 5.371 5.928.862-4.289 4.18 1.013 5.905-5.302-2.788-5.302 2.788 1.012-5.904-4.289-4.181 5.928-.862 2.65-5.371z"/>
    </g>
    <path fill="#f4f4f7" fill-opacity="context-fill-opacity" d="M7.835 29.994 6.63 31.43"/>
    <path fill="#f4f4f7" stroke="#1b1d24" stroke-linecap="round" stroke-width="1.6" d="M7.835 29.994 6.63 31.43"/>
    <path fill="#f4f4f7" fill-opacity="context-fill-opacity" d="M16.559 3.445V1.57"/>
    <path fill="#f4f4f7" stroke="#1b1d24" stroke-linecap="round" stroke-width="1.6" d="M16.559 3.445V1.57"/>
  </svg>
  <svg x="495">
    <defs>
      <mask id="bookmark-animation_svg__F" mask-type="alpha">
        <g clip-path="url(#bookmark-animation_svg__f15_BkV3WrqkR1)" transform="matrix(.2 0 0 .2 -15.623 -12.404)">
          <path fill="#1b1d24" d="M0 0h320v240H0z"/>
        </g>
      </mask>
      <mask id="bookmark-animation_svg__E" mask-type="alpha">
        <g clip-path="url(#bookmark-animation_svg__f15_4P5xKEAlF3)" transform="matrix(.2 0 0 .2 -15.216 -8.977)">
          <path fill="#1b1d24" d="M0 0h320v240H0z"/>
        </g>
      </mask>
    </defs>
    <g fill="#f4f4f7" mask="url(#bookmark-animation_svg__E)">
      <path d="m16.422 8.223 1.958 3.853.827 1.628 1.8.307 4.184.715-3.047 3.317-1.18 1.284.264 1.725.671 4.38-3.804-2.018-1.712-.908-1.706.917-3.696 1.982.67-4.35.266-1.736-1.195-1.287-3.064-3.3 4.258-.716 1.848-.311.817-1.686 1.839-3.793"/>
      <path stroke="#1b1d24" stroke-linecap="round" stroke-linejoin="round" stroke-width="1.814" d="m16.422 8.223 1.958 3.853.827 1.628 1.8.307 4.184.715-3.047 3.317-1.18 1.284.264 1.725.671 4.38-3.804-2.018-1.712-.908-1.706.917-3.696 1.982.67-4.35.266-1.736-1.195-1.287-3.064-3.3 4.258-.716 1.848-.311.817-1.686 1.839-3.793"/>
    </g>
    <g mask="url(#bookmark-animation_svg__F)">
      <path fill="#1b1d24" d="m16.473 9.15 2.575 5.216 5.755.836-4.165 4.06.984 5.733-5.149-2.707-5.148 2.707.984-5.733-4.165-4.06 5.755-.836 2.574-5.216z"/>
      <path fill="#f4f4f7" d="m16.473 9.15 2.575 5.216 5.755.836-4.165 4.06.984 5.733-5.149-2.707-5.148 2.707.984-5.733-4.165-4.06 5.755-.836 2.574-5.216z"/>
    </g>
    <path fill="#f4f4f7" fill-opacity="context-fill-opacity" d="M16.559 2.822V1.57"/>
    <path fill="#f4f4f7" stroke="#1b1d24" stroke-linecap="round" stroke-width="1.6" d="M16.559 2.822V1.57"/>
  </svg>
  <svg x="528">
    <defs>
      <mask id="bookmark-animation_svg__H" mask-type="alpha">
        <g clip-path="url(#bookmark-animation_svg__f16_BkV3WrqkR1)" transform="matrix(.2 0 0 .2 -15.623 -12.404)">
          <path fill="#1b1d24" d="M0 0h320v240H0z"/>
        </g>
      </mask>
      <mask id="bookmark-animation_svg__G" mask-type="alpha">
        <g clip-path="url(#bookmark-animation_svg__f16_4P5xKEAlF3)" transform="matrix(.2 0 0 .2 -15.216 -8.977)">
          <path fill="#1b1d24" d="M0 0h320v240H0z"/>
        </g>
      </mask>
    </defs>
    <g fill="#f4f4f7" mask="url(#bookmark-animation_svg__G)">
      <path d="m16.43 8.48 1.899 3.736.802 1.579 1.745.297 4.057.693-2.954 3.217-1.144 1.245.255 1.673.651 4.247-3.688-1.957-1.66-.88-1.655.888-3.583 1.923.649-4.22.258-1.681-1.158-1.249-2.972-3.2 4.13-.694 1.79-.301.793-1.636 1.783-3.677"/>
      <path stroke="#1b1d24" stroke-linecap="round" stroke-linejoin="round" stroke-width="1.759" d="m16.43 8.48 1.899 3.736.802 1.579 1.745.297 4.057.693-2.954 3.217-1.144 1.245.255 1.673.651 4.247-3.688-1.957-1.66-.88-1.655.888-3.583 1.923.649-4.22.258-1.681-1.158-1.249-2.972-3.2 4.13-.694 1.79-.301.793-1.636 1.783-3.677"/>
    </g>
    <g mask="url(#bookmark-animation_svg__H)">
      <path fill="#1b1d24" d="m16.48 9.38 2.496 5.056 5.581.811-4.038 3.937.953 5.559-4.992-2.625-4.992 2.625.954-5.559-4.039-3.937 5.581-.81 2.496-5.058z"/>
      <path fill="#f4f4f7" d="m16.48 9.38 2.496 5.056 5.581.811-4.038 3.937.953 5.559-4.992-2.625-4.992 2.625.954-5.559-4.039-3.937 5.581-.81 2.496-5.058z"/>
    </g>
    <path fill="#f4f4f7" fill-opacity="context-fill-opacity" d="M16.559 2.172V1.57"/>
    <path fill="#f4f4f7" stroke="#1b1d24" stroke-linecap="round" stroke-width="1.6" d="M16.559 2.172V1.57"/>
  </svg>
  <svg x="561">
    <defs>
      <mask id="bookmark-animation_svg__J" mask-type="alpha">
        <g clip-path="url(#bookmark-animation_svg__f17_BkV3WrqkR1)" transform="matrix(.2 0 0 .2 -15.623 -12.404)">
          <path fill="#1b1d24" d="M0 0h320v240H0z"/>
        </g>
      </mask>
      <mask id="bookmark-animation_svg__I" mask-type="alpha">
        <g clip-path="url(#bookmark-animation_svg__f17_4P5xKEAlF3)" transform="matrix(.2 0 0 .2 -15.216 -8.977)">
          <path fill="#1b1d24" d="M0 0h320v240H0z"/>
        </g>
      </mask>
    </defs>
    <g fill="#f4f4f7" mask="url(#bookmark-animation_svg__I)">
      <path d="m16.438 8.731 1.84 3.622.779 1.53 1.69.289 3.934.672-2.864 3.118-1.109 1.207.248 1.622.631 4.116-3.575-1.896-1.61-.854-1.604.862-3.473 1.863.628-4.09.251-1.63-1.123-1.21-2.88-3.103 4.002-.673 1.737-.292.768-1.585 1.729-3.565"/>
      <path stroke="#1b1d24" stroke-linecap="round" stroke-linejoin="round" stroke-width="1.706" d="m16.438 8.731 1.84 3.622.779 1.53 1.69.289 3.934.672-2.864 3.118-1.109 1.207.248 1.622.631 4.116-3.575-1.896-1.61-.854-1.604.862-3.473 1.863.628-4.09.251-1.63-1.123-1.21-2.88-3.103 4.002-.673 1.737-.292.768-1.585 1.729-3.565"/>
    </g>
    <g mask="url(#bookmark-animation_svg__J)">
      <path fill="#1b1d24" d="m16.487 9.603 2.42 4.902 5.41.787-3.915 3.816.924 5.388-4.839-2.544-4.84 2.544.925-5.388-3.915-3.816 5.41-.787 2.42-4.902z"/>
      <path fill="#f4f4f7" d="m16.487 9.603 2.42 4.902 5.41.787-3.915 3.816.924 5.388-4.839-2.544-4.84 2.544.925-5.388-3.915-3.816 5.41-.787 2.42-4.902z"/>
    </g>
  </svg>
  <svg x="594">
    <defs>
      <mask id="bookmark-animation_svg__L" mask-type="alpha">
        <g clip-path="url(#bookmark-animation_svg__f18_BkV3WrqkR1)" transform="matrix(.2 0 0 .2 -15.623 -12.404)">
          <path fill="#1b1d24" d="M0 0h320v240H0z"/>
        </g>
      </mask>
      <mask id="bookmark-animation_svg__K" mask-type="alpha">
        <g clip-path="url(#bookmark-animation_svg__f18_4P5xKEAlF3)" transform="matrix(.2 0 0 .2 -15.216 -8.977)">
          <path fill="#1b1d24" d="M0 0h320v240H0z"/>
        </g>
      </mask>
    </defs>
    <g fill="#f4f4f7" mask="url(#bookmark-animation_svg__K)">
      <path d="m16.446 8.966 1.786 3.515.755 1.485 1.642.28 3.817.652-2.78 3.027-1.076 1.171.24 1.574.613 3.996-3.47-1.841-1.562-.828-1.557.836-3.371 1.808.61-3.97.243-1.582-1.09-1.175-2.795-3.01 3.885-.654 1.685-.283.745-1.539 1.679-3.46"/>
      <path stroke="#1b1d24" stroke-linecap="round" stroke-linejoin="round" stroke-width="1.655" d="m16.446 8.966 1.786 3.515.755 1.485 1.642.28 3.817.652-2.78 3.027-1.076 1.171.24 1.574.613 3.996-3.47-1.841-1.562-.828-1.557.836-3.371 1.808.61-3.97.243-1.582-1.09-1.175-2.795-3.01 3.885-.654 1.685-.283.745-1.539 1.679-3.46"/>
    </g>
    <g mask="url(#bookmark-animation_svg__L)">
      <path fill="#1b1d24" d="m16.493 9.811 2.349 4.759 5.25.763-3.799 3.704.897 5.23-4.697-2.47-4.696 2.47.897-5.23-3.8-3.704 5.25-.763 2.35-4.759z"/>
      <path fill="#f4f4f7" d="m16.493 9.811 2.349 4.759 5.25.763-3.799 3.704.897 5.23-4.697-2.47-4.696 2.47.897-5.23-3.8-3.704 5.25-.763 2.35-4.759z"/>
    </g>
  </svg>
  <svg x="627">
    <defs>
      <mask id="bookmark-animation_svg__N" mask-type="alpha">
        <g clip-path="url(#bookmark-animation_svg__f19_BkV3WrqkR1)" transform="matrix(.2 0 0 .2 -15.623 -12.404)">
          <path fill="#1b1d24" d="M0 0h320v240H0z"/>
        </g>
      </mask>
      <mask id="bookmark-animation_svg__M" mask-type="alpha">
        <g clip-path="url(#bookmark-animation_svg__f19_4P5xKEAlF3)" transform="matrix(.2 0 0 .2 -15.216 -8.977)">
          <path fill="#1b1d24" d="M0 0h320v240H0z"/>
        </g>
      </mask>
    </defs>
    <g fill="#f4f4f7" mask="url(#bookmark-animation_svg__M)">
      <path d="m16.453 9.164 1.74 3.425.735 1.447 1.6.273 3.719.635-2.708 2.95-1.049 1.14.235 1.534.596 3.893-3.38-1.794-1.523-.807-1.516.815-3.285 1.762.595-3.868.237-1.542-1.062-1.144-2.724-2.934 3.785-.636 1.642-.276.726-1.499 1.635-3.371"/>
      <path stroke="#1b1d24" stroke-linecap="round" stroke-linejoin="round" stroke-width="1.613" d="m16.453 9.164 1.74 3.425.735 1.447 1.6.273 3.719.635-2.708 2.95-1.049 1.14.235 1.534.596 3.893-3.38-1.794-1.523-.807-1.516.815-3.285 1.762.595-3.868.237-1.542-1.062-1.144-2.724-2.934 3.785-.636 1.642-.276.726-1.499 1.635-3.371"/>
    </g>
    <g mask="url(#bookmark-animation_svg__N)">
      <path fill="#1b1d24" d="m16.499 9.988 2.288 4.636 5.116.744-3.702 3.608.874 5.096-4.576-2.406-4.576 2.406.874-5.096-3.702-3.608 5.116-.744 2.288-4.636z"/>
      <path fill="#f4f4f7" d="m16.499 9.988 2.288 4.636 5.116.744-3.702 3.608.874 5.096-4.576-2.406-4.576 2.406.874-5.096-3.702-3.608 5.116-.744 2.288-4.636z"/>
    </g>
  </svg>
</svg>
