<?xml version="1.0" encoding="UTF-8" standalone="no"?>
<svg
   width="16"
   height="16"
   version="1.1"
   id="svg4"
   sodipodi:docname="bookmark-star.svg"
   inkscape:version="1.2.2 (b0a8486541, 2022-12-01)"
   xmlns:inkscape="http://www.inkscape.org/namespaces/inkscape"
   xmlns:sodipodi="http://sodipodi.sourceforge.net/DTD/sodipodi-0.dtd"
   xmlns="http://www.w3.org/2000/svg"
   xmlns:svg="http://www.w3.org/2000/svg">
  <defs
     id="defs8" />
  <sodipodi:namedview
     id="namedview6"
     pagecolor="#ffffff"
     bordercolor="#000000"
     borderopacity="0.25"
     inkscape:showpageshadow="2"
     inkscape:pageopacity="0.0"
     inkscape:pagecheckerboard="0"
     inkscape:deskcolor="#d1d1d1"
     showgrid="false"
     inkscape:zoom="43.25"
     inkscape:cx="3.3757225"
     inkscape:cy="8.0346821"
     inkscape:window-width="1600"
     inkscape:window-height="881"
     inkscape:window-x="0"
     inkscape:window-y="0"
     inkscape:window-maximized="1"
     inkscape:current-layer="svg4" />
  <path
     fill="#f4f4f7"
     fill-opacity="context-fill-opacity"
     d="M3.8 15.922a1.1 1.1 0 0 1-1.09-1.253l.609-4.36L.393 7.163a1.1 1.1 0 0 1 .616-1.833l4.08-.73L7.016.734a1.1 1.1 0 0 1 1.969 0L10.911 4.6 15 5.331a1.1 1.1 0 0 1 .611 1.833L12.68 10.31l.609 4.359a1.1 1.1 0 0 1-1.6 1.127L8 13.873 4.308 15.8a1.093 1.093 0 0 1-.508.122zm-.415-1.9zm9.228 0zM2.981 7.01l2.451 2.635-.5 3.572L8 11.618l3.067 1.6-.5-3.572 2.452-2.636-3.45-.616L8 3.244l-1.569 3.15zm11.659.29zm-13.278 0zm12.78-1.5zm-12.286 0z"
     id="path2" />
  <path
     style="fill:#000000;stroke-width:0.0231214"
     d="M 4.9466546,13.141653 C 4.9596672,13.084849 5.4136756,9.8359704 5.4263778,9.7087586 5.4329503,9.642936 5.336698,9.5330994 4.2312139,8.3449186 3.5699422,7.6341801 3.0289017,7.0428252 3.0289017,7.0307968 c 0,-0.012029 0.7647399,-0.157838 1.699422,-0.3240213 L 6.4277457,6.4046243 7.2089191,4.8439306 C 7.6385644,3.9855491 7.9945508,3.283237 8,3.283237 c 0.00545,0 0.3614356,0.7022501 0.7910809,1.5605557 l 0.7811734,1.5605557 1.6917237,0.3007161 c 0.930449,0.1653938 1.698859,0.3078543 1.707579,0.3165794 0.01326,0.013271 -0.876713,0.9824925 -2.130229,2.3199087 l -0.282202,0.3010902 0.248335,1.7682742 c 0.136585,0.972551 0.245355,1.77214 0.241712,1.776865 -0.0036,0.0047 -0.687854,-0.346432 -1.5204685,-0.780347 -0.8326143,-0.433916 -1.5203302,-0.788938 -1.5282576,-0.788938 -0.00793,0 -0.682369,0.347979 -1.4987595,0.773286 -0.8163905,0.425307 -1.503083,0.78038 -1.5259833,0.789051 -0.034557,0.01309 -0.039497,0.0064 -0.02905,-0.03918 z"
     id="path916" />
  <path
     style="fill:#f4f4f7;stroke-width:0.42300001;fill-opacity:1;stroke:#f4f4f7;stroke-opacity:1;stroke-dasharray:none"
     d="m 4.9595376,13.153442 c 0,-0.008 0.082946,-0.603795 0.1843255,-1.32391 0.101379,-0.720116 0.2101154,-1.496584 0.2416363,-1.725486 L 5.4428102,9.6878613 5.3894095,9.606585 C 5.3262065,9.5103891 5.0552054,9.2104382 4.1154482,8.1965318 3.1926931,7.200969 3.0626797,7.0550768 3.0819703,7.0368328 3.1019516,7.0179357 4.0197601,6.844877 5.3294798,6.6130509 5.8699422,6.5173868 6.3411979,6.4330317 6.3767147,6.4255954 6.4360779,6.4131662 6.5008213,6.293025 7.1788106,4.9371762 7.5844469,4.1259819 7.9368296,3.4285701 7.9618835,3.3873723 l 0.045553,-0.074905 0.775993,1.5498822 c 0.713274,1.4246145 0.7811834,1.5509336 0.8402125,1.5628894 0.035321,0.00715 0.391965,0.070902 0.792543,0.1416624 1.212808,0.2142377 2.506147,0.45177 2.516565,0.4621878 0.01663,0.016626 -0.591255,0.6855567 -1.730438,1.9042261 -0.349711,0.3741122 -0.638845,0.6971078 -0.642521,0.7177681 -0.0037,0.02066 0.08703,0.7084857 0.201565,1.5285007 0.2527,1.809197 0.275269,1.975094 0.269569,1.981565 -0.0025,0.0028 -0.677107,-0.343161 -1.4992138,-0.768786 -0.8221066,-0.425626 -1.5115513,-0.773866 -1.5320988,-0.773866 -0.020548,0 -0.6063228,0.295241 -1.3017225,0.656091 -1.4798004,0.767882 -1.7383519,0.898598 -1.7383523,0.878854 z"
     id="path918" />
</svg>
