<svg height="32" width="32" xmlns="http://www.w3.org/2000/svg">
    <path d="M26.9 21.4H9.4c-.7 0-1.3.5-1.3 1.3S8.6 24 9.4 24h17.5c.7 0 1.3-.5 1.3-1.3.3-.8-.4-1.3-1.3-1.3zm-13.6 8.7c1.3 0 2.7-1.2 2.7-2.7 0-1.3-1.2-2.7-2.7-2.7s-2.7 1.2-2.7 2.7c0 1.6 1.4 2.7 2.7 2.7zm10.6 0c1.3 0 2.7-1.2 2.7-2.7 0-1.3-1.2-2.7-2.7-2.7s-2.7 1.2-2.7 2.7c.2 1.6 1.4 2.7 2.7 2.7zm7.6-22.7H7.6v-.2L5.7 2.5c-.3-.3-.6-.6-1.1-.6H.7c-.7 0-.7.6-.7 1 0 .6-.2 1.1.7 1.3h2.7l.7 1.5 4 13.3c0 .2.2.5.8.5h18.5c.3 0 .7-.2.7-.5L32 8.3c0-.2-.2-.9-.5-.9z" fill="#f4f4f7" fill-rule="evenodd"/>
</svg>
