<svg xmlns="http://www.w3.org/2000/svg" width="32" height="32"><path fill="#f4f4f7" d="m9.1 18.5-5.7 5.9c-.2-.6-.4-1.1-.4-1.8 0-2.5 2-4.4 4.4-4.4.4-.1 1.1.1 1.7.3m17.4 0-5.7 5.9c-.2-.5-.4-1.1-.4-1.8 0-2.5 2-4.4 4.4-4.4.6-.1 1.2.1 1.7.3M24.7 2c-.7 0-1.4.7-1.4 1.4s.7 1.4 1.4 1.4c2.5 0 4.4 2 4.4 4.4v7.6c-1.6-1.2-3.6-1.8-5.5-1.4-2.1.4-3.9 1.6-5 3.4-1.6-1.2-3.9-1.2-5.5 0-1.1-1.8-2.8-3-5-3.4-2-.4-3.9.2-5.5 1.4V9.2c0-2.5 2-4.4 4.4-4.4.5 0 .9-.4 1.2-.7.2-.4.2-.9 0-1.4 0-.4-.6-.7-1.1-.7C3.2 2 0 5.2 0 9.2v13.5c0 4 3.2 7.3 7.1 7.3s7.1-3.2 7.1-7.3v-.5c.2-.9.9-1.4 1.8-1.4s1.6.5 1.8 1.4V22.8c0 2 .7 3.7 2.1 5 1.4 1.4 3 2.1 5 2.1s3.6-.7 5-2.1c1.4-1.2 2.1-3.2 2.1-5V9.2c0-4-3.2-7.2-7.3-7.2"/></svg>