<svg width="18" height="18">
  <path fill="#f4f4f7" d="M16.531 1.984H1.5c-.8 0-1.5.7-1.5 1.5v11.031c0 .8.7 1.5 1.5 1.5h15.031c.8 0 1.469-.7 1.469-1.5V3.484c0-.8-.669-1.5-1.469-1.5zM16 13.016c0 .6-.4 1-1 1H3c-.6 0-1-.4-1-1v-8c0-.6.4-1 1-1h12c.6 0 1 .4 1 1v8zm-9.574-2.209c-.811 0-.96-.789-.96-1.628 0-1.155.338-1.745.899-1.745.5 0 .818.357.866.98h1.484c-.13-1.537-.93-2.442-2.418-2.442-1.359 0-2.428 1.205-2.428 3.14 0 1.944.974 3.157 2.583 3.157 1.285 0 2.153-.93 2.295-2.476H7.244c-.061.574-.304 1.014-.818 1.014zm5.333 0c-.811 0-.96-.789-.96-1.628 0-1.155.338-1.745.899-1.745.5 0 .756.357.803.98h1.515c-.129-1.537-.898-2.443-2.385-2.443-1.359 0-2.396 1.205-2.396 3.14 0 1.944.943 3.157 2.552 3.157 1.285 0 2.122-.93 2.264-2.476h-1.535c-.062.575-.243 1.015-.757 1.015z"/>
</svg>
