<svg height="18" width="18" xmlns="http://www.w3.org/2000/svg">
    <path d="M16.531 16.107H5.267l1.982-2H15c.6 0 1-.4 1-1V5.274l1.946-1.964c.017.089.054.173.054.266v11.031c0 .8-.669 1.5-1.469 1.5zm-2.515-7.601h-1.218l1.005-1.014c.11.297.181.636.213 1.014zm-2.23 3.855c-.828 0-1.476-.326-1.913-.902l1.09-1.101c.136.323.374.541.796.541.514 0 .695-.44.756-1.014h1.535c-.142 1.545-.979 2.476-2.264 2.476zm-10.29 3.745C.697 16.104 0 15.406 0 14.607V3.576c0-.8.7-1.5 1.5-1.5h12.846L16.299 0l1.316 1.283-15 15.847zM3 4.107c-.6 0-1 .4-1 1v8c0 .6.4 1 1 1h.029l2.031-2.16c-.757-.503-1.191-1.457-1.191-2.744 0-1.936 1.069-3.14 2.428-3.14 1.357 0 2.136.76 2.361 2.059l3.777-4.016H3zm5.298 4.399h-.943c-.047-.623-.49-1.23-.99-1.23-.561 0-1.337.84-1.337 1.995 0 .674.381 1.427.95 1.702z" fill="#f4f4f7" fill-rule="evenodd"/>
</svg>
