<svg width="16" height="16" fill="#f4f4f7" fill-opacity="context-fill-opacity">
  <path d="M14.85 10.85c-.2-.2-.5-.2-.7 0l-1.8 1.8-1.8-1.8c-.2-.2-.5-.2-.7 0-.2.2-.2.5 0 .7l1.8 1.8-1.8 1.8c-.2.2-.2.5 0 .7.2.2.5.2.7 0l1.8-1.8 1.8 1.8c.2.2.5.2.7 0 .2-.2.2-.5 0-.7l-1.8-1.8 1.8-1.8c.2-.2.2-.5 0-.7z"/>
  <path d="M14.123 3.713 11.287.877A2.993 2.993 0 0 0 9.17 0H4a3 3 0 0 0-3 3v10a3 3 0 0 0 3 3h3.592a1 1 0 1 0 0-2H4a1 1 0 0 1-1-1V3a1 1 0 0 1 1-1h5v3a1 1 0 0 0 1 1h3v2.512a1 1 0 0 0 2 0V5.83c0-.794-.315-1.555-.877-2.117zM10 5V2.41L12.59 5H10z"/>
</svg>
