<svg width="32" height="32">
  <path fill="#f4f4f7" d="M16.2 0C7.3 0 .2 7.3.2 16c0 8.9 7.1 16 15.8 16s15.8-7.1 15.8-16C32 7.3 24.9 0 16.2 0zm.9 25.1v1.6c0 .4-.4.5-.7.5-.4 0-.7-.2-.7-.5v-1.6c-3.2-.2-5-1.8-5.5-4.3v-.4c0-.5.4-.9.9-.9h.4c.5 0 .9.2 1.1.7.4 1.8 1.2 2.7 3.4 2.8v-6.8c-3.6-.4-5.3-1.8-5.3-4.6 0-3 2.5-4.6 5.2-4.8V5.7c0-.4.4-.5.7-.5.4 0 .7.2.7.5v1.1c2.7.4 4.4 1.8 5 3.9v.4c0 .5-.4.7-.7.9h-.4c-.4 0-.7-.2-.9-.7-.4-1.4-1.2-2.3-3-2.5v6c3.2.7 5.5 1.8 5.5 5.2 0 3.5-2.7 5.1-5.7 5.1zm-4.7-13.5c0 1.6.7 2.5 3.2 3V8.7c-1.9.2-3.2 1.3-3.2 2.9zm4.7 5.3v6.4c2.3-.2 3.6-1.2 3.6-3.2-.1-2.3-1.5-2.9-3.6-3.2z"/>
</svg>
