<svg width="16" height="16">
  <style>
    <![CDATA[:root>g:not(:target),:root>use:not(:target){display:none}]]>
  </style>
  <defs>
    <path id="download-icons_svg__arrow-icon" d="M7.293 12.725a1 1 0 0 0 1.414 0l5-5a1 1 0 0 0-1.414-1.413L9 9.605V1.019a1 1 0 0 0-2 0v8.586L3.707 6.312a1 1 0 0 0-1.414 1.413l5 5z"/>
    <path id="download-icons_svg__short-bar-icon" d="M13 14a1 1 0 1 1 0 2H3a1 1 0 1 1 0-2z"/>
    <path id="download-icons_svg__long-bar-icon" d="M14 14a1 1 0 1 1 0 2H2a1 1 0 1 1 0-2"/>
  </defs>
  <use id="download-icons_svg__arrow" fill="#f4f4f7" fill-opacity="context-fill-opacity" href="#download-icons_svg__arrow-icon"/>
  <g id="download-icons_svg__arrow-with-bar" fill="#f4f4f7" fill-opacity="context-fill-opacity">
    <use href="#download-icons_svg__arrow-icon"/>
    <use href="#download-icons_svg__short-bar-icon"/>
  </g>
  <use id="download-icons_svg__default-bar" fill="#f4f4f7" fill-opacity="context-fill-opacity" href="#download-icons_svg__short-bar-icon"/>
  <use id="download-icons_svg__progress-bar-bg" fill="#f4f4f7" fill-opacity=".2" href="#download-icons_svg__long-bar-icon"/>
  <use id="download-icons_svg__progress-bar-fg" fill="#f4f4f7" fill-opacity="context-fill-opacity" href="#download-icons_svg__long-bar-icon"/>
</svg>
