<svg xmlns="http://www.w3.org/2000/svg" width="300" height="300" fill="#f4f4f7">
    <path fill="#EAEAEE"
        d="M59.839 181.07s-19.357 6.483-17.743 8.68c1.613 2.195 50.509 5.272 74.311 3.516 2.412-.178 21.191 8.43 26.327 7.689 5.334-.769 10.92-5.387 15.021-10.218.98-1.153 32.876-7.357 35.027-9.553 2.152-2.197-12.112-4.29-21.256-4.838-.932-.057-3.624-3.432-6.275-3.344-1.53.05-5.73 10.659-7.723 10.749-1.877.086-1.522-10.35-3.744-10.234-31.408 1.633-93.945 7.553-93.945 7.553" />
    <path fill="#f4f4f7"
        d="m106.157 129.386.009.09-.03.013.02-.103m89.46 41.058a6.048 6.048 0 0 0-2.577-3.092c-.906-.869-1.944-1.318-2.658-1.627-.279-.12-.51-.22-.753-.341a5.531 5.531 0 0 0-1.616-.515 4.865 4.865 0 0 0-2.158-1.933l-2.743-1.225a4.91 4.91 0 0 0-.743-.261l-2.497-.655c-.642-.186-1.4-.387-2.14-.569a5.418 5.418 0 0 0-2.27-.067l-2.86.52a5.447 5.447 0 0 0-3.555-2.079c-1.1-.153-2.24-.291-3.37-.413 3.843-3.103 5.006-7.525 5.068-9.705.128-3.285-2.463-6.1-5.776-6.248a5.985 5.985 0 0 0-3.69 1.059 4.351 4.351 0 0 0-1.617-.356l-.103-.001c-.052 0-.103 0-.155.002-2.306.1-4.115 2.051-4.053 4.363a4.184 4.184 0 0 1-.13.905l-4.102 1.08c-.026-.024-.048-.044-.06-.057a5.533 5.533 0 0 0-1.587-1.038c-3.92-4.662-8.547-9.243-13.134-13.002-3.015-6.554-8.037-10.734-8.614-11.2a5.466 5.466 0 0 0-3.413-1.207 5.44 5.44 0 0 0-4.964 3.222c-3.235-1.916-5.86-2.766-6.205-2.874a5.365 5.365 0 0 0-1.619-.247 5.451 5.451 0 0 0-4.712 2.724c.24-1.77.184-2.423.143-2.906-.296-3.455-2.923-6.407-5.075-8.274a4.821 4.821 0 0 0-1.363-.835 4.823 4.823 0 0 0-1.209-1.091c-2.012-1.28-3.884-1.962-5.57-2.03-.876-2.503-1.645-3.415-2.745-4.181-1.248-.868-2.755-1.29-4.604-1.29-3.645 0-13.137 2.62-14.973 7.7-.44 1.22-.659 2.555.456 6.679a5.943 5.943 0 0 0-.96-.071c-.573 0-1.132.091-1.666.273-2.038.693-3.598 2.396-4.77 5.205-1.034 2.478-2.544 8.089-.858 11.588.67 1.39 1.363 2.826 15.985 11.137-.336.617-.65 1.263-.943 1.936h-2.392l-4.062-1.071a4.024 4.024 0 0 1-.233-1.15c.024-2.313-1.815-4.232-4.128-4.29h-.09c-.699 0-1.354.163-1.932.454a6.025 6.025 0 0 0-3.546-1.166l-.16.003c-1.657.061-3.161.75-4.26 1.941a6.044 6.044 0 0 0-1.608 4.365c.1 3.568 3.098 12.82 15.511 13.058-.945.217-1.892.454-2.838.709a5.469 5.469 0 0 0-3.161 2.31l-2.148-.187a5.416 5.416 0 0 0-2.381.329 58.097 58.097 0 0 0-6.22 2.748 5.507 5.507 0 0 0-2.792 3.572l-.838.096c-1.31.037-3.173.111-4.762 1.066-.302.074-.6.171-.888.291a6.096 6.096 0 0 0-3.264 7.95c1.2 2.896 4.29 4.698 10.332 6.02 2.244.493 5.049.914 8.34 1.252 6.763.925 15.468 1.603 26.611 2.074a325.239 325.239 0 0 0 22.08.18c4.665-.062 8.702-.217 11.44-.439 3.074 1.115 6.018 2.006 8.757 2.65 2.41.566 4.757.946 6.99 1.135 3.24 3.079 4.989 3.556 6.04 3.637.11.009.297.016.408.016 3.258 0 7.07-3.37 9.062-6.07 2.132-.993 3.998-2.305 5.566-3.912 2.929-.686 7.983-1.88 13.212-3.172 4.85-.903 9.638-2.056 14.231-3.426 3.932-1.174 6.443-2.12 6.548-2.16 3.115-1.177 4.7-4.683 3.533-7.816" />
    <path stroke="#EAEAEE" stroke-linecap="round" stroke-linejoin="round" stroke-width="2" d="M123 80h73M34 55h38" />
    <path stroke="#EAEAEE" stroke-dasharray="12 8 3 4 1 9" stroke-linecap="round" stroke-linejoin="round"
        d="M42 50h11" />
    <path stroke="#EAEAEE" stroke-linecap="round" stroke-linejoin="round" stroke-width="2" d="M3 114h64" />
    <path stroke="#EAEAEE" stroke-dasharray="12 8 3 4 1 9" stroke-linecap="round" stroke-linejoin="round"
        d="M26 109h31m97-35h36" />
    <path fill="#f4f4f7" d="m169.01.096.044-.096c-.058.021-.063.055-.045.096" />
    <path stroke="#EAEAEE" stroke-dasharray="12 8 3 4 1 9" stroke-linecap="round" stroke-linejoin="round"
        d="M100 86h110" />
    <path stroke="#D9EBFF" stroke-linecap="round" stroke-linejoin="round" stroke-width="3"
        d="M165 149s-.283 7-10.182 7H137" />
    <path stroke="gold" stroke-linecap="round" stroke-linejoin="round" d="M158.998 148s.147 3.02-1.998 5" />
    <path fill="#F9F9FA"
        d="M101.99 123.118c-.135-1.522-1.656-3.425-3.472-4.961l-1.335 2.01-.694-3.49c-1.606-.996-3.146-1.532-3.956-1.14-.685.333-.883 3.685-.833 8.067-1.432-6.779-2.893-12.55-3.828-13.184-2.387-1.617-11.638 1.801-12.466 4.03-.55 1.484 2.705 10.517 6.108 19.107-5.16-4.995-10.373-9.71-11.356-9.383-2.05.679-3.884 7.918-2.87 9.967.757 1.527 13.087 8.34 19.304 11.702 1.056 2.44 1.786 4.032 1.908 4.157l6.695-2.595 1.273.48s5.817-21.403 5.521-24.767" />
    <path fill="#F9F9FA"
        d="m186.825 170.468-6.592.78 2.704-3.213c-1.708-.767-3.954-1.536-6.867-2.241l-11.094 1.984 2.935-3.488c-4.857-.672-11.5-1.105-15.153-1.216 2.247 5.294 3.887 9.876 3.058 12.22-.601 1.705.22 3.625-1.392 5.342 1.084-2.001 1.463-3.993 1.676-5.329 1.492-9.349-11.976-26.214-24.616-36.094-2.463-6.168-7.561-10.213-7.561-10.213l-1.335 4.874c-1.164-.459-2.466-.706-3.862-.776-3.819-2.82-7.596-3.999-7.596-3.999l.52 4.874c-17.989 4.035-25.676 13.503-28.164 20.928-.352 1.05-.476 2.04-.33 2.941.184 1.146 1.115 2.612 2.61 4.272 4.293.19 8.917.897 13.808 2.425 7.83 2.447 12.925 5.718 15.986 8.684-2.587-1.534-5.775-3.072-9.629-4.484-14.463-5.301-27.792-3.109-36.01-.929l3.266 3.153-10.453-.894a52.63 52.63 0 0 0-5.634 2.455l4.857 3.014-10.632 1.2c-4.44.116-1.115.798-1.33 1.18-.384.68-.15 1.459.664 1.825 10.704 4.82 58.717 5.561 70.95 4.272 3.15 1.174 6.275 2.151 9.272 2.846 12.832 2.972 19.223-.355 22.363-4.416 10.156-2.628 34.877-9.63 35.626-10.48.52-.586-.591-.782-2.045-1.497" />
    <path stroke="#F9F9FA" stroke-linecap="round" stroke-linejoin="round"
        d="m186.825 170.468-6.592.78 2.704-3.213c-1.708-.767-3.954-1.536-6.867-2.241l-11.094 1.984 2.935-3.488c-4.857-.672-11.5-1.105-15.153-1.216 2.247 5.294 3.887 9.876 3.058 12.22-.601 1.705.22 3.625-1.392 5.342 1.084-2.001 1.463-3.993 1.676-5.329 1.492-9.349-11.976-26.214-24.616-36.094-2.463-6.168-7.561-10.213-7.561-10.213l-1.335 4.874c-1.164-.459-2.466-.706-3.862-.776-3.819-2.82-7.596-3.999-7.596-3.999l.52 4.874c-17.989 4.035-25.676 13.503-28.164 20.928-.352 1.05-.476 2.04-.33 2.941.184 1.146 1.115 2.612 2.61 4.272 4.293.19 8.917.897 13.808 2.425 7.83 2.447 12.925 5.718 15.986 8.684-2.587-1.534-5.775-3.072-9.629-4.484-14.463-5.301-27.792-3.109-36.01-.929l3.266 3.153-10.453-.894a52.63 52.63 0 0 0-5.634 2.455l4.857 3.014-10.632 1.2c-4.44.116-1.115.798-1.33 1.18-.384.68-.15 1.459.664 1.825 10.704 4.82 58.717 5.561 70.95 4.272 3.15 1.174 6.275 2.151 9.272 2.846 12.832 2.972 19.223-.355 22.363-4.416 10.156-2.628 34.877-9.63 35.626-10.48.52-.586-.591-.782-2.045-1.497Z" />
    <path fill="#D9ECFF"
        d="M137.103 186.102c-.981 1.207 5.335 6.83 6.192 6.896 1.276.1 7.132-4.394 6.68-8.048-.242-1.958-8.988-3.616-12.872 1.152" />
    <path fill="#59ACFF"
        d="M131.5 172c.827 0 1.5.635 1.5 1.415v3.171c0 .78-.673 1.414-1.5 1.414s-1.5-.634-1.5-1.414v-3.171c-.006-.78.667-1.415 1.5-1.415m20 0c.827 0 1.5.635 1.5 1.415v3.171c0 .78-.673 1.414-1.5 1.414s-1.5-.634-1.5-1.414v-3.171c0-.78.667-1.415 1.5-1.415" />
    <path stroke="#D9EBFF" stroke-linecap="round" stroke-linejoin="round" stroke-width="3"
        d="M62 149s.283 7 10.182 7H90" />
    <path stroke="gold" stroke-linecap="round" stroke-linejoin="round" d="M67 148s-.09 3.02 2 5" />
    <path fill="#59ACFF"
        d="M163.942 116.738c-.139-.405-.51-.7-.955-.76l-2.368-.327-1.058-2.028A1.193 1.193 0 0 0 158.5 113c-.45 0-.862.241-1.06.623l-1.06 2.028-2.367.326a1.166 1.166 0 0 0-.955.761c-.14.405-.023.849.3 1.147l1.712 1.578-.404 2.23c-.076.419.106.843.47 1.094.365.25.849.283 1.246.084l2.118-1.052 2.117 1.052a1.235 1.235 0 0 0 1.246-.084c.364-.25.547-.675.472-1.094l-.405-2.23 1.713-1.578c.322-.298.438-.742.3-1.147m-13 14c-.14-.404-.51-.7-.956-.761l-2.368-.325-1.058-2.029A1.194 1.194 0 0 0 145.5 127c-.45 0-.862.242-1.06.623l-1.06 2.03-2.367.324a1.167 1.167 0 0 0-.955.762c-.14.404-.023.849.3 1.145l1.712 1.58-.404 2.228c-.076.42.106.844.47 1.095.365.249.849.282 1.246.084l2.118-1.052 2.117 1.052a1.234 1.234 0 0 0 1.246-.084c.364-.251.547-.675.472-1.095l-.406-2.228 1.714-1.58c.322-.296.438-.74.3-1.145m-7-25.001c-.14-.405-.51-.7-.956-.76l-2.368-.327-1.058-2.028A1.193 1.193 0 0 0 138.5 102c-.45 0-.861.241-1.06.623l-1.06 2.028-2.367.326a1.166 1.166 0 0 0-.955.761c-.14.405-.023.85.3 1.147l1.712 1.578-.404 2.23c-.076.419.106.843.47 1.094.365.25.849.283 1.246.084l2.118-1.051 2.117 1.051a1.235 1.235 0 0 0 1.246-.084c.364-.25.548-.675.472-1.094l-.405-2.23 1.713-1.578c.322-.297.438-.742.3-1.147" />
    <path fill="#F9F9FA"
        d="M89.1 93.39c4.89 1.764 7.9 1.606 7.9 1.606s-1.164-5.504-5.242-11.062l-2.071-.363-.948-3.146C85.308 77.039 80.545 74.098 74 73c0 0 .04 2.081.652 4.866l3.547 2.372-2.38 1.52c1.247 3.23 3.342 6.597 6.903 8.647.449.258.886.494 1.32.725l4.093-.29.965 2.55Z" />
    <path stroke="#D9EBFF" stroke-linecap="round" stroke-linejoin="round" stroke-width="2.5"
        d="M82 80s12.335 16.266 24 19" />
    <path fill="#F9F9FA"
        d="M129.835 61.258c-4.857-2.69-6.835-5.262-6.835-5.262s5.294-3.107 12.674-3.873l1.266 2.166L140.642 52c5.158.305 10.884 2.024 16.358 6.555 0 0-1.722 1.5-4.419 3.053l-4.604-1.335.62 3.25c-3.502 1.362-7.708 2.133-11.869.738a46.053 46.053 0 0 1-1.513-.541l-3.18-3.447-2.2.985Z" />
    <path stroke="#D9EBFF" stroke-linecap="round" stroke-linejoin="round" stroke-width="2.5"
        d="M148 57.795S123.513 59.842 112 51" />
    <path fill="#f4f4f7"
        d="M110 25.097h23.557s-7.371-16.754 8.277-18.92c13.957-1.934 19.472 12.653 19.472 12.653s1.655-8.415 9.955-6.805C179.445 13.612 185.487 27 185.487 27H206" />
    <path stroke="#EAEAEE" stroke-dasharray="12 8 3 4 1 9" stroke-linecap="round" stroke-linejoin="round"
        d="M111 22.322h23.557s-7.371-16.952 8.277-19.143c13.957-1.956 19.472 12.802 19.472 12.802s1.655-8.514 9.955-6.885C180.445 10.7 186.487 23 186.487 23H207" />
    <path stroke="#f4f4f7" stroke-linecap="round" stroke-linejoin="round" stroke-width="2" d="M110 26h97" />
    <path fill="#f4f4f7"
        d="M0 84.913h13.006s-4.07-9.574 4.57-10.812c7.704-1.105 10.75 7.23 10.75 7.23s.913-4.809 5.495-3.888C38.34 78.35 41.675 86 41.675 86H53" />
    <path stroke="#EAEAEE" stroke-dasharray="12 8 3 4 1 9" stroke-linecap="round" stroke-linejoin="round"
        d="M0 82h13.006s-4.07-9.65 4.57-10.898c7.704-1.114 10.75 7.288 10.75 7.288s.913-4.848 5.495-3.92c4.518.915 7.854 7.35 7.854 7.35H53" />
    <path stroke="#f4f4f7" stroke-linecap="round" stroke-linejoin="round" stroke-width="2" d="M0 85h54" />
    <path fill="#D9ECFF"
        d="M121.548 185.207s24.27 9.723 33.537-1.965c9.267-11.687-6.34-26.896-8.404-29.091-1.846-1.965 17.514 15.665 4.83 28.138-6.457 6.352-23.652 4.196-30.497.205-.117-.068.534 2.713.534 2.713" />
    <path stroke="#D9EBFF"
        d="M121.548 185.207s24.27 9.723 33.537-1.965c9.267-11.687-6.34-26.896-8.404-29.091-1.846-1.965 17.514 15.665 4.83 28.138-6.457 6.352-23.652 4.196-30.497.205-.117-.068.534 2.713.534 2.713Z" />
    <path fill="#D9ECFF"
        d="M157.72 177.31c26.829-.975 31.185-5.31 31.185-5.31s.608 1.5-1.252 2.356C183.347 176.34 154 183 154 183s3.542-5.684 3.72-5.69" />
    <path stroke="#D9EBFF"
        d="M157.72 177.31c26.829-.975 31.185-5.31 31.185-5.31s.608 1.5-1.252 2.356C183.347 176.34 154 183 154 183s3.542-5.684 3.72-5.69Z" />
    <path fill="#D9ECFF"
        d="M49.713 178.555s-.579-.22 1.837.381c2.898.72 14.42 2.103 24.992 2.328 10.57.225 44.318-1.126 44.318-1.126s1.058.75 1.133 2.178c.076 1.426-.473 1.972-.473 1.972s-14.4 1.257-34.106.43c-19.706-.826-26.803-2.102-30.351-2.628-3.55-.525-8.68-1.74-9.01-3.204-.404-1.777 1.66-.331 1.66-.331" />
    <path stroke="#D9EBFF"
        d="M49.713 178.555s-.579-.22 1.837.381c2.898.72 14.42 2.103 24.992 2.328 10.57.225 44.318-1.126 44.318-1.126s1.058.75 1.133 2.178c.076 1.426-.473 1.972-.473 1.972s-14.4 1.257-34.106.43c-19.706-.826-26.803-2.102-30.351-2.628-3.55-.525-8.68-1.74-9.01-3.204-.404-1.777 1.66-.331 1.66-.331Z" />
    <path fill="#D9ECFF"
        d="M86.448 146.384 83 137.144s2.922 4.962 4.87 5.738c1.947.775 4.944-2.792 5.393-4.963.449-2.172-.824-8.919-.824-8.919s1.723 7.367 2.922 8.298c1.198.93 2.639.573 2.639.573L87.12 148l-.672-1.616Z" />
    <path fill="#D9ECFF"
        d="M92.366 144.002s-4.862 5.217-5.986 8.855C83.996 160.58 95 166 95 166l-8.39-1.156s-6.625-6-3.991-12.274c3.735-8.898 9.747-8.568 9.747-8.568" />
    <path fill="#D9ECFF"
        d="M87 163.044s5.02-.593 14.755 2.571C110.882 168.582 116 174 116 174s-11.978-5.858-18.742-7.242c-6.763-1.385-10.044-1.864-10.044-1.864l-.214-1.85Z" />
    <path fill="#D7B600" d="m87 145-4-8" />
    <path stroke="#D9EBFF" stroke-linecap="round" stroke-linejoin="round" d="m95 139-2-11" />
    <path fill="#F9F9FA"
        d="M81.37 21.277C83.812 16.251 84 13 84 13s-5.964.556-12.33 4.237l.164 2.504-4.235.295c-3.989 3.259-7.664 8.002-9.599 14.89 0 0 2.209.216 5.229-.09l2.981-3.776 1.278 3.013c3.566-.934 7.377-2.759 9.967-6.324.326-.45.628-.889.924-1.326l.679-4.666 2.311-.48Z" />
    <path stroke="#D9EBFF" stroke-linecap="round" stroke-linejoin="round" stroke-width="2.5"
        d="M64 28S85.233 15.442 90 2" />
    <path stroke="#59ACFF" stroke-linecap="round" stroke-linejoin="round" stroke-width="2"
        d="M155 170s-1.168-2-3.5-2c-2.334 0-3.5 2-3.5 2m-14 0s-1.168-2-3.5-2c-2.334 0-3.5 2-3.5 2" />
    <path stroke="#D9EBFF" stroke-linecap="round" stroke-linejoin="round" stroke-width="2"
        d="M105 168s4.568 1.976 8.748 4.694C115.031 173.528 117 175 117 175" />
    <path stroke="#D9EBFF" stroke-linecap="round" stroke-linejoin="round" stroke-width="3"
        d="M47 178s.51 1.2 6.122 2.4C58.735 181.6 67 182 67 182m93-3s10.449-.849 23.69-4.879C187.518 172.956 190 172 190 172" />
    <path stroke="#D9EBFF" stroke-linecap="round" stroke-linejoin="round" stroke-width="2"
        d="m111 182 11-1m-34-34c5.628-7.188 12-10 12-10" />
    <path stroke="#D9EBFF" stroke-linecap="round" stroke-linejoin="round" d="M147 154s7.895 7.355 10 18" />
    <path stroke="#EAEAEE" stroke-linecap="round" stroke-linejoin="round" stroke-width="2" d="M3 156h53m114 0h32" />
    <path fill="#D9ECFF"
        d="M157.077 154c-.288 0-.56-.11-.762-.31a1.04 1.04 0 0 1 0-1.491c1.602-1.572 1.528-4.075 1.527-4.1a1.07 1.07 0 0 1 1.032-1.099c.647.017 1.096.43 1.122 1.005.008.14.14 3.437-2.157 5.686a1.08 1.08 0 0 1-.762.309" />
    <path fill="#59ACFF"
        d="M159.405 146h-.04c-.86.036-1.532.75-1.499 1.59.001.02.055 2.368-1.408 3.798a1.505 1.505 0 0 0 0 2.163c.295.29.688.449 1.107.449.419 0 .812-.16 1.108-.449 2.49-2.432 2.33-5.95 2.322-6.099-.039-.814-.696-1.428-1.563-1.452h-.027Zm0 .927c.38.01.627.244.643.574.007.134.125 3.275-2.046 5.396a.622.622 0 0 1-.437.176.622.622 0 0 1-.436-.176.594.594 0 0 1 0-.853c1.779-1.738 1.686-4.462 1.685-4.49a.61.61 0 0 1 .591-.627Z" />
    <path fill="#D9ECFF"
        d="M68.92 154c-.29 0-.56-.112-.764-.317-2.165-2.16-2.163-5.284-2.155-5.633.018-.59.493-1.05 1.08-1.05.624.015 1.096.51 1.081 1.105 0 .024-.028 2.505 1.522 4.054A1.078 1.078 0 0 1 68.92 154" />
    <path fill="#59ACFF"
        d="M67.587 146h-.017c-.854 0-1.544.664-1.568 1.512-.01.373-.03 3.695 2.32 6.03.296.296.69.458 1.11.458.418 0 .813-.162 1.109-.457a1.554 1.554 0 0 0 0-2.206c-1.419-1.41-1.402-3.718-1.4-3.742A1.565 1.565 0 0 0 67.61 146h-.024Zm0 .945c.34.008.61.29.602.63 0 .026-.045 2.715 1.68 4.43a.613.613 0 0 1 0 .87.62.62 0 0 1-.875 0c-2.11-2.097-2.046-5.203-2.043-5.335a.618.618 0 0 1 .62-.595h.016Z" />
    <path fill="#59ACFF"
        d="M85.393 108c-3.798 0-11.097 2.773-12.163 5.726-.273.753-.742 2.05 3.163 12.955-4.797-4.374-5.708-4.375-6.476-4.375-.243 0-.48.04-.703.116-1.182.401-2.155 1.554-2.976 3.523-1.026 2.458-1.99 6.913-.924 9.124.366.76 1.036 2.15 17.534 11.398-1.048 1.331-1.95 2.925-2.69 4.761-.158.394-.29.8-.393 1.218h-8.508c-6.42 0-6.867-3.865-6.896-4.305-.07-1.6-1.45-2.918-3.075-2.918l-.079.001c-.839.03-1.595.38-2.151.983a3.066 3.066 0 0 0-.815 2.21c.076 2.816 2.564 10.182 13.016 10.182h8.87c.511 1.58 1.265 3.045 2.04 4.288-4.395.31-8.909 1.082-13.466 2.308a2.471 2.471 0 0 0-1.814 2.607l-4.522-.393a2.455 2.455 0 0 0-1.075.148 55.372 55.372 0 0 0-5.897 2.606 2.486 2.486 0 0 0-1.329 2.09 2.5 2.5 0 0 0 .406 1.464l-3.867.444c-1.319.035-2.85.092-3.79.91-.317.024-.628.099-.926.223a3.084 3.084 0 0 0-1.65 4.025c.77 1.862 3.303 3.172 8.21 4.247 2.146.47 4.856.876 8.056 1.204 6.674.914 15.304 1.586 26.378 2.055a322.324 322.324 0 0 0 21.872.177c5.051-.066 9.26-.237 11.919-.484 3.187 1.181 6.223 2.114 9.033 2.775 2.657.623 5.214 1.006 7.613 1.14 1.096 1.1 3.594 3.456 4.96 3.56.046.004.135.007.182.007 1.88 0 5.377-2.753 7.091-5.477 2.38-.987 4.384-2.403 5.967-4.218 2.666-.621 8.305-1.948 14.146-3.392 4.776-.886 9.488-2.019 14.009-3.367 3.821-1.14 6.241-2.054 6.343-2.092a3.087 3.087 0 0 0 1.79-3.959 3.047 3.047 0 0 0-1.609-1.722c-.54-.658-1.333-1.001-2.011-1.296-.3-.13-.595-.256-.907-.413a2.472 2.472 0 0 0-1.39-.241l-1.097.114a1.943 1.943 0 0 0-.126-.94 1.855 1.855 0 0 0-1.046-1.325l-.02-.01h-.002l-2.713-1.212a1.779 1.779 0 0 0-.285-.1l-2.496-.656a54.024 54.024 0 0 0-2.092-.555 2.445 2.445 0 0 0-1.024-.03l-5.255.952a2.468 2.468 0 0 0-2.114-2.492c-4.038-.567-9.08-.952-12.818-1.145a41.287 41.287 0 0 0-1.082-1.825h.016c10.44 0 12.936-7.364 13.015-10.201.066-1.664-1.246-3.093-2.924-3.168a3.066 3.066 0 0 0-3.196 2.918c-.029.432-.476 4.298-6.895 4.298h-4.716a23.099 23.099 0 0 0-1.012-1.031 2.44 2.44 0 0 0-1.275-.631c-4.091-4.962-8.96-9.791-13.834-13.717-2.679-6.279-7.495-10.295-8.048-10.741a2.468 2.468 0 0 0-1.54-.545 2.457 2.457 0 0 0-2.373 1.826l-.69 2.553a15.588 15.588 0 0 0-1.252-.168c-3.931-2.791-7.58-3.947-7.739-3.998a2.46 2.46 0 0 0-2.287.445 2.463 2.463 0 0 0-.89 2.172l.304 2.898c-2.391.784-4.878 1.843-7.427 3.166 2.21-9.566 2.077-11.11 2.025-11.716-.22-2.58-2.634-5.031-4.051-6.262a1.853 1.853 0 0 0-1.388-.445 1.866 1.866 0 0 0-.829-1.216c-1.638-1.043-3.068-1.571-4.25-1.571-.537 0-1.028.109-1.46.324-.11.055-.215.116-.314.185-1.206-4.392-1.845-4.837-2.392-5.217-.732-.51-1.682-.757-2.904-.757m97.45 59.364c.002 0 .003 0 .004.002l-.004-.002m-97.45-57.5c.777 0 1.422.129 1.847.424.92.64 2.359 6.472 3.768 13.322-.05-4.428.145-7.815.82-8.151.177-.089.39-.13.635-.13.841 0 2.03.5 3.258 1.281l.681 3.526 1.314-2.03c1.788 1.553 3.284 3.475 3.417 5.014.138 1.622-1.093 7.397-2.419 12.99.051-.005.102-.009.152-.009.462 0 .898.254 1.095.706.067.151.1.31.103.466 3.4-1.906 6.945-3.472 10.326-4.43l-.466-4.426a.608.608 0 0 1 .6-.671c.06 0 .122.01.181.028.156.048 3.824 1.229 7.627 4.034 1.171.074 2.257.273 3.233.591l1.162-4.306a.606.606 0 0 1 .96-.315c.21.17 5.17 4.207 7.682 10.448 5.15 4.097 10.306 9.231 14.576 14.533a.613.613 0 0 1 .392-.143c.143 0 .286.05.401.158.083.078.643.612 1.461 1.536h5.536c8.338 0 8.735-5.818 8.748-6.066a1.223 1.223 0 0 1 1.26-1.153c.663.03 1.179.588 1.152 1.253-.002.085-.444 8.391-11.16 8.391h-3.557a39.657 39.657 0 0 1 3.489 5.5c3.583.16 9.245.556 13.692 1.179a.607.607 0 0 1 .38.99l-1.869 2.252 9.453-1.715a.521.521 0 0 1 .25.008c.715.176 1.401.36 2.062.548l2.495.656 2.713 1.21a.112.112 0 0 0-.037-.01c-.09 0 .223.366.12.366a.136.136 0 0 1-.045-.012.601.601 0 0 1-.124.49l-2.173 2.05 5.524-.574a.593.593 0 0 1 .341.058c.362.182.7.327.996.455.824.357 1.368.592 1.492 1.143.002.012.002.028.005.04.487.003.943.294 1.126.78a1.217 1.217 0 0 1-.706 1.56c-.101.04-2.497.94-6.218 2.05-5.215 1.556-10 2.614-13.87 3.332a1140.473 1140.473 0 0 1-14.78 3.539c-1.67 2.097-3.82 3.5-6.22 4.395-1.407 2.679-4.82 5.111-5.814 5.111h-.042c-.473-.037-2.668-1.807-4.285-3.53-2.349-.082-4.99-.42-8.005-1.128-2.851-.67-5.95-1.632-9.21-2.856-2.582.265-6.91.447-12.213.518a319.93 319.93 0 0 1-21.747-.177c-14.091-.597-21.73-1.426-26.236-2.044-2.525-.259-5.433-.637-7.879-1.174-5.082-1.113-6.555-2.323-6.894-3.143a1.213 1.213 0 0 1 .65-1.586c.147-.062.299-.09.447-.09.31 0 .607.122.833.336a.67.67 0 0 1-.039-.429c.143-.586.738-.754 2.894-.811l8.858-1.015-3.391-2.135a.61.61 0 0 1 .044-1.054 53.366 53.366 0 0 1 5.697-2.515.62.62 0 0 1 .263-.038l8.763.762-2.053-2.011a.61.61 0 0 1 .266-1.021c5.662-1.522 11.177-2.32 16.518-2.394-1.169-1.399-3.449-4.47-4.148-7.866H71.257c-10.716 0-11.16-8.306-11.161-8.39a1.21 1.21 0 0 1 1.16-1.258h.03c.611 0 1.194.502 1.223 1.157.013.254.415 6.066 8.748 6.066h10.097c.046-.8.208-1.6.524-2.382 1.15-2.854 2.567-4.71 3.955-5.928-6.162-3.424-18.11-10.21-18.85-11.743-.997-2.07.809-9.385 2.826-10.07a.322.322 0 0 1 .107-.017c1.196 0 6.156 4.617 11.069 9.497-3.35-8.68-6.553-17.807-6.011-19.306.666-1.846 6.897-4.497 10.419-4.497" />
    <path stroke="#59ACFF" stroke-linecap="round" stroke-linejoin="round"
        d="M92 143s5.74-5.071 15-9m1 37s-12.336-7.012-26-5.875M157.802 172s1.308 6.754-2.802 11m-7-30s4.442 6.235 5 7m-74-2h10m34 23s-1.154 3.368-3 4m21-2s-7.015 2.477-2.465 7m11.117-5s.218 1.655-.652 3" />
    <path fill="#59ACFF"
        d="M73.94 72c-.222 0-.44.08-.612.231a.959.959 0 0 0-.328.743c.002.091.05 2.266.666 5.186.05.24.189.45.387.588l2.344 1.633-1.175.782a.964.964 0 0 0-.365 1.136c1.598 4.309 4.027 7.463 7.218 9.377.453.271.894.52 1.33.763a.931.931 0 0 0 .518.113l3.337-.245.708 1.948c.095.262.298.469.556.565 2.629.988 4.734 1.406 6.104 1.581 3.805 2.876 7.404 4.74 10.703 5.539a2.165 2.165 0 0 0 2.609-1.63 2.214 2.214 0 0 0-.262-1.664 2.153 2.153 0 0 0-1.343-.99c-2.867-.694-6.094-2.43-9.6-5.163-.776-2.26-2.17-5.545-4.497-8.85a.936.936 0 0 0-.598-.384l-1.472-.27-.773-2.668a.936.936 0 0 0-.233-.402c-4.102-4.216-9.17-6.876-15.062-7.905a.904.904 0 0 0-.16-.014m0 .955c6.462 1.13 11.165 4.153 14.553 7.636l.937 3.235 2.043.373c2.369 3.361 3.736 6.693 4.464 8.876 3.236 2.552 6.755 4.681 10.18 5.511.659.16 1.066.832.908 1.502a1.229 1.229 0 0 1-1.477.922c-3.605-.873-7.232-2.985-10.56-5.527-1.345-.153-3.452-.55-6.139-1.559l-.952-2.621-4.042.297c-.427-.237-.859-.48-1.303-.746-3.515-2.109-5.583-5.57-6.815-8.891l2.35-1.564-3.502-2.44c-.604-2.863-.645-5.004-.645-5.004M112.124 49a2.11 2.11 0 0 0-1.73.917 2.207 2.207 0 0 0-.364 1.623c.093.574.4 1.077.862 1.414 3.07 2.244 7.23 3.988 12.366 5.187 1.11 1.045 2.966 2.549 5.738 4.08a.896.896 0 0 0 .806.035l1.564-.7 2.675 2.894c.098.107.22.188.354.238.49.184.988.366 1.513.541 1.526.512 3.151.771 4.827.771 2.352 0 4.852-.508 7.427-1.508a.95.95 0 0 0 .58-1.066l-.321-1.673 3.072.89a.908.908 0 0 0 .702-.087c2.69-1.546 4.407-3.029 4.48-3.091a.956.956 0 0 0 .325-.733.953.953 0 0 0-.343-.726c-4.885-4.035-10.46-6.265-16.57-6.626l-.053-.002a.893.893 0 0 0-.476.136l-2.84 1.752-.768-1.309a.917.917 0 0 0-.882-.455c-4.186.435-7.705 1.615-9.996 2.572-4.988-1.063-8.929-2.633-11.713-4.67a2.084 2.084 0 0 0-1.235-.404m0 .946c.243 0 .486.074.7.229 3.286 2.403 7.725 3.925 12.34 4.884 2.2-.942 5.74-2.174 9.996-2.615l1.241 2.12 3.633-2.24c5.06.3 10.676 1.983 16.044 6.42 0 0-1.69 1.468-4.334 2.988l-4.517-1.307.61 3.183c-2.156.837-4.584 1.446-7.102 1.446a14.2 14.2 0 0 1-4.54-.724 43.894 43.894 0 0 1-1.485-.53l-3.12-3.375-2.156.964c-2.885-1.594-4.72-3.139-5.73-4.116-4.547-1.038-8.917-2.633-12.277-5.089a1.253 1.253 0 0 1-.281-1.72c.234-.339.603-.518.978-.518M89.867 0c-.9 0-1.706.562-2.008 1.4-1.153 3.192-3.516 6.67-7.028 10.34-2.42.539-5.976 1.598-9.663 3.625a.911.911 0 0 0-.474.862l.102 1.471-3.318.22a.937.937 0 0 0-.51.194c-4.827 3.75-8.168 8.678-9.931 14.646a.904.904 0 0 0 .123.77.92.92 0 0 0 .678.396c.032.004.818.076 2.086.076 1.104 0 2.224-.054 3.329-.16a.932.932 0 0 0 .624-.33l2.032-2.447.672 1.508a.926.926 0 0 0 1.072.518c4.62-1.15 8.15-3.29 10.497-6.36.334-.437.642-.864.943-1.287a.898.898 0 0 0 .157-.39l.584-3.81 1.679-.332a.924.924 0 0 0 .645-.484c1.421-2.781 2.108-5.022 2.439-6.479 3.554-3.854 6.001-7.6 7.278-11.132.191-.53.163-1.1-.082-1.61a2.113 2.113 0 0 0-1.21-1.082A2.125 2.125 0 0 0 89.867 0m0 .914c.135 0 .272.022.406.07.627.222.954.904.73 1.524-1.392 3.853-4.093 7.602-7.257 11.004-.288 1.35-.939 3.615-2.414 6.501l-2.315.457-.68 4.445c-.296.416-.598.835-.925 1.263-2.595 3.396-6.412 5.135-9.985 6.025l-1.279-2.871-2.986 3.597c-1.252.121-2.364.157-3.238.157-1.239 0-2-.072-2-.072 1.938-6.56 5.62-11.079 9.615-14.184l4.242-.28-.164-2.386c3.751-2.063 7.353-3.09 9.69-3.592 3.261-3.375 6.063-7.098 7.424-10.866a1.207 1.207 0 0 1 1.136-.792" />
    <path stroke="#59ACFF" stroke-linecap="round" stroke-linejoin="round"
        d="M85 85s6.926 8.148 11 11m26-39s8.163 2 20 2M73 25s4.678-2.708 12-10" />
</svg>