<svg height="32" width="32" xmlns="http://www.w3.org/2000/svg">
    <path d="M7.177 12c-.067 0-.136-.005-.205-.015-.64-.093-1.067-.599-.954-1.13 1.4-6.592 6.243-8.28 9.006-8.7 4.62-.698 9.317 1.06 10.81 3.142.332.463.15 1.062-.41 1.337-.559.276-1.28.122-1.612-.34-.92-1.284-4.637-2.783-8.364-2.22-2.64.4-6.017 1.962-7.112 7.12-.101.473-.598.806-1.159.806zm9.454 14c-.486 0-.98-.034-1.483-.106-4.51-.637-8.436-4.083-9.132-8.013-.104-.588.318-1.143.942-1.24.627-.107 1.215.3 1.32.886.53 2.999 3.699 5.737 7.21 6.234 1.91.267 5.471.061 7.834-4.382 1.14-2.146-.317-7.498-3.37-10.032-1.714-1.423-3.495-1.578-5.29-.452-1.397.876-2.855 3.39-2.795 5.734.046 1.855.972 3.304 2.75 4.307.604.34 2.324.557 3.325-.106.784-.52 1.017-1.554.695-3.072-.255-1.193-1.415-3.313-1.97-3.387.002.001-.2.06-.54.539-.272.384-.537 1.82-.18 2.448.067.118.126.189.373.189.633 0 1.147.482 1.147 1.078s-.513 1.08-1.146 1.08c-1.057 0-1.907-.471-2.394-1.328-.819-1.438-.373-3.722.293-4.663 1.034-1.458 2.143-1.599 2.892-1.458 2.595.483 3.764 5.035 3.774 5.08.644 3.029-.527 4.53-1.622 5.257-1.849 1.226-4.572.9-5.826.193-3.11-1.755-3.818-4.288-3.864-6.105-.084-3.317 1.904-6.38 3.818-7.58 2.65-1.663 5.596-1.433 8.08.628 3.646 3.028 5.615 9.394 3.903 12.614C23.433 23.995 20.298 26 16.63 26zm-.546 4c-1.15 0-2.18-.144-3.046-.339-2.828-.635-5.452-2.201-6.85-4.087-.345-.466-.205-1.094.312-1.404.516-.31 1.215-.184 1.56.28 1.834 2.475 7.879 5.528 14.19 1.744.517-.31 1.215-.185 1.56.28.344.466.205 1.093-.312 1.404C20.8 29.496 18.232 30 16.085 30z" fill="#f4f4f7"/>
</svg>
