<svg height="16" width="16" xmlns="http://www.w3.org/2000/svg">
    <g fill="#f4f4f7" fill-rule="evenodd">
        <path d="M13 1a1 1 0 0 1 0 2h-.015c.01.165.015.332.015.5 0 1.747-2.012 2.51-2.012 4.502 0 1.99 2.012 2.752 2.012 4.498 0 .169-.005.336-.015.501L13 13a1 1 0 0 1 0 2H3a1 1 0 0 1 0-2l.015.001A8.56 8.56 0 0 1 3 12.5c0-1.746 1.988-2.507 2-4.498C5.012 6.01 3 5.247 3 3.5c0-.168.005-.335.015-.5H3a1 1 0 1 1 0-2zm-2.013 2H5.012l-.009.248L5 3.5c0 1.861 1.992 2.518 1.992 4.502S5 10.639 5 12.5l.003.251.01.249.589-.001.44-.703C7.025 10.766 7.677 10 8 10c.37 0 1.17 1 2.398 2.999h.59c.008-.164.012-.33.012-.499 0-1.86-2.013-2.485-2.013-4.498C8.987 5.989 11 5.362 11 3.5l-.003-.252z"/>
        <path d="M6 4h4C8.952 6 8.285 7 8 7s-.952-1-2-3z"/>
    </g>
</svg>
