<svg fill="#f4f4f7" height="16" width="480" xmlns="http://www.w3.org/2000/svg">
    <svg>
        <path d="M2.062 6a2 2 0 0 1 0 4 2.001 2.001 0 0 1-2-2 2 2 0 0 1 2-2z"/>
    </svg>
    <svg x="16">
        <path d="M3.613 6a2 2 0 0 1 0 4 2.001 2.001 0 0 1-2-2 2 2 0 0 1 2-2z"/>
    </svg>
    <svg x="32">
        <path d="M6.352 6.057c1.214 0 2.2.87 2.2 1.943 0 1.072-.986 1.943-2.2 1.943s-2.2-.87-2.2-1.943c0-1.072.986-1.943 2.2-1.943z"/>
    </svg>
    <svg x="48">
        <path d="M8.338 6.171c1.435 0 2.6.82 2.6 1.829 0 1.01-1.165 1.829-2.6 1.829s-2.6-.82-2.6-1.829c0-1.01 1.165-1.829 2.6-1.829z"/>
    </svg>
    <svg x="64">
        <path d="M9.762 6.286c1.655 0 3 .768 3 1.714s-1.345 1.714-3 1.714c-1.656 0-3-.768-3-1.714s1.344-1.714 3-1.714z"/>
    </svg>
    <svg x="80">
        <path d="M10.828 6.4c1.877 0 3.4.717 3.4 1.6s-1.523 1.6-3.4 1.6c-1.876 0-3.4-.717-3.4-1.6s1.524-1.6 3.4-1.6z"/>
    </svg>
    <svg x="96">
        <path d="M11.648 6.3c1.683 0 3.05.762 3.05 1.7s-1.367 1.7-3.05 1.7-3.05-.762-3.05-1.7 1.367-1.7 3.05-1.7z"/>
    </svg>
    <svg x="112">
        <path d="M12.287 6.2c1.49 0 2.7.807 2.7 1.8s-1.21 1.8-2.7 1.8-2.7-.807-2.7-1.8 1.21-1.8 2.7-1.8z"/>
    </svg>
    <svg x="128">
        <path d="M12.785 6.1c1.297 0 2.35.851 2.35 1.9s-1.053 1.9-2.35 1.9-2.35-.851-2.35-1.9 1.053-1.9 2.35-1.9z"/>
    </svg>
    <svg x="144">
        <path d="M13.17 6a2 2 0 0 1 0 4 2.001 2.001 0 0 1-2-2c0-1.104.897-2 2-2z"/>
    </svg>
    <svg x="160">
        <path d="M13.463 6c1.103 0 2 .896 2 2s-.897 2-2 2a2.001 2.001 0 0 1-2-2 2 2 0 0 1 2-2z"/>
    </svg>
    <svg x="176">
        <path d="M13.677 6c1.103 0 2 .896 2 2s-.897 2-2 2a2.001 2.001 0 0 1-2-2 2 2 0 0 1 2-2z"/>
    </svg>
    <svg x="192">
        <path d="M13.823 6a2 2 0 0 1 0 4 2.001 2.001 0 0 1-2-2 2 2 0 0 1 2-2z"/>
    </svg>
    <svg x="208">
        <path d="M13.911 6a2 2 0 0 1 0 4 2.001 2.001 0 0 1-2-2 2 2 0 0 1 2-2z"/>
    </svg>
    <svg x="224">
        <path d="M13.947 6a2 2 0 0 1 0 4 2.001 2.001 0 0 1-2-2 2 2 0 0 1 2-2z"/>
    </svg>
    <svg x="240">
        <path d="M13.937 6a2 2 0 0 1 0 4 2.001 2.001 0 0 1-2-2 2 2 0 0 1 2-2z"/>
    </svg>
    <svg x="256">
        <path d="M13.27 6a2 2 0 0 1 0 4 2.001 2.001 0 0 1-2-2c0-1.104.897-2 2-2z"/>
    </svg>
    <svg x="272">
        <path d="M10.65 6.057c1.182 0 2.142.87 2.142 1.943 0 1.072-.96 1.943-2.143 1.943-1.182 0-2.142-.87-2.142-1.943 0-1.072.96-1.943 2.142-1.943z"/>
    </svg>
    <svg x="288">
        <path d="M7.911 6.171c1.34 0 2.429.82 2.429 1.829 0 1.01-1.088 1.829-2.429 1.829-1.34 0-2.428-.82-2.428-1.829 0-1.01 1.088-1.829 2.428-1.829z"/>
    </svg>
    <svg x="304">
        <path d="M6.18 6.286c1.498 0 2.715.768 2.715 1.714S7.678 9.714 6.18 9.714 3.466 8.946 3.466 8 4.682 6.286 6.18 6.286z"/>
    </svg>
    <svg x="320">
        <path d="M5.01 6.4c1.655 0 3 .717 3 1.6s-1.345 1.6-3 1.6c-1.656 0-3-.717-3-1.6s1.344-1.6 3-1.6z"/>
    </svg>
    <svg x="336">
        <path d="M4.167 6.3c1.518 0 2.75.762 2.75 1.7s-1.232 1.7-2.75 1.7-2.75-.762-2.75-1.7 1.232-1.7 2.75-1.7z"/>
    </svg>
    <svg x="352">
        <path d="M3.54 6.2c1.38 0 2.5.807 2.5 1.8s-1.12 1.8-2.5 1.8-2.5-.807-2.5-1.8 1.12-1.8 2.5-1.8z"/>
    </svg>
    <svg x="368">
        <path d="M3.069 6.1c1.241 0 2.25.851 2.25 1.9S4.31 9.9 3.069 9.9C1.827 9.9.819 9.049.819 8s1.008-1.9 2.25-1.9z"/>
    </svg>
    <svg x="384">
        <path d="M2.714 6a2 2 0 0 1 0 4 2.001 2.001 0 0 1-2-2 2 2 0 0 1 2-2z"/>
    </svg>
    <svg x="400">
        <path d="M2.452 6a2 2 0 0 1 0 4 2.001 2.001 0 0 1-2-2 2 2 0 0 1 2-2z"/>
    </svg>
    <svg x="416">
        <path d="M2.266 6c1.103 0 2 .896 2 2s-.897 2-2 2a2.001 2.001 0 0 1-2-2 2 2 0 0 1 2-2z"/>
    </svg>
    <svg x="432">
        <path d="M2.142 6c1.103 0 2 .896 2 2s-.897 2-2 2a2.001 2.001 0 0 1-2-2 2 2 0 0 1 2-2z"/>
    </svg>
    <svg x="448">
        <path d="M2.071 6a2 2 0 0 1 0 4 2.001 2.001 0 0 1-2-2 2 2 0 0 1 2-2z"/>
    </svg>
    <svg x="464">
        <path d="M2.046 6a2 2 0 0 1 0 4 2.001 2.001 0 0 1-2-2c0-1.104.897-2 2-2z"/>
    </svg>
    <svg x="480">
        <path d="M2.062 6a2 2 0 0 1 0 4 2.001 2.001 0 0 1-2-2 2 2 0 0 1 2-2z"/>
    </svg>
</svg>
