<svg width="16" height="16" fill="#f4f4f7" fill-opacity="context-fill-opacity">
  <path d="M7 3V1s0-1 1-1 1 1 1 1v2s0 1-1 1-1-1-1-1z"/>
  <path d="m4.63 4.1-1-1.73S3.13 1.5 4 1c.87-.5 1.37.37 1.37.37l1 1.73s.5.87-.37 1.37c-.87.57-1.37-.37-1.37-.37z" opacity=".93"/>
  <path d="m3.1 6.37-1.73-1S.5 4.87 1 4c.5-.87 1.37-.37 1.37-.37l1.73 1s.87.5.37 1.37c-.5.87-1.37.37-1.37.37z" opacity=".86"/>
  <path d="M3 9H1S0 9 0 8s1-1 1-1h2s1 0 1 1-1 1-1 1z" opacity=".79"/>
  <path d="m4.1 11.37-1.73 1S1.5 12.87 1 12c-.5-.87.37-1.37.37-1.37l1.73-1s.87-.5 1.37.37c.5.87-.37 1.37-.37 1.37z" opacity=".72"/>
  <path d="m3.63 13.56 1-1.73s.5-.87 1.37-.37c.87.5.37 1.37.37 1.37l-1 1.73s-.5.87-1.37.37c-.87-.5-.37-1.37-.37-1.37z" opacity=".65"/>
  <path d="M7 15v-2s0-1 1-1 1 1 1 1v2s0 1-1 1-1-1-1-1z" opacity=".58"/>
  <path d="m10.63 14.56-1-1.73s-.5-.87.37-1.37c.87-.5 1.37.37 1.37.37l1 1.73s.5.87-.37 1.37c-.87.5-1.37-.37-1.37-.37z" opacity=".51"/>
  <path d="m13.56 12.37-1.73-1s-.87-.5-.37-1.37c.5-.87 1.37-.37 1.37-.37l1.73 1s.87.5.37 1.37c-.5.87-1.37.37-1.37.37z" opacity=".44"/>
  <path d="M15 9h-2s-1 0-1-1 1-1 1-1h2s1 0 1 1-1 1-1 1z" opacity=".37"/>
  <path d="m14.56 5.37-1.73 1s-.87.5-1.37-.37c-.5-.87.37-1.37.37-1.37l1.73-1s.87-.5 1.37.37c.5.87-.37 1.37-.37 1.37z" opacity=".3"/>
  <path d="m9.64 3.1.98-1.66s.5-.874 1.37-.37c.87.5.37 1.37.37 1.37l-1 1.73s-.5.87-1.37.37c-.87-.5-.37-1.37-.37-1.37z" opacity=".23"/>
  <animateTransform attributeName="transform" attributeType="xml" calcMode="discrete" dur="0.85s" repeatCount="indefinite" type="rotate" values="0 0 0; 30 0 0; 60 0 0; 90 0 0; 120 0 0; 150 0 0; 180 0 0; 210 0 0; 240 0 0; 270 0 0; 300 0 0; 330 0 0"/>
</svg>
