<svg width="16" height="16" fill="#f4f4f7" fill-opacity="context-fill-opacity">
  <path d="M9.684 0a.841.841 0 0 0-.842.842v2.526H3.789a.842.842 0 0 0-.842.842v3.515a2.526 2.526 0 0 0-1.684 2.38 2.527 2.527 0 0 0 1.684 2.378v1.832h-.842A.842.842 0 0 0 2.081 16h11.813a.842.842 0 0 0 .024-1.684H4.632v-1.831a2.526 2.526 0 0 0 1.536-1.538h7.727a.842.842 0 0 0 .024-1.684h-7.75a2.522 2.522 0 0 0-1.537-1.536V5.053h4.211v1.684c0 .466.377.842.842.842h3.368a.841.841 0 0 0 .842-.842V.842A.842.842 0 0 0 13.053 0H9.684z"/>
</svg>
