<svg width="16" height="16" fill="#f4f4f7" fill-opacity="context-fill-opacity">
  <path d="M9.968 13.622c.255-.255.276-.645.098-.965a2.297 2.297 0 0 1 .374-2.759l2.711-2.711.542.542c.298.298.786.298 1.084 0s.298-.786 0-1.084L9.355 1.224c-.298-.298-.786-.298-1.084 0s-.298.786 0 1.084l.542.542-2.71 2.711a2.3 2.3 0 0 1-2.76.374c-.32-.179-.71-.157-.965.098l-.07.07a.769.769 0 0 0 0 1.084l2.7 2.7-3.784 3.806c-.298.298-.298.786 0 1.084s.786.298 1.084 0l3.784-3.806 2.721 2.721a.769.769 0 0 0 1.084 0l.071-.07z"/>
</svg>
