<svg width="16" height="16">
  <path fill="#f4f4f7" fill-opacity="context-fill-opacity" d="M11 10a1 1 0 0 1-1-1V5H3v8a1 1 0 0 0 1 1h2a1 1 0 0 1 0 2H3a2 2 0 0 1-2-2V4a2 2 0 0 1 2-2h1.05a2.5 2.5 0 0 1 4.9 0H10a2 2 0 0 1 2 2v5a1 1 0 0 1-1 1zm-1-6V3H8.949a1 1 0 0 1-.98-.8 1.5 1.5 0 0 0-2.939 0 1 1 0 0 1-.98.8H3v1zM6.5 2a.5.5 0 1 1 0 1 .5.5 0 0 1 0-1zm-2 5a.5.5 0 0 1 0-1h4a.5.5 0 0 1 0 1zm0 2a.5.5 0 0 1 0-1h2a.5.5 0 0 1 0 1zm0 2a.5.5 0 1 1 0-1h3a.5.5 0 1 1 0 1zm5.163 4.997a.668.668 0 0 1-.473-.196l-2.003-2.003a.668.668 0 0 1 .945-.944l1.44 1.44 4.217-6.024a.668.668 0 0 1 1.094.765l-4.674 6.677a.668.668 0 0 1-.488.285.576.576 0 0 1-.058 0z"/>
</svg>
