<svg xmlns="http://www.w3.org/2000/svg" width="64" height="64">
    <ellipse cx="32" cy="34" rx="29.5" ry="30" fill-opacity=".1"/>
    <circle cx="32" cy="32" r="30" fill="#8265ff"/>
    <circle cx="32" cy="32" r="29.5" stroke="#ba65ff" fill="#f4f4f7"/>
    <path d="M45.225 43c-4.989 0-8.44-5.5-13.224-5.5S23.468 43 18.776 43C12.62 43 8.074 37.656 8 28.5c-.046-5.685 1.805-7.5 9.8-7.5s10.328 3 14.2 3 6.214-3 14.2-3 9.842 1.815 9.8 7.5C55.926 37.656 51.381 43 45.225 43ZM21.714 28c-4.857.193-6.857 2.846-6.857 3.5s3.22 2.5 6.367 2.5 6.857-1.057 6.857-2c.001-1.052-1.781-4.182-6.367-4Zm20.572 0c-4.583-.182-6.367 2.948-6.367 4 0 .943 3.709 2 6.857 2s6.367-1.846 6.367-2.5-2-3.307-6.857-3.5Z" stroke="#3c3f4c" stroke-width="3" fill="#f4f4f7"/>
    <path d="M45.225 43c-4.989 0-8.44-5.5-13.224-5.5S23.468 43 18.776 43C12.62 43 8.074 37.656 8 28.5c-.046-5.685 1.805-7.5 9.8-7.5s10.328 3 14.2 3 6.214-3 14.2-3 9.842 1.815 9.8 7.5C55.926 37.656 51.381 43 45.225 43ZM21.714 28c-4.857.193-6.857 2.846-6.857 3.5s3.22 2.5 6.367 2.5 6.857-1.057 6.857-2c.001-1.052-1.781-4.182-6.367-4Zm20.572 0c-4.583-.182-6.367 2.948-6.367 4 0 .943 3.709 2 6.857 2s6.367-1.846 6.367-2.5-2-3.307-6.857-3.5Z" fill="#f4f4f7"/>
</svg>
