<svg width="468" height="20" fill="#f4f4f7" fill-opacity="context-fill-opacity">
  <path d="m10.414 10 5.293-5.293a1 1 0 0 0-1.414-1.414L9 8.586 3.707 3.293a1 1 0 0 0-1.414 1.414L7.586 10l-5.293 5.293a1 1 0 1 0 1.414 1.414L9 11.414l5.293 5.293a1 1 0 0 0 1.414-1.414z"/>
  <svg x="18">
    <path d="m10.414 10 5.293-5.293a1 1 0 0 0-1.414-1.414L9 8.586 3.707 3.293a1 1 0 0 0-1.414 1.414L7.586 10l-5.293 5.293a1 1 0 1 0 1.414 1.414L9 11.414l5.293 5.293a1 1 0 0 0 1.414-1.414z"/>
  </svg>
  <svg x="36">
    <path d="m10.414 10 5.293-5.293a1 1 0 0 0-1.414-1.414L9 8.586 3.707 3.293a1 1 0 0 0-1.414 1.414L7.586 10l-5.293 5.293a1 1 0 1 0 1.414 1.414L9 11.414l5.293 5.293a1 1 0 0 0 1.414-1.414z"/>
  </svg>
  <svg x="54">
    <path d="m10.414 10 5.293-5.293a1 1 0 0 0-1.414-1.414L9 8.586 3.707 3.293a1 1 0 0 0-1.414 1.414L7.586 10l-5.293 5.293a1 1 0 1 0 1.414 1.414L9 11.414l5.293 5.293a1 1 0 0 0 1.414-1.414z"/>
  </svg>
  <svg x="72">
    <defs>
      <mask id="reload-to-stop_svg__a" fill="#f4f4f7" mask-type="alpha">
        <path d="M1.177-1.075a19.704 19.704 0 0 1 19.697 19.697A19.704 19.704 0 0 1 1.177 38.319 19.704 19.704 0 0 1-18.52 18.622 19.704 19.704 0 0 1 1.177-1.075z"/>
      </mask>
    </defs>
    <path d="m10.414 10 5.293-5.293a1 1 0 0 0-1.414-1.414L9 8.586 3.707 3.293a1 1 0 0 0-1.414 1.414L7.586 10l-5.293 5.293a1 1 0 1 0 1.414 1.414L9 11.414l5.293 5.293a1 1 0 0 0 1.414-1.414z" mask="url(#reload-to-stop_svg__a)"/>
  </svg>
  <svg x="90">
    <defs>
      <mask id="reload-to-stop_svg__b" fill="#f4f4f7" mask-type="alpha">
        <path d="M1.133-.256a18.885 18.885 0 0 1 18.878 18.878A18.885 18.885 0 0 1 1.133 37.5a18.885 18.885 0 0 1-18.878-18.878A18.885 18.885 0 0 1 1.133-.256z"/>
      </mask>
    </defs>
    <path d="m10.414 10 5.293-5.293a1 1 0 0 0-1.414-1.414L9 8.586 3.707 3.293a1 1 0 0 0-1.414 1.414L7.586 10l-5.293 5.293a1 1 0 1 0 1.414 1.414L9 11.414l5.293 5.293a1 1 0 0 0 1.414-1.414z" mask="url(#reload-to-stop_svg__b)"/>
  </svg>
  <svg x="108">
    <defs>
      <mask id="reload-to-stop_svg__c" fill="#f4f4f7" mask-type="alpha">
        <path d="M1.075.828a17.8 17.8 0 0 1 17.794 17.794A17.8 17.8 0 0 1 1.075 36.416a17.8 17.8 0 0 1-17.794-17.794A17.8 17.8 0 0 1 1.075.828z"/>
      </mask>
    </defs>
    <path d="m10.414 10 5.293-5.293a1 1 0 0 0-1.414-1.414L9 8.586 3.707 3.293a1 1 0 0 0-1.414 1.414L7.586 10l-5.293 5.293a1 1 0 1 0 1.414 1.414L9 11.414l5.293 5.293a1 1 0 0 0 1.414-1.414z" mask="url(#reload-to-stop_svg__c)"/>
  </svg>
  <svg x="126">
    <defs>
      <mask id="reload-to-stop_svg__d" fill="#f4f4f7" mask-type="alpha">
        <path d="M.996 2.299a16.329 16.329 0 0 1 16.323 16.323A16.329 16.329 0 0 1 .996 34.945a16.329 16.329 0 0 1-16.323-16.323A16.329 16.329 0 0 1 .996 2.299z"/>
      </mask>
    </defs>
    <path d="m10.414 10 5.293-5.293a1 1 0 0 0-1.414-1.414L9 8.586 3.707 3.293a1 1 0 0 0-1.414 1.414L7.586 10l-5.293 5.293a1 1 0 1 0 1.414 1.414L9 11.414l5.293 5.293a1 1 0 0 0 1.414-1.414z" mask="url(#reload-to-stop_svg__d)"/>
  </svg>
  <svg x="144">
    <defs>
      <mask id="reload-to-stop_svg__f" fill="#f4f4f7" mask-type="alpha">
        <path d="M.884 4.389a14.238 14.238 0 0 1 14.233 14.233A14.238 14.238 0 0 1 .884 32.855a14.238 14.238 0 0 1-14.233-14.233A14.238 14.238 0 0 1 .884 4.389z"/>
      </mask>
      <mask id="reload-to-stop_svg__e" fill="#f4f4f7" mask-type="alpha">
        <path d="M1.097-19A20.712 20.712 0 0 1 21.802 1.705 20.712 20.712 0 0 1 1.097 22.41 20.712 20.712 0 0 1-19.608 1.705 20.712 20.712 0 0 1 1.097-19z"/>
      </mask>
    </defs>
    <g mask="url(#reload-to-stop_svg__e)">
      <path d="m9 11.413 5.293 5.293a.999.999 0 0 0 1.414-.024 1.001 1.001 0 0 0 0-1.39l-5.293-5.293"/>
      <path d="M10.973 10.558 3.707 3.293a1 1 0 0 0-1.414.024 1.001 1.001 0 0 0 0 1.39l7.266 7.265"/>
    </g>
    <path d="m7.687 9.906-5.394 5.387a1 1 0 0 0-.025 1.414 1 1 0 0 0 1.439 0l5.394-5.387m1.212-1.232 5.393-5.381a.999.999 0 0 0-.024-1.414 1.001 1.001 0 0 0-1.39 0L8.899 8.674" mask="url(#reload-to-stop_svg__f)"/>
  </svg>
  <svg x="162">
    <defs>
      <mask id="reload-to-stop_svg__h" fill="#f4f4f7" mask-type="alpha">
        <path d="M.71 7.608a11.018 11.018 0 0 1 11.014 11.014A11.018 11.018 0 0 1 .71 29.636a11.018 11.018 0 0 1-11.014-11.014A11.018 11.018 0 0 1 .71 7.608z"/>
      </mask>
      <mask id="reload-to-stop_svg__g" fill="#f4f4f7" mask-type="alpha">
        <path d="M1.07-18.497A20.209 20.209 0 0 1 21.272 1.705 20.209 20.209 0 0 1 1.07 21.907 20.209 20.209 0 0 1-19.132 1.705 20.209 20.209 0 0 1 1.07-18.497z"/>
      </mask>
    </defs>
    <g mask="url(#reload-to-stop_svg__g)">
      <path d="m9 11.413 5.293 5.293a.999.999 0 0 0 1.414-.024 1.001 1.001 0 0 0 0-1.39l-5.293-5.293"/>
      <path d="M10.973 10.558 3.707 3.293a1 1 0 0 0-1.414.024 1.001 1.001 0 0 0 0 1.39l7.266 7.265"/>
    </g>
    <path d="m7.687 9.906-5.394 5.387a1 1 0 0 0-.025 1.414 1 1 0 0 0 1.439 0l5.394-5.387m1.212-1.232 5.393-5.381a.999.999 0 0 0-.024-1.414 1.001 1.001 0 0 0-1.39 0L8.899 8.674" mask="url(#reload-to-stop_svg__h)"/>
  </svg>
  <svg x="180">
    <defs>
      <mask id="reload-to-stop_svg__j" fill="#f4f4f7" mask-type="alpha">
        <path d="M.454 12.406a6.219 6.219 0 0 1 6.216 6.216 6.219 6.219 0 0 1-6.216 6.216 6.219 6.219 0 0 1-6.216-6.216 6.219 6.219 0 0 1 6.216-6.216z"/>
      </mask>
      <mask id="reload-to-stop_svg__i" fill="#f4f4f7" mask-type="alpha">
        <path d="M1.034-17.835a19.547 19.547 0 0 1 19.54 19.54 19.547 19.547 0 0 1-19.54 19.54 19.547 19.547 0 0 1-19.54-19.54 19.547 19.547 0 0 1 19.54-19.54z"/>
      </mask>
    </defs>
    <g mask="url(#reload-to-stop_svg__i)">
      <path d="m9 11.413 5.293 5.293a.999.999 0 0 0 1.414-.024 1.001 1.001 0 0 0 0-1.39l-5.293-5.293"/>
      <path d="M10.973 10.558 3.707 3.293a1 1 0 0 0-1.414.024 1.001 1.001 0 0 0 0 1.39l7.266 7.265"/>
    </g>
    <path d="m7.687 9.906-5.394 5.387a1 1 0 0 0-.025 1.414 1 1 0 0 0 1.439 0l5.394-5.387m1.212-1.232 5.393-5.381a.999.999 0 0 0-.024-1.414 1.001 1.001 0 0 0-1.39 0L8.899 8.674" mask="url(#reload-to-stop_svg__j)"/>
  </svg>
  <svg x="198">
    <defs>
      <mask id="reload-to-stop_svg__k" fill="#f4f4f7" mask-type="alpha">
        <path d="M.987-16.966a18.677 18.677 0 0 1 18.67 18.671 18.677 18.677 0 0 1-18.67 18.67 18.677 18.677 0 0 1-18.67-18.67 18.677 18.677 0 0 1 18.67-18.67z"/>
      </mask>
    </defs>
    <g mask="url(#reload-to-stop_svg__k)">
      <path d="m9 11.413 5.293 5.293a.999.999 0 0 0 1.414-.024 1.001 1.001 0 0 0 0-1.39l-5.293-5.293"/>
      <path d="M10.973 10.558 3.707 3.293a1 1 0 0 0-1.414.024 1.001 1.001 0 0 0 0 1.39l7.266 7.265"/>
    </g>
  </svg>
  <svg x="216">
    <defs>
      <mask id="reload-to-stop_svg__l" fill="#f4f4f7" mask-type="alpha">
        <path d="M.925-15.811A17.522 17.522 0 0 1 18.441 1.705 17.522 17.522 0 0 1 .925 19.221 17.522 17.522 0 0 1-16.591 1.705 17.522 17.522 0 0 1 .925-15.811z"/>
      </mask>
    </defs>
    <g mask="url(#reload-to-stop_svg__l)">
      <path d="m9 11.413 5.293 5.293a.999.999 0 0 0 1.414-.024 1.001 1.001 0 0 0 0-1.39l-5.293-5.293"/>
      <path d="M10.973 10.558 3.707 3.293a1 1 0 0 0-1.414.024 1.001 1.001 0 0 0 0 1.39l7.266 7.265"/>
    </g>
  </svg>
  <svg x="234">
    <defs>
      <mask id="reload-to-stop_svg__m" fill="#f4f4f7" mask-type="alpha">
        <path d="M.84-14.234A15.944 15.944 0 0 1 16.779 1.705 15.944 15.944 0 0 1 .84 17.644 15.944 15.944 0 0 1-15.099 1.705 15.944 15.944 0 0 1 .84-14.234z"/>
      </mask>
    </defs>
    <g mask="url(#reload-to-stop_svg__m)">
      <path d="m9 11.413 5.293 5.293a.999.999 0 0 0 1.414-.024 1.001 1.001 0 0 0 0-1.39l-5.293-5.293"/>
      <path d="M10.973 10.558 3.707 3.293a1 1 0 0 0-1.414.024 1.001 1.001 0 0 0 0 1.39l7.266 7.265"/>
    </g>
  </svg>
  <svg x="252">
    <defs>
      <mask id="reload-to-stop_svg__n" fill="#f4f4f7" mask-type="alpha">
        <path d="M.718-11.958A13.668 13.668 0 0 1 14.381 1.705 13.668 13.668 0 0 1 .718 15.368 13.668 13.668 0 0 1-12.945 1.705 13.668 13.668 0 0 1 .718-11.958z"/>
      </mask>
    </defs>
    <g mask="url(#reload-to-stop_svg__n)">
      <path d="m9 11.413 5.293 5.293a.999.999 0 0 0 1.414-.024 1.001 1.001 0 0 0 0-1.39l-5.293-5.293"/>
      <path d="M10.973 10.558 3.707 3.293a1 1 0 0 0-1.414.024 1.001 1.001 0 0 0 0 1.39l7.266 7.265"/>
    </g>
  </svg>
  <svg x="270">
    <defs>
      <mask id="reload-to-stop_svg__o" fill="#f4f4f7" mask-type="alpha">
        <path d="M.527-8.392A10.1 10.1 0 0 1 10.624 1.705 10.1 10.1 0 0 1 .527 11.802 10.1 10.1 0 0 1-9.57 1.705 10.1 10.1 0 0 1 .527-8.392z"/>
      </mask>
    </defs>
    <path d="M10.973 10.558 3.707 3.293a1 1 0 0 0-1.414.024 1.001 1.001 0 0 0 0 1.39l7.266 7.265" mask="url(#reload-to-stop_svg__o)"/>
  </svg>
  <svg x="288">
    <defs>
      <mask id="reload-to-stop_svg__p" fill="#f4f4f7" mask-type="alpha">
        <path d="M.267-3.544a5.25 5.25 0 0 1 5.249 5.249A5.25 5.25 0 0 1 .267 6.954a5.25 5.25 0 0 1-5.249-5.249A5.25 5.25 0 0 1 .267-3.544z"/>
      </mask>
    </defs>
    <path d="M10.973 10.558 3.707 3.293a1 1 0 0 0-1.414.024 1.001 1.001 0 0 0 0 1.39l7.266 7.265" mask="url(#reload-to-stop_svg__p)"/>
  </svg>
  <svg x="306">
    <path d="M6.148 16.38a6.996 6.996 0 0 0 5.708-12.773 6.997 6.997 0 0 0-6.878.664 6.954 6.954 0 0 0-2.874 4.522 1 1 0 1 0 1.97.345 5.02 5.02 0 1 1 2.352 5.113" opacity=".066"/>
  </svg>
  <svg x="324">
    <path d="m4.934 13.615.584.08a.231.231 0 0 0 .062-.458l-1.144-.155a.231.231 0 0 0-.26.198l-.155 1.144a.231.231 0 0 0 .457.062l.075-.554" opacity=".231"/>
    <path d="M3.416 14.202a6.995 6.995 0 0 0 11.177-8.415 6.997 6.997 0 0 0-6.34-2.747A6.954 6.954 0 0 0 3.55 5.606a1 1 0 1 0 1.557 1.255 5.02 5.02 0 1 1-.417 5.612" opacity=".186"/>
  </svg>
  <svg x="342">
    <path d="m3.778 11.038.737.506a.35.35 0 0 0 .397-.578l-1.444-.993a.35.35 0 0 0-.488.09l-.993 1.445a.35.35 0 0 0 .578.397l.48-.699" opacity=".351"/>
    <path d="M2.08 10.974a6.996 6.996 0 0 0 13.854-1.953 6.997 6.997 0 0 0-4.219-5.473 6.954 6.954 0 0 0-5.358-.03 1 1 0 1 0 .755 1.852 5.02 5.02 0 1 1-3.081 4.71" opacity=".322"/>
  </svg>
  <svg x="360">
    <path d="m4.073 8.272.576 1.051a.47.47 0 0 0 .825-.451L4.345 6.81a.47.47 0 0 0-.638-.187L1.645 7.752a.47.47 0 0 0 .451.825l.998-.546" opacity=".47"/>
    <path d="M2.473 7.503a6.995 6.995 0 0 0 13.068 4.996 6.997 6.997 0 0 0-1.042-6.83 6.954 6.954 0 0 0-4.674-2.62 1 1 0 1 0-.236 1.986 5.02 5.02 0 1 1-4.976 2.63" opacity=".464"/>
  </svg>
  <svg x="378">
    <path d="m5.703 6.065.05 1.503a.59.59 0 0 0 1.179-.04l-.098-2.946a.59.59 0 0 0-.609-.57l-2.947.097a.59.59 0 0 0 .04 1.18l1.424-.048" opacity=".59"/>
    <path d="M4.497 4.656a6.995 6.995 0 0 0-.839 9.857 6.995 6.995 0 0 0 9.857.84 6.997 6.997 0 0 0 2.393-6.482 6.954 6.954 0 0 0-2.821-4.555A1 1 0 1 0 11.92 5.94a5.02 5.02 0 1 1-5.627-.107" opacity=".607"/>
  </svg>
  <svg x="396">
    <path d="m8.198 5.001-.761 1.64a.71.71 0 0 0 1.287.597l1.493-3.217a.71.71 0 0 0-.345-.942L6.655 1.586a.71.71 0 0 0-.597 1.287l1.556.722" opacity=".709"/>
    <path d="M7.646 3.145a6.995 6.995 0 0 0 2.714 13.724 6.997 6.997 0 0 0 5.232-4.514 6.954 6.954 0 0 0-.265-5.35 1 1 0 1 0-1.807.856 5.02 5.02 0 1 1-4.872-2.817" opacity=".747"/>
  </svg>
  <svg x="414">
    <path d="M10.865 5.35 9.207 6.66a.83.83 0 0 0 1.027 1.3l3.253-2.57a.83.83 0 0 0 .136-1.164L11.053.974a.83.83 0 0 0-1.3 1.028l1.243 1.573" opacity=".829"/>
    <path d="M11.133 3.346a6.993 6.993 0 0 0-8.795 4.527 6.995 6.995 0 0 0 4.527 8.796 6.997 6.997 0 0 0 6.763-1.417 6.954 6.954 0 0 0 2.358-4.811 1 1 0 1 0-1.996-.126 5.02 5.02 0 1 1-2.9-4.823" opacity=".877"/>
  </svg>
  <svg x="432">
    <path d="m12.97 6.998-2.37.482a.949.949 0 0 0 .38 1.86l4.647-.948a.949.949 0 0 0 .74-1.118l-.947-4.648a.949.949 0 0 0-1.859.379l.458 2.247" opacity=".949"/>
    <path d="M14.087 5.21A6.993 6.993 0 0 0 4.2 4.915a6.994 6.994 0 0 0-.296 9.888 6.997 6.997 0 0 0 6.604 2.033 6.954 6.954 0 0 0 4.392-3.069 1 1 0 1 0-1.685-1.076 5.02 5.02 0 1 1-.204-5.624" opacity=".981"/>
  </svg>
  <svg x="450">
    <path d="m13.548 7.997-2.549.001a1 1 0 0 0 .001 2l5-.003a1 1 0 0 0 .999-1l-.003-5a1 1 0 0 0-2 .002l.002 2.417"/>
    <path d="M14.998 6.414a6.995 6.995 0 0 0-9.594-2.412 6.995 6.995 0 0 0-2.413 9.594A6.997 6.997 0 0 0 9.004 17a6.954 6.954 0 0 0 4.95-2.053 1 1 0 1 0-1.415-1.413 5.02 5.02 0 1 1 1.01-5.537"/>
  </svg>
</svg>
