<svg width="15" height="15">
  <path fill="#f4f4f7" d="m14.342 2.129-.482-.483a.5.5 0 0 1 0 .708L2.354 13.86a.5.5 0 0 1-.708 0l.483.482a.5.5 0 0 0 .707 0L14.342 2.836a.5.5 0 0 0 0-.707zm.014 3.52-.5-.5a.5.5 0 0 1 0 .707l-8 8a.5.5 0 0 1-.707 0l.5.5a.5.5 0 0 0 .707 0l8-8a.5.5 0 0 0 0-.707zm.007 3.509-.511-.511a.5.5 0 0 1 0 .707l-4.5 4.5a.5.5 0 0 1-.707 0l.511.511a.5.5 0 0 0 .707 0l4.5-4.5a.5.5 0 0 0 0-.707zm-.048 3.463-.468-.468a.5.5 0 0 1 0 .707l-.993.993a.5.5 0 0 1-.707 0l.468.468a.5.5 0 0 0 .707 0l.993-.993a.5.5 0 0 0 0-.707z" opacity=".9"/>
  <path fill="#1b1d24" d="M13.86 1.646a.5.5 0 0 0-.708 0L1.646 13.152a.5.5 0 1 0 .708.708L13.86 2.354a.5.5 0 0 0 0-.708zm-.006 3.5a.5.5 0 0 0-.707 0l-8 8a.5.5 0 0 0 .707.707l8-8a.5.5 0 0 0 0-.707zm-.002 3.501a.5.5 0 0 0-.707 0l-4.5 4.5a.5.5 0 0 0 .707.707l4.5-4.5a.5.5 0 0 0 0-.707zm-.005 3.506a.5.5 0 0 0-.707 0l-.993.993a.5.5 0 1 0 .707.707l.993-.993a.5.5 0 0 0 0-.707z" opacity=".6"/>
</svg>
