<svg fill="#787878" fill-opacity="context-fill-opacity" viewBox="0 0 16 16">
  <path d="M1 3c0-.86 1-2 2-2h3.84a.5.5 0 0 1 .48.64l-.57 2a.5.5 0 0 1-.48.36H1.5a.5.5 0 0 1-.5-.5V3zm4.4 3a.5.5 0 0 1 .49.64l-.57 2a.5.5 0 0 1-.48.36H1.5a.5.5 0 0 1-.5-.5v-2c0-.28.22-.5.5-.5h3.9zm-.94 5.64a.5.5 0 0 0-.48-.64H1.5a.5.5 0 0 0-.5.5V13c0 .86 1 2 2 2h.12a.5.5 0 0 0 .48-.36l.86-3zm4.14 3 3.72-13a.5.5 0 0 0-.48-.64h-1.46a.5.5 0 0 0-.48.36l-3.72 13a.5.5 0 0 0 .48.64h1.46a.5.5 0 0 0 .48-.36zM15 13V4.57c0-.58-.82-.7-.98-.14l-2.84 9.93a.5.5 0 0 0 .48.64H13c1 0 2-1 2-2z"/>
</svg>
