<svg xmlns="http://www.w3.org/2000/svg" width="32" height="16" fill="#f4f4f7" fill-opacity="context-fill-opacity"><path d="M8.808 2.102a.9.9 0 0 0-1.614 0L5.673 5.184l-3.401.494a.9.9 0 0 0-.5 1.535l2.462 2.4L3.653 13a.9.9 0 0 0 1.306.948L8 12.35l.482.253a1.496 1.496 0 0 1-.474-1.266.9.9 0 0 0-.427.104l-2.91 1.53.556-3.24a.9.9 0 0 0-.258-.797L2.616 6.639l3.253-.473a.9.9 0 0 0 .677-.492l1.455-2.948.733 1.484C8.958 4.077 9.22 4 9.5 4h.245l-.937-1.898ZM9.5 5a.5.5 0 0 0 0 1h5a.5.5 0 0 0 0-1h-5Zm0 3a.5.5 0 0 0 0 1h5a.5.5 0 0 0 0-1h-5Zm0 3a.5.5 0 0 0 0 1h5a.5.5 0 0 0 0-1h-5Z"/></svg>