<svg width="16" height="16" fill="#f4f4f7" fill-opacity="context-fill-opacity">
  <path d="M4.644 9.184H1.937a1.04 1.04 0 0 0-1.038 1.038v2.641c0 .572.465 1.038 1.038 1.038h2.707a1.04 1.04 0 0 0 1.038-1.038v-2.641c0-.573-.466-1.038-1.038-1.038zm9.29-.094h-2.706a1.04 1.04 0 0 0-1.038 1.038v2.64a1.04 1.04 0 0 0 1.038 1.038h2.706a1.04 1.04 0 0 0 1.038-1.038v-2.64a1.04 1.04 0 0 0-1.038-1.038zM9.405 2.1H6.698A1.04 1.04 0 0 0 5.66 3.138v2.64c0 .572.465 1.038 1.038 1.038h2.707a1.04 1.04 0 0 0 1.038-1.038v-2.64c0-.572-.465-1.038-1.038-1.038z"/>
  <path d="M14.735 3.175a1.26 1.26 0 0 0-1.17.782h-3.122v1.82c0 .047-.021.088-.027.134.837.88 1.228 2.161 1.407 3.178h.906c-.252-1.513-.882-3.24-2.169-4.242h2.998c.179.472.633.812 1.176.812.7.001 1.266-.555 1.266-1.241 0-.687-.566-1.243-1.265-1.243zM2.441 4.848h3.024C4.152 5.87 3.519 7.649 3.277 9.184h.907c.176-1.056.58-2.437 1.489-3.343-.001-.022-.012-.041-.012-.063v-1.82H2.435a1.261 1.261 0 0 0-1.17-.783C.566 3.175 0 3.731 0 4.418 0 5.104.566 5.66 1.265 5.66c.543 0 .997-.34 1.176-.812z" opacity=".5"/>
</svg>
