<svg width="16" height="16" fill="#f4f4f7">
  <path d="m12.4 3.6-1-.6-.9 2.5H10V1.8c0-.4-.5-.7-.9-.4L5.6 5H4c-1.1 0-2 .9-2 2v2c0 1.1.9 2 2 2h1.6l3.6 3.6c.3.3.9.1.9-.4v-3.7h.5l.9 2.5 1-.6C14 11.5 15 9.8 15 8s-1-3.5-2.6-4.4zM9 13l-3-3H4c-.6 0-1-.4-1-1V7c0-.6.4-1 1-1h2l3-3v10zm1-3.5v-3c.8 0 1.5.7 1.5 1.5s-.7 1.5-1.5 1.5zm1.9 2-.4-.9C12.4 10 13 9.1 13 8s-.6-2-1.4-2.5l.3-1c1.3.7 2.1 2 2.1 3.5s-.8 2.8-2.1 3.5z" filter="invert(1)"/>
  <path d="M4 6c-.6 0-1 .4-1 1v2c0 .6.4 1 1 1h2l3 3V3L6 6H4zm6 .5v3c.8 0 1.5-.7 1.5-1.5s-.7-1.5-1.5-1.5zm1.9-2-.4.9C12.4 6 13 6.9 13 8s-.6 2-1.4 2.5l.4.9c1.2-.7 2.1-2 2.1-3.5s-.9-2.7-2.2-3.4z"/>
</svg>
