<svg width="16" height="16">
  <path fill="#f4f4f7" stroke="#f4f4f7" d="M4 1.5H2a.5.5 0 0 0-.5.5v2c0 .28.22.5.5.5h2a.5.5 0 0 0 .5-.5V2a.5.5 0 0 0-.5-.5zm5 0H7a.5.5 0 0 0-.5.5v2c0 .28.22.5.5.5h2a.5.5 0 0 0 .5-.5V2a.5.5 0 0 0-.5-.5zm5 0h-2a.5.5 0 0 0-.5.5v2c0 .28.22.5.5.5h2a.5.5 0 0 0 .5-.5V2a.5.5 0 0 0-.5-.5zm-10 5H2a.5.5 0 0 0-.5.5v2c0 .28.22.5.5.5h2a.5.5 0 0 0 .5-.5V7a.5.5 0 0 0-.5-.5zm5 0H7a.5.5 0 0 0-.5.5v2c0 .28.22.5.5.5h2a.5.5 0 0 0 .5-.5V7a.5.5 0 0 0-.5-.5zm5 0h-2a.5.5 0 0 0-.5.5v2c0 .28.22.5.5.5h2a.5.5 0 0 0 .5-.5V7a.5.5 0 0 0-.5-.5zm-10 5H2a.5.5 0 0 0-.5.5v2c0 .28.22.5.5.5h2a.5.5 0 0 0 .5-.5v-2a.5.5 0 0 0-.5-.5zm5 0H7a.5.5 0 0 0-.5.5v2c0 .28.22.5.5.5h2a.5.5 0 0 0 .5-.5v-2a.5.5 0 0 0-.5-.5zm5 0h-2a.5.5 0 0 0-.5.5v2c0 .28.22.5.5.5h2a.5.5 0 0 0 .5-.5v-2a.5.5 0 0 0-.5-.5z"/>
</svg>
