<svg width="16" height="16" fill="#f4f4f7" fill-opacity="context-fill-opacity">
  <path d="M3 4a3 3 0 0 1 3-3h4a3 3 0 0 1 3 3v8a3 3 0 0 1-3 3H6a3 3 0 0 1-3-3V4zm3-1a1 1 0 0 0-1 1v8a1 1 0 0 0 1 1h4a1 1 0 0 0 1-1V4a1 1 0 0 0-1-1H6m7.82 1.03a.5.5 0 0 1 .5.09l1.5 1.25a.5.5 0 0 1-.64.76L13.9 5.07l-.9.34V4.34l.82-.3zm0 3a.5.5 0 0 1 .5.09l1.5 1.25a.5.5 0 0 1-.64.76L13.9 8.07l-.9.34V7.34l.82-.3zm0 3a.5.5 0 0 1 .5.09l1.5 1.25a.5.5 0 0 1-.64.76l-1.28-1.06-.9.34v-1.07l.82-.3zm-11.64-6a.5.5 0 0 0-.5.09L.18 5.37a.5.5 0 1 0 .64.76L2.1 5.07l.9.34V4.34l-.82-.3zm0 3a.5.5 0 0 0-.5.09L.18 8.37a.5.5 0 1 0 .64.76L2.1 8.07l.9.34V7.34l-.82-.3zm0 3a.5.5 0 0 0-.5.09l-1.5 1.25a.5.5 0 1 0 .64.76l1.28-1.06.9.34v-1.07l-.82-.3z"/>
</svg>
