<?xml version="1.0" encoding="utf-8"?>
<svg xmlns="http://www.w3.org/2000/svg" viewBox="0 0 114 114" width="16" height="16">
  <circle cx="57" cy="57" fill="context-fill #39ea49" r="57"/>
  <path fill="context-stroke #0b7407" d="M 27.7 68.1 L 27.7 37.2 C 27.7 32.5 31.6 28.6 36.3 28.6 L 67.2 28.6 C 69 28.6 69.9 30.8 68.6 32 L 31.1 69.5 C 29.9 70.8 27.7 69.9 27.7 68.1 Z M 78.1 86.5 L 47.3 86.5 C 45.5 86.5 44.6 84.3 45.9 83.1 L 83.3 45.7 C 84.6 44.4 86.7 45.3 86.7 47.1 L 86.7 77.9 C 86.7 82.7 82.8 86.5 78.1 86.5 Z" style="transform-origin: 57.2px 57.55px 0px;" transform="matrix(-1, 0, 0, -1, 0, 0)"/>
</svg>