<?xml version="1.0" encoding="UTF-8"?>
<svg width="24" height="24" viewBox="2.979 3.972 42.042 40.056" fill="context-fill" fill-opacity="context-fill-opacity" xmlns="http://www.w3.org/2000/svg">
  <defs>
    <mask id="mask-folder-7" x="6" y="6" width="36" height="36" maskUnits="userSpaceOnUse">
      <rect x="2.979" y="3.972" width="42.042" height="40.056" fill="white"/>
      <circle cx="24" cy="28" r="4" fill="black" stroke="black" stroke-width="4"/>
      <path d="M24 21V24" fill="none" stroke="black" stroke-width="4" stroke-linecap="round" stroke-linejoin="round"/>
      <path d="M24 32V35" fill="none" stroke="black" stroke-width="4" stroke-linecap="round" stroke-linejoin="round"/>
      <path d="M28.8281 23L26.7068 25.1213" fill="none" stroke="black" stroke-width="4" stroke-linecap="round" stroke-linejoin="round"/>
      <path d="M20.8281 31L18.7068 33.1213" fill="none" stroke="black" stroke-width="4" stroke-linecap="round" stroke-linejoin="round"/>
      <path d="M19 23L21.1213 25.1213" fill="none" stroke="black" stroke-width="4" stroke-linecap="round" stroke-linejoin="round"/>
      <path d="M27 31L29.1213 33.1213" fill="none" stroke="black" stroke-width="4" stroke-linecap="round" stroke-linejoin="round"/>
      <path d="M17 28H18.5H20" fill="none" stroke="black" stroke-width="4" stroke-linecap="round" stroke-linejoin="round"/>
      <path d="M28 28H29.5H31" fill="none" stroke="black" stroke-width="4" stroke-linecap="round" stroke-linejoin="round"/>
    </mask>
  </defs>
  <path d="M5 8C5 6.89543 5.89543 6 7 6H19L24 12H41C42.1046 12 43 12.8954 43 14V40C43 41.1046 42.1046 42 41 42H7C5.89543 42 5 41.1046 5 40V8Z"
        stroke-width="4" stroke-linejoin="round" mask="url(#mask-folder-7)"/>
</svg>
