<svg xmlns="http://www.w3.org/2000/svg" width="16" height="16" fill="#fff" fill-opacity="context-fill-opacity">
    <path d="M15.379 8h.02a8 8 0 0 1-1.858-.356.98.98 0 0 1-.054.847 1 1 0 1 1-1.735-.994.98.98 0 0 1 .481-.407c-.069-.036-.13-.083-.2-.121l-5.42 5.418a.98.98 0 0 1-.4.476 1 1 0 0 1-.117.04l-2.065 2.066c.509.219 1 .24 1.161-.147-.424 1.025 2.823 1.668 2.822.558 0 1.11 3.246.461 2.821-.564.425 1.025 3.175-.816 2.39-1.6.785.784 2.621-1.97 1.6-2.394 1.021.424 1.664-2.822.554-2.822m-5.073 5a1 1 0 1 1 1-1 1 1 0 0 1-1 1m4.401-11.707a1 1 0 0 0-1.414 0L9.679 4.907A7.94 7.94 0 0 1 8 .61v.025C8-.474 4.753.174 5.179 1.2 4.753.174 2 2.016 2.788 2.8 2 2.016.167 4.77 1.193 5.193.167 4.77-.476 8.016.634 8.015c-1.11 0-.461 3.247.564 2.821-.639.265-.163 1.428.475 2.077l-.38.38a1 1 0 1 0 1.414 1.414l12-12a1 1 0 0 0 0-1.414m-9 1.7a1 1 0 1 1-1 1A1 1 0 0 1 5.706 3ZM2.524 7.508a1 1 0 1 1 .37 1.364 1 1 0 0 1-.37-1.364m4.769-.215"/>
</svg>
