<svg xmlns="http://www.w3.org/2000/svg" width="16" height="16" fill="#fff" fill-opacity="context-fill-opacity">
    <path d="M13.613 13.291a.36.36 0 0 1 .223-.026q.094.026.094.15t-.129.287q-.112.138-.377.373t-.819.583q-.553.347-1.209.634c-.656.287-.975.357-1.612.497S8.493 16 7.818 16q-1.02 0-2.04-.266a9 9 0 0 1-1.792-.656 11.6 11.6 0 0 1-1.479-.892q-.707-.501-1.136-.9a8 8 0 0 1-.72-.75.4.4 0 0 1-.086-.141q-.017-.064.009-.103c.026-.039.04-.045.069-.06a.2.2 0 0 1 .099-.017q.056.004.099.039 1.646 1.003 2.572 1.423 3.335 1.509 6.849.772 1.628-.344 3.351-1.158m1.775-.986q.095.137.021.596-.073.458-.244.879-.292.711-.729 1.063-.145.12-.223.077-.076-.042 0-.206.18-.385.381-1.042c.201-.657.153-.718.056-.844a.3.3 0 0 0-.133-.099.8.8 0 0 0-.231-.051q-.14-.013-.253-.021t-.3 0a4 4 0 0 0-.27.017q-.081.01-.266.026l-.193.017q-.051.009-.111.013c-.06.004-.071.006-.094.009l-.073.009-.06.004h-.086l-.026-.004-.017-.013-.013-.026q-.051-.138.403-.343c.454-.205.598-.223.883-.257q.395-.06.926-.009c.531.051.572.102.652.205M12.01 8.508q0 .265.116.549.116.283.274.497t.321.394c.163.18.203.212.283.274l.111.094-1.946 1.92a29 29 0 0 1-1.174-1.148l-.163-.171a1.6 1.6 0 0 1-.214-.283q-.325.506-.836.879t-1.093.544c-.583.171-.789.18-1.2.197q-.617.025-1.179-.18c-.562-.205-.71-.324-1.007-.562s-.534-.56-.712-.969a3.5 3.5 0 0 1-.266-1.393q0-.72.24-1.32t.617-.999q.379-.398.914-.711a6 6 0 0 1 1.05-.489 9 9 0 0 1 1.114-.296q.6-.12 1.024-.159t.853-.056V4.033q0-.557-.18-.832-.292-.454-1.037-.454-.051 0-.141.009t-.347.103a2 2 0 0 0-.48.253 2.3 2.3 0 0 0-.48.51 2.9 2.9 0 0 0-.411.822L3.54 4.213q0-.514.189-1.02a3.4 3.4 0 0 1 .574-.969q.386-.463.926-.814c.54-.351.793-.422 1.299-.562s1.05-.21 1.633-.21q.858 0 1.552.214.694.215 1.11.527c.416.312.508.446.694.712q.28.4.386.737.107.338.107.63zm-5.761.18q0 .737.6 1.14.565.377 1.192.189.72-.215.977-1.054.12-.386.12-.866v-1.39a6 6 0 0 0-.951.103q-.447.087-.913.287c-.466.2-.56.337-.746.609q-.279.407-.279.982"/>
</svg>
