<svg xmlns="http://www.w3.org/2000/svg" width="16" height="16" fill="#fff" fill-opacity="context-fill-opacity">
    <path d="m15.82 14.13-3.19-6.41a1.28 1.28 0 0 0-2.3 0l-3.19 6.41A1.29 1.29 0 0 0 8.29 16h6.38a1.29 1.29 0 0 0 1.15-1.87M11 9.5a.5.5 0 0 1 1 0v2a.5.5 0 0 1-1 0zm.5 4.69a.69.69 0 1 1 0-1.38.69.69 0 0 1 0 1.38"/>
    <path d="M6.118 15.428a2.27 2.27 0 0 1 .127-1.744l.127-.256A5.68 5.68 0 0 1 3.31 11.21c-.29-.44-.24-1.02.13-1.41 1.116-1.373 2.779.441 4.496.486l.597-1.2A3.4 3.4 0 0 1 8 9.14a3.43 3.43 0 0 1-3.43-3.43c0-1.9 1.54-3.42 3.43-3.42s3.43 1.54 3.43 3.43c0 .1-.021.193-.029.291.027-.001.052-.009.078-.009.878 0 1.664.49 2.046 1.273l1.874 3.765A8 8 0 0 0 16 8c0-4.42-3.58-8-8-8S0 3.58 0 8a8 8 0 0 0 6.288 7.812 2.2 2.2 0 0 1-.17-.384"/>
</svg>
