<svg xmlns="http://www.w3.org/2000/svg" fill="#fff" fill-opacity="context-fill-opacity" viewBox="0 0 16 16">
    <path d="M14.92 9A6.6 6.6 0 0 0 15 8a7 7 0 1 0-7 7v-2a4.94 4.94 0 0 1-4.11-2.19A1 1 0 0 1 4 9.58C5 8.36 6.48 10 8 10h.09A1.51 1.51 0 0 1 9.5 9zM8 9a3 3 0 1 1 3-3 3 3 0 0 1-3 3"/>
    <path d="M15.5 10h-6a.5.5 0 0 0-.5.5v.32l3.5 2.1 3.5-2.1v-.32a.5.5 0 0 0-.5-.5"/>
    <path d="M12.5 14a.5.5 0 0 1-.26-.07L9 12v3.5a.5.5 0 0 0 .5.5h6a.5.5 0 0 0 .5-.5V12l-3.24 1.95a.5.5 0 0 1-.26.05"/>
</svg>
