<svg xmlns="http://www.w3.org/2000/svg" width="16" height="16" fill="#fff" fill-opacity="context-fill-opacity">
    <path d="M8 0a8 8 0 1 0 0 16A8 8 0 0 0 8 0m.564 4.202c.072-.672.875-1.702 1.518-1.554.64.146 1.226.997 1.107 1.729-.116.733-.697 1.7-1.604 1.581-.905-.115-1.11-.935-1.021-1.756M6.666 2.356c.677 0 1.225.779 1.225 1.744 0 .964-.547 1.744-1.225 1.744S5.44 5.064 5.44 4.1c0-.965.549-1.744 1.226-1.744m-3.824 4.13s.145-1.435 1.138-1.523c.789-.069 1.371.795 1.431 1.289.036.321.203 1.789-1.024 2.052-1.224.265-1.68-1.153-1.545-1.818m9.342 6.184c-.671 1.583-3.124.76-3.124.76s-.905-.292-1.957-.058c-1.05.235-1.955.146-1.955.146s-1.228.03-1.578-1.523c-.35-1.554 1.225-2.405 1.343-2.549.117-.148.933-.703 1.459-1.583.527-.877 2.103-1.581 3.214.147.818 1.172 2.22 2.256 2.22 2.256s1.049.822.378 2.404m-.204-3.605c-1.345.029-1.401-.909-1.401-1.581 0-.704.143-1.701 1.226-1.701 1.081 0 1.371 1.057 1.371 1.407 0 .353.147 1.846-1.196 1.875"/>
</svg>
