<svg xmlns="http://www.w3.org/2000/svg" width="16" height="16" fill="#fff" fill-opacity="context-fill-opacity">
    <path d="M14.796 10.778 12.01 8l2.778-2.778a.695.695 0 0 0 0-.984l-3.03-3.03a.695.695 0 0 0-.984 0L7.997 3.986 5.218 1.208a.7.7 0 0 0-.985 0l-3.03 3.03a.695.695 0 0 0 0 .984L3.983 8l-2.778 2.778a.695.695 0 0 0 0 .984l3.03 3.03a.695.695 0 0 0 .984 0l2.778-2.778 2.778 2.778c.14.14.314.202.496.202s.356-.07.496-.202l3.03-3.03a.696.696 0 0 0-.001-.984M9.833 6.986c.55 0 1 .45 1 1s-.45 1-1 1-1-.45-1-1 .45-1 1-1M8.01 5.163c.55 0 1 .45 1 1s-.45 1-1 1-1-.45-1-1 .45-1 1-1M4.581 7.119 2.33 4.874a.2.2 0 0 1 0-.282L4.581 2.34a.2.2 0 0 1 .282 0l2.245 2.245a.2.2 0 0 1 0 .282L4.863 7.119a.2.2 0 0 1-.282 0m1.606 1.867c-.55 0-1-.45-1-1s.45-1 1-1 1 .45 1 1-.45 1-1 1m1.823 1.823c-.55 0-1-.45-1-1s.45-1 1-1 1 .45 1 1-.45 1-1 1m3.112 2.858-2.251-2.245a.2.2 0 0 1 0-.282l2.252-2.252a.2.2 0 0 1 .282 0l2.245 2.245a.2.2 0 0 1 0 .282l-2.245 2.252a.2.2 0 0 1-.283 0"/>
</svg>
