<svg xmlns="http://www.w3.org/2000/svg" width="16" height="16">
    <path fill="#fff" fill-opacity="context-fill-opacity" d="M3.8 15.922a1.1 1.1 0 0 1-1.09-1.253l.609-4.36L.393 7.163a1.1 1.1 0 0 1 .616-1.833l4.08-.73L7.016.734a1.1 1.1 0 0 1 1.969 0L10.911 4.6 15 5.331a1.1 1.1 0 0 1 .611 1.833L12.68 10.31l.609 4.359a1.1 1.1 0 0 1-1.6 1.127L8 13.873 4.308 15.8a1.1 1.1 0 0 1-.508.122M2.981 7.01l2.451 2.635-.5 3.572L8 11.618l3.067 1.6-.5-3.572 2.452-2.636-3.45-.616L8 3.244l-1.569 3.15zM1.856 5.8"/>
</svg>
