<svg xmlns="http://www.w3.org/2000/svg" width="16" height="16" fill="#fff" fill-opacity="context-fill-opacity">
    <path fill-opacity=".15" d="M15 14H1c-.6 0-1-.4-1-1V3c0-.5.4-1 1-1h14c.6 0 1 .5 1 1v10c0 .6-.4 1-1 1"/>
    <path d="m8.4 4.2 1 2.1 2.3.3c.3 0 .5.4.2.7L10.2 9l.4 2.4c.1.3-.3.6-.6.4l-2-1L6 12c-.3.1-.6-.1-.6-.4l.4-2.4-1.7-1.8c-.2-.2-.1-.6.2-.7l2.3-.3 1-2.1c.2-.4.6-.4.8-.1"/>
    <path d="M15 2H1c-.5 0-1 .5-1 1v10c0 .5.5 1 1 1h14c.5 0 1-.5 1-1V3c0-.5-.5-1-1-1m0 10.5c0 .3-.2.5-.5.5h-13c-.3 0-.5-.2-.5-.5v-9c0-.3.2-.5.5-.5h13c.3 0 .5.2.5.5z"/>
</svg>
