<svg xmlns="http://www.w3.org/2000/svg" width="16" height="16" fill="#fff" fill-opacity="context-fill-opacity">
    <path d="M11.126 13.463a126 126 0 0 0-2.429 1.89l-.082.073c-.193.172-.44.396-.615.396s-.422-.223-.617-.398l-.081-.073c-.202-.178-2.274-1.78-2.429-1.89s-.258-.308-.088-.415c.131-.082.477-.26.966-.512l.465-.24c.731-.374 1.643-.696 1.784-.696s1.053.32 1.785.699l.465.24c.488.251.834.43.964.51.17.106.067.306-.088.416m4.362-7.959a6 6 0 0 0-.178.177l-2.05 2.175-.067.068c-.205.206-.506.51-.293 1.012l.044.102c.234.545.521 1.218.155 1.899-.39.725-1.057 1.209-1.485 1.129s-1.432-.605-1.803-.845c-.371-.238-1.542-1.203-1.542-1.572 0-.308.843-.82 1.252-1.069.082-.05.146-.088.182-.114a5 5 0 0 1 .2-.126c.374-.232 1.048-.65 1.065-.835.021-.229.012-.296-.289-.861a9 9 0 0 0-.216-.383c-.287-.492-.608-1.045-.536-1.44.081-.447.781-.702 1.373-.919l.216-.079.618-.232c.592-.222 1.25-.468 1.358-.518.15-.068.111-.135-.343-.178l-.22-.023c-.565-.059-1.602-.17-2.108-.029l-.327.09c-.567.152-1.262.34-1.329.45l-.033.049c-.065.091-.106.15-.035.535l.118.62c.156.817.401 2.092.431 2.379l.014.114c.04.319.065.532-.307.617l-.097.023c-.419.095-1.034.237-1.256.237s-.837-.142-1.256-.237l-.097-.022c-.371-.085-.345-.297-.306-.618l.014-.115c.03-.287.276-1.565.433-2.382l.117-.616c.07-.384.029-.444-.035-.535l-.035-.05c-.065-.11-.761-.298-1.328-.45l-.326-.089c-.506-.141-1.545-.03-2.107.029l-.222.022c-.455.043-.493.11-.343.178.108.05.766.296 1.358.518l.618.232.216.079c.592.217 1.293.473 1.373.919.071.395-.251.948-.536 1.44q-.118.201-.217.381c-.301.565-.309.632-.289.862.017.185.691.605 1.065.835.087.055.158.097.2.126.038.026.102.064.183.114.41.249 1.252.761 1.252 1.069 0 .369-1.171 1.335-1.542 1.574-.369.24-1.375.764-1.803.845-.425.081-1.094-.403-1.484-1.127-.366-.683-.079-1.356.155-1.899l.044-.103c.212-.503-.089-.807-.294-1.012l-.066-.069L.691 5.681a7 7 0 0 0-.179-.177C.235 5.233 0 5.005 0 4.422 0 3.716 2.736.414 2.736.414s2.309.44 2.62.44c.249 0 .728-.164 1.227-.337q.19-.067.38-.129C7.585.18 8 .178 8 .178s.415.002 1.037.209l.38.129c.5.172.98.337 1.227.337.311 0 2.62-.44 2.62-.44S16 3.714 16 4.421c.002.584-.234.812-.512 1.083"/>
</svg>
