<svg xmlns="http://www.w3.org/2000/svg" width="16" height="16">
    <path fill="#fff" fill-opacity="context-fill-opacity" d="M15.84 7.416q-.16-.457-.467-.787c-.307-.33-.455-.391-.75-.515s-.63-.185-1.007-.185q-1.57 0-2.68 1.017l.283.496q.07.12.182.2a.45.45 0 0 0 .27.082q.188 0 .345-.088.156-.087.342-.198a1.9 1.9 0 0 1 1.064-.285q.52 0 .793.31.273.312.273.957v.377q-1.098.025-1.839.213c-.741.188-.888.284-1.185.474q-.446.285-.637.64a1.5 1.5 0 0 0-.192.718q0 .433.138.76.138.326.386.545t.593.33q.345.11.753.11.346 0 .628-.057c.282-.057.366-.094.533-.17q.251-.113.486-.278.236-.167.48-.386l.138.458q.063.2.188.266a.75.75 0 0 0 .346.066H16V8.42a3 3 0 0 0-.16-1.004m-1.352 3.408q-.17.175-.336.304c-.166.129-.226.158-.345.216q-.18.088-.38.132c-.2.044-.28.044-.439.044q-.39 0-.63-.176-.242-.175-.242-.583 0-.207.116-.383c.116-.176.208-.22.392-.307q.276-.132.731-.217c.455-.085.681-.095 1.133-.116zM3.564 3.413 0 12.486h1.311a.59.59 0 0 0 .558-.383l.678-1.85h3.759l.678 1.85a.57.57 0 0 0 .565.383h1.304L5.29 3.413zM2.98 9.06l1.105-3.005q.082-.208.166-.483.084-.276.173-.596a12 12 0 0 0 .345 1.066L5.873 9.06z"/>
</svg>
