<svg xmlns="http://www.w3.org/2000/svg" width="20" height="20" fill="#fff" fill-opacity="context-fill-opacity" viewBox="0 0 16 16">
    <path d="M9.5 3s.428 2.43 1.249 3.251S14 7.5 14 7.5s-2.43.394-3.251 1.215S9.5 12 9.5 12s-.394-2.464-1.215-3.285S5 7.5 5 7.5s2.464-.428 3.285-1.249S9.5 3 9.5 3m0-2h-.014a2 2 0 0 0-1.96 1.68 7.5 7.5 0 0 1-.659 2.154 7.9 7.9 0 0 1-2.212.7 2 2 0 0 0 .029 3.945 7.7 7.7 0 0 1 2.183.658 7.7 7.7 0 0 1 .658 2.185A2 2 0 0 0 9.489 14H9.5a2 2 0 0 0 1.971-1.657 7.9 7.9 0 0 1 .7-2.209 7.6 7.6 0 0 1 2.154-.659 2 2 0 0 0 .027-3.944 7.7 7.7 0 0 1-2.181-.7 7.7 7.7 0 0 1-.7-2.181A2 2 0 0 0 9.5 1M3 15.5a.5.5 0 0 1-.49-.421 3.05 3.05 0 0 0-.4-1.186 3.05 3.05 0 0 0-1.186-.4.5.5 0 0 1-.007-.986 3.15 3.15 0 0 0 1.192-.417 3.05 3.05 0 0 0 .4-1.171A.5.5 0 0 1 3 10.5a.5.5 0 0 1 .492.413 3.1 3.1 0 0 0 .417 1.179 3.1 3.1 0 0 0 1.178.416.5.5 0 0 1-.007.985 3 3 0 0 0-1.172.4 3.2 3.2 0 0 0-.416 1.192A.5.5 0 0 1 3 15.5m-.5-11a.5.5 0 0 1-.49-.42 2.3 2.3 0 0 0-.265-.82 2.3 2.3 0 0 0-.82-.265.5.5 0 0 1-.007-.986 2.4 2.4 0 0 0 .827-.277A2.3 2.3 0 0 0 2.007.92.5.5 0 0 1 2.5.5a.5.5 0 0 1 .492.412 2.4 2.4 0 0 0 .278.818 2.4 2.4 0 0 0 .816.276.5.5 0 0 1-.007.985 2.3 2.3 0 0 0-.811.266 2.4 2.4 0 0 0-.277.827.5.5 0 0 1-.491.416"/>
</svg>
