<svg xmlns="http://www.w3.org/2000/svg" width="16" height="16">
    <path fill="#fff" fill-opacity="context-fill-opacity" d="M13 15H3a2.006 2.006 0 0 1-2-2V3a2.006 2.006 0 0 1 2-2h10a2.006 2.006 0 0 1 2 2v10a2.006 2.006 0 0 1-2 2m0-10a2.946 2.946 0 0 0-3-3H6a2.946 2.946 0 0 0-3 3v4a2.946 2.946 0 0 0 3 3h4c1.7 0 3-.3 3-2zm-3 3.2a2.8 2.8 0 0 0 .9-.1c.3-.1.5-.2.8-.3v.8a7 7 0 0 0-.8.3 2.2 2.2 0 0 1-.9.1 2.15 2.15 0 0 1-2.1-1.2 3.8 3.8 0 0 1-.9.9 2.66 2.66 0 0 1-1.2.3 1.73 1.73 0 0 1-1.3-.5A1.25 1.25 0 0 1 4 7.3 1.49 1.49 0 0 1 4.6 6a3.3 3.3 0 0 1 1.9-.5h.9v-.4a1.33 1.33 0 0 0-.3-1c-.1-.3-.4-.4-.8-.4a3.4 3.4 0 0 0-1.6.4l-.2-.6a4 4 0 0 1 .9-.4c.3 0 .6-.1 1-.1a3.6 3.6 0 0 1 1.1.2 1.7 1.7 0 0 1 .6.8 1.58 1.58 0 0 1 .7-.7 1.7 1.7 0 0 1 1-.3 1.87 1.87 0 0 1 1.6.7 2.88 2.88 0 0 1 .6 1.9v.6H8.4c0 1.4.6 2 1.6 2M7.5 6.1h-.8a2.4 2.4 0 0 0-1.4.3.98.98 0 0 0-.4.9.78.78 0 0 0 .3.7.84.84 0 0 0 .7.2 1.6 1.6 0 0 0 1.2-.4 1.7 1.7 0 0 0 .4-1.3zm3.6-.6a2.27 2.27 0 0 0-.3-1.3.98.98 0 0 0-.9-.4 1.28 1.28 0 0 0-1 .4 2.23 2.23 0 0 0-.5 1.3z"/>
</svg>
