<svg xmlns="http://www.w3.org/2000/svg" width="16" height="16" fill="#fff" fill-opacity="context-fill-opacity">
    <path d="M5.252 10V5c0-.771.301-1.468.78-2H4a2 2 0 0 0-2 2v6H1a1 1 0 0 0 0 2h2.53a2 2 0 0 1-.278-1c0-1.103.897-2 2-2" opacity=".4"/>
    <path d="m10.379 12.5-1.414-1.414a1 1 0 0 1 0-1.414l.707-.707a1 1 0 0 1 1.414 0l1.414 1.414 1.414-1.414c.026-.026.059-.035.086-.058V5a2 2 0 0 0-2-2H8.252a2 2 0 0 0-2 2v6h-1a1 1 0 0 0 0 2h4.627z"/>
    <path d="m14.3 10-1.8 1.8-1.8-1.8c-.2-.2-.5-.2-.7 0s-.2.5 0 .7l1.8 1.8-1.8 1.8c-.2.2-.2.5 0 .7s.5.2.7 0l1.8-1.8 1.8 1.8c.2.2.5.2.7 0s.2-.5 0-.7l-1.8-1.8 1.8-1.8c.2-.2.2-.5 0-.7s-.5-.2-.7 0"/>
    <path d="M16 12c0-.2-.1-.5-.2-.6l-1.1 1.1.5.5c.4-.1.8-.5.8-1"/>
</svg>
