<svg xmlns="http://www.w3.org/2000/svg" width="16" height="16" fill="#fff" fill-opacity="context-fill-opacity">
    <path d="M13.577 1H2.423A2.426 2.426 0 0 0 0 3.423v6.154A2.426 2.426 0 0 0 2.423 12H8.26l2.966 3.633A1 1 0 0 0 13 15v-3h.577A2.426 2.426 0 0 0 16 9.577V3.423A2.426 2.426 0 0 0 13.577 1M14 9.577a.423.423 0 0 1-.423.423H12a1 1 0 0 0-1 1v1.194l-1.491-1.827A1 1 0 0 0 8.734 10H2.423A.423.423 0 0 1 2 9.577V3.423C2 3.189 2.189 3 2.423 3h11.154c.234 0 .423.189.423.423z"/>
    <path d="M11.5 8H8.39a.5.5 0 0 1 0-1h3.11a.5.5 0 0 1 0 1M8.11 5.5a.5.5 0 0 0-.5-.5H4.5a.5.5 0 0 0 0 1h3.11a.5.5 0 0 0 .5-.5m3.89 0a.5.5 0 0 0-.5-.5H9.61a.5.5 0 0 0 0 1h1.89a.5.5 0 0 0 .5-.5m-5.11 2a.5.5 0 0 0-.5-.5H4.5a.5.5 0 0 0 0 1h1.89a.5.5 0 0 0 .5-.5"/>
</svg>
