<svg xmlns="http://www.w3.org/2000/svg" fill="context-fill #0b0b0b" viewBox="0 0 12 12">
    <path d="M5.7 11.125v-6.5h1.96v2.321c0 .257.22.465.49.465h2.45v3.714zm-1-5.65v1.8H2v-6.3h1.8v2.25c0 .248.202.45.45.45H6.5a1.8 1.8 0 0 0-1.8 1.8m2.14-2.474H4.65V.81zM10.5 6.6h-2v-2zm.78-.38L9.03 3.97a.75.75 0 0 0-.53-.22h-.75V3a.75.75 0 0 0-.22-.53L5.28.22A.75.75 0 0 0 4.75 0H2.5A1.5 1.5 0 0 0 1 1.5v5.25a1.5 1.5 0 0 0 1.5 1.5h2.25v2.25a1.5 1.5 0 0 0 1.5 1.5H10a1.5 1.5 0 0 0 1.5-1.5V6.75a.75.75 0 0 0-.22-.53"/>
</svg>
