<svg xmlns="http://www.w3.org/2000/svg" width="16" height="16">
    <path fill="#fff" fill-opacity="context-fill-opacity" d="M8 0a8 8 0 1 0 8 8 8.01 8.01 0 0 0-8-8m5.163 4.958h-1.552a7.7 7.7 0 0 0-1.051-2.376 6.03 6.03 0 0 1 2.603 2.376M14 8a6 6 0 0 1-.335 1.958h-1.821A12 12 0 0 0 12 8a12 12 0 0 0-.156-1.958h1.821A6 6 0 0 1 14 8m-6 6c-1.075 0-2.037-1.2-2.567-2.958h5.135C10.037 12.8 9.075 14 8 14M5.174 9.958a11.1 11.1 0 0 1 0-3.916h5.651A11 11 0 0 1 11 8a11 11 0 0 1-.174 1.958zM2 8a6 6 0 0 1 .335-1.958h1.821a12.4 12.4 0 0 0 0 3.916H2.335A6 6 0 0 1 2 8m6-6c1.075 0 2.037 1.2 2.567 2.958H5.433C5.963 3.2 6.925 2 8 2m-2.56.582a7.7 7.7 0 0 0-1.051 2.376H2.837A6.03 6.03 0 0 1 5.44 2.582m-2.6 8.46h1.549a7.7 7.7 0 0 0 1.051 2.376 6.03 6.03 0 0 1-2.603-2.376zm7.723 2.376a7.7 7.7 0 0 0 1.051-2.376h1.552a6.03 6.03 0 0 1-2.606 2.376z"/>
</svg>
