<svg xmlns="http://www.w3.org/2000/svg" width="16" height="16" fill="#fff" fill-opacity="context-fill-opacity">
    <path d="M2.167 1C1.523 1 1 1.523 1 2.167V4.5C1 6.668 2.493 8.479 4.5 9v1.333C4.5 12.907 6.593 15 9.167 15s4.667-2.093 4.667-4.667v-.107a1.745 1.745 0 0 0-.584-3.393 1.75 1.75 0 0 0-1.75 1.75v1.75c0 1.287-1.047 2.333-2.333 2.333s-2.333-1.047-2.333-2.333V9c2.007-.521 3.5-2.333 3.5-4.5V2.167A1.17 1.17 0 0 0 9.167 1H8a1.168 1.168 0 0 0 0 2.333V4.5c0 1.287-1.047 2.333-2.333 2.333S3.333 5.787 3.333 4.5V3.333a1.168 1.168 0 0 0 0-2.333z"/>
</svg>
