<svg xmlns="http://www.w3.org/2000/svg" width="16" height="16" fill="#fff" fill-opacity="context-fill-opacity">
    <path d="M16 8c0 3.794-2.644 6.964-6.187 7.786-.137-.22-.341-.524-.53-.794a7 7 0 0 1-.557-.903q1.032.419 1.387.419.258 0 .258-.806 0-1.5-.274-1.5-.403 0-1.565.887 0-.225-.242-.194h-.08q-.42-1.112-.42-1.984 0-.242.048-.484 1.484.726 2.387.726.5 0 1.508-.29t1.008-.629q0-.21-.274-.21-.418 0-1.21.113-.79.113-1.21.113-.435 0-.96-.226c-.525-.226-.523-.355-.523-.613q0-.08.024-.121a.1.1 0 0 1 .073-.048.3.3 0 0 1 .097 0q.048.008.129.016.08.008.144.008.146 0 .419.04.274.04.403.04.5 0 2.048-.589t1.548-.911q0-.194-.298-.274a2 2 0 0 0-.557-.081q-.225 0-.678.121-.451.122-.984.29c-.533.168-.591.186-.71.218q.065-.322.065-.516 0-.758-.403-1.766c-.403-1.008-.58-1.17-.934-1.492q-.436-.388-1.162-.532-.451-.582-1.411-1.057-.96-.477-1.702-.476-.146 0-.443.057-.296.056-.377.073l-.355.5.097.016q.113 0 .346-.032.234-.032.347-.032.549 0 1.258.226-.451.226-.79.306-.032.015-.21.04a5 5 0 0 0-.298.048.6.6 0 0 0-.225.097.22.22 0 0 0-.105.186 14 14 0 0 1 1.355-.097q.613 0 .968.113Q5 3.927 4.33 4.637t-.67 1.952q0 .435.065.806.306 1.935 1.178 5.774c.252 1.176.424 1.97.519 2.398C2.27 14.494 0 11.515 0 8a8 8 0 0 1 16 0M5.806 5.653q-.16-.21-.468-.21a1 1 0 0 0-.524.154.48.48 0 0 0-.25.427q0 .097.048.194-.015-.258.29-.452.306-.194.581-.194.13 0 .323.081m-.54 1.96a.53.53 0 0 1-.169-.379q0-.21.17-.379a.53.53 0 0 1 .379-.17q.21 0 .379.17.17.17.17.379 0 .21-.17.379c-.17.169-.239.17-.379.17a.53.53 0 0 1-.38-.17m.476-.557q0 .129.145.129c.145 0 .145-.043.145-.129q0-.145-.145-.145t-.145.145M9.016 5.25q-.501 0-.564.403.129-.21.597-.21.21 0 .532.162-.161-.355-.565-.355m-.049 1.331a.461.461 0 1 1 .653.652.44.44 0 0 1-.33.145.44.44 0 0 1-.322-.145.436.436 0 0 1-.001-.652m.42.169q0 .129.113.129.129 0 .129-.129 0-.113-.129-.113-.113 0-.113.113"/>
</svg>
