<svg xmlns="http://www.w3.org/2000/svg" width="16" height="16" fill="#fff" fill-opacity="context-fill-opacity">
    <path d="M8.943 15.357a1 1 0 0 1 0-1.414l1.443-1.443-1.443-1.443A1 1 0 0 1 8.718 10H5a1 1 0 0 1-1-1V5h7v3.905c.018.015.04.021.057.038l1.443 1.443.5-.5V4a2 2 0 0 0-2-2H9.95a2.5 2.5 0 0 0-4.9 0H4a2 2 0 0 0-2 2v10a2 2 0 0 0 2 2h5.586zM4 3h1.05a1 1 0 0 0 .98-.8 1.5 1.5 0 0 1 2.939 0 1 1 0 0 0 .98.8H11v1H4zm4-.5a.5.5 0 1 1-1 0 .5.5 0 0 1 1 0M7.5 8a.5.5 0 0 1 0 1h-2a.5.5 0 0 1 0-1zm2-1h-4a.5.5 0 0 1 0-1h4a.5.5 0 0 1 0 1m4.8 3-1.8 1.8-1.8-1.8c-.2-.2-.5-.2-.7 0s-.2.5 0 .7l1.8 1.8-1.8 1.8c-.2.2-.2.5 0 .7s.5.2.7 0l1.8-1.8 1.8 1.8c.2.2.5.2.7 0s.2-.5 0-.7l-1.8-1.8 1.8-1.8c.2-.2.2-.5 0-.7s-.5-.2-.7 0"/>
</svg>
