<svg xmlns="http://www.w3.org/2000/svg" width="16" height="16" fill="#fff" fill-opacity="context-fill-opacity">
    <path d="M0 1.778h1.778V0C.8 0 0 .8 0 1.778m0 7.111h1.778V7.111H0zM3.556 16h1.778v-1.778H3.556zM0 5.333h1.778V3.556H0zM8.889 0H7.111v1.778h1.778zm5.333 0v1.778H16C16 .8 15.2 0 14.222 0M1.778 16v-1.778H0C0 15.2.8 16 1.778 16M0 12.444h1.778v-1.778H0zM5.333 0H3.556v1.778h1.778zm1.778 16h1.778v-1.778H7.111zm7.111-7.111H16V7.111h-1.778zm0 7.111C15.2 16 16 15.2 16 14.222h-1.778zm0-10.667H16V3.556h-1.778zm0 7.111H16v-1.778h-1.778zM10.667 16h1.778v-1.778h-1.778zm0-14.222h1.778V0h-1.778z"/>
</svg>
