<svg xmlns="http://www.w3.org/2000/svg" width="16" height="16" fill="#fff" fill-opacity="context-fill-opacity">
    <path d="M0 11h1v2h14v-2h1v3H0z"/>
    <path d="M6.84 11h-.88v-.86h-.022q-.575.99-1.692.989-.821 0-1.289-.435-.462-.435-.462-1.155 0-1.542 1.816-1.794l1.649-.23q0-1.403-1.134-1.403-.993 0-1.794.677v-.902q.811-.516 1.87-.516 1.938 0 1.938 2.052zm-.88-2.782L4.633 8.4q-.612.087-.924.307-.311.215-.311.768 0 .402.284.66.291.252.768.253a1.41 1.41 0 0 0 1.08-.457q.43-.462.43-1.165zm3.388 1.987h-.022V11h-.88V2.857h.88v3.61h.021q.651-1.095 1.902-1.096 1.058 0 1.654.741.602.736.602 1.977 0 1.38-.672 2.213-.671.827-1.837.827-1.09 0-1.649-.924m-.022-2.218v.768q0 .682.44 1.16.447.473 1.128.473.8 0 1.252-.613.456-.612.456-1.702 0-.919-.424-1.44t-1.15-.52q-.767 0-1.235.536-.467.532-.467 1.338"/>
</svg>
