<svg xmlns="http://www.w3.org/2000/svg" width="16" height="16" fill="#fff" fill-opacity="context-fill-opacity">
    <path d="M14 0H2a2 2 0 0 0-2 2v12a2 2 0 0 0 2 2h12a2 2 0 0 0 2-2V2a2 2 0 0 0-2-2m-1.26 14s-2.3-.1-3.3-.1h-4.4l-2.6.1v-.7l.9-.2c.6-.1.7-.2.7-.7 0 0 .1-1.6.1-4.3s-.1-4.4-.1-4.4c0-.5-.2-.6-.8-.7l-.8-.2v-.7l2.6.1h4.9c1 0 2.6-.2 2.6-.2s-.1 1-.1 3.4h-.7l-.2-.8c-.3-1.1-.7-1.6-1.4-1.6h-3.8c-.3 0-.3 0-.3.2v4.4s1.586.043 2.4-.1c.458-.08.721-.269.9-.7.107-.258.2-1.1.2-1.1h.7V10h-.7s-.075-.535-.2-.8c-.218-.461-.504-.743-.9-.8-.825-.119-2.4-.1-2.4-.1V12c0 .7.4 1 1.2 1h2.6c.9.1 1.8-.4 2.1-1.2l.7-1.4h.6c-.1.4-.4 3-.5 3.6"/>
</svg>
