<svg xmlns="http://www.w3.org/2000/svg" width="16" height="16" fill="#fff" fill-opacity="context-fill-opacity">
    <path d="M14.585 3.474 8.685.171a1.42 1.42 0 0 0-1.35 0l-5.92 3.303a1.39 1.39 0 0 0-.706 1.205v6.627c-.004.501.268.963.706 1.204l5.9 3.303c.206.124.444.189.685.187.241-.001.478-.065.686-.187l5.9-3.303c.435-.245.705-.705.706-1.204V4.679a1.39 1.39 0 0 0-.707-1.205M4.67 10.392a.54.54 0 0 1-.261.331l-.353.207a.553.553 0 0 1-.748-.228.543.543 0 0 1 .208-.747l.35-.206c.27-.166.601-.063.751.227a.54.54 0 0 1 .053.416m-.053-4.425a.55.55 0 0 1-.478.291.64.64 0 0 1-.27-.062l-.353-.208a.55.55 0 0 1-.236-.762.55.55 0 0 1 .773-.193l.353.207c.271.145.374.477.211.727m2.231 3.179a.54.54 0 0 1-.26.33l-.728.416a.64.64 0 0 1-.269.062.55.55 0 0 1-.478-.291.543.543 0 0 1 .208-.747l.727-.416a.55.55 0 0 1 .747.229.55.55 0 0 1 .053.417m-.053-1.933a.55.55 0 0 1-.477.291.65.65 0 0 1-.27-.062l-.727-.416a.574.574 0 0 1-.208-.768.544.544 0 0 1 .747-.207l.727.415a.543.543 0 0 1 .208.747m2.181 1.226a.5.5 0 0 1-.291.249v4.213a.56.56 0 1 1-1.122 0V8.707a.5.5 0 0 1-.291-.249.56.56 0 0 1-.02-.478.55.55 0 0 1 .021-.478.5.5 0 0 1 .291-.249V3.059a.56.56 0 1 1 1.122 0v4.175c.127.04.232.13.291.25a.55.55 0 0 1 .021.477.56.56 0 0 1-.022.478m2.161 1.205a.556.556 0 0 1-.748.229l-.727-.416a.55.55 0 0 1 .54-.956l.727.416c.27.145.353.498.208.727m.052-2.948a.54.54 0 0 1-.261.331l-.727.415a.6.6 0 0 1-.27.062.55.55 0 0 1-.478-.291.547.547 0 0 1 .209-.748l.727-.415a.554.554 0 0 1 .749.229.54.54 0 0 1 .051.417m1.755 3.964a.55.55 0 0 1-.478.291.65.65 0 0 1-.27-.062l-.354-.208a.548.548 0 0 1 .541-.954l.353.207c.27.166.353.499.208.726m.051-4.983a.55.55 0 0 1-.259.331l-.353.208a.64.64 0 0 1-.27.062.543.543 0 0 1-.271-1.017l.354-.208a.547.547 0 0 1 .748.208c.071.126.09.276.051.416"/>
</svg>
