<svg xmlns="http://www.w3.org/2000/svg" width="16" height="16" fill="#fff" fill-opacity="context-fill-opacity">
    <path d="M3.184.353c.223.102.392.287.539.478.155.204.281.448.273.71.003.368-.273.695-.184 1.069.064.218.21.425.418.526.311.134.664.005.929-.174.291-.271.571-.556.857-.833C6.451 1.698 7.483.674 7.58.614c.155-.097.284-.096.42-.096s.281.03.38.113c.818.679 1.601 1.496 2.36 2.237.142.155.342.239.541.295.213.059.46.031.63-.119.182-.161.317-.401.294-.65-.027-.303-.212-.572-.2-.881.004-.344.218-.639.441-.882.22-.25.549-.393.881-.399.434-.021.86.113 1.244.303.308.156.605.351.832.615.28.337.469.749.556 1.178.07.374.061.785-.136 1.121-.198.326-.54.563-.915.634-.249.047-.503.026-.752-.006-.124-.014-.249-.039-.374-.027-.221.029-.444.133-.568.324-.132.202-.134.466-.057.689.052.146.124.29.237.399q.65.596 1.273 1.219c.329.332.659.665.949 1.033.075.108.175.221.163.362a.7.7 0 0 1-.096.349c-.063.118-.172.201-.26.299l-1.233 1.287c-.071.069-.126.163-.224.195a1.53 1.53 0 0 1-.786.1.86.86 0 0 1-.67-.647c-.075-.377.08-.749.053-1.127a1.06 1.06 0 0 0-.334-.697c-.197-.198-.475-.295-.749-.312-.389-.022-.774.092-1.117.267a2.94 2.94 0 0 0-1.301 1.369c-.16.356-.255.762-.168 1.15.085.408.396.769.798.89.257.081.53.06.795.049.288-.017.597-.071.87.055.296.157.439.519.385.842-.027.133-.043.285-.15.38q-1.403 1.434-2.804 2.871a1.9 1.9 0 0 1-.658.353c-.19.059-.385-.018-.552-.105a1.8 1.8 0 0 1-.362-.248l-2.82-2.887c-.065-.059-.084-.147-.107-.228-.073-.265-.042-.571.134-.789.126-.174.34-.259.55-.266.408-.015.82.081 1.226.003.4-.077.735-.39.868-.771.106-.302.09-.635.005-.94a2.9 2.9 0 0 0-.923-1.389c-.388-.32-.861-.552-1.365-.602-.324-.034-.671.029-.933.234a1.1 1.1 0 0 0-.415.769c-.026.351.109.695.067 1.045a.86.86 0 0 1-.687.731c-.242.039-.49 0-.72-.078-.05-.018-.105-.03-.143-.069L.456 8.598a.72.72 0 0 1-.233-.59c.022-.117.102-.212.17-.307.376-.469.807-.888 1.233-1.311.314-.302.626-.604.948-.898.159-.14.252-.342.301-.546a.76.76 0 0 0-.103-.592.81.81 0 0 0-.765-.296c-.345.044-.705.097-1.045-.006-.427-.127-.801-.47-.911-.909-.107-.413-.035-.852.114-1.245.097-.258.235-.501.405-.719.222-.265.511-.464.816-.622.294-.153.613-.264.943-.311.287-.035.59-.021.855.107"/>
</svg>
