<svg xmlns="http://www.w3.org/2000/svg" viewBox="0 0 48 48">
    <path fill="context-fill #context-fill" fill-opacity="context-fill-opacity" fill-rule="evenodd"
        d="M24 8.1c-1.7 0-3.1 1.4-3.1 3.1s1.4 3.1 3.1 3.1 3.1-1.4 3.1-3.1-1.4-3.1-3.1-3.1m-7.2 3.1C16.8 7.2 20 4 24 4s7.2 3.2 7.2 7.2-3.2 7.2-7.2 7.2c-1.2 0-2.4-.3-3.4-.9l-3.1 3.1c.2.4.4.9.6 1.4H30c.9-3 3.6-5.1 6.9-5.1 4 0 7.2 3.2 7.2 7.2s-3.2 7.2-7.2 7.2c-1.2 0-2.4-.3-3.4-.9l-3.1 3.1c.6 1 .9 2.2.9 3.4 0 4-3.2 7.2-7.2 7.2s-7.2-3.2-7.2-7.2 3.2-7.2 7.2-7.2c1.2 0 2.4.3 3.4.9l3.1-3.1c-.2-.4-.4-.9-.6-1.4H18.1c-.9 3-3.6 5.1-6.9 5.1C7.2 31.2 4 28 4 24s3.2-7.2 7.2-7.2c1.2 0 2.4.3 3.4.9l3.1-3.1c-.6-1-.9-2.2-.9-3.4m4.1 25.6c0-1.7 1.4-3.1 3.1-3.1s3.1 1.4 3.1 3.1-1.4 3.1-3.1 3.1-3.1-1.4-3.1-3.1m-9.7-15.9c-1.7 0-3.1 1.4-3.1 3.1s1.4 3.1 3.1 3.1 3.1-1.4 3.1-3.1-1.4-3.1-3.1-3.1M33.7 24c0-1.7 1.4-3.1 3.1-3.1s3.1 1.4 3.1 3.1-1.4 3.1-3.1 3.1-3.1-1.4-3.1-3.1"
        clip-rule="evenodd" />
</svg>
