<svg xmlns="http://www.w3.org/2000/svg" width="16" height="16" fill="#fff" fill-opacity="context-fill-opacity">
    <path d="M14.5 3H6.914a.5.5 0 0 1-.354-.146L5.146 1.439A1.5 1.5 0 0 0 4.086 1H1.5A1.5 1.5 0 0 0 0 2.5v11A1.5 1.5 0 0 0 1.5 15h13a1.5 1.5 0 0 0 1.5-1.5v-9A1.5 1.5 0 0 0 14.5 3m.5 10.5a.5.5 0 0 1-.5.5h-13a.5.5 0 0 1-.5-.5V6h14zM1 5V2.5a.5.5 0 0 1 .5-.5h2.586a.5.5 0 0 1 .354.146l1.414 1.415A1.5 1.5 0 0 0 6.914 4H14.5a.5.5 0 0 1 .5.5V5z"/>
    <path fill-opacity=".2" d="M15 13.5a.5.5 0 0 1-.5.5h-13a.5.5 0 0 1-.5-.5V6h14z"/>
    <path fill-opacity=".1" d="M1 5V2.5a.5.5 0 0 1 .5-.5h2.586a.5.5 0 0 1 .354.146l1.414 1.415A1.5 1.5 0 0 0 6.914 4H14.5a.5.5 0 0 1 .5.5V5z"/>
    <path fill-opacity=".05" d="M15 13.5a.5.5 0 0 1-.5.5h-13a.5.5 0 0 1-.5-.5V13h14z"/>
</svg>
