<svg xmlns="http://www.w3.org/2000/svg" width="16" height="16" fill="#fff" fill-opacity="context-fill-opacity">
    <path d="M16 5.091v5.818c0 .8-.655 1.455-1.455 1.455H6.638l2.893-2.893c.155.414.546.711 1.014.711a1.09 1.09 0 0 0 1.091-1.091c0-.469-.297-.86-.711-1.014l1.506-1.506a1 1 0 0 0-.068.339c.001.603.488 1.09 1.092 1.09s1.091-.487 1.091-1.091-.487-1.091-1.091-1.091c-.12 0-.231.032-.339.068L15.202 3.8c.47.242.798.728.798 1.291m-1.286-2.39-12 12-.025.025A1 1 0 1 1 1.3 13.287l.923-.923h-.768A1.46 1.46 0 0 1 0 10.909V5.091c0-.8.655-1.455 1.455-1.455h9.496L13.3 1.287a1 1 0 0 1 1.414 1.414M3.875 10.712l1.216-1.216v-.769h.769l1.216-1.216a.72.72 0 0 0-.53-.238H5.091V5.818c0-.4-.327-.727-.727-.727s-.727.327-.727.727v1.455H2.182c-.4 0-.727.327-.727.727s.327.727.727.727h1.455v1.455a.7.7 0 0 0 .238.53"/>
</svg>
