<svg xmlns="http://www.w3.org/2000/svg" width="16" height="16" fill="#fff" fill-opacity="context-fill-opacity">
    <path d="M14.545 3.636H1.455C.655 3.636 0 4.291 0 5.091v5.818c0 .8.655 1.455 1.455 1.455h13.091c.8 0 1.455-.655 1.455-1.455V5.091a1.46 1.46 0 0 0-1.456-1.455m-8 5.091H5.091v1.455c0 .4-.327.727-.727.727s-.727-.327-.727-.727V8.727H2.182c-.4 0-.727-.327-.727-.727s.327-.727.727-.727h1.455V5.818c0-.4.327-.727.727-.727s.727.327.727.727v1.455h1.455c.4 0 .727.327.727.727s-.328.727-.728.727m4 1.455a1.09 1.09 0 1 1-.001-2.183 1.09 1.09 0 0 1 .001 2.183M13.455 8c-.604 0-1.091-.487-1.091-1.091s.487-1.091 1.091-1.091 1.091.487 1.091 1.091S14.058 8 13.455 8"/>
</svg>
