<svg xmlns="http://www.w3.org/2000/svg" width="16" height="16" fill="#fff" fill-opacity="context-fill-opacity">
    <path d="M15.766 9.912c-.145.58-.421 1.341-.477 1.307-.134-.074-.409-.324-.526-.472-.182-.227-.193-.256-.258-.54a9 9 0 0 0-.202-.665l-.145-.429.043-.378a6.21 6.21 0 0 0-1.787-5.153c-1.895-1.895-4.79-2.375-7.174-1.191a6.17 6.17 0 0 0-2.858 2.867 6 6 0 0 0-.628 2.955c.017.486.06.818.165 1.267l.057.241-.091.256c-.139.398-.318.784-.46.997s-.384.457-.523.528l-.085.045-.134-.301a8.2 8.2 0 0 1-.645-2.395 11 11 0 0 1 0-1.719 8.16 8.16 0 0 1 1.327-3.607 8 8 0 0 1 2.156-2.156A8.06 8.06 0 0 1 7.612.005c.281-.017 1.031.014 1.364.054a8.2 8.2 0 0 1 2.935.963 8.1 8.1 0 0 1 2.716 2.503 8.03 8.03 0 0 1 1.139 6.387m-6.478-1.97c.139-.275.134-.344-.051-.585-.176-.227-.304-.323-.435-.323-.148 0-.227.043-.438.241a2 2 0 0 1-.21.185c-.026 0-.548-.756-.827-1.193a15 15 0 0 1-.877-1.594l-.199-.415-.64-.017-1.341-.04-.698-.017-.176.261a4 4 0 0 0-.19.299c-.009.025.091.071.338.156.193.065.392.145.443.176l.097.057-.017.221c-.02.239-.111.557-.338 1.153-.077.202-.134.396-.131.427.006.034.048.071.122.099.063.023.205.097.313.162.205.122.454.202.54.17.025-.011.105-.144.176-.295.23-.5.247-.5.71-.031.548.562.858 1.028 1.148 1.727.335.81.543 1.565.807 2.915.111.568.119.719.06.949-.023.085-.04.159-.037.159.003.003.153.077.332.168.193.097.33.151.335.131.006-.017.071-.125.145-.236.185-.284.483-.565.954-.904l.466-.338.071-.048-.051-.185a40 40 0 0 0-.247-.784c-.293-.901-.341-1.114-.358-1.6-.015-.363-.009-.44.045-.633.034-.122.105-.309.159-.418m4.864 2.839a4 4 0 0 1-.176-.528c-.173-.676-.415-1.27-1.094-2.693a36 36 0 0 1-.878-1.946c-.071-.179-.074-.207-.077-.79l-.003-.608-.082-.054c-.105-.068-.205-.068-.509.006-.432.102-1.256.074-1.696-.057-.277-.084-.314-.089-.397-.044-.079.04-.278.341-.278.418 0 .065.176.199.421.318.295.142.466.253.537.349.054.074.057.097.031.222q-.078.365-.461.849c-.295.37-.315.404-.29.54.037.188.492.611.656.611a.7.7 0 0 0 .19-.074c.111-.057.159-.068.205-.045.06.026.364.5.509.787.153.307.872 1.975.946 2.188.057.17.077.29.079.469.003.222-.006.261-.091.432-.077.156-.153.247-.432.506a5 5 0 0 0-.384.386c-.043.068-.04.074.117.275.088.111.173.202.188.196.014-.003.193-.077.398-.162.67-.284 1.122-.384 1.73-.384.432 0 .722.043 1.162.17.165.045.307.085.315.085.02 0 .281-.449.281-.48a1 1 0 0 0-.173-.145c-.247-.178-.65-.613-.744-.797m-10.29 1.233.114.006.009-.176.009-.176-.151-.097c-.168-.108-.381-.324-.421-.432-.014-.04-.02-.105-.014-.148.009-.045.034-.225.057-.404q.078-.558.386-1.33c.346-.865.514-1.345.497-1.417-.017-.06-.085-.105-.366-.239-.474-.23-.483-.23-.568-.094-.234.367-.447.893-.827 2.018-.304.901-.457 1.287-.631 1.58-.21.361-.5.676-.756.827l-.134.077.156.247c.088.136.17.244.188.239s.082-.043.148-.088c.239-.159.602-.293.992-.364.235-.043.826-.058 1.312-.029m9.546.457a3.2 3.2 0 0 0-.637.031c-.472.088-.565.125-.821.335a6.4 6.4 0 0 1-3.003 1.341 8 8 0 0 1-1.551.045 7 7 0 0 1-1.369-.29 6.7 6.7 0 0 1-2.091-1.188l-.27-.23-.213-.003c-.471-.002-.662.01-.903.058-.281.06-.634.196-.761.298l-.082.068.082.108c.187.247.642.719.94.975 1.835 1.583 4.188 2.256 6.546 1.878a8.04 8.04 0 0 0 5.094-3.06c.114-.148.125-.176.085-.19-.446-.133-.637-.168-1.046-.176"/>
</svg>
