<svg xmlns="http://www.w3.org/2000/svg" width="16" height="16" fill="#fff" fill-opacity="context-fill-opacity">
    <path d="M8 .198c-4.42 0-8 3.58-8 8a8 8 0 0 0 5.47 7.591c.4.07.55-.17.55-.38 0-.191-.009-.82-.009-1.491-2.009.37-2.53-.491-2.691-.941-.091-.23-.48-.941-.82-1.13-.28-.15-.68-.52-.009-.53.63-.009 1.08.58 1.23.82.72 1.209 1.87.87 2.33.659.07-.52.28-.87.509-1.07-1.78-.2-3.641-.891-3.641-3.95 0-.87.309-1.591.82-2.15-.08-.2-.359-1.02.08-2.12 0 0 .67-.209 2.2.82.641-.18 1.32-.27 2-.27s1.359.091 2 .27c1.53-1.041 2.2-.82 2.2-.82.441 1.1.159 1.92.08 2.12.509.559.82 1.27.82 2.15 0 3.07-1.87 3.75-3.65 3.95.291.25.541.73.541 1.48 0 1.07-.009 1.93-.009 2.2 0 .209.15.459.55.38A8.01 8.01 0 0 0 16 8.198c0-4.42-3.58-8-8-8" class="st0"/>
</svg>
