<svg xmlns="http://www.w3.org/2000/svg" width="16" height="16" fill="#fff" fill-opacity="context-fill-opacity">
    <path d="M0 12.911a1.09 1.09 0 0 0 1.091 1.091h2.545V7.82L0 5.092z" opacity=".67"/>
    <path d="M12.364 14.002h2.545A1.09 1.09 0 0 0 16 12.911V5.092L12.364 7.82z" opacity=".5"/>
    <path d="m13.382 2.329-1.018.764V7.82L16 5.092V3.638c0-1.349-1.54-2.118-2.618-1.309" opacity=".83"/>
    <path d="M8 6.365 3.636 3.092V7.82L8 11.092l4.364-3.272V3.092z"/>
    <path d="M2.618 2.329C1.538 1.52 0 2.289 0 3.638v1.455L3.636 7.82V3.092z" opacity=".5"/>
</svg>
