<svg xmlns="http://www.w3.org/2000/svg" width="16" height="16" fill="#fff" fill-opacity="context-fill-opacity">
    <path d="M14.476 15.238H1.524A1.524 1.524 0 0 1 0 13.714V2.286C0 1.444.682.762 1.524.762h12.952c.842 0 1.524.682 1.524 1.524v11.429c0 .841-.682 1.523-1.524 1.523m0-11.809c0-.842-.301-1.143-1.143-1.143H2.667c-.842 0-1.143.301-1.143 1.143v9.143c0 .842.301 1.143 1.143 1.143h10.667c.842 0 1.143-.301 1.143-1.143zm-12.19 8.228 2.062-2.095.627.648 4.034-4.114 2.353 2.743L12.37 7.81l1.345 1.371v3.771H2.286zM4.47 7.124A2.23 2.23 0 1 1 6.653 4.85v.045A2.207 2.207 0 0 1 4.47 7.124"/>
</svg>
