<svg xmlns="http://www.w3.org/2000/svg" width="16" height="16" fill="#fff" fill-opacity="context-fill-opacity">
    <path d="m5.572 10.091 2.416.022h-.002l-5.161 4.756zm2.414-4.173-2.75-4.762 1.551 6.838zm7.959 4.173-.006-.014L9.188 8l-.002-.004-.003-.001 1.215 2.11z" opacity=".6"/>
    <path d="M5.202 1.082 0 10.091l2.786 4.824h.013L6.784 8 5.22 1.082zm5.57 0H5.21l-.004.021L9.188 8l6.74 2.074.01.003.006.014.056.006-.022-.031zm5.215 9.009-8.002.022-5.187 4.78v.022l10.418.003L16 10.097z"/>
</svg>
