<svg xmlns="http://www.w3.org/2000/svg" width="16" height="16" fill-opacity="context-fill-opacity">
    <path fill="#FBBC05" d="M3.739 8c0-.486.097-.944.24-1.381L1.445 4.682a7.5 7.5 0 0 0-.001 6.634l2.532-1.942A4.4 4.4 0 0 1 3.739 8"/>
    <path fill="#EA4335" d="M8.171 3.568c1.057 0 2.011.375 2.761.989l2.182-2.182C11.785 1.216 10.08.5 8.171.5a7.47 7.47 0 0 0-6.726 4.182l2.533 1.937c.581-1.77 2.224-3.051 4.193-3.051"/>
    <path fill="#34A853" d="M8.171 12.432c-1.969 0-3.611-1.281-4.192-3.051l-.003-.007-2.532 1.942.001.002A7.47 7.47 0 0 0 8.171 15.5c1.829 0 3.574-.653 4.884-1.871l-2.4-1.858c-.677.425-1.522.661-2.484.661"/>
    <path fill="#4285F4" d="M15.159 6.636H8.171v2.898h4.023a3.37 3.37 0 0 1-1.539 2.236l2.4 1.858c1.377-1.28 2.275-3.184 2.275-5.629a6.3 6.3 0 0 0-.171-1.363"/>
</svg>
