<svg xmlns="http://www.w3.org/2000/svg" width="16" height="16" fill="#fff" fill-opacity="context-fill-opacity">
    <path d="M9.692.266a5.57 5.57 0 0 0-5.97 1.728l2.634 2.211z" opacity=".33"/>
    <path d="M3.722 1.994a5.58 5.58 0 0 0-1.305 3.577c0 1.051.205 1.897.556 2.659l3.384-4.024z" opacity=".5"/>
    <path d="M8 3.444a2.136 2.136 0 0 1 1.631 3.517s1.68-2.006 3.323-3.952A5.57 5.57 0 0 0 9.691.266l-3.335 3.94c.399-.46.979-.762 1.644-.762" opacity=".67"/>
    <path d="M8 7.71a2.136 2.136 0 0 1-2.139-2.139c0-.52.181-1.003.495-1.366L2.973 8.23c.58 1.281 1.547 2.32 2.538 3.613l4.121-4.894A2.12 2.12 0 0 1 8 7.71" opacity=".83"/>
    <path d="M9.559 13.196c1.861-2.912 4.024-4.23 4.024-7.613 0-.931-.23-1.801-.628-2.574l-7.444 8.834c.314.411.64.882.955 1.366C7.601 14.961 7.287 16 8.012 16s.411-1.051 1.547-2.804"/>
</svg>
