<svg xmlns="http://www.w3.org/2000/svg" width="16" height="16">
    <path fill="#EA4335" d="m2.556 2.556-1.1-1.1c.28-.282.669-.456 1.1-.456H8v1.556zm7-1.556v1.556h2.789L9.006 5.894l.55.55L15 1z"/>
    <path fill="#4285F4" d="m14.543 14.543-1.099-1.099V8H15v5.444c0 .428-.175.817-.457 1.099m-2.308-2.913L9.512 8l-.66.852 2.778 2.778zM15 6.444V1L9.556 6.444l.55.55 3.339-3.339v2.789z"/>
    <path fill="#FBBC05" d="m2.556 13.444-1.1 1.1a1.55 1.55 0 0 1-.456-1.1V2.556c0-.429.174-.818.456-1.1l1.1 1.1zm3.327-4.537L3.765 11.63h.605l2.061-2.061z"/>
    <path fill="#34A853" d="M2.556 13.444h10.889l1.099 1.099a1.56 1.56 0 0 1-1.1.457H2.556c-.431 0-.819-.174-1.1-.456zm3.876-3.876L4.37 11.63h7.259L8.851 8.852l-1.456 1.877z"/>
    <path fill="#212121" d="m10.106 6.994-1.1-1.1.092-.092 1.008 1.008 3.339-3.339v.184zm2.607-4.623H9.556v.184h2.973zM3.909 11.63h8.188l-.138-.184H4.052zM8 2.371H2.556v.184H8zm5.444 4.073H15V6.26h-1.556zm0 8.372H2.556c-.864 0-1.556-.7-1.556-1.556v.184C1 14.3 1.692 15 2.556 15h10.889C14.3 15 15 14.3 15 13.444v-.184c0 .856-.7 1.556-1.556 1.556" opacity=".2"/>
    <path fill="#FFF" d="m9.19 5.894-.092-.092 3.247-3.247h.184zM9.512 8l-2.117 2.728-1.512-1.821-2.118 2.723h.143l1.974-2.538 1.512 1.821 2.117-2.728 2.584 3.445h.138zm-6.956 5.629h10.889v-.184H2.556zM9.556 1v.184H15V1zm-7 .184H8V1H2.556C1.692 1 1 1.7 1 2.556v.184c0-.856.692-1.556 1.556-1.556m10.888 7H15V8h-1.556z" opacity=".2"/>
    <radialGradient id="a" cx="1" cy="17" r="19.799" gradientTransform="matrix(1 0 0 -1 0 18)" gradientUnits="userSpaceOnUse">
        <stop offset="0" style="stop-color:#fff;stop-opacity:.1"/>
        <stop offset="1" style="stop-color:#fff;stop-opacity:0"/>
    </radialGradient>
    <path d="M7.395 10.728 9.512 8l2.722 3.63H3.765l2.117-2.722zm6.049 2.716H2.556V2.556H8V1H2.556C1.692 1 1 1.7 1 2.556v10.889C1 14.3 1.692 15 2.556 15h10.889C14.3 15 15 14.3 15 13.444V8h-1.556zM9.556 1v1.556h2.789L9.006 5.894l1.1 1.1 3.339-3.339v2.789H15V1z" style="fill:url(#a)"/>
</svg>
