<svg xmlns="http://www.w3.org/2000/svg" width="16" height="16" fill="#fff" fill-opacity="context-fill-opacity">
    <path d="M15.158 6.636H8.17v2.898h4.023a3.37 3.37 0 0 1-1.539 2.236c-.676.426-1.521.662-2.483.662-1.969 0-3.611-1.281-4.192-3.052l-.003-.006A4.4 4.4 0 0 1 3.739 8c0-.486.097-.944.24-1.381a4.41 4.41 0 0 1 4.192-3.051c1.057 0 2.011.375 2.761.989l2.182-2.182C11.784 1.216 10.08.5 8.17.5a7.47 7.47 0 0 0-6.726 4.182 7.5 7.5 0 0 0 0 6.636A7.47 7.47 0 0 0 8.17 15.5c1.829 0 3.574-.653 4.884-1.871 1.377-1.28 2.275-3.184 2.275-5.629 0-.443-.069-.921-.171-1.364"/>
</svg>
