<svg xmlns="http://www.w3.org/2000/svg" width="16" height="16" fill="#fff" fill-opacity="context-fill-opacity">
    <path d="M16 12.218a1 1 0 0 1-1 1h-2.697a4.4 4.4 0 0 0 .125-1.006c0-.343-.047-.674-.121-.994H15a1 1 0 0 1 1 1m-1.936-1.989a.816.816 0 0 0 .816-.816V4.121l-1.633 1.633v3.658a.82.82 0 0 0 .817.817m-4.331-.96-1.534 1.534a1.425 1.425 0 1 1-1.608 1.608l-1.534 1.534A3.41 3.41 0 0 0 8 15.641a3.43 3.43 0 0 0 3.429-3.429 3.41 3.41 0 0 0-1.696-2.943M15.708.293a1 1 0 0 0-1.414 0l-.965.965a2.7 2.7 0 0 0-1.172-.276H3.843A2.723 2.723 0 0 0 1.12 3.705v5.707a.816.816 0 1 0 1.632 0V3.705c0-.602.488-1.091 1.091-1.091h8.13l-8.604 8.604H1.017a1.001 1.001 0 0 0-.035 2h.387L.307 14.28a1 1 0 1 0 1.389 1.439l.025-.025L15.708 1.707a1 1 0 0 0 0-1.414"/>
</svg>
