<svg xmlns="http://www.w3.org/2000/svg" width="16" height="16" fill="#fff" fill-opacity="context-fill-opacity">
    <path d="m9.18 10.95 1.18 4.13H5.64l1.18-4.13-.885-1.77h4.13zm2.36-5.31H4.46L2.1 6.82h11.8zM10.36.92 8 2.1 5.64.92 4.46 4.46h7.08zm4.757 9.145L11.54 9.18l1.18 2.36-2.36 3.54h3.798q.405 0 .719-.249c.314-.249.35-.378.424-.636l.664-2.692q.111-.48-.129-.885a1.22 1.22 0 0 0-.719-.553M4.46 9.18l-3.577.885q-.48.147-.719.553-.24.405-.129.885l.664 2.692q.11.387.424.636t.719.249H5.64l-2.36-3.54z"/>
</svg>
