<svg xmlns="http://www.w3.org/2000/svg" width="16" height="16" fill="#fff" fill-opacity="context-fill-opacity">
    <path d="M15.227 14.594 9.212 8.58 7.996 7.363v.001l-2.699-2.7.001-.001L4.116 3.48l-.002.002-2.176-2.177A.822.822 0 1 0 .774 2.469l2.182 2.183A6.5 6.5 0 0 0 1.31 8.964c0 3.635 2.993 6.577 6.687 6.577a6.7 6.7 0 0 0 4.294-1.548l1.764 1.765a.82.82 0 0 0 1.164 0 .815.815 0 0 0 .008-1.164m-7.231-.724c-2.766 0-5.015-2.198-5.015-4.906 0-1.152.425-2.234 1.172-3.113l3.843 3.845zM5.29 2.325 7.411.238a.837.837 0 0 1 1.17 0l4.137 4.07a6.53 6.53 0 0 1 1.964 4.656c0 .818-.158 1.597-.435 2.319L7.996 5.031V2.01L6.473 3.508z"/>
</svg>
