<svg xmlns="http://www.w3.org/2000/svg" width="16" height="16" fill="#fff" fill-opacity="context-fill-opacity">
    <path d="M14 0H2a2 2 0 0 0-2 2v12a2 2 0 0 0 2 2h12a2 2 0 0 0 2-2V2a2 2 0 0 0-2-2m-3.705 14.701-.395-.714a1 1 0 0 0-.843-.463l-3.028.123a2.15 2.15 0 0 1-1.129-.328c-.475-.303-.942-.874-1.049-1.424-.194-1.004.145-1.907.884-2.596q.058-.053.108-.091l.216-.166a3.63 3.63 0 0 1-.71-2.161A3.65 3.65 0 0 1 9.02 3.38a2.09 2.09 0 0 1 1.934-1.308h.767V3.86l-.439-.047a.93.93 0 0 0-.76.272l-.084.085a3.64 3.64 0 0 1 1.208 2.71 3.655 3.655 0 0 1-3.647 3.648 3.6 3.6 0 0 1-1.755-.451 3 3 0 0 0-.357.55c-.138.32-.025 1.115.717 1.115h2.7a2.81 2.81 0 0 1 2.547 1.632l.321.699zM6.767 8.112a1.75 1.75 0 0 1-.512-1.232 1.75 1.75 0 0 1 1.744-1.744A1.75 1.75 0 0 1 9.743 6.88a1.75 1.75 0 0 1-1.744 1.744 1.75 1.75 0 0 1-1.232-.512"/>
</svg>
