<svg xmlns="http://www.w3.org/2000/svg" width="16" height="16" fill="#fff" fill-opacity="context-fill-opacity">
    <path d="M12.278 1a2.725 2.725 0 0 0-2.722 2.722v1.167H6.444V3.722C6.444 2.221 5.223 1 3.722 1S1 2.221 1 3.722s1.221 2.722 2.722 2.722h1.167v3.111H3.722C2.221 9.556 1 10.777 1 12.278S2.221 15 3.722 15s2.722-1.221 2.722-2.722v-1.167h3.111v1.167c0 1.501 1.221 2.722 2.722 2.722S15 13.779 15 12.278s-1.221-2.722-2.722-2.722h-1.167V6.444h1.167C13.779 6.444 15 5.223 15 3.722S13.779 1 12.278 1m-1.167 3.889V3.722c0-.646.521-1.167 1.167-1.167s1.167.521 1.167 1.167-.521 1.167-1.167 1.167zm-7.389 0c-.646 0-1.167-.521-1.167-1.167s.521-1.167 1.167-1.167 1.167.521 1.167 1.167v1.167zm2.722 4.667V6.444h3.111v3.111zm5.834 3.888a1.165 1.165 0 0 1-1.167-1.167V11.11h1.167c.646 0 1.167.521 1.167 1.167s-.522 1.167-1.167 1.167m-8.556 0c-.646 0-1.167-.521-1.167-1.167s.521-1.167 1.167-1.167h1.167v1.167c0 .646-.521 1.167-1.167 1.167"/>
</svg>
