<svg xmlns="http://www.w3.org/2000/svg" width="16" height="16" fill="#fff" fill-opacity="context-fill-opacity">
    <path d="m12.278 9.556-2.723-.001v2.723A2.725 2.725 0 0 0 12.277 15 2.726 2.726 0 0 0 15 12.278a2.725 2.725 0 0 0-2.722-2.722m0 3.888a1.165 1.165 0 0 1-1.167-1.167V11.11h1.167c.646 0 1.167.521 1.167 1.167s-.522 1.167-1.167 1.167m2.436-12.157a.99.99 0 0 0-1.337-.051A2.7 2.7 0 0 0 12.278 1a2.725 2.725 0 0 0-2.722 2.722v1.167H6.444V3.722A2.725 2.725 0 0 0 3.722 1 2.725 2.725 0 0 0 1 3.722a2.725 2.725 0 0 0 2.722 2.722h1.167v3.111H3.722A2.726 2.726 0 0 0 1 12.278c0 .392.088.761.239 1.098a.99.99 0 0 0 .036 1.325 1 1 0 0 0 1.414.025l.025-.025 12-12a1 1 0 0 0 0-1.414M8.143 6.444 6.444 8.143V6.444zM3.722 4.889c-.646 0-1.167-.521-1.167-1.167s.521-1.167 1.167-1.167 1.167.521 1.167 1.167v1.167z"/>
</svg>
