<svg xmlns="http://www.w3.org/2000/svg" width="16" height="16" fill="#fff" fill-opacity="context-fill-opacity">
    <path d="M.282 11.887c.413.033 1.498 0 1.498 0h11.409c1.547 0 2.811-1.585 2.811-3.142s-1.284-3.054-2.811-3.054c-.462 0-.948.023-1.522.246-.387-1.034-1.378-1.569-2.369-1.773a3.5 3.5 0 0 0-1.877.147C5.593 4.972 4.98 7.053 5.32 8.483c.069.29.193.578.381.856-.394-.286-.788-.486-1.373-.486-.788 0-1.459.768-1.459 1.576 0 .439.197.832.505 1.099a2 2 0 0 1-.126-.116c-.768-.292-.895-.749-1.469-.749-.321 0-.584.311-.584.632a.6.6 0 0 0 .304.519 3 3 0 0 1-.362-.071c-.486-.136-.535-.477-.846-.477-.155-.001-.291.155-.291.32 0 .086.04.157.09.218.032.039.129.078.192.083m3.972-.002.04.001z"/>
</svg>
