<svg xmlns="http://www.w3.org/2000/svg" width="1078" height="54" fill="#fff" fill-opacity="context-fill-opacity">
    <defs>
        <path id="a" d="M8 22a1 1 0 0 0-1 1v10a1 1 0 0 0 2 0V23a1 1 0 0 0-1-1m3-1a1 1 0 0 0-1 1v11a1 1 0 0 0 2 0V22a1 1 0 0 0-1-1m8 11.7-4-11a1 1 0 1 0-2 .6l4 11a1 1 0 1 0 2-.6M5 20a1 1 0 0 0-1 1v12a1 1 0 0 0 2 0V21a1 1 0 0 0-1-1"/>
        <mask id="b" mask-type="alpha">
            <path d="m-1.442-10.137-7.75 24.35 10.7 6 2.7-.4 1.5-.15 1.15 2.35 2.75.05.4-1.05h5l4.6 12.7 2.1-19.6 3-12.6-.4-11.15-25.8-.5z"/>
        </mask>
    </defs>
    <svg>
        <use href="#a"/>
    </svg>
    <svg x="22">
        <use href="#a"/>
        <g mask="url(#b)" opacity=".043">
            <path fill="context-stroke" d="M13.6 1.7 14 5l.1 1.5 1.3.6 3 1.7-3.2 1.6-1.2.7-.2 1.3-.7 3.4-2.3-2.4-1-1.2-1.5.3-3.2.5 1.6-3 .6-1.3L7 7.5 5.4 4.3l3.4.5 1.4.3 1-1z"/>
            <path fill="none" d="M13.6 1.7 14 5l.1 1.5 1.3.6 3 1.7-3.2 1.6-1.2.7-.2 1.3-.7 3.4-2.3-2.4-1-1.2-1.5.3-3.2.5 1.6-3 .6-1.3L7 7.5 5.4 4.3l3.4.5 1.4.3 1-1z"/>
        </g>
    </svg>
    <svg x="44">
        <use href="#a"/>
        <g mask="url(#b)" opacity=".156">
            <path fill="context-stroke" d="m13.3 1.6.6 3.3.3 1.4 1.2.6 3 1.5-3 1.8-1.2.7-.2 1.3-.5 3.5-2.4-2.4-1-1-1.5.2-3.2.7L6.9 10l.6-1.3-.6-1.2-1.6-3.1 3.4.4L10 5l1-1 2.2-2.5"/>
            <path fill="none" d="m13.3 1.6.6 3.3.3 1.4 1.2.6 3 1.5-3 1.8-1.2.7-.2 1.3-.5 3.5-2.4-2.4-1-1-1.5.2-3.2.7L6.9 10l.6-1.3-.6-1.2-1.6-3.1 3.4.4L10 5l1-1 2.2-2.5"/>
        </g>
    </svg>
    <svg x="66">
        <use href="#a"/>
        <g mask="url(#b)" opacity=".316">
            <path fill="context-stroke" d="m13 1.5.7 3.3L14 6l1.3.6 3 1.3-2.8 2-1.2.7V12l-.4 3.4-2.5-2.2-1-1-1.5.4-3.2.8L7 10.3 7.5 9 7 7.8l-1.7-3 3.3.2 1.5.1.9-1z"/>
            <path fill="none" d="m13 1.5.7 3.3L14 6l1.3.6 3 1.3-2.8 2-1.2.7V12l-.4 3.4-2.5-2.2-1-1-1.5.4-3.2.8L7 10.3 7.5 9 7 7.8l-1.7-3 3.3.2 1.5.1.9-1z"/>
        </g>
    </svg>
    <svg x="88">
        <use href="#a"/>
        <g mask="url(#b)" opacity=".5">
            <path fill="context-stroke" d="m12.5 1.4 1 3.2.4 1.3 1.3.5 3 1.1-2.7 2.1-1 .8v1.3l-.1 3.4-2.6-2-1.2-.9-1.4.5-3 1 1-3.2.5-1.3-.8-1.1-1.8-3 3.3.1h1.4l.8-1.1 2-2.7"/>
            <path fill="none" d="m12.5 1.4 1 3.2.4 1.3 1.3.5 3 1.1-2.7 2.1-1 .8v1.3l-.1 3.4-2.6-2-1.2-.9-1.4.5-3 1 1-3.2.5-1.3-.8-1.1-1.8-3 3.3.1h1.4l.8-1.1 2-2.7"/>
        </g>
    </svg>
    <svg x="110">
        <use href="#a"/>
        <g mask="url(#b)" opacity=".684">
            <path fill="context-stroke" d="m12.1 1.4 1.2 3 .4 1.4 1.4.3 3 1-2.5 2.2-1 .8v1.4l.2 3.3L12 13l-1.2-.8-1.4.5-3 1.2 1-3.2.3-1.3-.8-1-2-2.8 3.2-.2h1.4l.8-1.3L12 1.4"/>
            <path fill="none" d="m12.1 1.4 1.2 3 .4 1.4 1.4.3 3 1-2.5 2.2-1 .8v1.4l.2 3.3L12 13l-1.2-.8-1.4.5-3 1.2 1-3.2.3-1.3-.8-1-2-2.8 3.2-.2h1.4l.8-1.3L12 1.4"/>
        </g>
    </svg>
    <svg x="132">
        <use href="#a"/>
        <g mask="url(#b)" opacity=".844">
            <path fill="context-stroke" d="m11.7 1.4 1.3 3 .6 1.2 1.3.3 3.1.7L15.6 9l-1 1 .2 1.2.3 3.3-2.7-1.6L11 12l-1.3.6L7 14.1l.6-3.3.3-1.3-.8-1L4.9 6l3.2-.3 1.4-.2.7-1.2 1.5-2.8"/>
            <path fill="none" d="m11.7 1.4 1.3 3 .6 1.2 1.3.3 3.1.7L15.6 9l-1 1 .2 1.2.3 3.3-2.7-1.6L11 12l-1.3.6L7 14.1l.6-3.3.3-1.3-.8-1L4.9 6l3.2-.3 1.4-.2.7-1.2 1.5-2.8"/>
        </g>
    </svg>
    <svg x="154">
        <use href="#a"/>
        <g mask="url(#b)" opacity=".957">
            <path fill="context-stroke" d="m11.5 1.4 1.4 2.9.6 1.2 1.3.3 3.1.5-2.3 2.5-.9 1L15 11l.5 3.3-2.8-1.6-1.3-.7-1.3.7-2.8 1.4.6-3.2.2-1.3-.9-1L5 6.1l3-.4 1.3-.2.7-1.3 1.4-2.8"/>
            <path fill="none" d="m11.5 1.4 1.4 2.9.6 1.2 1.3.3 3.1.5-2.3 2.5-.9 1L15 11l.5 3.3-2.8-1.6-1.3-.7-1.3.7-2.8 1.4.6-3.2.2-1.3-.9-1L5 6.1l3-.4 1.3-.2.7-1.3 1.4-2.8"/>
        </g>
    </svg>
    <svg x="176">
        <use href="#a"/>
        <g mask="url(#b)">
            <path fill="context-stroke" d="m11.4 1.4 1.4 2.8.7 1.2 1.3.3 3.1.5-2.3 2.5-.8 1 .2 1.2.5 3.3-2.9-1.5-1.2-.7-1.3.7-2.8 1.5.5-3.3.2-1.3-.9-1L5 6.3l3-.6 1.4-.3.6-1.2z"/>
            <path fill="none" d="m11.4 1.4 1.4 2.8.7 1.2 1.3.3 3.1.5-2.3 2.5-.8 1 .2 1.2.5 3.3-2.9-1.5-1.2-.7-1.3.7-2.8 1.5.5-3.3.2-1.3-.9-1L5 6.3l3-.6 1.4-.3.6-1.2z"/>
        </g>
    </svg>
    <svg x="198">
        <use href="#a"/>
        <g mask="url(#b)">
            <path fill="context-stroke" d="m11.3 1.4 1.5 2.9.6 1.2 1.4.2 3.1.5-2.3 2.5-.8 1 .2 1.2.5 3.3-2.8-1.5-1.3-.7-1.3.7-2.7 1.5.5-3.2.1-1.3-.8-1-2.3-2.4L8 5.8l1.4-.3.6-1.3z"/>
            <path fill="none" d="m11.3 1.4 1.5 2.9.6 1.2 1.4.2 3.1.5-2.3 2.5-.8 1 .2 1.2.5 3.3-2.8-1.5-1.3-.7-1.3.7-2.7 1.5.5-3.2.1-1.3-.8-1-2.3-2.4L8 5.8l1.4-.3.6-1.3z"/>
        </g>
    </svg>
    <svg x="220">
        <use href="#a"/>
        <g mask="url(#b)">
            <path fill="context-stroke" d="m11.3 1.5 1.5 2.8.6 1.2 1.4.2 3 .5-2.1 2.5-.9 1L15 11l.6 3.2-2.9-1.4-1.3-.7-1.2.7-2.7 1.5.4-3.2.2-1.3-1-1-2.3-2.4L8 6l1.4-.3.5-1.3 1.4-2.8"/>
            <path fill="none" d="m11.3 1.5 1.5 2.8.6 1.2 1.4.2 3 .5-2.1 2.5-.9 1L15 11l.6 3.2-2.9-1.4-1.3-.7-1.2.7-2.7 1.5.4-3.2.2-1.3-1-1-2.3-2.4L8 6l1.4-.3.5-1.3 1.4-2.8"/>
        </g>
    </svg>
    <svg x="242">
        <use href="#a"/>
        <g mask="url(#b)">
            <path fill="context-stroke" d="m11.2 1.6 1.5 2.8.7 1.2 1.3.1 3.2.5-2.2 2.5-.9 1 .3 1.3.6 3.2-3-1.4-1.2-.6-1.3.7-2.7 1.6.4-3.3.2-1.3-1-1-2.3-2.3L8 6l1.3-.3.6-1.3z"/>
            <path fill="none" d="m11.2 1.6 1.5 2.8.7 1.2 1.3.1 3.2.5-2.2 2.5-.9 1 .3 1.3.6 3.2-3-1.4-1.2-.6-1.3.7-2.7 1.6.4-3.3.2-1.3-1-1-2.3-2.3L8 6l1.3-.3.6-1.3z"/>
        </g>
    </svg>
    <svg x="264">
        <use href="#a"/>
        <g mask="url(#b)">
            <path fill="context-stroke" d="m11 1.7 1.7 2.7.6 1.2 1.4.2 3.1.4-2.1 2.5-.9 1 .3 1.3.7 3.2-3-1.3-1.2-.6-1.3.7-2.7 1.6.4-3.2V10L7 9 4.7 6.7 7.8 6l1.4-.3.5-1.3L11 1.6"/>
            <path fill="none" d="m11 1.7 1.7 2.7.6 1.2 1.4.2 3.1.4-2.1 2.5-.9 1 .3 1.3.7 3.2-3-1.3-1.2-.6-1.3.7-2.7 1.6.4-3.2V10L7 9 4.7 6.7 7.8 6l1.4-.3.5-1.3L11 1.6"/>
        </g>
    </svg>
    <svg x="286">
        <use href="#a"/>
        <g mask="url(#b)">
            <path fill="context-stroke" d="m11 1.8 1.6 2.7.7 1.2 1.4.1 3.1.4-2.1 2.6-.8 1 .2 1.3.8 3.2-3-1.3-1.3-.6-1.2.7-2.7 1.7.3-3.3.2-1.3-1-.9L4.8 7l3.1-.7L9.3 6l.5-1.3 1.2-3"/>
            <path fill="none" d="m11 1.8 1.6 2.7.7 1.2 1.4.1 3.1.4-2.1 2.6-.8 1 .2 1.3.8 3.2-3-1.3-1.3-.6-1.2.7-2.7 1.7.3-3.3.2-1.3-1-.9L4.8 7l3.1-.7L9.3 6l.5-1.3 1.2-3"/>
        </g>
    </svg>
    <svg x="308">
        <use href="#a"/>
        <g mask="url(#b)">
            <path fill="context-stroke" d="m10.9 1.9 1.7 2.7.7 1.2 1.3.1 3.2.3-2.1 2.6-.8 1 .3 1.3.7 3.2-2.9-1.2-1.3-.6-1.2.8L7.8 15l.3-3.3v-1.3l-.9-.9-2.4-2.3 3-.7L9.3 6l.5-1.3L11 2"/>
            <path fill="none" d="m10.9 1.9 1.7 2.7.7 1.2 1.3.1 3.2.3-2.1 2.6-.8 1 .3 1.3.7 3.2-2.9-1.2-1.3-.6-1.2.8L7.8 15l.3-3.3v-1.3l-.9-.9-2.4-2.3 3-.7L9.3 6l.5-1.3L11 2"/>
        </g>
    </svg>
    <svg x="330">
        <use href="#a"/>
        <g mask="url(#b)">
            <path fill="context-stroke" d="m10.8 2 1.7 2.8.7 1.1 1.4.1 3.1.2-2 2.7-.8 1 .3 1.3.8 3.2-3-1.2-1.2-.6-1.2.8L8 15.2l.1-3.3.1-1.3-1-.9-2.5-2.2 3.1-.8 1.4-.4.5-1.3 1-3"/>
            <path fill="none" d="m10.8 2 1.7 2.8.7 1.1 1.4.1 3.1.2-2 2.7-.8 1 .3 1.3.8 3.2-3-1.2-1.2-.6-1.2.8L8 15.2l.1-3.3.1-1.3-1-.9-2.5-2.2 3.1-.8 1.4-.4.5-1.3 1-3"/>
        </g>
    </svg>
    <svg x="352">
        <use href="#a"/>
        <g mask="url(#b)">
            <path fill="context-stroke" d="M10.7 2.2 12.4 5l.8 1.1 1.3.1 3.2.2-2 2.7-.8 1 .4 1.3.8 3.2-3-1.2-1.3-.5-1.2.8-2.5 1.8.1-3.3v-1.3l-1-.9-2.5-2.1 3.1-1 1.4-.3.4-1.3 1-3"/>
            <path fill="none" d="M10.7 2.2 12.4 5l.8 1.1 1.3.1 3.2.2-2 2.7-.8 1 .4 1.3.8 3.2-3-1.2-1.3-.5-1.2.8-2.5 1.8.1-3.3v-1.3l-1-.9-2.5-2.1 3.1-1 1.4-.3.4-1.3 1-3"/>
        </g>
    </svg>
    <svg x="374">
        <use href="#a"/>
        <g mask="url(#b)">
            <path fill="context-stroke" d="m10.6 2.4 1.8 2.7.7 1 1.4.1 3.1.2L15.7 9l-.7 1 .3 1.3 1 3.2-3-1.1-1.4-.5-1.2.8-2.5 1.8V11l-1-.8-2.5-2.1 3-1 1.4-.4.5-1.3z"/>
            <path fill="none" d="m10.6 2.4 1.8 2.7.7 1 1.4.1 3.1.2L15.7 9l-.7 1 .3 1.3 1 3.2-3-1.1-1.4-.5-1.2.8-2.5 1.8V11l-1-.8-2.5-2.1 3-1 1.4-.4.5-1.3z"/>
        </g>
    </svg>
    <svg x="396">
        <use href="#a"/>
        <g mask="url(#b)">
            <path fill="context-stroke" d="m10.4 2.6 1.9 2.7.8 1 1.3.1h3.2l-1.9 2.8-.7 1.1.4 1.3 1 3.1-3-1-1.4-.5-1.2.8-2.5 2v-4.6l-1-.8-2.6-2.1 3-1L9.2 7l.4-1.4 1-3"/>
            <path fill="none" d="m10.4 2.6 1.9 2.7.8 1 1.3.1h3.2l-1.9 2.8-.7 1.1.4 1.3 1 3.1-3-1-1.4-.5-1.2.8-2.5 2v-4.6l-1-.8-2.6-2.1 3-1L9.2 7l.4-1.4 1-3"/>
        </g>
    </svg>
    <svg x="418">
        <use href="#a"/>
        <g mask="url(#b)">
            <path fill="context-stroke" d="m10.3 2.9 2 2.6.7 1h4.6l-1.9 2.9-.7 1 .4 1.3 1 3.1-3-1-1.4-.4-1.1.9-2.5 1.9v-4.6l-1-.8-2.7-2 3-1.1L9 7.2 9.4 6l1-3"/>
            <path fill="none" d="m10.3 2.9 2 2.6.7 1h4.6l-1.9 2.9-.7 1 .4 1.3 1 3.1-3-1-1.4-.4-1.1.9-2.5 1.9v-4.6l-1-.8-2.7-2 3-1.1L9 7.2 9.4 6l1-3"/>
        </g>
    </svg>
    <svg x="440">
        <use href="#a"/>
        <g mask="url(#b)">
            <path fill="context-stroke" d="m10.2 3.2 2 2.5.8 1.1h4.5l-1.8 2.8-.7 1 .5 1.3 1 3.1-3-1-1.4-.4-1.1 1-2.5 1.9v-4.6L7.3 11 4.6 9l3-1L9 7.4l.4-1.3.8-3"/>
            <path fill="none" d="m10.2 3.2 2 2.5.8 1.1h4.5l-1.8 2.8-.7 1 .5 1.3 1 3.1-3-1-1.4-.4-1.1 1-2.5 1.9v-4.6L7.3 11 4.6 9l3-1L9 7.4l.4-1.3.8-3"/>
        </g>
    </svg>
    <svg x="462">
        <use href="#a"/>
        <g mask="url(#b)">
            <path fill="context-stroke" d="m10.1 3.5 2 2.5.8 1h4.6l-1.8 2.8-.6 1.1.4 1.2 1.1 3.1-3-.9-1.4-.4-1.1 1-2.4 2-.2-3.4v-1.3l-1.1-.7-2.7-2 3-1.1L9 7.9l.3-1.4z"/>
            <path fill="none" d="m10.1 3.5 2 2.5.8 1h4.6l-1.8 2.8-.6 1.1.4 1.2 1.1 3.1-3-.9-1.4-.4-1.1 1-2.4 2-.2-3.4v-1.3l-1.1-.7-2.7-2 3-1.1L9 7.9l.3-1.4z"/>
        </g>
    </svg>
    <svg x="484">
        <use href="#a"/>
        <g mask="url(#b)">
            <path fill="context-stroke" d="m10 3.8 2 2.5.9 1h1.3l3.2-.2-1.7 3-.6 1 .4 1.3 1.2 3-3-.8-1.4-.4-1.1 1-2.4 2-.2-3.3-.1-1.3-1-.7-2.8-2 3-1.1 1.2-.6.4-1.3.7-3"/>
            <path fill="none" d="m10 3.8 2 2.5.9 1h1.3l3.2-.2-1.7 3-.6 1 .4 1.3 1.2 3-3-.8-1.4-.4-1.1 1-2.4 2-.2-3.3-.1-1.3-1-.7-2.8-2 3-1.1 1.2-.6.4-1.3.7-3"/>
        </g>
    </svg>
    <svg x="506">
        <use href="#a"/>
        <g mask="url(#b)">
            <path fill="context-stroke" d="m9.9 4.2 2 2.5 1 1h1.3l3.1-.3-1.6 3-.6 1 .5 1.3 1.2 3-3-.8-1.5-.3-1 1-2.4 2-.3-3.3V13l-1.1-.7-2.8-1.8 3-1.3 1.2-.5.3-1.4.7-3"/>
            <path fill="none" d="m9.9 4.2 2 2.5 1 1h1.3l3.1-.3-1.6 3-.6 1 .5 1.3 1.2 3-3-.8-1.5-.3-1 1-2.4 2-.3-3.3V13l-1.1-.7-2.8-1.8 3-1.3 1.2-.5.3-1.4.7-3"/>
        </g>
    </svg>
    <svg x="528">
        <use href="#a"/>
        <g mask="url(#b)">
            <path fill="context-stroke" d="m9.8 4.7 2 2.4 1 1L14 8l3.2-.3-1.6 3-.6 1.1.5 1.2 1.3 3-3.1-.7-1.4-.3-1 1L9 18l-.3-3.2-.1-1.3-1.1-.7L4.7 11l2.9-1.3L8.9 9 9 7.7l.6-3"/>
            <path fill="none" d="m9.8 4.7 2 2.4 1 1L14 8l3.2-.3-1.6 3-.6 1.1.5 1.2 1.3 3-3.1-.7-1.4-.3-1 1L9 18l-.3-3.2-.1-1.3-1.1-.7L4.7 11l2.9-1.3L8.9 9 9 7.7l.6-3"/>
        </g>
    </svg>
    <svg x="550">
        <use href="#a"/>
        <g mask="url(#b)">
            <path fill="context-stroke" d="m9.6 5.2 2.2 2.3 1 1 1.3-.1 3.1-.3-1.5 3-.6 1.1.5 1.2 1.4 3-3.1-.7-1.4-.3-1 1-2.3 2.2-.4-3.3-.2-1.3-1-.7-3-1.7 3-1.4 1.2-.6.3-1.4z"/>
            <path fill="none" d="m9.6 5.2 2.2 2.3 1 1 1.3-.1 3.1-.3-1.5 3-.6 1.1.5 1.2 1.4 3-3.1-.7-1.4-.3-1 1-2.3 2.2-.4-3.3-.2-1.3-1-.7-3-1.7 3-1.4 1.2-.6.3-1.4z"/>
        </g>
    </svg>
    <svg x="572">
        <use href="#a"/>
        <g mask="url(#b)">
            <path fill="context-stroke" d="M9.5 5.7 11.7 8l1 1H14l3.2-.4-1.5 3-.6 1.2.6 1.1 1.4 3-3.2-.6-1.4-.3-1 1-2.2 2.2-.5-3.2-.1-1.3-1.2-.7-2.8-1.7 2.8-1.4 1.3-.6.2-1.4.5-3"/>
            <path fill="none" d="M9.5 5.7 11.7 8l1 1H14l3.2-.4-1.5 3-.6 1.2.6 1.1 1.4 3-3.2-.6-1.4-.3-1 1-2.2 2.2-.5-3.2-.1-1.3-1.2-.7-2.8-1.7 2.8-1.4 1.3-.6.2-1.4.5-3"/>
        </g>
    </svg>
    <svg x="594">
        <defs>
            <mask id="c" mask-type="alpha">
                <path d="m-1.442-10.137-7.75 24.35 10.7 6 2.7-.4 1.5-.15 1.15 2.35 2.75.05.4-1.05h5l4.6 12.7 2.1-19.6 3-12.6-.4-11.15-25.8-.5z"/>
            </mask>
        </defs>
        <use href="#a"/>
        <g mask="url(#c)">
            <path fill="context-stroke" d="m9.4 6.3 2.3 2.3 1 1 1.3-.2 3-.4-1.3 3-.6 1.2.6 1.2 1.5 3-3.2-.7-1.4-.2-1 1-2.2 2.3-.5-3.3-.2-1.3-1.1-.6-3-1.7 3-1.4 1.2-.7.2-1.3.4-3.1"/>
            <path fill="none" d="m9.4 6.3 2.3 2.3 1 1 1.3-.2 3-.4-1.3 3-.6 1.2.6 1.2 1.5 3-3.2-.7-1.4-.2-1 1-2.2 2.3-.5-3.3-.2-1.3-1.1-.6-3-1.7 3-1.4 1.2-.7.2-1.3.4-3.1"/>
        </g>
    </svg>
    <svg x="616">
        <defs>
            <mask id="d" mask-type="alpha">
                <path d="m-1.442-10.137-7.75 24.35 10.7 6 2.7-.4 1.5-.15 1.15 2.35 2.75.05.4-1.05h5l4.6 12.7 2.1-19.6 3-12.6-.4-11.15-25.8-.5z"/>
            </mask>
        </defs>
        <use href="#a"/>
        <g mask="url(#d)">
            <path fill="context-stroke" d="m9.3 7 2.3 2.3 1 1 1.3-.2 3.1-.5-1.3 3-.6 1.2.6 1.2 1.6 2.9-3.2-.5-1.4-.3-1 1.1-2.2 2.3-.5-3.2-.2-1.3-1.2-.7-3-1.6 2.9-1.5 1.2-.6.2-1.4.4-3.1"/>
            <path fill="none" d="m9.3 7 2.3 2.3 1 1 1.3-.2 3.1-.5-1.3 3-.6 1.2.6 1.2 1.6 2.9-3.2-.5-1.4-.3-1 1.1-2.2 2.3-.5-3.2-.2-1.3-1.2-.7-3-1.6 2.9-1.5 1.2-.6.2-1.4.4-3.1"/>
        </g>
    </svg>
    <svg x="638">
        <defs>
            <mask id="e" mask-type="alpha">
                <path d="m-1.77-9.996-8.007 24.35 11.055 6 2.79-.4 1.55-.15 1.187 2.35 2.842.05.413-1.05h5.166l4.753 12.7 2.17-19.6 3.1-12.6-.414-11.15-26.657-.5z"/>
            </mask>
        </defs>
        <path d="M8 22.1a1 1 0 0 0-1 1v10c0 .6.4 1 1 1s1-.4 1-1v-10c0-.5-.4-1-1-1m3-1a1 1 0 0 0-1 1v11c0 .6.5 1 1 1 .7 0 1.1-.4 1.1-1v-11c0-.5-.4-1-1-1zm8.3 11.7-4.1-11a1 1 0 0 0-1.4-.6 1 1 0 0 0-.6 1.2l4.1 11c.2.6.8.9 1.4.7.5-.2.8-.7.6-1.3M4.9 20.1a1 1 0 0 0-1 1v12c0 .6.4 1 1 1s1-.4 1-1v-12c0-.5-.4-1-1-1"/>
        <g mask="url(#e)">
            <path fill="context-stroke" d="m9.2 8 2.3 2.1 1 1 1.3-.3 3.1-.5-1.3 3-.5 1.2.7 1.2 1.5 2.9-3.1-.5-1.5-.2-1 1-2 2.4-.7-3.2-.2-1.3-1.2-.6-3-1.5 3-1.7 1.2-.7.1-1.4.4-3"/>
            <path fill="none" d="m9.2 8 2.3 2.1 1 1 1.3-.3 3.1-.5-1.3 3-.5 1.2.7 1.2 1.5 2.9-3.1-.5-1.5-.2-1 1-2 2.4-.7-3.2-.2-1.3-1.2-.6-3-1.5 3-1.7 1.2-.7.1-1.4.4-3"/>
        </g>
    </svg>
    <svg x="660">
        <defs>
            <mask id="f" mask-type="alpha">
                <path d="m-2.034-9.605-8.265 24.35 11.41 6 2.88-.4 1.6-.15 1.226 2.35 2.933.05.426-1.05h5.332l4.906 12.7 2.239-19.6 3.2-12.6-.427-11.15-27.513-.5z"/>
            </mask>
        </defs>
        <path d="M8 22.5a1 1 0 0 0-1 1v10c0 .6.4 1 1 1s1.1-.4 1.1-1v-10c0-.5-.5-1-1-1zm3.2-1a1 1 0 0 0-1 1v11c0 .6.4 1 1 1s1.1-.4 1.1-1v-11c0-.5-.5-1-1-1zm8.5 11.7-4.3-11a1 1 0 0 0-1.3-.6 1 1 0 0 0-.7 1.2l4.3 11c.2.6.8.9 1.4.7.5-.2.8-.8.6-1.3M4.8 20.5a1 1 0 0 0-1 1v12c0 .6.4 1 1 1s1.1-.4 1.1-1v-12c0-.5-.5-1-1-1z"/>
        <g mask="url(#f)">
            <path fill="context-stroke" d="m9 8.9 2.4 2.2 1 .9 1.4-.3 3-.6-1.2 3.1-.5 1.2.7 1.2 1.6 2.8-3.2-.4-1.4-.2-1 1.1-2 2.4L9 19l-.3-1.3-1.1-.6-3-1.5L7.3 14l1.3-.7V12l.6-3"/>
            <path fill="none" d="m9 8.9 2.4 2.2 1 .9 1.4-.3 3-.6-1.2 3.1-.5 1.2.7 1.2 1.6 2.8-3.2-.4-1.4-.2-1 1.1-2 2.4L9 19l-.3-1.3-1.1-.6-3-1.5L7.3 14l1.3-.7V12l.6-3"/>
        </g>
    </svg>
    <svg x="682">
        <defs>
            <mask id="g" mask-type="alpha">
                <path d="m-2.27-9.09-8.521 24.35 11.764 6 2.969-.4 1.649-.15 1.264 2.35 3.024.05.44-1.05h5.497l5.058 12.7 2.309-19.6 3.298-12.6-.44-11.15-28.366-.5z"/>
            </mask>
        </defs>
        <path d="M8.1 23a1 1 0 0 0-1 1v10c0 .6.4 1 1 1s1.1-.4 1.1-1V24c0-.5-.5-1-1-1zm3.3-1a1 1 0 0 0-1 1v11c0 .6.4 1 1 1s1.1-.4 1.1-1V23c0-.5-.5-1-1-1zm8.7 11.7-4.4-11c-.2-.5-.8-.8-1.4-.6a1 1 0 0 0-.6 1.3l4.4 11c.2.5.8.8 1.4.6.5-.2.8-.7.7-1.3zM4.8 21a1 1 0 0 0-1 1v12c0 .6.4 1 1 1S6 34.6 6 34V22c0-.5-.5-1-1-1z"/>
        <g mask="url(#g)">
            <path fill="context-stroke" d="m9 10 2.4 2.2 1 .9 1.3-.3 3.1-.7-1.2 3.2-.5 1.2.7 1.1 1.7 2.8-3.2-.3-1.5-.2L12 21l-2 2.4-.7-3.2L9 19l-1.2-.6-3-1.4 2.7-1.7 1.2-.7.1-1.4z"/>
            <path fill="none" d="m9 10 2.4 2.2 1 .9 1.3-.3 3.1-.7-1.2 3.2-.5 1.2.7 1.1 1.7 2.8-3.2-.3-1.5-.2L12 21l-2 2.4-.7-3.2L9 19l-1.2-.6-3-1.4 2.7-1.7 1.2-.7.1-1.4z"/>
        </g>
    </svg>
    <svg x="704">
        <defs>
            <mask id="h" mask-type="alpha">
                <path d="m-2.51-8.572-8.775 24.35 12.114 6 3.057-.4 1.698-.15 1.302 2.35 3.113.05.453-1.05h5.661l5.208 12.7 2.378-19.6 3.396-12.6-.453-11.15-29.21-.5z"/>
            </mask>
        </defs>
        <path d="M8.2 23.6c-.6 0-1.2.4-1.2 1v10c0 .5.6 1 1.2 1s1.1-.5 1.1-1v-10c0-.6-.5-1-1.1-1m3.4-1c-.6 0-1.2.4-1.2 1v11c0 .5.6 1 1.2 1s1.1-.5 1.1-1v-11c0-.6-.5-1-1.1-1m9 11.6-4.6-11c-.2-.5-.8-.8-1.4-.6s-1 .7-.7 1.3l4.5 11c.2.5.9.8 1.5.6.6-.1.9-.7.7-1.2zM4.8 21.6c-.6 0-1.1.4-1.1 1v12c0 .5.5 1 1 1 .7 0 1.2-.5 1.2-1v-12c0-.6-.5-1-1.1-1"/>
        <g mask="url(#h)">
            <path fill="context-stroke" d="m8.8 11.5 2.5 2 1 1 1.3-.4 3.1-.7-1.1 3.2-.5 1.2.7 1.1 1.7 2.8-3.2-.3-1.4-.1-1 1.1-1.9 2.4-.8-3.1-.3-1.3-1.2-.6-3-1.3 2.7-1.8 1.2-.7v-1.4z"/>
            <path fill="none" d="m8.8 11.5 2.5 2 1 1 1.3-.4 3.1-.7-1.1 3.2-.5 1.2.7 1.1 1.7 2.8-3.2-.3-1.4-.1-1 1.1-1.9 2.4-.8-3.1-.3-1.3-1.2-.6-3-1.3 2.7-1.8 1.2-.7v-1.4z"/>
        </g>
    </svg>
    <svg x="726">
        <defs>
            <mask id="i" mask-type="alpha">
                <path d="m-2.782-8.172-9.02 24.35 12.454 6 3.143-.4 1.746-.15 1.338 2.35 3.201.05.466-1.05h5.82l5.354 12.7 2.444-19.6 3.492-12.6-.466-11.15-30.03-.5z"/>
            </mask>
        </defs>
        <path d="M8.2 24c-.6 0-1.2.4-1.2 1v10c0 .5.6 1 1.2 1 .7 0 1.2-.5 1.2-1V25c0-.6-.5-1-1.2-1m3.5-1c-.6 0-1.2.4-1.2 1v11c0 .5.6 1 1.2 1s1.2-.5 1.2-1V24c0-.6-.6-1-1.2-1m9.2 11.6-4.6-11c-.2-.5-.9-.8-1.5-.6s-1 .7-.7 1.3l4.7 11c.2.5.8.8 1.4.6.6-.1 1-.7.8-1.2zM4.7 22c-.6 0-1.1.4-1.1 1v12c0 .5.5 1 1.1 1 .7 0 1.2-.5 1.2-1V23c0-.6-.5-1-1.2-1"/>
        <g mask="url(#i)">
            <path fill="context-stroke" d="m8.7 13.3 2.5 2 1 .9 1.4-.3 3-.8-1 3.2-.5 1.2.7 1.1 1.8 2.8-3.2-.2-1.5-.2-.8 1.2-2 2.4-.8-3.1-.4-1.3-1.1-.5-3.1-1.4 2.7-1.7 1.1-.8v-1.4z"/>
            <path fill="none" d="m8.7 13.3 2.5 2 1 .9 1.4-.3 3-.8-1 3.2-.5 1.2.7 1.1 1.8 2.8-3.2-.2-1.5-.2-.8 1.2-2 2.4-.8-3.1-.4-1.3-1.1-.5-3.1-1.4 2.7-1.7 1.1-.8v-1.4z"/>
        </g>
    </svg>
    <svg x="748">
        <defs>
            <mask id="j" mask-type="alpha">
                <path d="m-3.103-8.012-9.252 24.35 12.774 6 3.223-.4 1.79-.15 1.374 2.35 3.283.05.477-1.05h5.97l5.49 12.7 2.508-19.6 3.581-12.6-.477-11.15-30.8-.5z"/>
            </mask>
        </defs>
        <path d="M8.2 24.1c-.7 0-1.2.5-1.2 1v10c0 .6.5 1 1.2 1 .6 0 1.2-.4 1.2-1v-10c0-.5-.6-1-1.2-1m3.6-1c-.7 0-1.2.5-1.2 1v11c0 .6.5 1 1.2 1 .6 0 1.1-.4 1.1-1v-11c0-.5-.5-1-1.2-1zm9.4 11.7-4.7-11c-.3-.5-1-.8-1.6-.6-.6.1-1 .7-.7 1.2l4.8 11c.2.6.9.9 1.5.7s1-.8.7-1.3M4.6 22c-.7 0-1.2.5-1.2 1v12c0 .6.5 1 1.2 1 .6 0 1.2-.4 1.2-1V23c0-.5-.6-1-1.2-1"/>
        <g mask="url(#j)">
            <path fill="context-stroke" d="m8.6 15.7 2.5 2 1 .9 1.4-.4 3-.8-1 3.2-.4 1.2.7 1.1 1.8 2.8-3.2-.2-1.4-.1-.9 1.1-1.9 2.5-.9-3.1-.3-1.3-1.2-.5-3.1-1.3L7.3 21l1.2-.8v-4.4"/>
            <path fill="none" d="m8.6 15.7 2.5 2 1 .9 1.4-.4 3-.8-1 3.2-.4 1.2.7 1.1 1.8 2.8-3.2-.2-1.4-.1-.9 1.1-1.9 2.5-.9-3.1-.3-1.3-1.2-.5-3.1-1.3L7.3 21l1.2-.8v-4.4"/>
        </g>
    </svg>
    <svg x="770">
        <defs>
            <mask id="k" mask-type="alpha">
                <path d="m-3.41-8.233-9.452 24.35 13.05 6 3.293-.4 1.83-.15 1.402 2.35 3.353.05.488-1.05h6.098l5.61 12.7 2.561-19.6 3.66-12.6-.489-11.15-31.465-.5z"/>
            </mask>
        </defs>
        <path d="M8.1 23.9c-.7 0-1.2.5-1.2 1v10c0 .6.5 1 1.2 1s1.2-.4 1.2-1v-10c0-.5-.5-1-1.2-1m3.7-1c-.7 0-1.3.5-1.3 1v11c0 .6.6 1 1.3 1 .6 0 1.2-.4 1.2-1v-11c0-.5-.6-1-1.2-1m9.6 11.7-4.8-11c-.3-.6-1-.8-1.6-.7-.6.2-1 .8-.7 1.3l4.9 11c.2.6.9.8 1.5.7.6-.2 1-.8.8-1.3zm-17-12.7c-.6 0-1.2.5-1.2 1v12c0 .6.6 1 1.2 1 .7 0 1.3-.4 1.3-1v-12c0-.5-.6-1-1.3-1"/>
        <g mask="url(#k)">
            <path fill="context-stroke" d="m8.5 18.8 2.5 2 1 .8 1.4-.4 3-.8-1 3.2-.3 1.2.7 1 1.9 2.8-3.2-.1H13l-.8 1-1.9 2.6-1-3.1-.3-1.3-1.2-.5L4.7 26l2.6-2 1.1-.8v-4.5"/>
            <path fill="none" d="m8.5 18.8 2.5 2 1 .8 1.4-.4 3-.8-1 3.2-.3 1.2.7 1 1.9 2.8-3.2-.1H13l-.8 1-1.9 2.6-1-3.1-.3-1.3-1.2-.5L4.7 26l2.6-2 1.1-.8v-4.5"/>
        </g>
    </svg>
    <svg x="792">
        <defs>
            <mask id="l" mask-type="alpha">
                <path d="m-3.612-8.761-9.594 24.35 13.246 6 3.342-.4 1.857-.15 1.424 2.35 3.404.05.495-1.05h6.19l5.695 12.7 2.6-19.6 3.713-12.6-.495-11.15-31.939-.5z"/>
            </mask>
        </defs>
        <path d="M8 23.4c-.6 0-1.2.4-1.2 1v10c0 .5.6 1 1.3 1s1.2-.5 1.2-1v-10c0-.6-.5-1-1.2-1zm3.8-1c-.7 0-1.2.4-1.2 1v11c0 .5.5 1 1.2 1s1.2-.5 1.2-1v-11c0-.6-.5-1-1.2-1M21.6 34l-5-11c-.2-.5-.9-.8-1.5-.6-.7.2-1 .8-.8 1.3l5 11c.2.5 1 .8 1.6.6.6-.1 1-.7.7-1.2zM4.4 21.4c-.7 0-1.3.4-1.3 1v12c0 .5.6 1 1.3 1 .6 0 1.2-.5 1.2-1v-12c0-.6-.6-1-1.2-1"/>
        <g mask="url(#l)">
            <path fill="context-stroke" d="m8.4 21.7 2.5 2 1.1.8 1.3-.4 3-1-.9 3.3-.4 1.2.8 1.1 1.9 2.7h-3.2l-1.5-.1-.8 1.2-1.8 2.5-1-3.1-.4-1.3-1.2-.4L4.7 29l2.6-2 1-.7v-4.6"/>
            <path fill="none" d="m8.4 21.7 2.5 2 1.1.8 1.3-.4 3-1-.9 3.3-.4 1.2.8 1.1 1.9 2.7h-3.2l-1.5-.1-.8 1.2-1.8 2.5-1-3.1-.4-1.3-1.2-.4L4.7 29l2.6-2 1-.7v-4.6"/>
        </g>
    </svg>
    <svg x="814">
        <defs>
            <mask id="m" mask-type="alpha">
                <path d="m-3.71-9.391-9.665 24.35 13.344 6 3.367-.4 1.87-.15 1.434 2.35 3.43.05.498-1.05h6.235l5.737 12.7 2.618-19.6 3.741-12.6-.498-11.15-32.173-.5z"/>
            </mask>
        </defs>
        <path d="M8 22.7c-.6 0-1.2.5-1.2 1v10c0 .6.6 1 1.3 1s1.2-.4 1.2-1v-10c0-.5-.5-1-1.2-1zm3.8-1c-.7 0-1.2.5-1.2 1v11c0 .6.5 1 1.2 1s1.3-.4 1.3-1v-11c0-.5-.6-1-1.3-1m9.9 11.7-5-11c-.2-.5-1-.8-1.6-.6s-1 .7-.7 1.3l5 11c.2.5.9.8 1.5.6.7-.2 1-.7.8-1.3M4.3 20.7c-.7 0-1.2.5-1.2 1v12c0 .6.5 1 1.2 1s1.3-.4 1.3-1v-12c0-.5-.6-1-1.3-1"/>
        <g mask="url(#m)">
            <path fill="context-stroke" d="m8.2 23.6 2.7 1.9 1 .8 1.3-.4 3-1-.8 3.3-.4 1.2.8 1 2 2.7H13l-.8 1.2-1.8 2.5-1-3-.5-1.3-1.2-.5-3-1 2.5-2 1.2-.8v-1.4l-.2-3"/>
            <path fill="none" d="m8.2 23.6 2.7 1.9 1 .8 1.3-.4 3-1-.8 3.3-.4 1.2.8 1 2 2.7H13l-.8 1.2-1.8 2.5-1-3-.5-1.3-1.2-.5-3-1 2.5-2 1.2-.8v-1.4l-.2-3"/>
        </g>
    </svg>
    <svg x="836">
        <path d="M8 22.2c-.7 0-1.2.5-1.2 1v10c0 .6.5 1 1.2 1s1.3-.4 1.3-1v-10c0-.5-.6-1-1.3-1m3.8-1c-.7 0-1.3.5-1.3 1v11c0 .6.6 1 1.3 1s1.2-.4 1.2-1v-11c0-.5-.5-1-1.2-1m10 11.7-5-11c-.3-.5-1-.8-1.7-.6-.6.1-1 .7-.8 1.2l5 11c.3.6 1 .9 1.6.7.7-.2 1-.8.8-1.3zM4.2 20.2c-.7 0-1.3.5-1.3 1v12c0 .6.6 1 1.3 1s1.2-.4 1.2-1v-12c0-.5-.5-1-1.2-1"/>
    </svg>
    <svg x="858">
        <path d="M8 22c-.7 0-1.3.4-1.3 1v10c0 .6.6 1 1.3 1s1.3-.4 1.3-1V23c0-.6-.6-1-1.3-1m3.8-1c-.7 0-1.3.4-1.3 1v11c0 .6.6 1 1.3 1s1.2-.4 1.2-1V22c0-.6-.6-1-1.3-1zm9.9 11.7-5-11c-.2-.6-1-.8-1.6-.7-.7.2-1 .8-.8 1.3l5 11c.2.6 1 .8 1.6.7.7-.2 1-.8.8-1.3M4.3 20c-.7 0-1.3.4-1.3 1v12c0 .6.6 1 1.3 1s1.2-.4 1.2-1V21c0-.6-.6-1-1.3-1z"/>
    </svg>
    <svg x="880">
        <path d="M8 22c-.6 0-1.2.4-1.2 1v10c0 .5.6 1 1.3 1 .6 0 1.2-.5 1.2-1V23c0-.6-.6-1-1.2-1zm3.7-1c-.7 0-1.2.4-1.2 1v11c0 .5.5 1 1.2 1s1.2-.5 1.2-1V22c0-.6-.5-1-1.2-1m9.7 11.6-4.9-11c-.2-.5-.9-.8-1.5-.6-.7.2-1 .7-.8 1.2l5 11c.1.6.8.9 1.5.7.6-.2 1-.7.7-1.3m-17-12.7c-.7 0-1.2.5-1.2 1v12c0 .6.5 1 1.2 1s1.2-.4 1.2-1V21c0-.5-.5-1-1.2-1z"/>
    </svg>
    <svg x="902">
        <path d="M8 21.9c-.6 0-1.1.4-1.1 1v10c0 .5.5 1 1.2 1 .6 0 1.1-.5 1.1-1v-10c0-.6-.5-1-1.1-1zm3.6-1c-.6 0-1.2.4-1.2 1v11c0 .5.6 1 1.2 1 .7 0 1.2-.5 1.2-1v-11c0-.6-.5-1-1.2-1m9.5 11.6-4.8-11c-.2-.5-.9-.8-1.5-.6s-1 .8-.7 1.3l4.8 11c.2.5.9.8 1.5.6.6-.1 1-.7.7-1.2zM4.5 20c-.7 0-1.2.4-1.2 1v12c0 .5.5 1 1.2 1 .6 0 1.2-.5 1.2-1V21c0-.6-.6-1-1.2-1"/>
    </svg>
    <svg x="924">
        <path d="M8 21.8c-.6 0-1.2.5-1.2 1v10c0 .6.6 1 1.2 1 .7 0 1.2-.4 1.2-1v-10c0-.5-.5-1-1.2-1m3.5-1c-.6 0-1.2.5-1.2 1v11c0 .6.6 1 1.2 1 .7 0 1.2-.4 1.2-1v-11c0-.5-.5-1-1.2-1m9.3 11.7-4.7-11c-.2-.5-.9-.8-1.5-.6s-1 .7-.7 1.2l4.7 11c.2.6.9.9 1.5.7s.9-.7.7-1.3M4.5 19.8c-.6 0-1.2.5-1.2 1v12c0 .6.6 1 1.2 1 .7 0 1.2-.4 1.2-1v-12c0-.5-.5-1-1.2-1"/>
    </svg>
    <svg x="946">
        <path d="M8 21.9c-.7 0-1.2.4-1.2 1v10c0 .5.5 1 1.2 1s1.1-.5 1.1-1v-10c0-.6-.5-1-1.1-1m3.4-1c-.6 0-1.2.4-1.2 1v11c0 .5.6 1 1.2 1s1.1-.5 1.1-1v-11c0-.6-.5-1-1.1-1m9 11.6-4.5-11c-.2-.5-.9-.8-1.5-.6s-.9.7-.7 1.3l4.6 11c.2.5.8.8 1.4.6s1-.7.7-1.3M4.6 20c-.7 0-1.2.4-1.2 1v12c0 .5.5 1 1.2 1 .6 0 1-.5 1-1V21c0-.6-.4-1-1-1"/>
    </svg>
    <svg x="968">
        <path d="M8 21.9c-.7 0-1.2.4-1.2 1v10c0 .5.5 1 1.1 1s1.1-.5 1.1-1v-10c0-.6-.5-1-1-1m3.3-1c-.6 0-1.1.4-1.1 1v11c0 .5.5 1 1 1 .7 0 1.2-.5 1.2-1v-11c0-.6-.5-1-1.1-1M20 32.5l-4.5-11c-.2-.5-.8-.8-1.4-.6-.5.2-.9.8-.7 1.3l4.5 11c.2.5.8.8 1.4.6.6-.1.9-.7.7-1.2zM4.6 20c-.6 0-1.1.4-1.1 1v12c0 .5.5 1 1.1 1s1.1-.5 1.1-1V21c0-.6-.5-1-1.1-1"/>
    </svg>
    <svg x="990">
        <path d="M8 22c-.7 0-1.2.4-1.2 1v10c0 .5.5 1 1.1 1S9 33.4 9 33V23c0-.6-.5-1-1-1m3.2-1c-.6 0-1.1.4-1.1 1v11c0 .5.5 1 1 1s1.1-.5 1.1-1V22c0-.6-.4-1-1-1m8.6 11.6-4.4-11c-.2-.5-.8-.8-1.3-.6-.6.1-1 .7-.7 1.2l4.3 11c.2.6.8.9 1.4.7s.9-.8.7-1.3M4.7 19.9c-.6 0-1.1.5-1.1 1v12c0 .6.5 1 1 1s1.1-.4 1.1-1V21c0-.5-.4-1-1-1z"/>
    </svg>
    <svg x="1012">
        <path d="M8 22a1 1 0 0 0-1.1 1v10c0 .5.4 1 1 1s1-.5 1-1V23c0-.6-.4-1-1-1zm3-1a1 1 0 0 0-1 1v11c0 .5.5 1 1 1 .7 0 1.1-.5 1.1-1V22c0-.6-.4-1-1-1zm8.5 11.6-4.3-11A1 1 0 0 0 14 21a1 1 0 0 0-.7 1.3l4.3 11c.2.5.8.8 1.3.6.6-.2.9-.7.7-1.2zM4.7 20a1 1 0 0 0-1 1v12c0 .5.5 1 1 1 .6 0 1.1-.5 1.1-1V21c0-.6-.5-1-1-1z"/>
    </svg>
    <svg x="1034">
        <path d="M8 22a1 1 0 0 0-1 1v10c0 .5.4 1 1 1 .5 0 1-.5 1-1V23c0-.6-.5-1-1-1m3-1a1 1 0 0 0-1 1v11c0 .5.5 1 1 1 .6 0 1-.5 1-1V22c0-.6-.4-1-1-1m8.2 11.6-4.1-11a1 1 0 0 0-1.3-.6 1 1 0 0 0-.7 1.3l4.2 11c.1.6.7.8 1.3.7.5-.2.8-.8.6-1.3zM4.9 20a1 1 0 0 0-1 1v12c0 .5.4 1 1 1 .5 0 1-.5 1-1V21c0-.6-.5-1-1-1"/>
    </svg>
    <svg x="1056">
        <use href="#a"/>
    </svg>
    <svg x="1078">
        <use href="#a"/>
    </svg>
</svg>
