<svg xmlns="http://www.w3.org/2000/svg" width="16" height="16" fill="#fff" fill-opacity="context-fill-opacity">
    <path d="M7.774 1.415a.71.71 0 0 0-.628.554L6.757 3.68 4.86 5.789c-.232.257-.36.59-.36.936v6.463a1.4 1.4 0 0 0 1.4 1.4h5.622c.519 0 .988-.305 1.199-.779l2.101-4.729c.117-.262.178-.546.178-.833v-.659c0-.77-.63-1.4-1.4-1.4H8.7s.7-1.66.7-2.896c0-1.129-.726-1.623-1.325-1.839a.7.7 0 0 0-.301-.038M2.05 6.188c-.58 0-1.05.47-1.05 1.05v6.3a1.05 1.05 0 1 0 2.1 0v-6.3c0-.58-.47-1.05-1.05-1.05"/>
</svg>
