<svg xmlns="http://www.w3.org/2000/svg" width="16" height="16" fill="#fff" fill-opacity="context-fill-opacity">
    <path d="m10 9.76 1.791 1.05a.6.6 0 0 1 .208.832l-.005.009a.6.6 0 0 1-.824.198l-2.13-1.301a.5.5 0 0 1-.24-.428V7A.6.6 0 0 1 10 7zm5.873 1.131c-.506 2.57-2.628 4.602-5.214 5.022a6.37 6.37 0 0 1-5.275-1.514H1.6a1.6 1.6 0 0 1-1.6-1.6V5.6C0 4.704.712 4.032 1.6 4v-.218C1.6 1.954 3.073.163 4.895.012c2.01-.166 3.688 1.321 3.873 3.251.272-.039.552-.063.832-.063a6.412 6.412 0 0 1 6.273 7.691M3.2 4h4v-.592a2.01 2.01 0 0 0-2.403-1.769C3.845 1.825 3.2 2.731 3.2 3.701zm11.028 6.904a4.816 4.816 0 0 0-5.931-5.931 4.73 4.73 0 0 0-3.325 3.323 4.816 4.816 0 0 0 5.931 5.931 4.73 4.73 0 0 0 3.325-3.323"/>
</svg>
