<svg xmlns="http://www.w3.org/2000/svg" width="16" height="16" fill="#fff" fill-opacity="context-fill-opacity">
    <path d="M5.783 12.025a5.84 5.84 0 0 1 5.563-3.996h.039A5.8 5.8 0 0 1 14 8.65V5a2 2 0 0 0-2-2H4a2 2 0 0 0-2 2v6H1a1 1 0 0 0 0 2h4.784l-.007-.017a1.6 1.6 0 0 1 .006-.958"/>
    <path d="M11.352 9.03a4.84 4.84 0 0 0-4.621 3.311.6.6 0 0 0 0 .345A4.835 4.835 0 0 0 11.352 16a4.84 4.84 0 0 0 4.621-3.311.6.6 0 0 0 0-.349 4.83 4.83 0 0 0-4.621-3.31m.291 1.742a.871.871 0 1 1 0 1.742.871.871 0 0 1 0-1.742m-.291 4.066A3.68 3.68 0 0 1 7.9 12.515a3.53 3.53 0 0 1 1.452-1.743 2.3 2.3 0 0 0-.324 1.162 2.323 2.323 0 1 0 4.646 0 2.3 2.3 0 0 0-.322-1.162 3.5 3.5 0 0 1 1.452 1.743 3.67 3.67 0 0 1-3.452 2.323"/>
</svg>
