<svg xmlns="http://www.w3.org/2000/svg" width="16" height="16" fill="#fff" fill-opacity="context-fill-opacity">
    <path d="M0 0v16h16V0zm14.942 8.063v.004c-.069.133-.144.258-.21.39a.49.49 0 0 1-.51.288.34.34 0 0 0-.223.072q-.296.196-.602.379a1.05 1.05 0 0 1-.915.049 4.3 4.3 0 0 0-1.531-.288 1.69 1.69 0 0 0-1.364.622 2.1 2.1 0 0 0-.307.618c-.179.442-.331 3.08-.331 3.753 0 0-2.538-.493-4.92-2.93l.621-1.631H2.705l1.406-1.491h-2.42l1.408-1.49H.8l2.559-2.713a5.9 5.9 0 0 1 2.848-1.56c1.023-.176 1.287-.076 1.918.111l.35.105.122.036.447.137c.292.079.6.084.895.013a1.64 1.64 0 0 1 1.189.144c.328.188.548.52.591.896.038.331.231.625.52.791q.646.353 1.343.592c.327.124.654.265.978.392a1 1 0 0 1 .412.297.7.7 0 0 1 .159.393c.02.288.053.576.068.864.02.402-.068.802-.257 1.157"/>
</svg>
