<svg xmlns="http://www.w3.org/2000/svg" width="16" height="16" fill="#fff" fill-opacity="context-fill-opacity">
    <path d="M9.684 0a.84.84 0 0 0-.842.842v2.526H3.789a.84.84 0 0 0-.842.842v3.515a2.53 2.53 0 0 0-1.684 2.38 2.53 2.53 0 0 0 1.684 2.378v1.832h-.842A.842.842 0 0 0 2.081 16h11.813a.842.842 0 0 0 .024-1.684H4.632v-1.831a2.53 2.53 0 0 0 1.536-1.538h7.727a.842.842 0 0 0 .024-1.684h-7.75a2.52 2.52 0 0 0-1.537-1.536V5.053h4.211v1.684c0 .466.377.842.842.842h3.368a.84.84 0 0 0 .842-.842V.842A.84.84 0 0 0 13.053 0z"/>
</svg>
