<svg xmlns="http://www.w3.org/2000/svg" width="16" height="16" fill="#fff" fill-opacity="context-fill-opacity">
    <path d="M9.474 1a.736.736 0 0 0-.737.737v2.211H4.316a.737.737 0 0 0-.737.737V7.76a2.21 2.21 0 0 0-1.474 2.082 2.21 2.21 0 0 0 1.474 2.081v1.603h-.737A.736.736 0 1 0 2.821 15h10.337a.736.736 0 1 0 .021-1.473H5.053v-1.602a2.2 2.2 0 0 0 1.344-1.346h6.761a.736.736 0 1 0 .021-1.473H6.398a2.2 2.2 0 0 0-1.345-1.345v-2.34h3.684v1.474c0 .407.33.737.737.737h2.947a.736.736 0 0 0 .737-.737V1.737A.737.737 0 0 0 12.421 1z"/>
</svg>
