<svg xmlns="http://www.w3.org/2000/svg" width="16" height="16" fill="#fff" fill-opacity="context-fill-opacity">
    <path d="M15 8c0-3.3-2.3-6-5.3-6.8v1.7H6.3V1.2C3.3 2 1 4.7 1 8c0 3.9 3.1 7 7 7s7-3.2 7-7M3.7 6.8c.6 0 1.2.5 1.2 1.2s-.5 1.1-1.2 1.1c-.6 0-1.1-.5-1.1-1.1s.5-1.2 1.1-1.2m8.6 0c.6 0 1.2.5 1.2 1.2 0 .6-.5 1.2-1.2 1.2-.6 0-1.2-.5-1.2-1.2s.5-1.2 1.2-1.2M4.9 9.9c.6 0 1.2.5 1.2 1.2 0 .6-.5 1.2-1.2 1.2-.6 0-1.2-.5-1.2-1.2s.5-1.2 1.2-1.2m6.2 0c.6 0 1.2.5 1.2 1.2 0 .6-.5 1.2-1.2 1.2s-1.2-.5-1.2-1.2.6-1.2 1.2-1.2M8 11.1c.6 0 1.2.5 1.2 1.2 0 .6-.5 1.2-1.2 1.2-.6 0-1.2-.5-1.2-1.2s.6-1.2 1.2-1.2"/>
</svg>
