<svg xmlns="http://www.w3.org/2000/svg" width="16" height="16" fill="#fff" fill-opacity="context-fill-opacity">
    <path d="M12.18 6.822c.042-.004.076-.022.12-.022.6 0 1.2.5 1.2 1.2 0 .6-.5 1.2-1.2 1.2-.6 0-1.2-.5-1.2-1.2 0-.044.018-.078.022-.12l-3.245 3.245c.042-.005.081-.025.123-.025.6 0 1.2.5 1.2 1.2 0 .6-.5 1.2-1.2 1.2-.6 0-1.2-.5-1.2-1.2 0-.045.022-.081.027-.125l-2.049 2.049A7 7 0 0 0 8 15c3.9 0 7-3.2 7-7a6.9 6.9 0 0 0-.798-3.2zM11.1 12.3c-.7 0-1.2-.5-1.2-1.2s.6-1.2 1.2-1.2 1.2.5 1.2 1.2c0 .6-.5 1.2-1.2 1.2m3.614-11.013a1 1 0 0 0-1.414 0L12.167 2.42A7.1 7.1 0 0 0 9.7 1.2v1.7H6.3V1.2C3.3 2 1 4.7 1 8c0 1.585.519 3.032 1.389 4.198L1.3 13.287a1 1 0 1 0 1.389 1.439l.025-.025 12-12a1 1 0 0 0 0-1.414M3.7 6.8c.6 0 1.2.5 1.2 1.2s-.5 1.1-1.2 1.1c-.6 0-1.1-.5-1.1-1.1s.5-1.2 1.1-1.2m.939 3.148-.891.891c.095-.467.424-.796.891-.891"/>
</svg>
