<svg xmlns="http://www.w3.org/2000/svg" width="16" height="16" fill="#fff" fill-opacity="context-fill-opacity">
    <path d="M3.594 0v7.991c0 4.401.007 7.999.007 8.006.007.007.275-.022.608-.058.326-.036.782-.08 1.006-.101a51 51 0 0 1 1.498-.094c.036 0 .036-.181.043-3.388l.007-3.38zm8.809 7.999V.007H9.269l-.007 3.54-.008 3.532 3.142 8.918a994 994 0 0 0 .007-7.998" opacity=".7"/>
    <path d="m9.254 7.079-.29-.818c-.29-.803-.478-1.339-1.621-4.568C7.039.825 6.779.087 6.764.058L6.75 0H3.594l3.171 8.976v-.007l.253.709c1.39 3.938 2.143 6.051 2.143 6.059 0 0 .21.014.471.029.775.036 1.73.123 2.454.21.166.022.311.029.319.022z"/>
</svg>
