<svg xmlns="http://www.w3.org/2000/svg" width="16" height="16" fill="#fff" fill-opacity="context-fill-opacity">
    <path d="m15.253 8.225-.001.017c-.022.348-.25 1.003-.942 1.003l-.009-.001c-.278-.002-.513-.096-.68-.271-.28-.294-.271-.707-.27-.753 0-2.569-1.661-4.793-4.04-5.397-1.821-.469-3.714.058-5.07 1.413C2.88 5.595 2.348 7.494 2.817 9.317c.611 2.375 2.838 4.034 5.415 4.034H8.3a.95.95 0 0 1 0 1.9h-.082c-3.919 0-7.19-2.956-7.447-6.73A7.247 7.247 0 0 1 8.522.771c3.773.256 6.73 3.531 6.731 7.454m-3.809 1.111-.115.265c-.567 1.307-1.946 2.153-3.38 2.153q-.349 0-.699-.068l-.07-.015a3.74 3.74 0 0 1-2.859-2.914 3.75 3.75 0 0 1 .963-3.339 3.73 3.73 0 0 1 3.271-1.124 3.64 3.64 0 0 1 2.326 1.346c.841 1.049 1.067 2.534.563 3.696M8.001 6.151c-1.02 0-1.85.83-1.85 1.85s.83 1.85 1.85 1.85 1.85-.83 1.85-1.85-.83-1.85-1.85-1.85M16 12.5a.5.5 0 0 1-.5.5H13v2.5a.5.5 0 0 1-1 0V13H9.5a.5.5 0 0 1 0-1H12V9.5a.5.5 0 0 1 1 0V12h2.5a.5.5 0 0 1 .5.5"/>
</svg>
