<svg xmlns="http://www.w3.org/2000/svg" width="540" height="20">
    <defs>
        <path id="n" d="M9.293 14.725a1 1 0 0 0 1.414 0l5-5a1 1 0 0 0-1.414-1.413L11 11.605V3.019a1 1 0 0 0-2 0v8.586L5.707 8.312a1.001 1.001 0 0 0-1.414 1.413z"/>
        <path id="m" d="M15 16a1 1 0 0 1 0 2H5a1 1 0 0 1 0-2z"/>
        <path id="i" fill="none" stroke="context-fill" stroke-width="1.8" d="m5.838 8.706 3.487 3.488 4.387-5.175"/>
        <path id="d" fill="#15141A" d="M-1.17 3-3.82.36a.625.625 0 0 1-.161-.7.64.64 0 0 1 .351-.35.63.63 0 0 1 .496.011.6.6 0 0 1 .204.149l2.07 2.08 3.79-3.8a.63.63 0 0 1 .89.89L-.55 3z"/>
        <path id="c" fill="none" stroke="context-fill" stroke-linecap="round" stroke-width="2" d="M9.991 1.6a8.4 8.4 0 1 1 0 16.8 8.4 8.4 0 0 1 0-16.8z"/>
        <path id="b" fill="#fff" d="M0-4.752a4.753 4.753 0 1 0 .001 9.505A4.753 4.753 0 0 0 0-4.752"/>
        <path id="a" fill="none" stroke="context-fill" stroke-linecap="round" stroke-width="2" d="M0-8A8 8 0 1 1 0 8 8 8 0 0 1 0-8z"/>
    </defs>
    <svg width="20" height="20" viewBox="0 0 20 20">
        <use href="#a" transform="translate(9.991 10)scale(1.05)"/>
        <use href="#b" transform="translate(10 10)scale(1.35)"/>
    </svg>
    <svg width="20" height="20" x="20" viewBox="0 0 20 20">
        <use href="#a" transform="translate(9.991 10)scale(1.05)"/>
        <use href="#b" transform="translate(10 10)scale(1.35)"/>
    </svg>
    <svg width="20" height="20" x="40" viewBox="0 0 20 20">
        <use href="#a" transform="translate(9.991 10)scale(1.05)"/>
        <use href="#b" transform="translate(10 10)scale(1.35)"/>
    </svg>
    <svg width="20" height="20" x="60" viewBox="0 0 20 20">
        <use href="#a" transform="translate(9.991 10)scale(1.05)"/>
        <use href="#b" transform="translate(10 10)scale(1.35)"/>
    </svg>
    <svg width="20" height="20" x="80" viewBox="0 0 20 20">
        <use href="#a" transform="translate(9.991 10)scale(1.05)"/>
        <use href="#b" transform="translate(10 10)scale(1.35)"/>
    </svg>
    <svg width="20" height="20" x="100" viewBox="0 0 20 20">
        <use href="#a" transform="translate(9.991 10)scale(1.05)"/>
        <use href="#b" transform="translate(10 10)scale(1.35)"/>
    </svg>
    <svg width="20" height="20" x="120" viewBox="0 0 20 20">
        <use href="#a" transform="translate(9.991 10)scale(1.05)"/>
        <use href="#b" transform="translate(10 10)scale(1.35)"/>
    </svg>
    <svg width="20" height="20" x="140" viewBox="0 0 20 20">
        <use href="#a" transform="translate(9.991 10)scale(1.05)"/>
        <use href="#b" transform="translate(10 10)scale(1.35)"/>
    </svg>
    <svg width="20" height="20" x="160" viewBox="0 0 20 20">
        <use href="#a" transform="translate(9.991 10)scale(1.05)"/>
        <use href="#b" transform="translate(10 10)scale(1.20948)"/>
    </svg>
    <svg width="20" height="20" x="180" viewBox="0 0 20 20">
        <use href="#a" transform="translate(9.991 10)scale(1.05)"/>
        <use href="#b" transform="translate(10 10)scale(.8747)"/>
    </svg>
    <svg width="20" height="20" x="200" viewBox="0 0 20 20">
        <use href="#a" transform="translate(9.991 10)scale(1.05)"/>
        <use href="#b" transform="translate(10 10)scale(.4753)"/>
    </svg>
    <svg width="20" height="20" x="220" viewBox="0 0 20 20">
        <use href="#a" transform="translate(9.991 10)scale(1.05)"/>
        <use href="#b" transform="translate(10 10)scale(.14052)"/>
    </svg>
    <svg width="20" height="20" x="240" viewBox="0 0 20 20">
        <use fill="none" href="#c"/>
        <use href="#b" transform="matrix(0 0 0 0 10 10)"/>
    </svg>
    <svg width="20" height="20" x="260" viewBox="0 0 20 20">
        <use fill="none" href="#c"/>
        <use href="#b" transform="matrix(0 0 0 0 10 10)"/>
    </svg>
    <svg width="20" height="20" x="280" viewBox="0 0 20 20">
        <defs>
            <mask id="e" mask-type="alpha">
                <use fill="#15141A" href="#d" transform="translate(10 10)"/>
            </mask>
        </defs>
        <use fill="none" href="#c"/>
        <use href="#b" transform="matrix(0 0 0 0 10 10)"/>
        <g mask="url(#e)">
            <path fill="none" stroke="context-fill" stroke-width="1.8" d="m5.838 8.706 2.916 2.918"/>
        </g>
    </svg>
    <svg width="20" height="20" x="300" viewBox="0 0 20 20">
        <defs>
            <mask id="f" mask-type="alpha">
                <use fill="#15141A" href="#d" transform="translate(10 10)"/>
            </mask>
        </defs>
        <use fill="none" href="#c"/>
        <use href="#b" transform="matrix(0 0 0 0 10 10)"/>
        <g mask="url(#f)">
            <path fill="none" stroke="context-fill" stroke-width="1.8" d="m5.838 8.706 3.487 3.488 1.72-2.028"/>
        </g>
    </svg>
    <svg width="20" height="20" x="320" viewBox="0 0 20 20">
        <defs>
            <mask id="g" mask-type="alpha">
                <use fill="#15141A" href="#d" transform="translate(10 10)"/>
            </mask>
        </defs>
        <use fill="none" href="#c"/>
        <use href="#b" transform="matrix(0 0 0 0 10 10)"/>
        <g mask="url(#g)">
            <path fill="none" stroke="context-fill" stroke-width="1.8" d="m5.838 8.706 3.487 3.488s2.335-2.755 3.6-4.244"/>
        </g>
    </svg>
    <svg width="20" height="20" x="340" viewBox="0 0 20 20">
        <defs>
            <mask id="h" mask-type="alpha">
                <use fill="#15141A" href="#d" transform="translate(10 10)"/>
            </mask>
        </defs>
        <use fill="none" href="#c"/>
        <use href="#b" transform="matrix(0 0 0 0 10 10)"/>
        <g mask="url(#h)">
            <use fill="none" stroke="context-fill" stroke-width="1.8" href="#i"/>
        </g>
    </svg>
    <svg width="20" height="20" x="360" viewBox="0 0 20 20">
        <defs>
            <mask id="j" mask-type="alpha">
                <use fill="#15141A" href="#d" transform="translate(10 10)"/>
            </mask>
        </defs>
        <use fill="none" href="#c"/>
        <use href="#b" transform="matrix(0 0 0 0 10 10)"/>
        <g mask="url(#j)">
            <use fill="none" stroke="context-fill" stroke-width="1.8" href="#i"/>
        </g>
    </svg>
    <svg width="20" height="20" x="380" viewBox="0 0 20 20">
        <defs>
            <mask id="k" mask-type="alpha">
                <use fill="#15141A" href="#d" transform="translate(10 10)"/>
            </mask>
        </defs>
        <use fill="none" href="#c"/>
        <use href="#b" transform="matrix(0 0 0 0 10 10)"/>
        <g mask="url(#k)">
            <use fill="none" stroke="context-fill" stroke-width="1.8" href="#i"/>
        </g>
    </svg>
    <svg width="20" height="20" x="400" viewBox="0 0 20 20">
        <defs>
            <mask id="l" mask-type="alpha">
                <use fill="#15141A" href="#d" transform="translate(10 10)"/>
            </mask>
        </defs>
        <use fill="none" href="#c" opacity=".74"/>
        <g mask="url(#l)">
            <path fill="none" stroke="context-fill" stroke-width="1.67" d="m6.146 8.802 3.23 3.23 4.061-4.792"/>
        </g>
    </svg>
    <svg width="20" height="20" x="420" viewBox="0 0 20 20">
        <defs>
            <mask id="o" mask-type="alpha">
                <use fill="#15141A" href="#d" transform="translate(10 10)"/>
            </mask>
        </defs>
        <use fill="none" href="#c" opacity=".26"/>
        <use fill="context-stroke" href="#m" transform="scale(.25)" transform-origin="center 16px"/>
        <use fill="context-stroke" href="#n" opacity=".7" transform="scale(.25)" transform-origin="center"/>
        <g mask="url(#o)">
            <path fill="none" stroke="context-fill" stroke-width="1.33" d="M6.917 9.041 9.5 11.625l3.25-3.833"/>
        </g>
    </svg>
    <svg width="20" height="20" x="440" viewBox="0 0 20 20">
        <use fill="none" href="#c" opacity=".26"/>
        <use href="#b" transform="matrix(0 0 0 0 10 10)"/>
        <use fill="context-stroke" href="#m" transform="scale(.5)" transform-origin="center 16px"/>
        <use fill="context-stroke" href="#n" transform="scale(.5)" transform-origin="center"/>
    </svg>
    <svg width="20" height="20" x="460" viewBox="0 0 20 20">
        <use fill="none" href="#c" opacity=".26"/>
        <use fill="context-stroke" href="#m" transform="scale(.7)" transform-origin="center 16px"/>
        <use fill="context-stroke" href="#n" transform="scale(.7)" transform-origin="center"/>
    </svg>
    <svg width="20" height="20" x="480" viewBox="0 0 20 20">
        <use fill="none" href="#c" opacity=".26"/>
        <use fill="context-stroke" href="#m" transform="scale(.9)" transform-origin="center 16px"/>
        <use fill="context-stroke" href="#n" transform="scale(.9)" transform-origin="center"/>
    </svg>
    <svg width="20" height="20" x="500" viewBox="0 0 20 20">
        <use fill="none" href="#c" opacity=".26"/>
        <use fill="context-stroke" href="#m"/>
        <use fill="context-stroke" href="#n"/>
    </svg>
    <svg width="20" height="20" x="520" viewBox="0 0 20 20">
        <use fill="#fff" href="#c" opacity=".26"/>
        <use fill="context-stroke" href="#m"/>
        <use fill="context-stroke" href="#n"/>
    </svg>
</svg>
