<svg xmlns="http://www.w3.org/2000/svg" width="340" height="20">
    <defs>
        <path id="b" d="M9.293 14.725a1 1 0 0 0 1.414 0l5-5a1 1 0 0 0-1.414-1.413L11 11.605V3.019a1 1 0 0 0-2 0v8.586L5.707 8.312a1.001 1.001 0 0 0-1.414 1.413z"/>
        <path id="a" d="M15 16a1 1 0 0 1 0 2H5a1 1 0 0 1 0-2z"/>
    </defs>
    <defs>
        <path id="l" fill="none" stroke="context-fill" stroke-linecap="round" stroke-width="2" d="M4.869 16.933A8.624 8.624 0 0 1 9.875 1.376M10 1.375A8.624 8.624 0 0 1 18.625 10 8.624 8.624 0 0 1 10 18.625a8.6 8.6 0 0 1-5.131-1.692"/>
        <path id="i" fill="#fff" d="M2.688 12.75v5.562h.062V12.75z"/>
    </defs>
    <svg width="20" height="20" viewBox="0 0 20 20">
        <use fill="context-stroke" href="#a"/>
        <use fill="context-stroke" href="#b"/>
    </svg>
    <svg width="20" height="20" x="20" viewBox="0 0 20 20">
        <defs>
            <clipPath id="c">
                <path fill="#fff" d="M2.688 12.75v5.562h13.41V12.75z"/>
            </clipPath>
        </defs>
        <g clip-path="url(#c)">
            <use fill="context-stroke" href="#a"/>
        </g>
        <use fill="context-stroke" href="#b" transform="scale(.9)" transform-origin="center"/>
    </svg>
    <svg width="20" height="20" x="40" viewBox="0 0 20 20">
        <defs>
            <clipPath id="d">
                <path fill="#fff" d="M2.688 12.75v5.562h11.167V12.75z"/>
            </clipPath>
        </defs>
        <g clip-path="url(#d)">
            <use fill="context-stroke" href="#a"/>
        </g>
        <use fill="context-stroke" href="#b" transform="scale(.84)" transform-origin="center"/>
    </svg>
    <svg width="20" height="20" x="60" viewBox="0 0 20 20">
        <defs>
            <clipPath id="e">
                <path fill="#fff" d="M2.688 12.75v5.562h8.7V12.75z"/>
            </clipPath>
        </defs>
        <g clip-path="url(#e)">
            <use fill="context-stroke" href="#a"/>
        </g>
        <use fill="context-stroke" href="#b" transform="scale(.78)" transform-origin="center"/>
    </svg>
    <svg width="20" height="20" x="80" viewBox="0 0 20 20">
        <defs>
            <clipPath id="f">
                <path fill="#fff" d="M2.688 12.75v5.562h6.174V12.75z"/>
            </clipPath>
        </defs>
        <path fill="none" stroke="context-fill" stroke-linecap="round" stroke-width="2" d="M4.869 16.933a8.6 8.6 0 0 1-1.38-1.275"/>
        <g clip-path="url(#f)">
            <use fill="context-stroke" href="#a"/>
        </g>
        <use fill="context-stroke" href="#b" transform="scale(.58)" transform-origin="center"/>
    </svg>
    <svg width="20" height="20" x="100" viewBox="0 0 20 20">
        <defs>
            <clipPath id="g">
                <path fill="#fff" d="M2.688 12.75v5.562h3.707V12.75z"/>
            </clipPath>
        </defs>
        <path fill="none" stroke="context-fill" stroke-linecap="round" stroke-width="2" d="M4.869 16.933a8.65 8.65 0 0 1-3.016-4.091"/>
        <g clip-path="url(#g)">
            <use fill="context-stroke" href="#a"/>
        </g>
        <use fill="context-stroke" href="#b" transform="scale(.35)" transform-origin="center"/>
    </svg>
    <svg width="20" height="20" x="120" viewBox="0 0 20 20">
        <defs>
            <clipPath id="h">
                <path fill="#fff" d="M2.688 12.75v5.562h1.464V12.75z"/>
            </clipPath>
        </defs>
        <path fill="none" stroke="context-fill" stroke-linecap="round" stroke-width="2" d="M4.869 16.933A8.61 8.61 0 0 1 1.375 10a8.6 8.6 0 0 1 1.569-4.961"/>
        <g clip-path="url(#h)">
            <use fill="context-stroke" href="#a"/>
        </g>
        <use fill="context-stroke" href="#b" transform="scale(.2)" transform-origin="center"/>
    </svg>
    <svg width="20" height="20" x="140" viewBox="0 0 20 20">
        <path fill="none" stroke="context-fill" stroke-linecap="round" stroke-width="2" d="M4.869 16.933A8.624 8.624 0 0 1 9.875 1.376M10 1.375a8.62 8.62 0 0 1 7.542 4.437"/>
        <use fill="context-stroke" href="#b" transform="scale(.12)" transform-origin="center"/>
    </svg>
    <svg width="20" height="20" x="160" viewBox="0 0 20 20">
        <path fill="none" stroke="context-fill" stroke-linecap="round" stroke-width="2" d="M4.869 16.933A8.624 8.624 0 0 1 9.875 1.376M10 1.375A8.624 8.624 0 0 1 18.625 10c0 1.918-.626 3.69-1.685 5.122"/>
        <use fill="context-stroke" href="#b" transform="scale(.07)" transform-origin="center"/>
    </svg>
    <svg width="20" height="20" x="180" viewBox="0 0 20 20">
        <defs>
            <clipPath id="j">
                <use fill="#fff" href="#i"/>
            </clipPath>
        </defs>
        <path fill="none" stroke="context-fill" stroke-linecap="round" stroke-width="2" d="M4.869 16.933A8.624 8.624 0 0 1 9.875 1.376M10 1.375A8.624 8.624 0 0 1 18.625 10a8.63 8.63 0 0 1-5.747 8.133"/>
        <g clip-path="url(#j)">
            <use fill="#fff" href="#a"/>
        </g>
        <use fill="context-stroke" href="#b" transform="scale(.04)" transform-origin="center"/>
    </svg>
    <svg width="20" height="20" x="200" viewBox="0 0 20 20">
        <path fill="none" stroke="context-fill" stroke-linecap="round" stroke-width="2" d="M4.869 16.933A8.624 8.624 0 0 1 9.875 1.376M10 1.375A8.624 8.624 0 0 1 18.625 10a8.624 8.624 0 0 1-8.865 8.622"/>
    </svg>
    <svg width="20" height="20" x="220" viewBox="0 0 20 20">
        <defs>
            <clipPath id="k">
                <use fill="#fff" href="#i"/>
            </clipPath>
        </defs>
        <path fill="none" stroke="context-fill" stroke-linecap="round" stroke-width="2" d="M4.869 16.933A8.624 8.624 0 0 1 9.875 1.376M10 1.375A8.624 8.624 0 0 1 18.625 10 8.624 8.624 0 0 1 10 18.625c-.8 0-1.574-.11-2.31-.313"/>
        <g clip-path="url(#k)">
            <use fill="#fff" href="#a"/>
        </g>
    </svg>
    <svg width="20" height="20" x="240" viewBox="0 0 20 20">
        <path fill="none" stroke="context-fill" stroke-linecap="round" stroke-width="2" d="M4.869 16.933A8.624 8.624 0 0 1 9.875 1.376M10 1.375A8.624 8.624 0 0 1 18.625 10 8.624 8.624 0 0 1 10 18.625a8.6 8.6 0 0 1-3.633-.8"/>
    </svg>
    <svg width="20" height="20" x="260" viewBox="0 0 20 20">
        <path fill="none" stroke="context-fill" stroke-linecap="round" stroke-width="2" d="M4.869 16.933A8.624 8.624 0 0 1 9.875 1.376M10 1.375A8.624 8.624 0 0 1 18.625 10 8.624 8.624 0 0 1 10 18.625a8.6 8.6 0 0 1-4.444-1.232"/>
    </svg>
    <svg width="20" height="20" x="280" viewBox="0 0 20 20">
        <path fill="none" stroke="context-fill" stroke-linecap="round" stroke-width="2" d="M4.869 16.933A8.624 8.624 0 0 1 9.875 1.376M10 1.375A8.624 8.624 0 0 1 18.625 10 8.624 8.624 0 0 1 10 18.625a8.6 8.6 0 0 1-4.912-1.534"/>
    </svg>
    <svg width="20" height="20" x="300" viewBox="0 0 20 20">
        <use fill="none" stroke="context-fill" stroke-linecap="round" stroke-width="2" href="#l"/>
    </svg>
    <svg width="20" height="20" x="320" viewBox="0 0 20 20">
        <use fill="none" stroke="context-fill" stroke-linecap="round" stroke-width="2" href="#l"/>
    </svg>
</svg>
