<svg xmlns="http://www.w3.org/2000/svg" width="16" height="16" fill="#fff" fill-opacity="context-fill-opacity">
    <path d="M1.275 14.701A1 1 0 0 1 1 13.962V2.003C1 1.449 1.449 1 2.003 1h3.994a1 1 0 0 1 0 2H3.331A.33.33 0 0 0 3 3.331v8.256l6.276-6.276c.006-.006.008-.015.014-.021l1.603-1.596.694-.694H10a1 1 0 0 1 0-2h3.978a1 1 0 0 1 .736.287c.102.102.175.22.222.345q.002.006.002.013.068.186.062.382a1 1 0 0 1-.286.674L13 4.415l-1.138 1.138-1.173 1.173L4.415 13l-1.701 1.701-.025.025a1 1 0 0 1-.674.274 1 1 0 0 1-.386-.067l-.01-.002a1 1 0 0 1-.344-.23m12.723-5.698a1 1 0 0 0-.998 1v2.666a.33.33 0 0 1-.331.331H6.002l-2 2h9.995c.554 0 1.003-.449 1.003-1.003v-3.994a1 1 0 0 0-1.002-1M13 6.002A1 1 0 0 0 15 6V4.002z"/>
</svg>
