<svg xmlns="http://www.w3.org/2000/svg" width="16" height="16" fill="#fff" fill-opacity="context-fill-opacity">
    <path d="M14.92 1.62A1.01 1.01 0 0 0 14 1h-4a1 1 0 0 0 0 2h1.59l-2.3 2.29a1 1 0 0 0-.006 1.414l.006.006a1 1 0 0 0 1.414.006l.006-.006L13 4.41V6a1 1 0 0 0 2 0V2a1 1 0 0 0-.08-.38"/>
    <path d="M13 10.003v2.666a.33.33 0 0 1-.331.331H3.331A.33.33 0 0 1 3 12.669V3.331A.33.33 0 0 1 3.331 3h2.666a1 1 0 0 0 0-2H2.003C1.449 1 1 1.449 1 2.003v11.994C1 14.551 1.449 15 2.003 15h11.994c.554 0 1.003-.449 1.003-1.003v-3.994a1 1 0 1 0-2 0"/>
</svg>
