<svg xmlns="http://www.w3.org/2000/svg" viewBox="0 0 16 16">
    <path fill="#fff" fill-opacity="context-fill-opacity" d="M14.707 13.293 11.414 10l2.293-2.293a1 1 0 0 0 0-1.414A4.38 4.38 0 0 0 10.586 5h-.172A2.415 2.415 0 0 1 8 2.586V2a1 1 0 0 0-1.707-.707l-5 5A1 1 0 0 0 2 8h.586A2.415 2.415 0 0 1 5 10.414v.169a4.04 4.04 0 0 0 1.337 3.166 1 1 0 0 0 1.37-.042L10 11.414l3.293 3.293a1 1 0 0 0 1.414-1.414m-7.578-1.837A2.7 2.7 0 0 1 7 10.583v-.169a4.4 4.4 0 0 0-1.292-3.121 4.4 4.4 0 0 0-1.572-1.015l2.143-2.142a4.4 4.4 0 0 0 1.013 1.571A4.38 4.38 0 0 0 10.414 7h.172a2.4 2.4 0 0 1 .848.152z"/>
</svg>
