<svg xmlns="http://www.w3.org/2000/svg" width="16" height="16" fill="#fff" fill-opacity="context-fill-opacity">
    <path d="M13.6 4.8H2.4A2.397 2.397 0 0 0 0 7.2v3.2c0 .88.72 1.6 1.6 1.6h1.6v1.6c0 .88.72 1.6 1.6 1.6h6.4c.88 0 1.6-.72 1.6-1.6V12h1.6c.88 0 1.6-.72 1.6-1.6V7.2c0-1.328-1.072-2.4-2.4-2.4m-3.2 8.8H5.6c-.44 0-.8-.36-.8-.8V9.6h6.4v3.2c0 .44-.36.8-.8.8M13.6 8c-.44 0-.8-.36-.8-.8s.36-.8.8-.8.8.36.8.8-.36.8-.8.8M12 .8H4c-.44 0-.8.36-.8.8v1.6c0 .44.36.8.8.8h8c.44 0 .8-.36.8-.8V1.6c0-.44-.36-.8-.8-.8"/>
</svg>
