<svg xmlns="http://www.w3.org/2000/svg" width="24" height="24">
    <path fill="#8000D7" d="M12 24C5.4 24 0 18.6 0 12S5.4 0 12 0s12 5.4 12 12-5.4 12-12 12"/>
    <path fill="#FFF" d="M15.4 11c-1-.1-1.9.5-2.1 1.5 0 .3 1.2.7 2.3.7s2.1-.7 2.1-.9-.7-1.2-2.3-1.3m-6.8 0c-1.6.1-2.3 1-2.3 1.3 0 .2 1.1.9 2.1.9s2.3-.4 2.3-.7c-.2-1-1.2-1.6-2.1-1.5m7.8 5.5c-1.7 0-2.8-2-4.4-2s-2.8 2-4.4 2c-2.1 0-3.6-1.9-3.6-5.3 0-2.1.6-2.7 3.3-2.7s3.4 1.1 4.7 1.1 2.1-1.1 4.7-1.1 3.3.7 3.3 2.7c0 3.4-1.5 5.3-3.6 5.3"/>
</svg>
