<svg xmlns="http://www.w3.org/2000/svg" width="16" height="16">
    <path fill="#fff" fill-opacity="context-fill-opacity" d="M8.455 1.014a7 7 0 0 0-7.44 7.44c.22 3.485 3.046 6.311 6.53 6.532a7 7 0 0 0 7.44-7.44c-.22-3.485-3.046-6.311-6.53-6.532M5.792 11.281H4.74a.46.46 0 0 1-.459-.458V4.958c0-.253.205-.458.459-.458h1.052c.253 0 .458.205.458.458v5.865a.46.46 0 0 1-.458.458m3.824 0H7.59a.465.465 0 0 1-.465-.465v-5.85c0-.258.208-.466.465-.466h2.026c1.741 0 2.848 1.746 2.848 3.41s-1.116 3.371-2.848 3.371"/>
</svg>
