<svg xmlns="http://www.w3.org/2000/svg" viewBox="0 0 16 16">
    <path fill="#fff" fill-opacity="context-fill-opacity" d="M7.6 3c.1.1.4.1.5 0 .9-.7 1.9-1.1 3-1.1s2.1.4 3 1.1q.3.15.6 0c.2-.2.2-.5 0-.6-1-.9-2.3-1.3-3.6-1.3s-2.5.3-3.5 1.2c-.2.2-.2.5 0 .7-.1-.1 0 0 0 0m1.3.6c-.2.1-.2.4 0 .6q.3.3.6 0c.5-.4 1.1-.5 1.7-.5s1.2.2 1.7.5q.3.15.6 0c.2-.2.2-.5 0-.6-.6-.5-1.4-.8-2.2-.8-1 0-1.8.3-2.4.8m4.5 5.2h-1.6V6.4c0-.4-.4-.8-.8-.8s-.8.3-.8.8v2.3H2.6c-.9.1-1.6.8-1.6 1.6v3.1c0 .9.7 1.6 1.6 1.6h10.9c.9 0 1.6-.7 1.6-1.6v-3.1c-.1-.8-.8-1.5-1.7-1.5m-8.5 3.9H3.3v-1.6h1.6zm2.7 0H6.1v-1.6h1.6v1.6zm2.7 0H8.8v-1.6h1.6v1.6z"/>
</svg>
