<svg xmlns="http://www.w3.org/2000/svg" width="16" height="16" fill="#fff" fill-opacity="context-fill-opacity">
    <path d="M2.612 11.277a2.11 2.11 0 1 1 0 4.222 2.11 2.11 0 0 1 0-4.222m-.571-5.239c-.814-.136-1.54.533-1.54 1.356 0 .688.513 1.24 1.191 1.356 2.828.494 5.055 2.731 5.559 5.559.116.678.668 1.191 1.356 1.191.823 0 1.491-.726 1.366-1.54a9.58 9.58 0 0 0-7.932-7.922M2.012.508A1.377 1.377 0 0 0 .501 1.873c0 .707.533 1.288 1.23 1.356 5.82.581 10.45 5.211 11.031 11.031a1.36 1.36 0 0 0 1.356 1.24c.814 0 1.453-.707 1.375-1.511C14.786 6.88 9.13 1.215 2.012.508"/>
</svg>
