<svg xmlns="http://www.w3.org/2000/svg" width="16" height="16" fill="#fff" fill-opacity="context-fill-opacity">
    <path d="M10.07.275C5.805-.867 1.421 1.662.275 5.931s1.388 8.653 5.656 9.795a7.997 7.997 0 0 0 9.795-5.656A7.997 7.997 0 0 0 10.07.275m.305 12.187-3.394 1.296a.5.5 0 0 0-.281.26.5.5 0 0 0-.014.379l.011.028a.5.5 0 0 0 .643.295l1.887-.692a.5.5 0 0 1 .383.014.5.5 0 0 1 .26.281l.007.021a.5.5 0 0 1-.221.604 7.203 7.203 0 0 1-8.505-4.75 7.197 7.197 0 0 1 4.011-8.873.53.53 0 0 1 .443.341.53.53 0 0 0 .674.313l.615-.225a.5.5 0 0 1 .643.295l.007.021a.5.5 0 0 1-.014.383.5.5 0 0 1-.281.26L2.973 4.287a.503.503 0 0 0-.295.643l.007.021a.5.5 0 0 0 .643.295l3.123-1.149a.5.5 0 0 1 .383.014.5.5 0 0 1 .26.281l.007.021a.5.5 0 0 1-.014.383.5.5 0 0 1-.281.26L1.814 6.89a.5.5 0 0 0-.295.643l.007.021a.5.5 0 0 0 .643.295l6.134-2.252a.5.5 0 0 1 .643.295l.018.049a.5.5 0 0 1-.014.383.5.5 0 0 1-.281.26L4.26 8.204a.5.5 0 0 0-.296.643l.007.021a.5.5 0 0 0 .643.295l2.02-.745a.5.5 0 0 1 .383.014.5.5 0 0 1 .26.281l.007.021a.5.5 0 0 1-.014.383.5.5 0 0 1-.281.26l-3.474 1.279a.5.5 0 0 0-.295.643l.007.021a.5.5 0 0 0 .643.295l4.708-1.732a.5.5 0 0 1 .382.014.5.5 0 0 1 .26.281l.007.021a.5.5 0 0 1-.014.383.5.5 0 0 1-.281.26l-2.933 1.075a.5.5 0 0 0-.295.643l.007.021a.5.5 0 0 0 .643.295l3.671-1.349a.5.5 0 0 1 .383.014.501.501 0 0 1-.033.921"/>
</svg>
