<svg xmlns="http://www.w3.org/2000/svg" width="16" height="16" fill="#fff" fill-opacity="context-fill-opacity">
    <path d="M15.715 5.9a7.9 7.9 0 0 0-2.092-3.598 7 7 0 0 0-.602-.545 5.8 5.8 0 0 0-1.213-.809A8 8 0 0 0 9.564.16C7.653-.237 5.062.237 3.735 1.533c.441-.27 1.141-.525 1.605-.639C7.519.345 9.931.94 11.57 2.51c1.688 1.508 2.03 4.218.988 5.815-.531.906-1.995 1.722-2.844 1.688a3.7 3.7 0 0 1-1.566-.38c-1.752-.895-2.013-3.123-.745-4.2-.421-.091-1.212.086-1.763.907-.494.737-.466 1.876-.161 2.683a4.3 4.3 0 0 1-.392-1.262C4.709 5.144 6.39 2.93 8.049 2.295l.077-.027-.011-.009c-.36-.312-.974-.49-1.63-.502-1.779-.029-3.552.92-4.528 2.547a6 6 0 0 0-.601 1.349c-.005.014-.005.01-.005.007.003-.001.001.005-.001.01.049-.671.332-1.637.644-2.31q.065-.144.135-.286l.052-.104-.005.002C1.474 3.379.889 4.261.564 5.023.062 6.241-.104 7.719.063 9.07c.507 3.931 3.958 6.975 8.052 6.905 5.119-.004 8.988-5.149 7.6-10.075"/>
</svg>
