<svg xmlns="http://www.w3.org/2000/svg" width="16" height="16" fill="#fff" fill-opacity="context-fill-opacity">
    <path d="M14.968 11.87h.516c.285 0 .516.231.516.516v3.097a.516.516 0 0 1-.516.517h-5.162a.516.516 0 0 1-.516-.516v-3.097c0-.285.231-.516.516-.516h.516v-1.032a2.066 2.066 0 0 1 4.13 0zm-1.033 0v-1.032c0-.569-.463-1.033-1.032-1.033s-1.032.463-1.032 1.033v1.032z"/>
    <path d="M8.805 12.386c0-.112.029-.216.052-.321L8 11.618l-3.068 1.599.5-3.572L2.981 7.01l3.45-.616L8 3.244l1.569 3.15 3.45.616-.782.841c.215-.048.436-.078.666-.078a3.04 3.04 0 0 1 1.673.503l1.036-1.112A1.1 1.1 0 0 0 15 5.331L10.911 4.6 8.985.734a1.1 1.1 0 0 0-1.969 0L5.089 4.6l-4.08.73a1.102 1.102 0 0 0-.616 1.833l2.926 3.146-.609 4.36a1.1 1.1 0 0 0 1.09 1.253c.177.001.351-.041.508-.122L8 13.873l.805.42z"/>
</svg>
