<svg xmlns="http://www.w3.org/2000/svg" width="16" height="16" fill="#fff" fill-opacity="context-fill-opacity">
    <path d="M14.968 11.87h.516c.285 0 .516.231.516.516v3.097a.516.516 0 0 1-.516.517h-5.162a.516.516 0 0 1-.516-.516v-3.097c0-.285.231-.516.516-.516h.516v-1.032a2.066 2.066 0 0 1 4.13 0zm-1.033 0v-1.032c0-.569-.463-1.033-1.032-1.033s-1.032.463-1.032 1.033v1.032z"/>
    <path d="M8.805 12.386c0-.667.433-1.235 1.032-1.437v-.111a3.07 3.07 0 0 1 3.065-3.065 3.05 3.05 0 0 1 1.671.501l1.033-1.11A1.101 1.101 0 0 0 15 5.331L10.911 4.6 8.985.735a1.1 1.1 0 0 0-1.969 0L5.089 4.6l-4.081.729a1.1 1.1 0 0 0-.615 1.834L3.32 10.31l-.609 4.36a1.1 1.1 0 0 0 1.6 1.127L8 13.873l.805.421z"/>
</svg>
