<svg xmlns="http://www.w3.org/2000/svg" width="16" height="16" fill="#fff" fill-opacity="context-fill-opacity">
    <path d="M8.004 3.141q-.435 0-.755-.316-.32-.318-.319-.754c.001-.436.105-.542.316-.754Q7.561 1 7.996 1c.435 0 .542.105.755.314q.32.315.319.748c-.001.433-.105.541-.316.756q-.315.323-.75.323m2.979 0q-.435 0-.755-.316a1.02 1.02 0 0 1-.319-.753q0-.436.316-.754.315-.318.75-.318c.435 0 .542.105.755.314q.32.315.319.748c-.001.433-.105.541-.316.756a1 1 0 0 1-.75.323m2.955 0q-.434 0-.756-.316-.323-.316-.323-.753c0-.437.105-.542.316-.754A1.03 1.03 0 0 1 13.929 1q.436 0 .754.314.317.315.317.748c0 .433-.105.541-.314.756a1 1 0 0 1-.748.323M8.004 15q-.435 0-.755-.314a1 1 0 0 1-.319-.748q0-.434.316-.756.316-.323.751-.323c.435 0 .542.105.755.316s.319.462.319.753-.105.542-.316.754a1.02 1.02 0 0 1-.751.318m2.979 0q-.435 0-.755-.314a1 1 0 0 1-.319-.748q0-.434.316-.756.316-.323.751-.323c.435 0 .542.105.755.316s.319.462.319.753-.105.542-.316.754a1.02 1.02 0 0 1-.751.318m2.955 0a1.05 1.05 0 0 1-.756-.314 1 1 0 0 1-.323-.748q0-.434.316-.756a1.02 1.02 0 0 1 .753-.323q.436 0 .754.316.318.318.318.754c0 .436-.105.542-.314.754a1.02 1.02 0 0 1-.748.317M2.07 15q-.452 0-.761-.308Q1 14.383 1 13.939c0-.444.103-.551.309-.762q.31-.318.761-.317h.587V3.141H2.07q-.452 0-.761-.316A1.04 1.04 0 0 1 1 2.074q0-.45.309-.762Q1.619 1 2.07 1h3.285q.452 0 .761.308c.309.308.309.456.309.753s-.102.551-.308.762q-.31.317-.761.317h-.558v9.719h.558q.452 0 .761.316t.309.751q0 .45-.309.762a1.03 1.03 0 0 1-.761.312zm9.19-5.93H8.679a1.03 1.03 0 0 1-.754-.316 1.02 1.02 0 0 1-.317-.751q0-.435.317-.755a1.03 1.03 0 0 1 .754-.318h2.581l.056.045q-.33-.33-.311-.728.018-.4.349-.737.341-.34.758-.341c.417-.001.531.114.76.342l1.726 1.742q.317.319.317.75 0 .43-.321.746l-1.75 1.75q-.332.332-.754.308-.421-.024-.765-.369-.33-.33-.33-.725c0-.395.11-.506.33-.725z"/>
</svg>
