<svg xmlns="http://www.w3.org/2000/svg" width="16" height="16" fill="#fff" fill-opacity="context-fill-opacity">
    <path d="M11.429 12.212a3.429 3.429 0 1 1-6.857 0 3.429 3.429 0 0 1 6.857 0m-2 0a1.43 1.43 0 1 0-2.859 0 1.43 1.43 0 0 0 2.859 0m-5.858 0c0-.343.048-.673.121-.994H1.017a1.001 1.001 0 0 0-.035 2h2.714a4.4 4.4 0 0 1-.125-1.006M15 11.218h-2.693c.074.32.121.651.121.994 0 .348-.05.682-.125 1.006H15a1 1 0 0 0 0-2M2.752 9.412V3.705c0-.602.488-1.091 1.091-1.091h8.314c.602 0 1.091.488 1.091 1.091v5.707a.816.816 0 1 0 1.632 0V3.705A2.723 2.723 0 0 0 12.157.982H3.843A2.723 2.723 0 0 0 1.12 3.705v5.707a.816.816 0 1 0 1.632 0"/>
</svg>
