<svg xmlns="http://www.w3.org/2000/svg" width="16" height="16" fill="#fff" fill-opacity="context-fill-opacity">
    <path d="M11.778 16H4.222q-.834 0-1.398-.565-.565-.566-.565-1.398V1.963q0-.834.565-1.398C3.389.001 3.667 0 4.222 0h7.556q.832 0 1.398.565c.566.565.565.843.565 1.398v12.074q0 .834-.565 1.398-.566.565-1.398.565M8 5.889q.704 0 1.185-.481c.481-.481.481-.716.481-1.185s-.16-.864-.481-1.185S8.469 2.557 8 2.557s-.864.16-1.185.481-.481.716-.481 1.185.16.864.481 1.185.716.481 1.185.481m0 7.63q1.345 0 2.302-.957c.957-.957.957-1.406.957-2.302s-.319-1.664-.957-2.302Q9.344 7.001 8 7.001c-1.344 0-1.664.319-2.302.957a3.14 3.14 0 0 0-.957 2.302q0 1.345.957 2.302A3.14 3.14 0 0 0 8 13.519m-.002-1.963q-.535 0-.915-.381t-.38-.917c0-.536.127-.662.381-.915q.381-.38.917-.38c.536 0 .662.127.915.381q.38.381.38.917c0 .536-.127.662-.381.915s-.56.38-.917.38"/>
</svg>
