<svg xmlns="http://www.w3.org/2000/svg" width="16" height="16" fill="#fff" fill-opacity="context-fill-opacity">
    <path d="M13.706 14.08c-.62.63-1.55.92-2.7.92a1 1 0 0 1 0-2c.85 0 1.17-.21 1.3-.33.11-.12.2-.32.2-.67v-1.9a2.74 2.74 0 0 1 .91-2.1 2.74 2.74 0 0 1-.91-2.1V4c0-.35-.09-.55-.2-.67-.13-.12-.45-.33-1.3-.33a1 1 0 0 1 0-2c1.15 0 2.08.29 2.7.92.64.63.8 1.43.8 2.08v1.9c0 .41.27.65.57.89l.55.43a1 1 0 0 1 0 1.56l-.55.43c-.3.24-.57.48-.57.89V12c0 .65-.16 1.45-.8 2.08m-11.412 0c.62.63 1.55.92 2.7.92a1 1 0 0 0 0-2c-.85 0-1.17-.21-1.3-.33-.11-.12-.2-.32-.2-.67v-1.9a2.74 2.74 0 0 0-.91-2.1l.18-.2c.43-.46.73-1.07.73-1.9V4c0-.35.09-.55.2-.67.13-.12.45-.33 1.3-.33a1 1 0 0 0 0-2c-1.15 0-2.08.29-2.7.92-.65.63-.8 1.43-.8 2.08v1.9c0 .41-.27.65-.57.89l-.55.43a1 1 0 0 0 0 1.56c.2.17.4.3.55.43.3.24.57.48.57.89V12c0 .65.16 1.45.8 2.08"/>
    <path d="M4.708 10.776a1.3 1.3 0 0 1-.095-.479c0-.474.326-.787.787-.787.367 0 .61.142.823.521.278.651.947.947 1.764.947.959 0 1.61-.462 1.61-1.089 0-.562-.402-.882-1.474-1.101l-.904-.178c-1.705-.337-2.54-1.155-2.54-2.428 0-1.563 1.362-2.599 3.262-2.599 1.563 0 2.741.657 3.12 1.77.042.118.065.243.065.396 0 .426-.308.716-.764.716-.402 0-.651-.16-.853-.527-.284-.643-.834-.91-1.568-.91-.882 0-1.468.415-1.468 1.042 0 .527.408.853 1.421 1.054l.9.184c1.812.361 2.593 1.089 2.593 2.386 0 1.669-1.309 2.724-3.44 2.724-1.765-.001-2.895-.706-3.239-1.642"/>
</svg>
