<svg xmlns="http://www.w3.org/2000/svg" width="16" height="16" fill="#fff" fill-opacity="context-fill-opacity">
    <path d="M15.5 9a.5.5 0 0 0-.5.5v.573a3.474 3.474 0 0 0-5.887 1.58.5.5 0 0 0 .964.264l.006-.022A2.49 2.49 0 0 1 12.5 9.999a2.46 2.46 0 0 1 1.983 1H13.5a.5.5 0 0 0 0 1h2a.5.5 0 0 0 .5-.5v-2A.5.5 0 0 0 15.5 9m.023 3.74a.5.5 0 0 0-.606.364A2.49 2.49 0 0 1 12.5 15a2.46 2.46 0 0 1-1.983-1h.983a.5.5 0 0 0 0-1h-2a.5.5 0 0 0-.5.5v2a.5.5 0 0 0 1 0v-.573a3.474 3.474 0 0 0 5.887-1.58.5.5 0 0 0-.364-.607"/>
    <path d="M8.01 12.485a4.54 4.54 0 0 1 4.538-4.538c.511 0 .994.103 1.452.259V5a2 2 0 0 0-2-2H4a2 2 0 0 0-2 2v6H1a1 1 0 0 0 0 2h7.062c-.02-.171-.052-.339-.052-.515"/>
</svg>
