<svg xmlns="http://www.w3.org/2000/svg" width="16" height="16" fill="#fff" fill-opacity="context-fill-opacity">
    <path d="M13.727 1.636H2.273C1.57 1.636 1 2.206 1 2.909v7.636c0 .703.57 1.273 1.273 1.273h4.455v1.273h-.637a.636.636 0 0 0 0 1.272h3.818a.636.636 0 0 0 0-1.272h-.636v-1.273h4.455c.703 0 1.273-.57 1.273-1.273V2.909a1.275 1.275 0 0 0-1.274-1.273M8.778 9.452a.39.39 0 0 1-.389.389h-.778a.39.39 0 0 1-.389-.389v-.779c0-.215.174-.389.389-.389h.778c.215 0 .389.174.389.389zm0-2.335a.39.39 0 0 1-.389.389h-.778a.39.39 0 0 1-.389-.389V4.003c0-.215.174-.389.389-.389h.778c.215 0 .389.174.389.389z"/>
</svg>
