<svg xmlns="http://www.w3.org/2000/svg" width="16" height="16" fill="#fff" fill-opacity="context-fill-opacity">
    <path d="M16 8V6a2 2 0 0 0-2-2H2a2 2 0 0 0-2 2v2h4v1.333H0v5.333c0 .368.298.667.667.667h14.667a.667.667 0 0 0 .667-.667V9.333h-4V8zm-4.667 2.667H10.6a2.7 2.7 0 0 1-.267.667l.533.533-.933.933-.533-.533-.667.267v.8h-1.4V12.6l-.667-.267-.533.533-.933-1 .533-.533a2.7 2.7 0 0 1-.267-.667h-.8V9.333H5.4a2.6 2.6 0 0 1 .267-.666l-.534-.534.934-.933.533.533.667-.267v-.8H8.6V7.4l.667.267.533-.534.933.933-.533.534q.178.315.267.667h.867z"/>
    <circle cx="8" cy="10" r="1.333"/>
    <path d="M6 2h4v1.333h1.333v-2a.667.667 0 0 0-.667-.667H5.333a.667.667 0 0 0-.667.667v2H6z"/>
</svg>
