<svg xmlns="http://www.w3.org/2000/svg" width="16" height="16" fill="#fff" fill-opacity="context-fill-opacity">
    <path d="m8 15.006-.112-.012a6.24 6.24 0 0 1-4.012-2.427 9.26 9.26 0 0 1-1.8-5.286C2 6.442 2 4.6 2 3.575a1.845 1.845 0 0 1 1.527-1.822L8 .985l4.471.768A1.845 1.845 0 0 1 14 3.576c0 1.023 0 2.866-.08 3.705a9.26 9.26 0 0 1-1.8 5.286 6.24 6.24 0 0 1-4.012 2.427zM4 3.7C4 5.325 3.951 6.46 4 7a7.57 7.57 0 0 0 1.487 4.382A4.22 4.22 0 0 0 8 12.987a4.22 4.22 0 0 0 2.512-1.605A7.57 7.57 0 0 0 12 7c.049-.54 0-1.675 0-3.3l-4-.685z"/>
    <path d="m8 4.537-2.5.428c.009.942.03 1.655.062 2a5.77 5.77 0 0 0 1.13 3.53 2.7 2.7 0 0 0 1.3.943H8z"/>
</svg>
