<svg xmlns="http://www.w3.org/2000/svg" width="16" height="16" fill="#fff" fill-opacity="context-fill-opacity">
    <path d="M4.414 0C2.8.2 1.766 2.521 2.045 4.742c.143 1.133.828 1.675 1.028 3.707l.052.536A18.6 18.6 0 0 0 6.6 8.8a5 5 0 0 1-.055-1.01 25 25 0 0 0 .432-3.949C6.724 1.833 5.853-.177 4.414 0m2.352 9.771A18.4 18.4 0 0 1 3.854 10c-.221 0-.432 0-.636-.01a9 9 0 0 0 .2 1.351c.165.659.71 1.8 1.944 1.635a1.675 1.675 0 0 0 1.58-2.076 14 14 0 0 0-.176-1.129M11.588 3c-1.439-.18-2.311 1.83-2.564 3.838a25 25 0 0 0 .432 3.949 5 5 0 0 1-.058 1 18.5 18.5 0 0 0 3.478.193l.052-.537c.2-2.032.885-2.574 1.028-3.707C14.235 5.521 13.2 3.2 11.588 3m-2.352 9.767c-.069.365-.136.737-.177 1.13a1.675 1.675 0 0 0 1.579 2.079c1.235.16 1.779-.976 1.944-1.635a8.6 8.6 0 0 0 .2-1.35q-.299.008-.606.009a18 18 0 0 1-2.94-.233"/>
</svg>
