<svg xmlns="http://www.w3.org/2000/svg" width="16" height="16">
    <path fill="#fff" fill-opacity="context-fill-opacity" d="M7.597 14.936c.262.085.545.085.806 0 3.041-.976 5.255-4.18 5.255-7.602V4.973l-8.534 8.534a7 7 0 0 0 2.473 1.429m6.207-13.404-.005-.005a.875.875 0 0 0-1.237-.005l-.005.005-.794.794-3.268-1.225a1.37 1.37 0 0 0-.99-.007L3.261 2.681a1.42 1.42 0 0 0-.919 1.329v3.324a8.25 8.25 0 0 0 .834 3.573l-.979.979a.875.875 0 0 0-.005 1.237l.005.005a.875.875 0 0 0 1.237.005l.005-.005L13.798 2.77a.875.875 0 0 0 .006-1.238"/>
</svg>
