<svg xmlns="http://www.w3.org/2000/svg" width="16" height="16" fill="context-fill" fill-opacity="context-fill-opacity">
    <path d="M8.924 4.062H1.729a.729.729 0 1 1 0-1.458h7.194zm5.347-1.458H11.84v-.875a.729.729 0 1 0-1.458 0v3.208a.729.729 0 1 0 1.458 0v-.875h2.431a.729.729 0 1 0 0-1.458M5.618 13.396H1.729a.73.73 0 0 1 0-1.458h3.889zm8.653-1.458H8.535v-.875a.729.729 0 1 0-1.458 0v3.208a.728.728 0 1 0 1.458 0v-.875h5.736a.729.729 0 1 0 0-1.458M15 8a.73.73 0 0 1-.729.729H7.076V7.271h7.194c.404 0 .73.326.73.729M4.889 5.667a.73.73 0 0 0-.729.729v.875H1.729a.729.729 0 1 0 0 1.458H4.16v.875a.729.729 0 1 0 1.458 0V6.396a.73.73 0 0 0-.729-.729"/>
</svg>
