<svg xmlns="http://www.w3.org/2000/svg" viewBox="0 0 16 16">
    <path fill="#fff" fill-opacity="context-fill-opacity" d="m11.414 10 2.293-2.293a1 1 0 0 0 0-1.414 4.4 4.4 0 0 0-.8-.622L11.425 7.15h.008l-4.3 4.3v-.017l-1.48 1.476a4 4 0 0 0 .692.834 1 1 0 0 0 1.37-.042L10 11.414l3.293 3.293a1 1 0 0 0 1.414-1.414zm3.293-8.707a1 1 0 0 0-1.414 0L9.7 4.882A2.38 2.38 0 0 1 8 2.586V2a1 1 0 0 0-1.707-.707l-5 5A1 1 0 0 0 2 8h.586a2.38 2.38 0 0 1 2.3 1.7l-3.593 3.593a1 1 0 1 0 1.414 1.414l12-12a1 1 0 0 0 0-1.414m-9 6a4.4 4.4 0 0 0-1.571-1.015l2.143-2.142a4.4 4.4 0 0 0 1.013 1.571 4.2 4.2 0 0 0 .9.684l-1.8 1.8a4.2 4.2 0 0 0-.684-.898z"/>
</svg>
