<svg xmlns="http://www.w3.org/2000/svg" width="16" height="16">
    <defs>
        <linearGradient id="a" x1="64.065%" x2="27.226%" y1="6.588%" y2="88.848%">
            <stop offset="0%" stop-color="hsl(27, 100%, 68%)"/>
            <stop offset="60%" stop-color="hsl(353, 97%, 72%)"/>
            <stop offset="100%" stop-color="hsl(327, 83%, 62%)"/>
        </linearGradient>
        <linearGradient id="b" x1="64.065%" x2="27.226%" y1="6.588%" y2="88.848%">
            <stop offset="0%" stop-color="hsl(55, 100%, 76%)" stop-opacity=".8"/>
            <stop offset="9%" stop-color="hsl(55, 100%, 76%)" stop-opacity=".7"/>
            <stop offset="75%" stop-color="hsl(55, 100%, 82%)" stop-opacity="0"/>
        </linearGradient>
        <linearGradient id="c" x1="76.537%" x2="33.666%" y1="89.279%" y2="3.042%">
            <stop offset="0%" stop-color="hsl(286, 74%, 64%)"/>
            <stop offset="37%" stop-color="hsl(260, 100%, 77%)"/>
            <stop offset="61%" stop-color="hsl(233, 92%, 76%)"/>
            <stop offset="100%" stop-color="hsl(204, 100%, 58%)"/>
        </linearGradient>
        <linearGradient id="d" x1="83.333%" x2="37.602%" y1="101.626%" y2="42.563%">
            <stop offset="0%" stop-color="hsl(283, 62%, 45%)" stop-opacity=".5"/>
            <stop offset="50%" stop-color="hsl(283, 62%, 45%)" stop-opacity="0"/>
        </linearGradient>
    </defs>
    <g fill="none" fill-opacity="context-fill-opacity">
        <path fill="url(#a)" d="M7.448 8.644h.012zm3.012-6.587A6.08 6.08 0 0 0 6.05.195C2.654.195 0 2.894 0 6.34c0 3.192 4.917 8.626 5.479 9.237a.795.795 0 0 0 1.17-1.076 42 42 0 0 1-2.579-3.164C1.91 8.39 1.588 6.939 1.588 6.34c0-2.557 1.952-4.557 4.455-4.557A4.5 4.5 0 0 1 9.317 3.16a4.37 4.37 0 0 1 1.22 3.221c-.047 1.267-1.321 3.27-2.555 4.808l-.44.459c-.426.363-1.068.224-1.42-.209.337.412.707.855 1.129 1.33a.99.99 0 0 0 1.495-.01c.78-.9 3.295-4.018 3.38-6.319a5.94 5.94 0 0 0-1.666-4.382zM6.804 7.735v.027a1 1 0 0 1 .03-.14 1 1 0 0 0-.03.113" transform="translate(1.951)"/>
        <path fill="url(#b)" d="M7.448 8.644h.012zm3.012-6.587A6.08 6.08 0 0 0 6.05.195C2.654.195 0 2.894 0 6.34c0 3.192 4.917 8.626 5.479 9.237a.795.795 0 0 0 1.17-1.076 42 42 0 0 1-2.579-3.164C1.91 8.39 1.588 6.939 1.588 6.34c0-2.557 1.952-4.557 4.455-4.557A4.5 4.5 0 0 1 9.317 3.16a4.37 4.37 0 0 1 1.22 3.221c-.047 1.267-1.321 3.27-2.555 4.808l-.44.459c-.426.363-1.068.224-1.42-.209.337.412.707.855 1.129 1.33a.99.99 0 0 0 1.495-.01c.78-.9 3.295-4.018 3.38-6.319a5.94 5.94 0 0 0-1.666-4.382zM6.804 7.735v.027a1 1 0 0 1 .03-.14 1 1 0 0 0-.03.113" transform="translate(1.951)"/>
        <path fill="url(#c)" d="M7.543 11.647c-.425.365-1.067.224-1.42-.21l-.06-.075C3.8 8.56 3.39 7.198 3.316 6.708a2.68 2.68 0 0 1 .667-2.158 2.76 2.76 0 0 1 2.147-.901 2.7 2.7 0 0 1 1.951.925c.524.606.777 1.4.698 2.199a2.96 2.96 0 0 1-.548 1.543.792.792 0 1 1-1.247-.976 1.55 1.55 0 0 0 .217-.716 1.33 1.33 0 0 0-.318-1 1.1 1.1 0 0 0-.804-.39 1.18 1.18 0 0 0-.917.378 1.08 1.08 0 0 0-.271.882c.119.878 1.606 2.944 3.085 4.683l-.434.47z" transform="translate(1.951)"/>
        <path fill="url(#d)" d="M5.104 10.111c.277.39.586.796.958 1.251l.06.074c.354.435.996.574 1.421.21l.441-.458a37 37 0 0 1-1.74-2.212z" transform="translate(1.951)"/>
    </g>
</svg>
