<svg xmlns="http://www.w3.org/2000/svg" fill="#fff" fill-opacity="context-fill-opacity" fill-rule="evenodd" viewBox="0 0 32 32">
    <path d="M11.001 18a5 5 0 0 1 10 0 13 13 0 0 1-8.666 12.26 1 1 0 0 1-.667-1.886A11 11 0 0 0 19.001 18a3 3 0 0 0-6 0 5 5 0 0 1-10 0c0-7.18 5.821-13 13-13s13 5.82 13 13c0 1.421-.141 2.826-.42 4.199a1 1 0 1 1-1.96-.398c.252-1.242.38-2.514.38-3.801 0-6.075-4.925-11-11-11-6.074 0-11 4.925-11 11a3 3 0 0 0 6 0"/>
    <path d="M8.001 27a1 1 0 0 1 0-2 7 7 0 0 0 7-7 1 1 0 0 1 2 0 9 9 0 0 1-9 9"/>
    <path d="M9.001 18a1 1 0 0 1-2 0 9 9 0 0 1 18 0 17 17 0 0 1-2.244 8.498 1 1 0 1 1-1.735-.995 14.93 14.93 0 0 0 1.98-7.453c0-3.916-3.135-7.05-7-7.05a7 7 0 0 0-7 7M4.75 8.08a1 1 0 1 1-1.5-1.324A16.96 16.96 0 0 1 16 1a16.96 16.96 0 0 1 12.753 5.756 1 1 0 1 1-1.5 1.324A14.96 14.96 0 0 0 16.002 3 14.96 14.96 0 0 0 4.75 8.08"/>
</svg>
