<svg xmlns="http://www.w3.org/2000/svg" width="16" height="16" fill="#fff" fill-opacity="context-fill-opacity">
    <path d="M16 3.103a.2.2 0 0 1-.056.155c-.042.042-.07.07-.113.07-.352.028-.633.141-.858.338s-.45.563-.69 1.098l-3.631 8.19c-.028.07-.099.113-.211.113a.22.22 0 0 1-.197-.113L8.204 8.69l-2.336 4.264a.23.23 0 0 1-.197.113.23.23 0 0 1-.211-.113L1.9 4.777c-.225-.506-.465-.858-.704-1.069-.253-.197-.591-.324-1.041-.38-.042 0-.07-.014-.113-.056A.24.24 0 0 1 0 3.131c0-.127.042-.197.113-.197.324 0 .647.014.999.042.324.028.633.042.915.042.296 0 .633-.014 1.027-.042q.612-.042 1.098-.042c.07 0 .113.07.113.197s-.028.197-.07.197c-.325.028-.564.113-.747.239a.66.66 0 0 0-.282.535c0 .113.042.253.113.422l2.955 6.656 1.675-3.166-1.577-3.237c-.281-.577-.507-.957-.69-1.126s-.45-.267-.816-.31a.12.12 0 0 1-.099-.056.24.24 0 0 1-.041-.14c0-.141.028-.197.099-.197.324 0 .605.014.872.042.253.014.535.028.816.028s.591-.014.901-.042q.507-.042.971-.042c.07 0 .113.07.113.197s-.028.197-.07.197c-.634.042-.958.225-.958.535 0 .141.07.366.225.661l1.027 2.097L9.71 4.707c.14-.267.211-.492.211-.689 0-.436-.324-.675-.957-.704-.056 0-.084-.07-.084-.197 0-.042.014-.099.042-.141.042-.014.07-.042.099-.042q.338 0 .844.042c.324.028.577.042.788.042.141 0 .366-.014.647-.042.352-.028.661-.042.901-.042q.084 0 .084.169c0 .155-.056.225-.155.225-.366.042-.675.141-.887.31-.225.169-.507.549-.844 1.126L9.034 7.296l1.858 3.771 2.73-6.361c.099-.239.141-.45.141-.633 0-.464-.324-.718-.957-.746-.056 0-.084-.07-.084-.197 0-.141.042-.197.127-.197.239 0 .507.014.83.042.296.028.535.042.746.042s.45-.014.732-.042a8 8 0 0 1 .774-.042c.041.001.069.057.069.17"/>
</svg>
