<svg xmlns="http://www.w3.org/2000/svg" width="16" height="16" fill="#fff" fill-opacity="context-fill-opacity">
    <path d="M14 0H2a2 2 0 0 0-2 2v12a2 2 0 0 0 2 2h12a2 2 0 0 0 2-2V2a2 2 0 0 0-2-2m.951 3.674q-.483.085-.73.303a2.8 2.8 0 0 0-.699.988l-3.27 7.604h-.248L8.373 8.934 6.592 12.57h-.248l-3.74-7.703c-.175-.396-.411-.637-.483-.725a1.2 1.2 0 0 0-.412-.32q-.244-.115-.66-.148V3.43h3.639v.244c-.42.04-.62.11-.745.211a.48.48 0 0 0-.187.389q0 .33.308 1.028l2.762 5.239 1.22-2.336-1.497-3.338c-.174-.396-.411-.637-.483-.725a1.2 1.2 0 0 0-.412-.32 1.5 1.5 0 0 0-.587-.148V3.43h3.567v.244c-.42.04-.62.11-.745.211a.48.48 0 0 0-.188.389q0 .33.308 1.028l.738 1.56.78-1.494c.21-.51.384-.863.384-1.061q0-.19-.194-.366c-.13-.117-.277-.199-.585-.247l-.114-.02V3.43h2.728v.244q-.483.085-.73.303a2.8 2.8 0 0 0-.699.989L9.062 7.528l1.424 3.012 2.245-5.173c.21-.51.384-.863.384-1.061q0-.19-.194-.366c-.194-.176-.348-.199-.657-.247l-.114-.02V3.43h2.8v.244z"/>
</svg>
