<?xml version="1.0" encoding="utf-8"?>
<svg xmlns="http://www.w3.org/2000/svg" width="11.988581" height="12.0128" id="svg3859" version="1.1">
  <g id="layer1" transform="translate(-142.56738,-320.63475)">
    <g id="g3822" transform="matrix(0.92307692,0,0,0.92307692,11.428168,25.126484)">
      <path transform="matrix(0.8396043,0,0,0.8396043,160.30264,314.15178)" d="m -6.8606434,14.87902 c 0,3.931117 -3.1867996,7.117917 -7.1179166,7.117917 -3.931117,0 -7.117918,-3.1868 -7.117918,-7.117917 0,-3.931117 3.186801,-7.1179173 7.117918,-7.1179173 3.931117,0 7.1179166,3.1868003 7.1179166,7.1179173 z" id="path3078" style="fill:#9dffb6;fill-opacity:1;stroke:#009a22;stroke-width:1.24765027;stroke-miterlimit:4;stroke-opacity:1;stroke-dasharray:none"/>
      <path d="M 144.103 326.35 L 147.484 326.35 C 147.935 326.35 148.303 325.982 148.303 325.531 L 148.303 322.15 L 144.103 326.35 L 144.103 326.35 Z M 153.043 326.871 L 149.648 326.871 C 149.198 326.871 148.829 327.239 148.829 327.69 L 148.829 331.085 L 153.043 326.871" style="fill: rgb(0, 154, 34); fill-opacity: 1; fill-rule: evenodd; stroke: none;" id="path4293"/>
    </g>
  </g>
</svg>