<?xml version="1.0" encoding="UTF-8" standalone="no"?>
<!-- Created with Inkscape (http://www.inkscape.org/) -->

<svg
   xmlns:dc="http://purl.org/dc/elements/1.1/"
   xmlns:cc="http://creativecommons.org/ns#"
   xmlns:rdf="http://www.w3.org/1999/02/22-rdf-syntax-ns#"
   xmlns:svg="http://www.w3.org/2000/svg"
   xmlns="http://www.w3.org/2000/svg"
   xmlns:sodipodi="http://sodipodi.sourceforge.net/DTD/sodipodi-0.dtd"
   xmlns:inkscape="http://www.inkscape.org/namespaces/inkscape"
   width="11.988581"
   height="12.0128"
   id="svg3859"
   version="1.1"
   inkscape:version="0.48.4 r9939"
   sodipodi:docname="min_prelight.svg">
  <defs
     id="defs3861" />
  <sodipodi:namedview
     id="base"
     pagecolor="#ffffff"
     bordercolor="#666666"
     borderopacity="1.0"
     inkscape:pageopacity="0.0"
     inkscape:pageshadow="2"
     inkscape:zoom="5.6"
     inkscape:cx="-69.27119"
     inkscape:cy="-27.64446"
     inkscape:document-units="px"
     inkscape:current-layer="layer1"
     showgrid="false"
     fit-margin-top="0"
     fit-margin-left="0"
     fit-margin-right="0"
     fit-margin-bottom="0"
     inkscape:window-width="1366"
     inkscape:window-height="715"
     inkscape:window-x="0"
     inkscape:window-y="28"
     inkscape:window-maximized="1"
     showguides="true"
     inkscape:guide-bbox="true" />
  <metadata
     id="metadata3864">
    <rdf:RDF>
      <cc:Work
         rdf:about="">
        <dc:format>image/svg+xml</dc:format>
        <dc:type
           rdf:resource="http://purl.org/dc/dcmitype/StillImage" />
        <dc:title />
      </cc:Work>
    </rdf:RDF>
  </metadata>
  <g
     inkscape:label="Layer 1"
     inkscape:groupmode="layer"
     id="layer1"
     transform="translate(-142.56738,-320.63475)">
    <g
       id="g3834"
       transform="matrix(0.92307692,0,0,0.92307692,11.428168,25.126484)">
      <path
         transform="matrix(0.8396043,0,0,0.8396043,160.30264,314.15178)"
         d="m -6.8606434,14.87902 c 0,3.931117 -3.1867996,7.117917 -7.1179166,7.117917 -3.931117,0 -7.117918,-3.1868 -7.117918,-7.117917 0,-3.931117 3.186801,-7.1179173 7.117918,-7.1179173 3.931117,0 7.1179166,3.1868003 7.1179166,7.1179173 z"
         sodipodi:ry="7.1179171"
         sodipodi:rx="7.1179171"
         sodipodi:cy="14.87902"
         sodipodi:cx="-13.97856"
         id="path3078"
         style="fill:#ffd254;fill-opacity:1;stroke:#c59200;stroke-width:1.24765027;stroke-miterlimit:4;stroke-opacity:1;stroke-dasharray:none"
         sodipodi:type="arc" />
      <path
         inkscape:connector-curvature="0"
         d="m 145.40807,326.19394 6.3162,0 c 0.24443,0 0.44442,0.19997 0.44442,0.44445 l 0,0.0118 c 0,0.24447 -0.19999,0.4444 -0.44442,0.4444 l -6.3162,0 c -0.24448,0 -0.44441,-0.19993 -0.44441,-0.4444 l 0,-0.0118 c 0,-0.24448 0.19993,-0.44445 0.44441,-0.44445"
         style="fill:#c59200;fill-opacity:1;fill-rule:evenodd;stroke:none"
         id="path4499" />
    </g>
  </g>
</svg>
