<svg xmlns="http://www.w3.org/2000/svg" viewBox="0 -0.5 16 16" shape-rendering="crispEdges">
<metadata>Made with Pixels to Svg https://codepen.io/shshaw/pen/XbxvNj</metadata>
<path stroke="#000000" d="M0 0h16M0 1h16M0 2h16M0 3h16M0 4h1M3 4h4M9 4h7M0 5h1M3 5h13M0 6h1M6 6h1M9 6h1M14 6h2M0 7h1M3 7h1M6 7h1M9 7h1M12 7h1M15 7h1M0 8h1M3 8h1M6 8h1M9 8h1M12 8h1M15 8h1M0 9h1M3 9h1M6 9h1M9 9h1M12 9h1M15 9h1M0 10h1M3 10h1M9 10h1M12 10h1M15 10h1M0 11h1M6 11h1M9 11h1M12 11h1M15 11h1M0 12h7M8 12h4M13 12h3M0 13h3M6 13h3M10 13h3M15 13h1M0 14h16M0 15h16" />
<path stroke="#ffffff" d="M1 4h2M7 4h2M1 5h2M1 6h2M4 6h2M7 6h2M10 6h4M1 7h2M4 7h2M7 7h2M10 7h2M13 7h2M1 8h2M4 8h2M7 8h2M10 8h2M13 8h2M1 9h2M4 9h2M7 9h2M10 9h2M13 9h2M1 10h2M4 10h2M7 10h2M10 10h2M13 10h2M1 11h1M5 11h1M11 11h1" />
<path stroke="#fafafa" d="M3 6h1M14 11h1" />
<path stroke="#3c3c3c" d="M6 10h1" />
<path stroke="#f7f7f7" d="M2 11h3M8 11h1M10 11h1M13 11h1" />
<path stroke="#fcfcfc" d="M7 11h1" />
<path stroke="#0e0e0e" d="M7 12h1" />
<path stroke="#020202" d="M12 12h1" />
<path stroke="#1d1d1d" d="M3 13h1" />
<path stroke="#595959" d="M4 13h2" />
<path stroke="#363636" d="M9 13h1" />
<path stroke="#5a5a5a" d="M13 13h1" />
<path stroke="#171717" d="M14 13h1" />
</svg>