<svg width="16" height="16" fill="#f4f4f7" fill-opacity="context-fill-opacity" xmlns="http://www.w3.org/2000/svg">
    <path d="M14 7h-1.1a4.967 4.967 0 0 0-.732-1.753l.782-.783a1 1 0 1 0-1.415-1.414l-.782.783A4.968 4.968 0 0 0 9 3.1V2a1 1 0 0 0-2 0v1.1a4.968 4.968 0 0 0-1.753.732l-.783-.782A1 1 0 0 0 3.05 4.464l.783.783A4.968 4.968 0 0 0 3.1 7H2a1 1 0 0 0 0 2h1.1a4.968 4.968 0 0 0 .732 1.753l-.783.782a1 1 0 1 0 1.414 1.414l.783-.782A4.967 4.967 0 0 0 7 12.9V14a1 1 0 0 0 2 0v-1.1a4.968 4.968 0 0 0 1.753-.732l.782.782a1 1 0 0 0 1.414-1.414l-.782-.782A4.968 4.968 0 0 0 12.9 9H14a1 1 0 0 0 0-2Zm-6 4a3 3 0 1 1 3-3 3 3 0 0 1-3 3Z"/>
</svg>
