<svg width="64" height="64" viewBox="0 0 64 64" fill="#f4f4f7"
  xmlns="http://www.w3.org/2000/svg">
  <path d="M21.3456 64.0025C9.56322 64.0025 0.011717 54.4513 0.0117188 42.6692L0.0117215 21.3359L25.6051 21.3359C23.2519 21.3398 21.3455 23.2486 21.3455 25.6026V42.6692H38.4126C40.7691 42.6692 42.6794 40.759 42.6794 38.4026V21.3359L42.6795 64.0025L21.3456 64.0025Z" fill="url(#paint0_linear_822_142986)"/>
  <path d="M21.3449 41.9201C21.3364 42.1688 21.332 42.4186 21.332 42.6694C21.332 54.4515 30.8835 64.0027 42.6659 64.0027C54.4483 64.0027 63.9998 54.4515 63.9998 42.6694C63.9998 30.8918 54.4553 21.3428 42.6788 21.3359V38.4026C42.6788 40.759 40.7686 42.6692 38.4121 42.6692H21.3449V41.9201Z" fill="url(#paint1_linear_822_142986)"/>
  <path d="M21.3339 0C9.5515 0 0 9.55123 0 21.3333C0 33.1153 9.5515 42.6666 21.3339 42.6666C21.3657 42.6666 21.3974 42.6664 21.4292 42.6664H21.3468V25.5997C21.3468 23.2433 23.2571 21.3331 25.6136 21.3331L42.6678 21.3333C42.6678 9.55123 33.1163 0 21.3339 0Z" fill="url(#paint2_linear_822_142986)"/>
  <defs>
    <linearGradient id="paint0_linear_822_142986" x1="21.3456" y1="21.3359" x2="21.3456" y2="64.0025" gradientUnits="userSpaceOnUse">
      <stop stop-color="#F5E19F"/>
      <stop offset="1" stop-color="#F5A25D"/>
    </linearGradient>
    <linearGradient id="paint1_linear_822_142986" x1="42.6659" y1="21.3361" x2="42.6659" y2="64.0027" gradientUnits="userSpaceOnUse">
      <stop stop-color="#A9A0E1"/>
      <stop offset="0.723958" stop-color="#6F60CC"/>
    </linearGradient>
    <linearGradient id="paint2_linear_822_142986" x1="21.3339" y1="0" x2="21.3339" y2="42.6666" gradientUnits="userSpaceOnUse">
      <stop stop-color="#FFA09D"/>
      <stop offset="0.755208" stop-color="#FF807B"/>
    </linearGradient>
  </defs>
</svg>
