<svg width="64" height="64" viewBox="0 0 64 64" fill="#f4f4f7"
    xmlns="http://www.w3.org/2000/svg">
    <path d="M56 0H8C3.58172 0 0 3.58172 0 8V56C0 60.4183 3.58172 64 8 64H56C60.4183 64 64 60.4183 64 56V8C64 3.58172 60.4183 0 56 0Z" fill="url(#paint0_linear)"/>
    <path d="M51.84 8.31995H40C37.8792 8.31995 36.16 10.0392 36.16 12.1599V32.4799C36.16 34.6007 37.8792 36.3199 40 36.3199H51.84C53.9608 36.3199 55.68 34.6007 55.68 32.4799V12.1599C55.68 10.0392 53.9608 8.31995 51.84 8.31995Z" fill="white"/>
    <path d="M24 8.31995H12.16C10.0392 8.31995 8.32 10.0392 8.32 12.1599V48.4799C8.32 50.6007 10.0392 52.3199 12.16 52.3199H24C26.1208 52.3199 27.84 50.6007 27.84 48.4799V12.1599C27.84 10.0392 26.1208 8.31995 24 8.31995Z" fill="white"/>
    <defs>
        <linearGradient id="paint0_linear" x1="32" y1="0" x2="32" y2="64" gradientUnits="userSpaceOnUse">
            <stop stop-color="#0079BF"/>
            <stop offset="1" stop-color="#0079BF"/>
        </linearGradient>
    </defs>
</svg>
