<svg width="64" height="64" viewBox="0 0 64 64" fill="none" xmlns="http://www.w3.org/2000/svg">
<path d="M2 18C2 9.16344 9.16344 2 18 2H46C54.8366 2 62 9.16344 62 18V46C62 54.8366 54.8366 62 46 62H18C9.16344 62 2 54.8366 2 46V18Z" fill="url(#paint0_radial)"/>
<path d="M24.8571 23.9333L24.8571 26.1333C24.8571 26.5383 24.5373 26.8667 24.1429 26.8667H22.7143C22.3198 26.8667 22 26.5383 22 26.1333L22 21.7333C22 21.3283 22.3198 21 22.7143 21H41.2857C41.6802 21 42 21.3283 42 21.7333V26.1333C42 26.5383 41.6802 26.8667 41.2857 26.8667H39.8571C39.4627 26.8667 39.1429 26.5383 39.1429 26.1333V23.9333H33.4286L33.4286 39.3333C33.4286 39.7383 33.7484 40.0667 34.1429 40.0667H34.8571C35.2516 40.0667 35.5714 40.395 35.5714 40.8V42.2667C35.5714 42.6717 35.2516 43 34.8571 43H29.1429C28.7484 43 28.4286 42.6717 28.4286 42.2667V40.8C28.4286 40.395 28.7484 40.0667 29.1429 40.0667H29.8571C30.2516 40.0667 30.5714 39.7383 30.5714 39.3333L30.5714 23.9333H24.8571Z" fill="#6D7176"/>
<defs>
<radialGradient id="paint0_radial" cx="0" cy="0" r="1" gradientUnits="userSpaceOnUse" gradientTransform="translate(2 2) rotate(45) scale(84.8528)">
<stop stop-color="#EAEBF1"/>
<stop offset="1" stop-color="#DDDEE5"/>
</radialGradient>
</defs>
</svg>
