<svg width="64" height="64" viewBox="0 0 64 64" fill="#f4f4f7"
    xmlns="http://www.w3.org/2000/svg">
    <path d="M41.8722 32.7282C39.4911 32.7282 37.562 30.8076 37.562 28.4369C37.562 28.1869 37.5833 27.942 37.6259 27.7038L27.3182 21.7946C26.5682 22.4251 25.5986 22.8057 24.5404 22.8057C22.1593 22.8057 20.2294 20.8843 20.2294 18.5145C20.2294 16.1447 22.1593 14.2232 24.5404 14.2232C26.9215 14.2232 28.8514 16.1447 28.8514 18.5145C28.8514 18.7874 28.8233 19.0544 28.774 19.3137L39.0442 25.2009C39.801 24.5441 40.7902 24.1457 41.8722 24.1457C44.2516 24.1457 46.1816 26.0671 46.1816 28.4369C46.1816 30.8076 44.2516 32.7282 41.8722 32.7282ZM28.7987 38.4272C28.7987 40.797 26.8696 42.7184 24.4885 42.7184C22.1091 42.7184 20.1791 40.797 20.1791 38.4272C20.1791 36.0566 22.1091 34.1351 24.4885 34.1351C25.5586 34.1351 26.5359 34.5242 27.2893 35.1666L34.8038 30.8669C35.1247 31.7899 35.6236 32.6307 36.2578 33.3494L28.7297 37.6576C28.774 37.9076 28.7987 38.1645 28.7987 38.4272ZM54.7159 12.2382L34.2487 0.594356C32.8551 -0.198119 31.144 -0.198119 29.7504 0.594356L9.28492 12.2382C7.87174 13.0417 7 14.5385 7 16.1574V39.8435C7 41.4556 7.86408 42.9464 9.26704 43.7525L44.5002 64L44.5062 49.6185L54.7304 43.7525C56.1351 42.9464 57 41.4556 57 39.8418V16.1574C57 14.5385 56.1283 13.0417 54.7159 12.2382" fill="#042B48"/>
</svg>
