<svg width="64" height="64" viewBox="0 0 64 64" fill="#f4f4f7"
    xmlns="http://www.w3.org/2000/svg">
    <path d="M48.4755 17.2308C52.0409 17.2308 55.3607 18.5846 57.8195 20.8C59.4178 22.1538 61.8769 21.0462 61.8769 18.8308V5.04616C61.8769 2.33846 59.664 0 56.836 0H7.04098C4.21311 0 2 2.21538 2 5.04616V59.0768C2 61.7845 4.21311 64 7.04098 64H56.959C59.664 64 62 61.7845 62 58.9539V45.1693C62 43.0768 59.5409 41.8461 57.9426 43.2C55.3607 45.4155 52.164 46.7693 48.5983 46.7693C40.4837 46.7693 33.9672 40.1232 33.9672 32C33.9672 23.8769 40.4837 17.2308 48.4755 17.2308V17.2308Z" fill="#EE5A29"/>
</svg>
