<svg width="64" height="64" viewBox="0 0 64 64" fill="none" xmlns="http://www.w3.org/2000/svg">
<path d="M37.75 0H13.3125C10.9406 0 9 1.96364 9 4.36364V59.6364C9 62.0364 10.9406 64 13.3125 64H50.6875C53.0594 64 55 62.0364 55 59.6364V17.4545L37.75 0Z" fill="url(#paint0_radial)"/>
<path opacity="0.2" d="M42.0625 17.4546C39.6798 17.4546 37.75 15.5019 37.75 13.0909V13.4546C37.75 15.8655 39.6798 17.8182 42.0625 17.8182H55V17.4546H42.0625Z" fill="#6D7176"/>
<path opacity="0.2" d="M50.6875 63.6363H13.3125C10.9406 63.6363 9 61.6727 9 59.2727V59.6363C9 62.0363 10.9406 64 13.3125 64H50.6875C53.0594 64 55 62.0363 55 59.6363V59.2727C55 61.6727 53.0594 63.6363 50.6875 63.6363Z" fill="#6D7176"/>
<path opacity="0.12" d="M13.3125 0C10.9406 0 9 1.96364 9 4.36364V4.72727C9 2.32727 10.9406 0.363636 13.3125 0.363636H37.75V0H13.3125Z" fill="white"/>
<path opacity="0.6" d="M37.75 0V13.0909C37.75 15.5018 39.6798 17.4545 42.0625 17.4545H55L37.75 0Z" fill="#F8F9FA"/>
<path d="M39.0143 16.1785C39.7945 16.9671 40.872 17.4546 42.0625 17.4546H55V32.3528L39.0114 16.1782L39.0143 16.1785Z" fill="url(#paint1_linear)"/>
<path d="M24.8571 31.9333L24.8571 34.1333C24.8571 34.5383 24.5373 34.8667 24.1429 34.8667H22.7143C22.3198 34.8667 22 34.5383 22 34.1333L22 29.7333C22 29.3283 22.3198 29 22.7143 29H41.2857C41.6802 29 42 29.3283 42 29.7333V34.1333C42 34.5383 41.6802 34.8667 41.2857 34.8667H39.8571C39.4627 34.8667 39.1429 34.5383 39.1429 34.1333V31.9333H33.4286L33.4286 47.3333C33.4286 47.7383 33.7484 48.0667 34.1429 48.0667H34.8571C35.2516 48.0667 35.5714 48.395 35.5714 48.8V50.2667C35.5714 50.6717 35.2516 51 34.8571 51H29.1429C28.7484 51 28.4286 50.6717 28.4286 50.2667V48.8C28.4286 48.395 28.7484 48.0667 29.1429 48.0667H29.8571C30.2516 48.0667 30.5714 47.7383 30.5714 47.3333L30.5714 31.9333H24.8571Z" fill="#54575C"/>
<defs>
<radialGradient id="paint0_radial" cx="0" cy="0" r="1" gradientUnits="userSpaceOnUse" gradientTransform="translate(9) rotate(70.2328) scale(68.0074 48.8803)">
<stop stop-color="#EAEBF1"/>
<stop offset="1" stop-color="#DDDEE5"/>
</radialGradient>
<linearGradient id="paint1_linear" x1="47.0066" y1="17.567" x2="47.0066" y2="32.355" gradientUnits="userSpaceOnUse">
<stop stop-opacity="0.12"/>
<stop offset="1" stop-opacity="0"/>
</linearGradient>
</defs>
</svg>
