<svg width="64" height="64" viewBox="0 0 64 64" xmlns="http://www.w3.org/2000/svg">
    <path fill="#A6A9AE" d="M55.3677 21.3547L40.9381 35.7843C45.4475 36.4251 50.1927 35.0113 53.6613 31.5427L59.6085 25.5955C65.4638 19.7402 65.4638 10.2468 59.6085 4.3915C53.7532 -1.46383 44.2598 -1.46383 38.4045 4.3915L32.4573 10.3387C28.9887 13.8073 27.5748 18.5525 28.2157 23.0619L42.6453 8.6323C46.1585 5.1191 51.8545 5.1191 55.3677 8.6323C58.8809 12.1455 58.8809 17.8415 55.3677 21.3547Z"/>
    <path fill="#A6A9AE" d="M42.0671 17.6921C43.2382 16.521 45.1368 16.521 46.3079 17.6921C47.479 18.8632 47.479 20.7618 46.3079 21.9329L22.1052 46.1356C20.9341 47.3067 19.0354 47.3067 17.8644 46.1356C16.6933 44.9646 16.6933 43.0659 17.8644 41.8948L42.0671 17.6921Z"/>
    <path fill="#A6A9AE" d="M23.0619 28.2157L8.6323 42.6453C5.11911 46.1585 5.11911 51.8545 8.6323 55.3677C12.1455 58.8809 17.8415 58.8809 21.3547 55.3677L35.7843 40.9381C36.4252 45.4475 35.0113 50.1927 31.5427 53.6613L25.5955 59.6085C19.7402 65.4638 10.2468 65.4638 4.3915 59.6085C-1.46383 53.7532 -1.46383 44.2598 4.3915 38.4045L10.3387 32.4573C13.8073 28.9887 18.5525 27.5748 23.0619 28.2157Z"/>
</svg>