<svg width="64" height="64" viewBox="0 0 64 64" fill="#f4f4f7"
    xmlns="http://www.w3.org/2000/svg">
    <path d="M59.7809 26.1931C60.5079 24.0386 60.7601 21.7558 60.5206 19.4974C60.2811 17.2391 59.5555 15.0572 58.3922 13.0979C56.6678 10.1345 54.0337 7.78816 50.8701 6.39761C47.7065 5.00705 44.1769 4.64414 40.7907 5.36125C39.2633 3.66287 37.3859 2.30601 35.2841 1.38146C33.1822 0.456919 30.9045 -0.0139694 28.6033 0.000315546C25.1412 -0.00792924 21.7659 1.06886 18.9639 3.07542C16.162 5.08199 14.0783 7.91466 13.0132 11.165C10.7578 11.6206 8.62711 12.5462 6.76365 13.8801C4.9002 15.2139 3.34703 16.9251 2.20811 18.8992C0.469898 21.8545 -0.272073 25.2782 0.0892057 28.6764C0.450484 32.0747 1.89634 35.2719 4.21825 37.8069C3.49123 39.9614 3.23902 42.2442 3.47851 44.5026C3.718 46.7609 4.44367 48.9428 5.60693 50.9021C7.33154 53.8654 9.96563 56.2116 13.1292 57.6021C16.2928 58.9927 19.8222 59.3557 23.2084 58.6387C24.7358 60.3371 26.6132 61.694 28.7151 62.6185C30.8169 63.5431 33.0946 64.014 35.3958 63.9997C38.8596 64.0086 42.2367 62.9314 45.0397 60.9235C47.8428 58.9157 49.9268 56.081 50.991 52.8287C53.2464 52.3731 55.3771 51.4474 57.2406 50.1136C59.1041 48.7798 60.6572 47.0685 61.7961 45.0945C63.5322 42.1394 64.2725 38.7167 63.9103 35.3197C63.5481 31.9228 62.1022 28.727 59.7809 26.1931ZM35.4009 59.8159C32.5576 59.8198 29.8034 58.8373 27.62 57.0402C27.7184 56.9872 27.8911 56.8938 28.0036 56.8257L40.9186 49.465C41.2428 49.283 41.5119 49.0191 41.6985 48.7005C41.885 48.3818 41.9822 48.0199 41.9799 47.6519V29.6867L47.4388 32.7968C47.4674 32.8108 47.4921 32.8317 47.5106 32.8574C47.5291 32.8832 47.5409 32.9131 47.5449 32.9444V47.8223C47.5408 51 46.2605 54.0466 43.9842 56.2946C41.708 58.5427 38.6215 59.8089 35.4009 59.8159ZM9.28451 48.8102C7.86027 46.3821 7.34696 43.5371 7.83445 40.7732C7.93035 40.83 8.09786 40.9309 8.21806 40.999L21.1331 48.3597C21.4549 48.5453 21.821 48.6431 22.1938 48.6431C22.5665 48.6431 22.9326 48.5453 23.2544 48.3597L39.0223 39.3765V45.5966C39.0241 45.6284 39.0179 45.6601 39.0043 45.6889C38.9907 45.7178 38.9701 45.7428 38.9443 45.7619L25.8886 53.1996C23.096 54.7865 19.7795 55.2156 16.6666 54.3927C13.5538 53.5698 10.8989 51.5621 9.28451 48.8102ZM5.88697 20.9911C7.30503 18.5598 9.54481 16.6982 12.214 15.7324C12.214 15.8421 12.2076 16.0364 12.2076 16.1714V30.8929C12.2054 31.2605 12.3024 31.6222 12.4887 31.9406C12.675 32.259 12.9439 32.5227 13.2677 32.7047L29.0355 41.6866L23.5767 44.7967C23.5497 44.8142 23.5188 44.8249 23.4867 44.8277C23.4546 44.8306 23.4222 44.8256 23.3926 44.8131L10.3356 37.3691C7.54792 35.7762 5.51415 33.1576 4.68022 30.0874C3.84629 27.0172 4.28026 23.7461 5.88697 20.9911ZM50.7366 31.289L34.9687 22.3058L40.4276 19.197C40.4545 19.1795 40.4854 19.1688 40.5176 19.166C40.5497 19.1631 40.582 19.1681 40.6117 19.1806L53.6686 26.6182C55.669 27.7583 57.2987 29.4371 58.3671 31.4581C59.4354 33.479 59.8982 35.7584 59.7011 38.0295C59.504 40.3005 58.6552 42.4691 57.2542 44.2814C55.8532 46.0937 53.9579 47.4747 51.7902 48.2626C51.7902 48.1516 51.7902 47.9573 51.7902 47.8223V33.1008C51.7933 32.7338 51.6973 32.3725 51.5121 32.0541C51.3269 31.7357 51.0593 31.4717 50.7366 31.289ZM56.1698 23.2205C56.0739 23.1625 55.9064 23.0628 55.7862 22.9947L42.8712 15.634C42.5493 15.4486 42.1832 15.351 41.8105 15.351C41.4378 15.351 41.0717 15.4486 40.7498 15.634L24.982 24.6172V18.3971C24.9802 18.3653 24.9864 18.3336 25 18.3048C25.0136 18.2759 25.0342 18.2509 25.06 18.2318L38.1157 10.8004C40.1158 9.66245 42.403 9.11001 44.7096 9.20771C47.0163 9.30542 49.2471 10.0492 51.141 11.3521C53.035 12.655 54.5137 14.4631 55.4042 16.5649C56.2948 18.6667 56.5603 20.9753 56.1698 23.2205ZM22.0141 34.307L16.554 31.1969C16.5254 31.1828 16.5007 31.162 16.4822 31.1363C16.4637 31.1105 16.4519 31.0806 16.4479 31.0493V16.1714C16.4494 13.8927 17.1087 11.6616 18.3486 9.73913C19.5886 7.8167 21.3579 6.28254 23.4494 5.31623C25.5409 4.34991 27.8681 3.99142 30.1586 4.28272C32.4491 4.57402 34.6082 5.50305 36.383 6.96108C36.2845 7.01407 36.1132 7.10743 35.9994 7.17556L23.0844 14.5363C22.7603 14.718 22.4912 14.9817 22.3047 15.3001C22.1181 15.6186 22.0209 15.9803 22.023 16.3481L22.0141 34.307ZM24.9794 27.9985L32.0021 23.9965L39.0248 27.996V35.9977L32.0021 39.9972L24.9794 35.9977V27.9985Z" fill="black"/>
</svg>
