<svg width="64" height="64" viewBox="0 0 64 64" fill="#f4f4f7"
    xmlns="http://www.w3.org/2000/svg">
    <path d="M62.902 23.7198C67.475 40.7865 57.3468 58.329 40.2802 62.902C23.2135 67.475 5.67105 57.3468 1.09804 40.2802C-3.47496 23.2135 6.65317 5.67105 23.7198 1.09804C40.7865 -3.47496 58.329 6.65317 62.902 23.7198Z" fill="url(#paint0_linear)"/>
    <circle cx="32" cy="32" r="29.9926" fill="url(#paint1_linear)"/>
    <rect x="30.063" y="13.2546" width="3.87404" height="37.3657" rx="1.93702" fill="white"/>
    <rect x="39.0607" y="18.1909" width="3.87404" height="27.4932" rx="1.93702" fill="white"/>
    <rect x="21.0652" y="18.1909" width="3.87404" height="27.4932" rx="1.93702" fill="white"/>
    <rect x="48.0585" y="23.5021" width="3.87404" height="16.8708" rx="1.93702" fill="white"/>
    <rect x="12.0674" y="23.5021" width="3.87404" height="16.8708" rx="1.93702" fill="white"/>
    <defs>
        <linearGradient id="paint0_linear" x1="23.7198" y1="1.09804" x2="40.2802" y2="62.902" gradientUnits="userSpaceOnUse">
            <stop stop-color="white"/>
            <stop offset="1" stop-color="#959595"/>
        </linearGradient>
        <linearGradient id="paint1_linear" x1="32" y1="2.00745" x2="32" y2="61.9926" gradientUnits="userSpaceOnUse">
            <stop stop-color="#0795D7"/>
            <stop offset="1" stop-color="#6A2FA0"/>
        </linearGradient>
    </defs>
</svg>
