<svg width="64" height="64" viewBox="0 0 64 64" fill="#f4f4f7"
    xmlns="http://www.w3.org/2000/svg">
    <path d="M14.6286 31.0856L0 19.1517V50.2856C0 53.315 2.45603 55.7713 5.48571 55.7713H14.6286V31.0856Z" fill="#4285F4"/>
    <path d="M14.6286 31.0857V12.6098L10.7884 9.65173C9.61384 8.72941 8.16362 8.22852 6.67009 8.22852C2.98638 8.22852 0 11.2151 0 14.8982V19.1517L14.6286 31.0857Z" fill="#C5221E"/>
    <path d="M49.3714 31.0856L64 19.1517V50.2854C64 53.3149 61.544 55.7711 58.5143 55.7711H49.3714V31.0856Z" fill="#34A853"/>
    <path d="M49.3714 31.0857V12.6097L53.2116 9.65173C54.3862 8.72941 55.8364 8.22852 57.3299 8.22852C61.0136 8.22852 64 11.2151 64 14.8982V19.1518L49.3714 31.0857Z" fill="#FBBC04"/>
    <path d="M14.6286 30.9517V12.6097L32 25.9901L49.3714 12.6097V30.9517L32.0868 44.5178L32 44.4071L31.9132 44.5178L14.6286 30.9517Z" fill="#EA4335"/>
</svg>
