<svg width="64" height="64" viewBox="0 0 64 64" fill="none" xmlns="http://www.w3.org/2000/svg">
<path d="M16 0C7.16344 0 0 7.16344 0 16V48C0 56.8366 7.16344 64 16 64H32L64 32V16C64 7.16344 56.8366 0 48 0H16Z" fill="url(#paint0_radial_3840_201591)"/>
<path d="M29.9325 45.3929L32 64L64 32L45.393 29.9325C36.4762 28.9418 28.9418 36.4762 29.9325 45.3929Z" fill="url(#paint1_linear_3840_201591)"/>
<path d="M64 32L48 32C39.1634 32 32 39.1634 32 48L32 64L64 32Z" fill="url(#paint2_linear_3840_201591)"/>
<defs>
<radialGradient id="paint0_radial_3840_201591" cx="0" cy="0" r="1" gradientUnits="userSpaceOnUse" gradientTransform="rotate(45) scale(90.5097)">
<stop stop-color="#AFBFCF"/>
<stop offset="1" stop-color="#7894AE"/>
</radialGradient>
<linearGradient id="paint1_linear_3840_201591" x1="48.5" y1="47.375" x2="34" y2="32.875" gradientUnits="userSpaceOnUse">
<stop stop-opacity="0.4"/>
<stop offset="0.984375" stop-opacity="0.08"/>
</linearGradient>
<linearGradient id="paint2_linear_3840_201591" x1="48" y1="48" x2="32" y2="31" gradientUnits="userSpaceOnUse">
<stop stop-color="#ACC4DA"/>
<stop offset="1" stop-color="#F7F8FE"/>
</linearGradient>
</defs>
</svg>
