<svg width="64" height="64" viewBox="0 0 64 64" fill="none" xmlns="http://www.w3.org/2000/svg">
<circle cx="32" cy="32" r="32" fill="#231E1B"/>
<path fill-rule="evenodd" clip-rule="evenodd" d="M32.0247 2C15.4488 2 2.04901 15.3998 2.04901 31.9757C2.04901 45.2266 10.6348 56.4427 22.5457 60.413C24.0345 60.7108 24.5804 59.7678 24.5804 58.9738C24.5804 58.279 24.5308 55.8968 24.5308 53.4153C16.1932 55.202 14.4562 49.8421 14.4562 49.8421C13.1162 46.3681 11.1311 45.4747 11.1311 45.4747C8.40148 43.6385 11.3296 43.6385 11.3296 43.6385C14.3569 43.837 15.945 46.7155 15.945 46.7155C18.625 51.2813 22.9427 49.991 24.6797 49.1969C24.9278 47.2614 25.7219 45.9214 26.5656 45.177C19.9153 44.4822 12.9177 41.9015 12.9177 30.3876C12.9177 27.1121 14.1088 24.4322 15.9947 22.3478C15.6969 21.6033 14.6547 18.5264 16.2924 14.4072C16.2924 14.4072 18.8235 13.6131 24.5308 17.4842C26.913 16.839 29.4937 16.4916 32.0247 16.4916C34.5558 16.4916 37.1365 16.839 39.5187 17.4842C45.226 13.6131 47.757 14.4072 47.757 14.4072C49.3948 18.5264 48.3526 21.6033 48.0548 22.3478C49.9903 24.4322 51.1318 27.1121 51.1318 30.3876C51.1318 41.9015 44.1342 44.4325 37.4343 45.177C38.5261 46.1199 39.4691 47.9066 39.4691 50.7354C39.4691 54.7553 39.4194 57.9812 39.4194 58.9738C39.4194 59.7678 39.9653 60.7108 41.4542 60.413C53.3651 56.4427 61.9509 45.2266 61.9509 31.9757C62.0005 15.3998 48.5511 2 32.0247 2Z" fill="white"/>
<path d="M13.414 45.0281C13.3644 45.177 13.1162 45.2266 12.9177 45.1273C12.7192 45.0281 12.5703 44.8296 12.6696 44.6807C12.7192 44.5318 12.9673 44.4822 13.1658 44.5814C13.3644 44.6807 13.4636 44.8792 13.414 45.0281Z" fill="white"/>
<path d="M14.6051 46.3681C14.4562 46.517 14.1584 46.4177 14.0095 46.2192C13.811 46.0207 13.7614 45.7229 13.9103 45.574C14.0592 45.4251 14.3073 45.5244 14.5058 45.7229C14.7043 45.971 14.754 46.2688 14.6051 46.3681Z" fill="white"/>
<path d="M15.7962 48.1051C15.5976 48.254 15.2999 48.1051 15.151 47.8569C14.9525 47.6088 14.9525 47.2614 15.151 47.1621C15.3495 47.0132 15.6473 47.1621 15.7962 47.4103C15.9947 47.6584 15.9947 47.9562 15.7962 48.1051Z" fill="white"/>
<path d="M17.4339 49.7925C17.285 49.991 16.9376 49.9414 16.6398 49.6932C16.3917 49.4451 16.2924 49.0977 16.491 48.9488C16.6398 48.7503 16.9872 48.7999 17.285 49.048C17.5332 49.2466 17.5828 49.594 17.4339 49.7925Z" fill="white"/>
<path d="M19.6672 50.7354C19.6176 50.9835 19.2702 51.0828 18.9228 50.9835C18.5754 50.8843 18.3769 50.5865 18.4265 50.388C18.4761 50.1398 18.8235 50.0406 19.1709 50.1398C19.5183 50.2391 19.7168 50.4872 19.6672 50.7354Z" fill="white"/>
<path d="M22.099 50.9339C22.099 51.182 21.8012 51.3806 21.4538 51.3806C21.1064 51.3806 20.8087 51.182 20.8087 50.9339C20.8087 50.6858 21.1064 50.4872 21.4538 50.4872C21.8012 50.4872 22.099 50.6858 22.099 50.9339Z" fill="white"/>
<path d="M24.3819 50.5368C24.4316 50.785 24.1834 51.0331 23.836 51.0828C23.4886 51.1324 23.1908 50.9835 23.1412 50.7354C23.0916 50.4872 23.3397 50.2391 23.6871 50.1894C24.0345 50.1398 24.3323 50.2887 24.3819 50.5368Z" fill="white"/>
<path fill-rule="evenodd" clip-rule="evenodd" d="M32 62C48.5685 62 62 48.5685 62 32C62 15.4315 48.5685 2 32 2C15.4315 2 2 15.4315 2 32C2 48.5685 15.4315 62 32 62ZM32 64C49.6731 64 64 49.6731 64 32C64 14.3269 49.6731 0 32 0C14.3269 0 0 14.3269 0 32C0 49.6731 14.3269 64 32 64Z" fill="#231E1B"/>
</svg>
