<svg width="64" height="64" viewBox="0 0 64 64" fill="#f4f4f7"
    xmlns="http://www.w3.org/2000/svg">
    <path d="M2 18C2 9.16344 9.16344 2 18 2H46C54.8366 2 62 9.16344 62 18V46C62 54.8366 54.8366 62 46 62H18C9.16344 62 2 54.8366 2 46V18Z" fill="url(#paint0_radial)"/>
    <mask id="mask0" mask-type="alpha" maskUnits="userSpaceOnUse" x="2" y="2" width="60" height="60">
        <path d="M2 18C2 9.16344 9.16344 2 18 2H46C54.8366 2 62 9.16344 62 18V46C62 54.8366 54.8366 62 46 62H18C9.16344 62 2 54.8366 2 46V18Z" fill="url(#paint1_radial)"/>
    </mask>
    <g mask="url(#mask0)">
        <path opacity="0.04" fill-rule="evenodd" clip-rule="evenodd" d="M33 17V31L62 31V33L33 33V46L62 46V48L33 48V62H31V48L2.00002 48V46L31 46V33L2.00002 33V31L31 31V17H33Z" fill="black"/>
        <rect x="2" y="2" width="60" height="15" fill="url(#paint2_radial)"/>
    </g>
    <path opacity="0.08" d="M2 45V46C2 54.8366 9.16344 62 18 62H46C54.8366 62 62 54.8366 62 46V45C62 53.8366 54.8366 61 46 61H18C9.16344 61 2 53.8366 2 45Z" fill="black"/>
    <defs>
        <radialGradient id="paint0_radial" cx="0" cy="0" r="1" gradientUnits="userSpaceOnUse" gradientTransform="translate(2 0.630708) rotate(45.6464) scale(85.8265 85.4791)">
            <stop stop-color="#E8E9EF"/>
            <stop offset="1" stop-color="#DEDFE5"/>
        </radialGradient>
        <radialGradient id="paint1_radial" cx="0" cy="0" r="1" gradientUnits="userSpaceOnUse" gradientTransform="translate(2 0.630708) rotate(45.6464) scale(85.8265 85.4791)">
            <stop stop-color="#E8E9EF"/>
            <stop offset="1" stop-color="#DEDFE5"/>
        </radialGradient>
        <radialGradient id="paint2_radial" cx="0" cy="0" r="1" gradientUnits="userSpaceOnUse" gradientTransform="translate(2 2) rotate(14.0362) scale(61.8466 247.386)">
            <stop stop-color="#6D7176"/>
            <stop offset="1" stop-color="#484A4F"/>
        </radialGradient>
    </defs>
</svg>
