<svg width="64" height="64" viewBox="0 0 64 64" fill="none" xmlns="http://www.w3.org/2000/svg">
    <rect x="16" y="16" width="32" height="32" fill="white"/>
    <rect x="48" y="16" width="16" height="32" fill="#FBBC04"/>
    <path d="M0 48H16V64H6C2.68629 64 0 61.3137 0 58V48Z" fill="#188038"/>
    <path d="M48 0H58C61.3137 0 64 2.68629 64 6V16H48V0Z" fill="#1967D2"/>
    <rect x="16" y="48" width="32" height="16" fill="#34A853"/>
    <path fill-rule="evenodd" clip-rule="evenodd" d="M6 0C2.68629 0 0 2.68629 0 6V48H16V16H48V0H16H6Z" fill="#4285F4"/>
    <path d="M64 48H48V64L64 48Z" fill="#F72A25"/>
    <path d="M26.614 41.2483C25.3948 41.2483 24.3058 41.0382 23.3469 40.618C22.3941 40.1978 21.6394 39.6148 21.0831 38.8691C20.5327 38.1174 20.2367 37.2474 20.1953 36.259H22.983C23.0185 36.7976 23.199 37.2651 23.5245 37.6617C23.8559 38.0523 24.288 38.3541 24.8207 38.5672C25.3533 38.7803 25.9452 38.8868 26.5962 38.8868C27.3124 38.8868 27.9457 38.7625 28.4961 38.5139C29.0524 38.2654 29.4875 37.9191 29.8011 37.4752C30.1148 37.0254 30.2717 36.5075 30.2717 35.9216C30.2717 35.312 30.1148 34.7764 29.8011 34.3147C29.4934 33.8472 29.0406 33.4802 28.4428 33.2139C27.851 32.9475 27.1348 32.8144 26.2944 32.8144H24.7585V30.5771H26.2944C26.9691 30.5771 27.561 30.4558 28.07 30.2132C28.5849 29.9705 28.9873 29.6331 29.2773 29.2011C29.5674 28.7631 29.7124 28.2512 29.7124 27.6652C29.7124 27.103 29.5851 26.6147 29.3306 26.2004C29.082 25.7802 28.7269 25.4517 28.2653 25.2149C27.8095 24.9782 27.271 24.8598 26.6495 24.8598C26.0576 24.8598 25.5043 24.9693 24.9893 25.1883C24.4804 25.4014 24.0661 25.7091 23.7464 26.1116C23.4268 26.5081 23.2552 26.9846 23.2315 27.5409H20.5771C20.6067 26.5584 20.8967 25.6943 21.4471 24.9486C22.0034 24.2029 22.7373 23.6199 23.6488 23.1997C24.5603 22.7794 25.5723 22.5693 26.685 22.5693C27.851 22.5693 28.8571 22.7972 29.7035 23.2529C30.5558 23.7027 31.2127 24.3035 31.6744 25.0551C32.1419 25.8068 32.3728 26.6295 32.3668 27.5232C32.3728 28.5412 32.0887 29.4053 31.5146 30.1155C30.9464 30.8257 30.1888 31.3022 29.2418 31.5448V31.6869C30.4492 31.8704 31.3844 32.3498 32.0472 33.1251C32.716 33.9004 33.0475 34.8622 33.0415 36.0104C33.0475 37.0106 32.7693 37.9073 32.207 38.7004C31.6507 39.4935 30.8902 40.1179 29.9254 40.5736C28.9607 41.0234 27.8569 41.2483 26.614 41.2483Z" fill="#4285F4"/>
    <path d="M42.2955 22.8179V40.9997H39.5433V25.57H39.4368L35.0866 28.411V25.7831L39.6232 22.8179H42.2955Z" fill="#4285F4"/>
</svg>
