<svg width="64" height="64" viewBox="0 0 64 64" fill="none" xmlns="http://www.w3.org/2000/svg">
<path d="M39.5485 0.042137C36.3765 0.0502655 33.3368 1.31392 31.0939 3.55683L3.51472 31.136C-1.17158 35.8223 -1.17157 43.4203 3.51473 48.1066L15.8934 60.4853C20.5797 65.1716 28.1777 65.1716 32.864 60.4853L33.6587 59.6905C34.8173 58.532 34.832 56.6582 33.6919 55.4816C32.5261 54.2784 30.6008 54.2632 29.4161 55.4479L28.6213 56.2426C26.2782 58.5858 22.4792 58.5858 20.136 56.2426L7.75738 43.864C5.41423 41.5208 5.41423 37.7218 7.75737 35.3787L35.3366 7.79948C36.458 6.67802 37.9779 6.0462 39.5639 6.04213L55.9949 6.00002C57.1034 5.99718 58.0028 6.89657 58 8.00514L57.9579 24.4361C57.9538 26.0221 57.322 27.542 56.2005 28.6634L55.4479 29.4161C54.2632 30.6007 54.2784 32.5261 55.4816 33.6919C56.6582 34.832 58.532 34.8173 59.6905 33.6587L60.4432 32.9061C62.6861 30.6632 63.9497 27.6235 63.9579 24.4515L64 8.02052C64.0113 3.58623 60.4138 -0.0113371 55.9795 2.68485e-05L39.5485 0.042137Z" fill="black"/>
<path d="M45 37C45 35.3431 46.3431 34 48 34C49.6569 34 51 35.3431 51 37V45H59C60.6569 45 62 46.3431 62 48C62 49.6569 60.6569 51 59 51H51V59C51 60.6569 49.6569 62 48 62C46.3431 62 45 60.6569 45 59V51H37C35.3431 51 34 49.6569 34 48C34 46.3431 35.3431 45 37 45H45V37Z" fill="black"/>
<path d="M48.9803 20.0222C48.9803 22.7836 46.7418 25.0222 43.9803 25.0222C41.2189 25.0222 38.9803 22.7836 38.9803 20.0222C38.9803 17.2608 41.2189 15.0222 43.9803 15.0222C46.7418 15.0222 48.9803 17.2608 48.9803 20.0222Z" fill="black"/>
</svg>
