<svg width="64" height="64" viewBox="0 0 64 64" fill="#f4f4f7"
    xmlns="http://www.w3.org/2000/svg">
    <path d="M2.63918 6C1.18162 6 0 7.17874 0 8.63291V55.3671C0 56.8213 1.18162 58 2.63918 58H61.3608C62.8184 58 64 56.8213 64 55.3671V14.557C64 13.1028 62.8184 11.9241 61.3608 11.9241H25.7061C24.4733 11.9241 23.3094 11.3556 22.5515 10.3834L19.9265 7.01643C19.4265 6.37507 18.6577 6 17.8433 6H2.63918Z" fill="url(#paint0_linear)"/>
    <path opacity="0.12" d="M0 8.63291C0 7.17874 1.18162 6 2.63918 6H17.8433C18.6577 6 19.4265 6.37507 19.9265 7.01643L22.9601 10.9076C23.4601 11.549 24.2289 11.9241 25.0433 11.9241H61.3608C62.8184 11.9241 64 13.1028 64 14.557V15.2152C64 13.761 62.8184 12.5823 61.3608 12.5823H25.0433C24.2289 12.5823 23.4601 12.2072 22.9601 11.5659L19.9265 7.67466C19.4265 7.0333 18.6577 6.65823 17.8433 6.65823H2.63918C1.18162 6.65823 0 7.83696 0 9.29114V8.63291Z" fill="white"/>
    <path d="M0 51.4177H64V53.9999C64 56.2091 62.2091 57.9999 60 57.9999H4C1.79086 57.9999 0 56.2091 0 53.9999V51.4177Z" fill="url(#paint1_linear)"/>
    <path d="M0 48.7847H64V51.367C64 53.5761 62.2091 55.367 60 55.367H4C1.79086 55.367 0 53.5761 0 51.367V48.7847Z" fill="url(#paint2_linear)"/>
    <path d="M0 18.557C0 16.3479 1.79086 14.557 4 14.557H60C62.2091 14.557 64 16.3479 64 18.557V48.7342C64 50.9434 62.2091 52.7342 60 52.7342H4C1.79086 52.7342 0 50.9434 0 48.7342V18.557Z" fill="url(#paint3_linear)"/>
    <path opacity="0.28" d="M0 49.443V50.1012C0 51.5554 1.18162 52.7341 2.63918 52.7341H61.3608C62.8184 52.7341 64 51.5554 64 50.1012V49.443C64 50.8972 62.8184 52.0759 61.3608 52.0759H2.63918C1.18162 52.0759 0 50.8972 0 49.443Z" fill="#A7E8FF"/>
    <path d="M31.2436 30.1186L26.8642 22.4962C26.7063 22.6492 26.5675 22.8245 26.4526 23.0191L18.1627 37.0637C17.9294 37.4589 17.8134 37.9026 17.8145 38.346C17.8155 38.7888 17.9334 39.2314 18.168 39.6251L21.3345 44.9391C21.5592 45.3163 21.8741 45.6199 22.2421 45.8291L31.2436 30.1186Z" fill="url(#paint4_linear)"/>
    <path d="M22.8776 46.0817L27.3098 38.346H45.5258C45.5264 38.7386 45.4352 39.1314 45.2522 39.4905L41.3023 46.1191C41.2903 46.1391 41.2689 46.1516 41.2457 46.1519H23.456C23.2587 46.1514 23.0648 46.1274 22.8776 46.0817Z" fill="url(#paint5_linear)"/>
    <path d="M35.8456 22.0865C35.4943 21.8997 35.0978 21.7975 34.6872 21.7975H28.585C28.1947 21.7975 27.8173 21.8898 27.4792 22.0594L36.3367 37.4762H45.3691C45.3169 37.3355 45.2517 37.1984 45.1734 37.0668L36.8155 23.012C36.5784 22.6133 36.2405 22.2965 35.8456 22.0865Z" fill="url(#paint6_linear)"/>
    <path d="M45.4879 37.9151C45.4623 38.0611 45.4237 38.2053 45.3721 38.346H45.5258C45.5255 38.2018 45.5129 38.0576 45.4879 37.9151Z" fill="url(#paint7_linear)"/>
    <path d="M45.2522 39.4905L41.3023 46.1191L41.3212 46.1519L45.1769 39.6273C45.1906 39.6042 45.2039 39.5808 45.2168 39.5573L45.2369 39.5198L45.2522 39.4905Z" fill="url(#paint8_linear)"/>
    <defs>
        <linearGradient id="paint0_linear" x1="32" y1="6" x2="32" y2="58" gradientUnits="userSpaceOnUse">
            <stop stop-color="#A7E8FF"/>
            <stop offset="1" stop-color="#A3E4FF"/>
        </linearGradient>
        <linearGradient id="paint1_linear" x1="32" y1="51.4177" x2="32" y2="57.9999" gradientUnits="userSpaceOnUse">
            <stop stop-color="#5CBEE7"/>
            <stop offset="1" stop-color="#82D4F5"/>
        </linearGradient>
        <linearGradient id="paint2_linear" x1="32" y1="48.7847" x2="32" y2="55.367" gradientUnits="userSpaceOnUse">
            <stop stop-color="#5CBEE7"/>
            <stop offset="1" stop-color="#82D4F5"/>
        </linearGradient>
        <linearGradient id="paint3_linear" x1="32" y1="14.557" x2="32" y2="52.7342" gradientUnits="userSpaceOnUse">
            <stop stop-color="#7ED7FB"/>
            <stop offset="0.729167" stop-color="#8CDDFD"/>
            <stop offset="1" stop-color="#82D4F5"/>
        </linearGradient>
        <linearGradient id="paint4_linear" x1="31.6701" y1="21.7975" x2="31.6701" y2="46.1519" gradientUnits="userSpaceOnUse">
            <stop stop-color="#66C8F1"/>
            <stop offset="1" stop-color="#4EBDEC"/>
        </linearGradient>
        <linearGradient id="paint5_linear" x1="31.6701" y1="21.7975" x2="31.6701" y2="46.1519" gradientUnits="userSpaceOnUse">
            <stop stop-color="#66C8F1"/>
            <stop offset="1" stop-color="#4EBDEC"/>
        </linearGradient>
        <linearGradient id="paint6_linear" x1="31.6701" y1="21.7975" x2="31.6701" y2="46.1519" gradientUnits="userSpaceOnUse">
            <stop stop-color="#66C8F1"/>
            <stop offset="1" stop-color="#4EBDEC"/>
        </linearGradient>
        <linearGradient id="paint7_linear" x1="31.6701" y1="21.7975" x2="31.6701" y2="46.1519" gradientUnits="userSpaceOnUse">
            <stop stop-color="#66C8F1"/>
            <stop offset="1" stop-color="#4EBDEC"/>
        </linearGradient>
        <linearGradient id="paint8_linear" x1="31.6701" y1="21.7975" x2="31.6701" y2="46.1519" gradientUnits="userSpaceOnUse">
            <stop stop-color="#66C8F1"/>
            <stop offset="1" stop-color="#4EBDEC"/>
        </linearGradient>
    </defs>
</svg>
