<svg width="64" height="64" viewBox="0 0 64 64" fill="none" xmlns="http://www.w3.org/2000/svg">
<path d="M50.0814 33.7057C42.3935 33.7057 36.1624 39.8153 36.1624 47.3524C36.1624 54.8898 42.3935 61 50.0814 61C57.7684 61 64 54.8898 64 47.3524C64 39.8153 57.7684 33.7057 50.0814 33.7057ZM13.9188 33.7066C6.23189 33.7066 0 39.8153 0 47.3531C0 54.8898 6.23189 61 13.9188 61C21.6062 61 27.8384 54.8898 27.8384 47.3531C27.8384 39.8153 21.6062 33.7066 13.9188 33.7066ZM45.9185 16.6467C45.9185 24.1837 39.6873 30.2948 32.0004 30.2948C24.3127 30.2948 18.0813 24.1837 18.0813 16.6467C18.0813 9.11016 24.3127 3 32.0004 3C39.6873 3 45.9185 9.11016 45.9185 16.6467Z" fill="url(#paint0_radial)"/>
<defs>
<radialGradient id="paint0_radial" cx="0" cy="0" r="1" gradientUnits="userSpaceOnUse" gradientTransform="translate(32 34.6983) scale(42.4085 38.4327)">
<stop stop-color="#FFB900"/>
<stop offset="0.6" stop-color="#F95D8F"/>
<stop offset="0.9991" stop-color="#F95353"/>
</radialGradient>
</defs>
</svg>
