<svg width="64" height="64" viewBox="0 0 64 64" fill="none" xmlns="http://www.w3.org/2000/svg">
<g clip-path="url(#clip0)">
<path d="M49.9048 0H14.0952C6.31065 0 0 6.31066 0 14.0952V49.9048C0 57.6893 6.31065 64 14.0952 64H49.9048C57.6893 64 64 57.6893 64 49.9048V14.0952C64 6.31066 57.6893 0 49.9048 0Z" fill="url(#paint0_linear)"/>
<path d="M32 11.0789C25.7699 11.0789 19.7951 13.1403 15.3897 16.8096C10.9844 20.479 8.50953 25.4556 8.50949 30.6449C8.51517 34.0202 9.56906 37.3369 11.5687 40.2726C13.5684 43.2084 16.4459 45.6633 19.9215 47.3988C18.9958 49.4712 17.6075 51.4145 15.814 53.1483C19.292 52.5378 22.5569 51.2552 25.3545 49.4004C27.5116 49.9343 29.7497 50.2072 32 50.2109C38.2301 50.2108 44.2049 48.1494 48.6102 44.4801C53.0156 40.8107 55.4905 35.8341 55.4905 30.6449C55.4905 25.4556 53.0156 20.479 48.6102 16.8096C44.2049 13.1403 38.2301 11.0789 32 11.0789Z" fill="white"/>
</g>
<defs>
<linearGradient id="paint0_linear" x1="32.5079" y1="59.7516" x2="32.5079" y2="7.9427" gradientUnits="userSpaceOnUse">
<stop stop-color="#0CBD2A"/>
<stop offset="1" stop-color="#5BF675"/>
</linearGradient>
<clipPath id="clip0">
<rect width="64" height="64" fill="white" transform="matrix(1 0 0 -1 0 64)"/>
</clipPath>
</defs>
</svg>
