<svg width="64" height="64" viewBox="0 0 64 64" fill="none" xmlns="http://www.w3.org/2000/svg">
<path d="M37.75 0H13.3125C10.9406 0 9 1.96364 9 4.36364V59.6364C9 62.0364 10.9406 64 13.3125 64H50.6875C53.0594 64 55 62.0364 55 59.6364V17.4545L44.9375 10.1818L37.75 0Z" fill="#27A769"/>
<path d="M39.0114 16.1782L55 32.3528V17.4546L39.0114 16.1782Z" fill="url(#paint0_linear)"/>
<path d="M20.5 31.2727V52.3636H43.5V31.2727H20.5ZM30.5625 49.4545H23.375V45.8182H30.5625V49.4545ZM30.5625 43.6363H23.375V40H30.5625V43.6363ZM30.5625 37.8182H23.375V34.1818H30.5625V37.8182ZM40.625 49.4545H33.4375V45.8182H40.625V49.4545ZM40.625 43.6363H33.4375V40H40.625V43.6363ZM40.625 37.8182H33.4375V34.1818H40.625V37.8182Z" fill="#F1F1F1"/>
<path d="M37.75 0V13.0909C37.75 15.5018 39.6798 17.4545 42.0625 17.4545H55L37.75 0Z" fill="#8ED1B1"/>
<path d="M13.3125 0C10.9406 0 9 1.96364 9 4.36364V4.72727C9 2.32727 10.9406 0.363636 13.3125 0.363636H37.75V0H13.3125Z" fill="#4EB784"/>
<path d="M50.6875 63.6363H13.3125C10.9406 63.6363 9 61.6727 9 59.2727V59.6363C9 62.0363 10.9406 64 13.3125 64H50.6875C53.0594 64 55 62.0363 55 59.6363V59.2727C55 61.6727 53.0594 63.6363 50.6875 63.6363Z" fill="#158852"/>
<path d="M42.0625 17.4545C39.6798 17.4545 37.75 15.5017 37.75 13.0908V13.4545C37.75 15.8654 39.6798 17.8181 42.0625 17.8181H55V17.4545H42.0625Z" fill="#208558"/>
<defs>
<linearGradient id="paint0_linear" x1="47.0066" y1="17.567" x2="47.0066" y2="32.355" gradientUnits="userSpaceOnUse">
<stop stop-color="#1E8E5A"/>
<stop offset="1" stop-color="#1E8E5A" stop-opacity="0.02"/>
</linearGradient>
</defs>
</svg>
