<svg width="64" height="64" viewBox="0 0 64 64" fill="none" xmlns="http://www.w3.org/2000/svg">
<path d="M0.816465 44.9924L8.12967 57.2115C8.6486 58.0785 9.37589 58.7769 10.2257 59.2579L20.1279 42.0513H1.69277e-05C0.0024823 43.0696 0.274709 44.0872 0.816465 44.9924Z" fill="#1967D2"/>
<path d="M41.6434 4.66466C40.832 4.23506 39.9164 4 38.968 4H24.875C23.9735 4 23.1017 4.21239 22.3209 4.60226L32.0134 21.3983L41.6434 4.66466Z" fill="#188038"/>
<path d="M20.1279 42.0513L32.0134 21.3983L22.3209 4.60229C21.3513 5.08647 20.5219 5.84436 19.9499 6.80914L0.804208 39.1029C0.265532 40.0115 -0.00245369 41.0317 1.69267e-05 42.0513H20.1279Z" fill="#34A853"/>
<path d="M64 42.0513C64.0014 42.9541 63.7908 43.8572 63.3681 44.6828L54.2458 59.9245L43.9317 42.0513L64 42.0513Z" fill="#EA4335"/>
<path d="M13.0293 60C12.0301 59.9977 11.0678 59.7345 10.2257 59.2579L20.1279 42.0513H43.9317L54.2458 59.9245C54.2182 59.9707 54.1686 59.9992 54.115 60H13.0293Z" fill="#4285F4"/>
<path d="M43.8835 6.79296C43.3359 5.87615 42.5554 5.14753 41.6434 4.66467L32.0134 21.3983L43.9317 42.0513H64C63.9984 41.0331 63.727 40.0154 63.1862 39.1099L43.8835 6.79296Z" fill="#FBBC04"/>
<path d="M63.3679 44.6831L54.2458 59.9245L54.2894 60L63.1943 44.9976C63.2557 44.8941 63.3136 44.7892 63.3679 44.6831Z" fill="#FBBC04"/>
</svg>
