<svg width="64" height="64" viewBox="0 0 64 64" fill="none" xmlns="http://www.w3.org/2000/svg">
<path d="M0 16C0 7.16344 7.16344 0 16 0H48C56.8366 0 64 7.16344 64 16V48C64 56.8366 56.8366 64 48 64H16C7.16344 64 0 56.8366 0 48V16Z" fill="url(#paint0_radial)"/>
<mask id="path-2-inside-1" fill="white">
<rect x="25" y="25" width="14" height="14" rx="3"/>
</mask>
<rect x="25" y="25" width="14" height="14" rx="3" stroke="white" stroke-width="10" mask="url(#path-2-inside-1)"/>
<rect opacity="0.88" x="12" y="28" width="8" height="8" rx="4" fill="white"/>
<rect opacity="0.88" x="44" y="28" width="8" height="8" rx="4" fill="white"/>
<rect opacity="0.88" x="28" y="12" width="8" height="8" rx="4" fill="white"/>
<rect opacity="0.88" x="28" y="44" width="8" height="8" rx="4" fill="white"/>
<rect opacity="0.64" x="13" y="45" width="6" height="6" rx="3" fill="white"/>
<rect x="45" y="45" width="6" height="6" rx="3" fill="white"/>
<rect x="13" y="13" width="6" height="6" rx="3" fill="white"/>
<defs>
<radialGradient id="paint0_radial" cx="0" cy="0" r="1" gradientUnits="userSpaceOnUse" gradientTransform="rotate(45) scale(90.5097)">
<stop stop-color="#27C8D7"/>
<stop offset="1" stop-color="#7894AE"/>
</radialGradient>
</defs>
</svg>
