<svg width="64" height="64" viewBox="0 0 64 64" fill="none" xmlns="http://www.w3.org/2000/svg">
<path d="M1.38015 31.7255C1.38015 37.0981 2.79974 42.3922 5.48118 47.0197L1.14355 62.8628L17.4688 58.6275C21.9641 61.0589 27.0116 62.353 32.1773 62.353C49.1334 62.353 62.935 48.6275 62.935 31.7647C62.935 23.6079 59.7409 15.9216 53.9443 10.1176C48.1476 4.35291 40.4188 1.13721 32.1773 1.13721C15.1817 1.13721 1.38015 14.8627 1.38015 31.7255Z" fill="url(#paint0_linear)"/>
<path d="M0.276029 31.7256C0.276029 37.2943 1.73505 42.7453 4.53479 47.5688L0 64.0002L16.8773 59.6081C21.5304 62.1179 26.775 63.4512 32.0984 63.4512C49.6461 63.4512 63.9602 49.2551 63.9602 31.7649C63.9602 23.2943 60.6478 15.3335 54.654 9.33345C48.6208 3.33344 40.6554 0.0393066 32.0984 0.0393066C14.5902 0.0393066 0.276029 14.2746 0.276029 31.7256ZM10.3314 46.7453L9.7005 45.7649C7.05849 41.5688 5.63891 36.7453 5.63891 31.7649C5.63891 17.255 17.5082 5.45108 32.1378 5.45108C39.1963 5.45108 45.8605 8.19619 50.8685 13.1766C55.8765 18.157 58.6368 24.7845 58.6368 31.8041C58.6368 46.3139 46.7674 58.1179 32.1378 58.1179C27.3664 58.1179 22.7134 56.863 18.6518 54.4316L17.666 53.8433L7.64999 56.4708L10.3314 46.7453Z" fill="url(#paint1_linear)"/>
<path fill-rule="evenodd" clip-rule="evenodd" d="M24.1724 18.4708C23.5809 17.1375 22.95 17.1375 22.3979 17.0982C21.9247 17.059 21.4121 17.0982 20.86 17.0982C20.3474 17.0982 19.4799 17.2943 18.7306 18.0786C17.9814 18.8629 15.9309 20.7845 15.9309 24.6669C15.9309 28.5492 18.7701 32.314 19.1644 32.863C19.5587 33.3728 24.685 41.6473 32.7688 44.8238C39.5118 47.4512 40.8525 46.9414 42.3115 46.8238C43.7706 46.7062 47.0041 44.9022 47.6744 43.0591C48.3448 41.2159 48.3448 39.6081 48.1476 39.2944C47.9504 38.9806 47.3984 38.7846 46.6097 38.3532C45.8211 37.961 41.9172 36.0395 41.168 35.7649C40.4188 35.4904 39.9061 35.3728 39.3935 36.1571C38.8809 36.9414 37.343 38.7453 36.8698 39.2551C36.3966 39.765 35.9234 39.8434 35.1347 39.4512C34.3461 39.0591 31.7829 38.2355 28.7466 35.5297C26.3806 33.412 24.7639 30.8238 24.3301 30.0394C23.8569 29.2551 24.2907 28.8238 24.685 28.4316C25.0399 28.0787 25.4737 27.4904 25.868 27.0591C26.2623 26.5885 26.3806 26.2747 26.6567 25.7257C26.9327 25.2159 26.775 24.7453 26.5778 24.3532C26.4595 23.961 24.8822 20.0394 24.1724 18.4708Z" fill="white"/>
<path fill-rule="evenodd" clip-rule="evenodd" d="M6.25589 47.3468L2.27984 61.7536L17.0832 57.9012L17.6369 58.1999C22.0574 60.5842 27.041 61.8512 32.0984 61.8512C48.772 61.8512 62.3602 48.3618 62.3602 31.7649C62.3602 23.7218 59.2187 16.1679 53.5242 10.4663C47.7911 4.7657 40.2321 1.63931 32.0984 1.63931C15.4668 1.63931 1.87603 15.1653 1.87603 31.7256C1.87603 37.0136 3.26115 42.1873 5.91858 46.7656L6.25589 47.3468ZM0 64.0002L4.53479 47.5688C1.73505 42.7453 0.276029 37.2943 0.276029 31.7256C0.276029 14.2746 14.5902 0.0393066 32.0984 0.0393066C40.6554 0.0393066 48.6208 3.33344 54.654 9.33345C60.6478 15.3335 63.9602 23.2943 63.9602 31.7649C63.9602 49.2551 49.6461 63.4512 32.0984 63.4512C26.775 63.4512 21.5304 62.1179 16.8773 59.6081L0 64.0002Z" fill="#DDDEE5"/>
<defs>
<linearGradient id="paint0_linear" x1="31.9885" y1="62.8979" x2="31.9885" y2="46.5677" gradientUnits="userSpaceOnUse">
<stop stop-color="#20B038"/>
<stop offset="1" stop-color="#60D66A"/>
</linearGradient>
<linearGradient id="paint1_linear" x1="31.9949" y1="63.9996" x2="31.9949" y2="47.0841" gradientUnits="userSpaceOnUse">
<stop stop-color="#F9F9F9"/>
<stop offset="1" stop-color="white"/>
</linearGradient>
</defs>
</svg>
