<svg width="64" height="64" viewBox="0 0 64 64" fill="none" xmlns="http://www.w3.org/2000/svg">
    <path d="M23.5749 30.2625C19.8624 30.2625 16.8499 27.2499 16.8499 23.5374V6.72495C16.8499 3.01245 19.8624 -5.34058e-05 23.5749 -5.34058e-05C27.2874 -5.34058e-05 30.2999 3.01245 30.2999 6.72495V23.5374C30.2999 27.2499 27.2874 30.2625 23.5749 30.2625Z" fill="#E91E63"/>
    <path d="M0.0500415 23.5375C0.0500415 19.825 3.06254 16.8125 6.77504 16.8125C10.4875 16.8125 13.5 19.825 13.5 23.5375V30.2625H6.77504C3.06254 30.2625 0.0500415 27.2499 0.0500415 23.5375Z" fill="#E91E63"/>
    <path d="M23.5874 64C23.5874 64 23.5749 64 23.5874 64C19.8624 64 16.8499 60.9875 16.8499 57.275C16.8499 53.5625 19.8624 50.55 23.5749 50.55H30.2999V57.275V57.2875C30.2999 61 27.2874 64 23.5874 64Z" fill="#00BCD4"/>
    <path d="M6.725 33.6749H23.575C27.2875 33.6749 30.3 36.6874 30.3 40.4C30.3 44.1125 27.2875 47.125 23.575 47.125H6.725C3.0125 47.1375 0 44.125 0 40.4C0 36.6749 3.0125 33.6749 6.725 33.6749Z" fill="#00BCD4"/>
    <path d="M57.2125 47.1375C53.5 47.1375 50.5 44.1374 50.5 40.4249V40.4124V33.6874H57.225C60.9375 33.6874 63.95 36.6999 63.95 40.4124C63.95 44.125 60.9375 47.1375 57.2125 47.1375Z" fill="#4CAF50"/>
    <path d="M33.7 57.275V40.4125C33.7 36.7 36.7125 33.6875 40.425 33.6875C44.1375 33.6875 47.15 36.7 47.15 40.4125V57.275C47.15 60.9875 44.1375 64 40.425 64C36.7125 64 33.7 60.9875 33.7 57.275Z" fill="#4CAF50"/>
    <path d="M47.15 6.72494C47.15 10.4374 44.1375 13.45 40.425 13.45H33.7V6.72494C33.7 3.01244 36.7125 0.0124369 40.425 0.0124369C44.1375 -6.29425e-05 47.15 3.01244 47.15 6.72494Z" fill="#FF9800"/>
    <path d="M57.275 30.2625H40.425C36.7125 30.2625 33.7 27.2499 33.7 23.5375C33.7 19.825 36.7125 16.8125 40.425 16.8125H57.275C60.9875 16.8125 64 19.825 64 23.5375C64 27.2499 60.9875 30.2625 57.275 30.2625Z" fill="#FF9800"/>
</svg>
