<svg width="64" height="64" viewBox="0 0 64 64" fill="#f4f4f7"
    xmlns="http://www.w3.org/2000/svg">
    <path d="M43.9803 25.0222C46.7418 25.0222 48.9803 22.7836 48.9803 20.0222C48.9803 17.2608 46.7418 15.0222 43.9803 15.0222C41.2189 15.0222 38.9803 17.2608 38.9803 20.0222C38.9803 22.7836 41.2189 25.0222 43.9803 25.0222Z" fill="black"/>
    <path fill-rule="evenodd" clip-rule="evenodd" d="M31.0939 3.55683C33.3368 1.31392 36.3765 0.0502655 39.5485 0.042137L55.9795 2.68485e-05C60.4138 -0.0113371 64.0113 3.58623 64 8.02052L63.9579 24.4515C63.9497 27.6235 62.6861 30.6632 60.4432 32.9061L32.864 60.4853C28.1777 65.1716 20.5797 65.1716 15.8934 60.4853L3.51473 48.1066C-1.17157 43.4203 -1.17158 35.8223 3.51472 31.136L31.0939 3.55683ZM56.2005 28.6634L28.6213 56.2426C26.2782 58.5858 22.4792 58.5858 20.136 56.2426L7.75738 43.864C5.41423 41.5208 5.41422 37.7218 7.75737 35.3787L35.3366 7.79948C36.458 6.67802 37.9779 6.0462 39.5639 6.04213L55.9949 6.00002C57.1034 5.99718 58.0028 6.89657 58 8.00514L57.9579 24.4361C57.9538 26.0221 57.322 27.542 56.2005 28.6634Z" fill="black"/>
</svg>
