<svg width="64" height="64" viewBox="0 0 64 64" fill="none" xmlns="http://www.w3.org/2000/svg">
<path d="M28.1078 19C28 17 29.5 16 30.9001 16H33.0999C34.5 16 36 17 35.8922 19L35.0973 33.6024C35.0428 34.6658 34.1647 35.5 33.0999 35.5H30.9001C29.8353 35.5 28.9572 34.6658 28.9027 33.6024L28.1078 19Z" fill="black"/>
<path d="M32 48.5C34.4853 48.5 36.5 46.4853 36.5 44C36.5 41.5147 34.4853 39.5 32 39.5C29.5147 39.5 27.5 41.5147 27.5 44C27.5 46.4853 29.5147 48.5 32 48.5Z" fill="black"/>
<path fill-rule="evenodd" clip-rule="evenodd" d="M64 32C64 49.6731 49.6731 64 32 64C14.3269 64 0 49.6731 0 32C0 14.3269 14.3269 0 32 0C49.6731 0 64 14.3269 64 32ZM58 32C58 46.3594 46.3594 58 32 58C17.6406 58 6 46.3594 6 32C6 17.6406 17.6406 6 32 6C46.3594 6 58 17.6406 58 32Z" fill="black"/>
</svg>
