<svg width="64" height="64" viewBox="0 0 64 64" fill="#f4f4f7"
    xmlns="http://www.w3.org/2000/svg">
    <path fill-rule="evenodd" clip-rule="evenodd" d="M55.9926 9.75C55.6742 4.34267 45.0542 0 32 0C18.9458 0 8.32579 4.34267 8.00735 9.75H8V54.75H8.06648C8.98694 59.9226 19.3507 64 32 64C44.6493 64 55.0131 59.9226 55.9335 54.75H56V9.75H55.9926ZM50 45.8646C45.6023 47.9406 39.1682 49.25 32 49.25C24.8318 49.25 18.3977 47.9406 14 45.8646V53.5196C14.0697 53.5948 14.1707 53.694 14.3132 53.8159C14.9466 54.357 16.0741 55.0483 17.8081 55.7221C21.2631 57.0647 26.253 58 32 58C37.747 58 42.7369 57.0647 46.1919 55.7221C47.9259 55.0483 49.0534 54.357 49.6868 53.8159C49.8293 53.694 49.9303 53.5948 50 53.5196V45.8646ZM14 38.7696V31.1146C18.3977 33.1906 24.8318 34.5 32 34.5C39.1682 34.5 45.6023 33.1906 50 31.1146V38.7696C49.9303 38.8448 49.8293 38.944 49.6868 39.0659C49.0534 39.607 47.9259 40.2983 46.1919 40.9721C42.7369 42.3147 37.747 43.25 32 43.25C26.253 43.25 21.2631 42.3147 17.8081 40.9721C16.0741 40.2983 14.9466 39.607 14.3132 39.0659C14.1707 38.944 14.0697 38.8448 14 38.7696ZM49.374 10.0645C48.7415 9.57142 47.7473 8.97982 46.3128 8.39424C42.8719 6.98963 37.8313 6 32 6C26.1687 6 21.1281 6.98963 17.6872 8.39424C16.2527 8.97982 15.2585 9.57142 14.626 10.0645C15.2007 10.4922 16.0795 11.0086 17.3371 11.5326C20.7861 12.9697 25.9668 14 32 14C38.0332 14 43.2139 12.9697 46.6629 11.5326C47.9205 11.0086 48.7993 10.4922 49.374 10.0645ZM50 16.6146C45.6023 18.6906 39.1682 20 32 20C24.8318 20 18.3977 18.6906 14 16.6146V24.0196C14.0697 24.0948 14.1707 24.194 14.3132 24.3159C14.9466 24.857 16.0741 25.5483 17.8081 26.2221C21.2631 27.5647 26.253 28.5 32 28.5C37.747 28.5 42.7369 27.5647 46.1919 26.2221C47.9259 25.5483 49.0534 24.857 49.6868 24.3159C49.8293 24.194 49.9303 24.0948 50 24.0196V16.6146Z" fill="black"/>
</svg>
