<svg width="64" height="65" viewBox="0 0 64 65" fill="none" xmlns="http://www.w3.org/2000/svg">
<path d="M39.5911 0.995748L7.02967 3.39368L7.01274 3.39514C5.12242 3.5588 3.49802 4.31042 2.40205 5.71412C1.35959 7.04927 1.0564 8.64278 1.0564 10.0228V45.6362C1.0564 48.0268 1.97194 49.9453 3.52707 52.0183L3.53741 52.0321L11.2098 61.9866L11.2177 61.9966C12.0436 63.0471 13.0171 63.9116 14.3611 64.402C15.614 64.8592 16.9332 64.8915 18.2225 64.83L18.2392 64.8292L56.0822 62.544L56.0962 62.543C58.0297 62.4056 59.8689 61.851 61.1486 60.398C62.4067 58.9696 62.6656 57.1842 62.6656 55.6825V15.6165C62.6656 14.4485 62.3836 13.3593 61.5225 12.3622C60.9869 11.742 60.2124 11.1803 59.5594 10.7066L59.5576 10.7053C59.4683 10.6405 59.3813 10.5774 59.2974 10.516L59.2766 10.5007L48.8783 3.19225C47.5529 2.23055 46.3158 1.45915 44.7126 1.09583C43.1992 0.752826 41.5702 0.826367 39.5911 0.995748Z" fill="white"/>
<path fill-rule="evenodd" clip-rule="evenodd" d="M13.4123 13.7908C15.2384 15.2745 15.9235 15.1613 19.3527 14.9325L51.6805 12.9913C52.3662 12.9913 51.796 12.3073 51.5674 12.1937L46.1984 8.31231C45.1696 7.51361 43.7991 6.59894 41.1722 6.82775L9.86906 9.1109C8.72743 9.22409 8.49942 9.7949 8.95404 10.2524L13.4123 13.7908ZM15.3533 21.3249V55.3394C15.3533 57.1675 16.2668 57.8514 18.3228 57.7383L53.8512 55.6825C55.9083 55.5694 56.1375 54.312 56.1375 52.827V19.0407C56.1375 17.5581 55.5671 16.7586 54.3079 16.8727L17.1804 19.0407C15.8102 19.1558 15.3531 19.8412 15.3531 21.3249H15.3533ZM50.4268 23.1495C50.6545 24.1778 50.4268 25.2052 49.3965 25.3208L47.6847 25.6619V50.7736C46.1984 51.5724 44.8279 52.0291 43.6858 52.0291C41.8573 52.0291 41.3993 51.458 40.0296 49.7468L28.8323 32.1684V49.176L32.3756 49.9755C32.3756 49.9755 32.3756 52.0291 29.5169 52.0291L21.6362 52.4863C21.4072 52.0291 21.6361 50.8887 22.4355 50.6602L24.4921 50.0902V27.6029L21.6367 27.3741C21.4077 26.3458 21.978 24.8631 23.5786 24.748L32.0328 24.1781L43.6858 41.9853V26.2326L40.7147 25.8916C40.4867 24.6345 41.3993 23.7217 42.5418 23.6085L50.4268 23.1495ZM7.24079 6.02916L39.8011 3.63132C43.7995 3.28839 44.8283 3.51813 47.3414 5.34365L57.7351 12.6489C59.4501 13.9051 60.0217 14.2471 60.0217 15.6165V55.6825C60.0217 58.1935 59.1069 59.6785 55.9089 59.9057L18.0966 62.1891C15.6958 62.3036 14.5533 61.9615 13.296 60.3624L5.642 50.4317C4.27063 48.6037 3.70028 47.2361 3.70028 45.6362V10.0228C3.70028 7.96938 4.61529 6.25647 7.24079 6.02916V6.02916Z" fill="black"/>
</svg>
