<svg width="64" height="64" viewBox="0 0 64 64" fill="#f4f4f7"
    xmlns="http://www.w3.org/2000/svg">
    <path d="M0 16C0 7.16344 7.16344 0 16 0H48C56.8366 0 64 7.16344 64 16V48C64 56.8366 56.8366 64 48 64H16C7.16344 64 0 56.8366 0 48V16Z" fill="url(#paint0_radial)"/>
    <path d="M46.9329 16.9102C46.0684 16.0961 44.8477 15.7908 43.7289 16.147L18.4013 23.5251L18.147 23.6268C16.9264 24.0848 16.1127 25.1533 16.011 26.4763C15.9093 27.7484 16.5196 28.9696 17.5876 29.682L28.0136 36.0933L34.2692 46.4226L34.4218 46.6261C35.0321 47.4912 36.0492 48 37.1173 48C37.3207 48 37.4733 48 37.6767 47.9491C38.9482 47.7456 39.9653 46.8297 40.3213 45.6085L47.8484 20.3194L47.8993 20.065C48.2044 18.9456 47.7975 17.7244 46.9329 16.9102ZM36.7613 44.8961L31.3512 35.4984C31.2955 35.4017 31.3094 35.2799 31.3853 35.1982L39.2533 26.7307L39.4059 26.5781C39.8128 26.0184 39.7619 25.1533 39.2533 24.6445L39.1007 24.4919C38.5413 24.0848 37.6767 24.1357 37.1681 24.6445L28.8537 32.6575C28.7715 32.7367 28.6466 32.7515 28.5483 32.6936L19.1134 27.1378L19.0116 27.0869C18.9099 26.9851 18.8591 26.8325 18.9099 26.6798C18.9099 26.629 19.0116 26.4254 19.2151 26.3745L44.4917 18.9456H44.5935C44.746 18.9456 44.8478 18.9964 44.9495 19.0982C45.0512 19.2 45.0512 19.3526 45.0512 19.5053L37.5241 44.7943L37.4733 44.8961C37.4224 45.0488 37.2698 45.0996 37.1173 45.1505C36.9647 45.0996 36.863 45.0488 36.7613 44.8961Z" fill="url(#paint1_linear)"/>
    <defs>
        <radialGradient id="paint0_radial" cx="0" cy="0" r="1" gradientUnits="userSpaceOnUse" gradientTransform="rotate(45) scale(90.5097)">
            <stop stop-color="#27C8D7"/>
            <stop offset="1" stop-color="#7894AE"/>
        </radialGradient>
        <linearGradient id="paint1_linear" x1="48" y1="16" x2="16" y2="45.5" gradientUnits="userSpaceOnUse">
            <stop stop-color="white"/>
            <stop offset="1" stop-color="white" stop-opacity="0.8"/>
        </linearGradient>
    </defs>
</svg>
