<svg width="64" height="64" viewBox="0 0 64 64" fill="none" xmlns="http://www.w3.org/2000/svg">
<path d="M32 64C49.6731 64 64 49.6731 64 32C64 14.3269 49.6731 0 32 0C14.3269 0 0 14.3269 0 32C0 49.6731 14.3269 64 32 64Z" fill="#E5E5E4"/>
<path d="M32 60.853C47.935 60.853 60.8529 47.9351 60.8529 32.0001C60.8529 16.0651 47.935 3.14722 32 3.14722C16.065 3.14722 3.14712 16.0651 3.14712 32.0001C3.14712 47.9351 16.065 60.853 32 60.853Z" fill="#4A8CFF"/>
<path d="M40.7802 26.9354L48.9389 20.9718C49.6529 20.39 50.1951 20.5222 50.1951 21.5933V39.7751C50.1951 40.9784 49.5207 40.8462 48.9389 40.3966L40.7802 34.4329V26.9354ZM13.1703 21.6462V35.1867C13.1835 38.2544 15.6827 40.7271 18.7504 40.7139H38.519C39.0744 40.7139 39.524 40.2643 39.5372 39.709V26.1553C39.524 23.0875 37.0248 20.6148 33.957 20.628H14.1885C13.6331 20.6412 13.1835 21.0776 13.1703 21.6462Z" fill="white"/>
</svg>
