<svg width="64" height="64" viewBox="0 0 64 64" fill="#f4f4f7"
    xmlns="http://www.w3.org/2000/svg">
    <g clip-path="url(#clip0)">
        <path d="M37.75 0H13.3125C10.9406 0 9 1.96364 9 4.36364V59.6364C9 62.0364 10.9406 64 13.3125 64H50.6875C53.0594 64 55 62.0364 55 59.6364V17.4545L37.75 0Z" fill="url(#paint0_radial)"/>
        <path opacity="0.2" d="M42.0625 17.4546C39.6798 17.4546 37.75 15.5019 37.75 13.0909V13.4546C37.75 15.8655 39.6798 17.8182 42.0625 17.8182H55V17.4546H42.0625Z" fill="#6D7176"/>
        <path opacity="0.2" d="M50.6875 63.6363H13.3125C10.9406 63.6363 9 61.6727 9 59.2727V59.6363C9 62.0363 10.9406 64 13.3125 64H50.6875C53.0594 64 55 62.0363 55 59.6363V59.2727C55 61.6727 53.0594 63.6363 50.6875 63.6363Z" fill="#6D7176"/>
        <path opacity="0.12" d="M13.3125 0C10.9406 0 9 1.96364 9 4.36364V4.72727C9 2.32727 10.9406 0.363636 13.3125 0.363636H37.75V0H13.3125Z" fill="white"/>
        <path opacity="0.6" d="M37.75 0V13.0909C37.75 15.5018 39.6798 17.4545 42.0625 17.4545H55L37.75 0Z" fill="#F8F9FA"/>
        <path d="M39.0143 16.1785C39.7945 16.9671 40.872 17.4546 42.0625 17.4546H55V32.3528L39.0114 16.1782L39.0143 16.1785Z" fill="url(#paint1_linear)"/>
        <path d="M40.6883 25.0367C40.8824 25.1973 40.9941 25.4326 40.9941 25.685V41.5896C41.0059 42.1633 40.8059 42.7485 40.4177 43.2649C39.9237 43.9132 39.1767 44.4181 38.3004 44.6763C37.8828 44.8025 37.4535 44.8657 37.03 44.8657C35.5596 44.8657 34.3774 44.1255 34.0187 42.978C33.7834 42.2207 33.954 41.3715 34.4951 40.6543C34.9891 40.006 35.7361 39.5011 36.6124 39.2429C37.03 39.1167 37.4593 39.0536 37.8828 39.0536C38.2787 39.0536 38.6553 39.1102 39 39.2112V28.4598L26.0786 30.308V43.7239C26.0904 44.2976 25.8904 44.8829 25.5022 45.3992C25.0082 46.0476 24.2612 46.5525 23.3849 46.8107C22.9673 46.9369 22.538 47 22.1145 47C20.6441 47 19.4619 46.2599 19.1032 45.1124C18.8679 44.355 19.0385 43.5059 19.5796 42.7887C20.0736 42.1404 20.8206 41.6355 21.6969 41.3773C22.1145 41.251 22.5438 41.1879 22.9673 41.1879C23.3311 41.1879 23.6786 41.2357 24 41.3218V28.2V28.214V28C24 27.5754 24.5648 27.0631 25 27L39.9825 24.8359C40.2354 24.8015 40.4942 24.876 40.6883 25.0367Z" fill="#54575C"/>
    </g>
    <defs>
        <radialGradient id="paint0_radial" cx="0" cy="0" r="1" gradientUnits="userSpaceOnUse" gradientTransform="translate(9) rotate(70.2328) scale(68.0074 48.8803)">
            <stop stop-color="#EAEBF1"/>
            <stop offset="1" stop-color="#DDDEE5"/>
        </radialGradient>
        <linearGradient id="paint1_linear" x1="47.0066" y1="17.567" x2="47.0066" y2="32.355" gradientUnits="userSpaceOnUse">
            <stop stop-opacity="0.12"/>
            <stop offset="1" stop-opacity="0"/>
        </linearGradient>
        <clipPath id="clip0">
            <rect width="64" height="64" fill="white" transform="matrix(1 0 0 -1 0 64)"/>
        </clipPath>
    </defs>
</svg>
