<svg width="64" height="64" viewBox="0 0 64 64" fill="none" xmlns="http://www.w3.org/2000/svg">
    <path d="M28.5784 5.68176L4.71728 15.6399C3.39038 16.1937 3.40412 18.095 4.73935 18.6288L28.6999 28.2122C30.8052 29.0544 33.1497 29.0544 35.2549 28.2122L59.2158 18.6285C60.5507 18.095 60.5652 16.1941 59.2375 15.6403L35.3772 5.68139C33.2003 4.77287 30.7549 4.77287 28.578 5.68139" fill="#FCB400"/>
    <path d="M34.1034 33.4451V57.3861C34.1034 58.5245 35.2419 59.3046 36.2913 58.885L62.9907 48.4325C63.2885 48.3134 63.5439 48.1068 63.7239 47.8396C63.9039 47.5723 64.0001 47.2567 64 46.9336V22.9929C64 21.8542 62.8616 21.0745 61.8121 21.4941L35.1127 31.9466C34.815 32.0657 34.5596 32.2723 34.3796 32.5396C34.1997 32.8068 34.1035 33.1224 34.1034 33.4454" fill="#18BFFF"/>
    <path d="M27.8686 34.6805L19.9448 38.5393L19.1403 38.9315L2.4136 47.015C1.35367 47.5309 0 46.7515 0 45.5635V23.0933C0 22.6634 0.218498 22.2924 0.511516 22.0133C0.631726 21.8925 0.768104 21.7894 0.916678 21.7068C1.31605 21.4649 1.88617 21.4003 2.37092 21.5937L27.7355 31.7302C29.0248 32.2461 29.126 34.0683 27.8686 34.6809" fill="#F82B60"/>
    <path d="M27.8686 34.6805L19.9448 38.5392L0.511509 22.0129C0.631742 21.8923 0.768119 21.7893 0.91667 21.7068C1.31604 21.4649 1.88616 21.4003 2.37091 21.5937L27.7355 31.7302C29.0247 32.2461 29.126 34.0683 27.8686 34.6809" fill="black" fill-opacity="0.25"/>
</svg>
