<svg width="64" height="64" viewBox="0 0 64 64" fill="none" xmlns="http://www.w3.org/2000/svg">
<path d="M14.6346 32.1963C15.3598 34.6439 16.2752 37.1034 17.5472 39.3728C18.0941 40.3708 18.641 41.3689 19.6396 42.0105C19.8179 42.1055 20.0081 42.1887 20.1865 42.2838C21.6368 42.557 22.4571 41.3808 23.004 40.3708C23.7292 38.648 24.3712 36.9133 24.918 35.1073C25.0131 34.739 25.0964 34.4657 25.1915 34.1093C25.3698 33.4677 25.56 32.8379 25.6432 32.1963L32.0986 14.9325C33.4658 13.1146 35.1896 11.665 37.1868 10.667C39.1009 9.57389 41.2764 9.02734 43.5471 9.02734C46.7332 9.02734 49.9074 10.1204 52.4515 12.1165C56.7195 15.3008 59.1803 21.6574 59.1803 21.6574C59.5489 22.4772 59.7272 23.3802 59.7272 24.2951C59.7272 25.1149 59.5489 25.9348 59.2755 26.7427C58.9069 27.4675 58.4552 28.1923 57.9083 28.8339C57.3614 29.3804 56.6362 29.927 55.8159 30.2002C55.0907 30.4735 54.1753 30.6517 53.3669 30.6517C52.4634 30.6517 51.548 30.4735 50.7277 30.0101C49.9074 29.6418 49.1822 29.0121 48.5521 28.3705C48.5521 28.3705 48.5521 28.2754 48.457 28.2754C48.0885 27.7289 47.7318 27.0992 47.4584 26.4576C47.0899 25.6377 46.7332 24.913 46.2815 24.1882C46.008 23.8199 45.8297 23.4634 45.5563 23.0951C45.3779 22.7268 45.1045 22.4535 44.736 22.1921C44.094 21.7406 43.3688 21.5505 42.7387 21.9188L42.6436 22.0139C41.9184 22.4654 41.4667 23.4634 41.0981 24.2832C40.0995 26.4576 39.5526 28.6438 38.9226 31.0082C38.8274 31.4597 38.7442 31.9112 38.6491 32.3746L35.9029 41.0956L32.1818 49.3652C30.8147 51.088 29.0909 52.5494 27.0936 53.4524C25.0964 54.4505 22.9089 54.902 20.7333 54.997C11.5555 55.1752 7.28758 46.9176 7.28758 46.9176C2.09235 38.3629 0.546865 27.0992 0.178326 23.4753C0 22.6555 0 22.204 0 22.204C0 21.1109 0.273433 19.9346 0.903517 19.0197C1.45038 18.0217 2.27068 17.2018 3.2693 16.6553C4.36303 16.1087 5.44488 15.9305 6.63371 15.9305C7.72745 15.9305 8.72607 16.2988 9.72469 16.8335C10.4499 17.285 11.0919 17.8316 11.5436 18.4732C12.3639 19.6494 12.6373 21.194 12.7206 22.6555C13.0891 25.9229 13.7192 29.1071 14.6346 32.1963Z" fill="url(#paint0_linear_2426)"/>
<path d="M57.7062 15.9307C57.1593 15.9307 56.6125 16.0257 56.1607 16.1089C57.3376 17.8317 58.3363 19.6496 59.1566 21.5625C59.5251 22.3823 59.7034 23.2853 59.7034 24.2002C59.7034 25.02 59.5251 25.8399 59.2517 26.6478C58.8831 27.3726 58.4314 28.0974 57.8845 28.739C57.3376 29.3806 56.6125 29.8321 55.7922 30.1053C55.067 30.3786 54.1516 30.5568 53.3432 30.5568C52.2494 30.5568 51.0725 30.2836 50.1571 29.6538L49.5151 32.1014C48.3381 36.0936 47.5178 37.5551 47.5178 37.5551C47.0661 38.6482 46.5192 39.6462 45.8772 40.6443C45.4255 41.2859 44.8786 41.9156 44.1534 42.1889C43.88 42.2839 43.6066 42.2839 43.3331 42.2839C43.0597 42.2839 42.7863 42.1889 42.5128 42.0106C42.0611 41.6423 41.6093 41.1076 41.3359 40.5611C40.9674 39.9195 40.6939 39.2898 40.4324 38.6482C39.8855 37.2818 38.982 33.9193 38.982 33.9193L38.0785 30.3786L37.175 26.8379L36.533 24.4735C34.8924 18.3901 32.5385 15.396 32.5385 15.396C30.7196 12.7583 28.0803 10.8454 25.0845 9.75226C21.625 8.48093 17.999 9.20571 17.999 9.20571C12.2688 10.2988 9.27293 14.196 8.00088 16.1089C8.64285 16.2871 9.17783 16.4772 9.72469 16.8337C10.4499 17.2852 11.0919 17.8317 11.5436 18.4733C12.3639 19.6496 12.6373 21.1942 12.7206 22.6556C13.0891 25.8399 13.7192 28.9172 14.5395 32.0064C16.4535 25.5547 18.8074 22.5606 18.8074 22.5606C19.0808 22.1922 19.3543 21.919 19.7109 21.7407C19.8893 21.6457 20.0795 21.5625 20.3529 21.5625C20.7214 21.5625 21.1732 21.6576 21.4466 21.8358C21.5417 21.8358 21.5417 21.9308 21.625 21.9308C21.8984 22.2041 22.1718 22.4774 22.4453 22.8338C22.897 23.7368 23.3488 24.5567 23.7173 25.5547C24.4425 27.5508 25.0845 30.0935 25.0845 30.0935L26.9034 37.365C28.2706 42.3552 29.3524 44.7196 29.3524 44.7196C32.1699 51.1713 36.4379 52.9892 36.4379 52.9892C38.5302 54.0823 40.896 54.712 43.2499 54.807C45.5206 54.9021 47.7913 54.4387 49.7885 53.4407C51.9641 52.3476 53.9732 50.7198 55.5187 48.8069C56.5173 47.6306 58.0628 44.7196 58.0628 44.7196C59.7866 41.3571 61.0587 37.8165 61.9741 34.1807C62.6161 31.9113 63.0678 29.642 63.4245 27.2775C63.6028 26.1013 63.793 25.0082 63.8763 23.82C64.0546 22.7269 64.0546 21.6457 63.7811 20.5526C63.686 20.3744 63.686 20.1842 63.6028 20.006C63.056 18.6396 62.0573 17.5584 60.7853 16.8218C59.8936 16.2039 58.7999 15.9307 57.7062 15.9307Z" fill="url(#paint1_linear_2426)"/>
<defs>
<linearGradient id="paint0_linear_2426" x1="2.89946" y1="40.0234" x2="52.7142" y2="19.8761" gradientUnits="userSpaceOnUse">
<stop offset="0.13" stop-color="#30BAED"/>
<stop offset="0.45" stop-color="#1F8891"/>
<stop offset="0.79" stop-color="#42B38E"/>
<stop offset="1" stop-color="#7CBB4B"/>
</linearGradient>
<linearGradient id="paint1_linear_2426" x1="10.4538" y1="22.2916" x2="64.0315" y2="40.039" gradientUnits="userSpaceOnUse">
<stop stop-color="#3E61AB"/>
<stop offset="0.74" stop-color="#3959A5"/>
<stop offset="1" stop-color="#4C72B7"/>
</linearGradient>
</defs>
</svg>
