<svg width="64" height="64" viewBox="0 0 64 64" fill="none" xmlns="http://www.w3.org/2000/svg">
<path d="M0 16C0 7.16344 7.16344 0 16 0H48C56.8366 0 64 7.16344 64 16V48C64 56.8366 56.8366 64 48 64H16C7.16344 64 0 56.8366 0 48V16Z" fill="#203232"/>
<path d="M34.9362 13C30.7263 13 28.2853 14.9178 27.1179 16.1963C26.9764 15.0598 26.2334 13.6037 23.3325 13.6037H17V20.2093H19.5825C20.0071 20.2093 20.1486 20.3514 20.1486 20.7776V51H27.6485V38.8542C28.816 39.9196 31.0447 41.4112 34.5471 41.4112C41.8701 41.4112 46.9998 35.5869 46.9998 27.2056C47.0352 18.7178 42.1531 13 34.9362 13ZM33.415 34.8411C29.382 34.8411 27.5424 30.9701 27.5424 27.3477C27.5424 21.6654 30.6202 19.6411 33.5211 19.6411C37.0588 19.6411 39.4645 22.6953 39.4645 27.2766C39.4291 32.5327 36.3867 34.8411 33.415 34.8411Z" fill="white"/>
</svg>
