<svg xmlns="http://www.w3.org/2000/svg" xmlns:svg="http://www.w3.org/2000/svg" id="svg4" width="16" height="16" version="1.1"><metadata id="metadata10"/><path color="#000" style="line-height:normal;font-variant-ligatures:normal;font-variant-position:normal;font-variant-caps:normal;font-variant-numeric:normal;font-variant-alternates:normal;font-feature-settings:normal;text-indent:0;text-align:start;text-decoration-line:none;text-decoration-style:solid;text-decoration-color:#000;text-transform:none;text-orientation:mixed;shape-padding:0;isolation:auto;mix-blend-mode:normal;marker:none;stroke:none;stroke-opacity:1;fill:#9b9b9b;fill-opacity:1" id="path2" fill="context-fill" fill-opacity="context-fill-opacity" stroke="context-stroke" stroke-opacity="context-stroke-opacity" d="M3.5 1A2.506 2.506 0 0 0 1 3.5v9C1 13.876 2.124 15 3.5 15h9c1.376 0 2.5-1.124 2.5-2.5v-9C15 2.124 13.876 1 12.5 1zm0 1h9c.84 0 1.5.66 1.5 1.5v9c0 .84-.66 1.5-1.5 1.5h-9c-.84 0-1.5-.66-1.5-1.5v-9C2 2.66 2.66 2 3.5 2z" font-family="sans-serif" font-weight="400" overflow="visible" white-space="normal"/></svg>