<svg xmlns="http://www.w3.org/2000/svg" width="16" height="16"><g fill="#9b9b9b" color="#000" font-family="sans-serif" font-weight="400" white-space="normal"><path d="M2.979 3.99a1 1 0 0 0-.604 1.791L8 10.281l5.625-4.5a1 1 0 1 0-1.25-1.562L8 7.719l-4.375-3.5a1 1 0 0 0-.646-.229z" overflow="visible" style="line-height:normal;font-variant-ligatures:normal;font-variant-position:normal;font-variant-caps:normal;font-variant-numeric:normal;font-variant-alternates:normal;font-feature-settings:normal;text-indent:0;text-align:start;text-decoration-line:none;text-decoration-style:solid;text-decoration-color:#000;text-transform:none;text-orientation:mixed;shape-padding:0;isolation:auto;mix-blend-mode:normal"/><path d="M2 3a1 1 0 0 0-1 1v9a1 1 0 0 0 1 1h12a1 1 0 0 0 1-1V4a1 1 0 0 0-1-1zm1 2h10v7H3z" overflow="visible" style="line-height:normal;font-variant-ligatures:normal;font-variant-position:normal;font-variant-caps:normal;font-variant-numeric:normal;font-variant-alternates:normal;font-feature-settings:normal;text-indent:0;text-align:start;text-decoration-line:none;text-decoration-style:solid;text-decoration-color:#000;text-transform:none;text-orientation:mixed;shape-padding:0;isolation:auto;mix-blend-mode:normal;marker:none"/></g></svg>