<svg xmlns="http://www.w3.org/2000/svg" xmlns:xlink="http://www.w3.org/1999/xlink" viewBox="0,0,256,256" width="24px"
    height="24px">
    <g fill="context-fill" fill-rule="nonzero" stroke="none" stroke-width="1" stroke-linecap="butt"
        stroke-linejoin="miter" stroke-miterlimit="10" stroke-dasharray="" stroke-dashoffset="0" font-family="none"
        font-weight="none" font-size="none" text-anchor="none" style="mix-blend-mode: normal">
        <g transform="scale(10.66667,10.66667)">
            <path
                d="M12,3c-4.963,0 -9,4.038 -9,9h2c0,-3.86 3.141,-7 7,-7c2.1851,0 4.12521,1.0168 5.4082,2.5918l-2.4082,2.4082h6v-6l-2.16602,2.16602c-1.64914,-1.93435 -4.09753,-3.16602 -6.83398,-3.16602zM19,12c0,3.859 -3.141,7 -7,7c-2.1851,0 -4.12521,-1.0168 -5.4082,-2.5918l2.4082,-2.4082h-6v6l2.16602,-2.16602c1.64914,1.93435 4.09753,3.16602 6.83398,3.16602c4.963,0 9,-4.037 9,-9z">
            </path>
        </g>
    </g>
</svg>
