<?xml version="1.0" encoding="UTF-8" standalone="no"?>
<!-- Created with Inkscape (http://www.inkscape.org/) -->

<svg
   width="96.125252mm"
   height="118.11895mm"
   viewBox="0 0 96.125252 118.11895"
   version="1.1"
   id="svg1"
   sodipodi:docname="uboff.svg"
   inkscape:version="1.4 (e7c3feb100, 2024-10-09)"
   xmlns:inkscape="http://www.inkscape.org/namespaces/inkscape"
   xmlns:sodipodi="http://sodipodi.sourceforge.net/DTD/sodipodi-0.dtd"
   xmlns="http://www.w3.org/2000/svg"
   xmlns:svg="http://www.w3.org/2000/svg">
  <sodipodi:namedview
     id="namedview1"
     pagecolor="#ffffff"
     bordercolor="#000000"
     borderopacity="0.25"
     inkscape:showpageshadow="2"
     inkscape:pageopacity="0.0"
     inkscape:pagecheckerboard="0"
     inkscape:deskcolor="#d1d1d1"
     inkscape:document-units="mm"
     inkscape:zoom="1.3995482"
     inkscape:cx="238.29118"
     inkscape:cy="225.07263"
     inkscape:window-width="2560"
     inkscape:window-height="1552"
     inkscape:window-x="0"
     inkscape:window-y="0"
     inkscape:window-maximized="1"
     inkscape:current-layer="layer1" />
  <defs
     id="defs1" />
  <g
     inkscape:label="Layer 1"
     inkscape:groupmode="layer"
     id="layer1"
     transform="translate(-60.741489,-14.542941)">
    <path
       style="fill:#ed5d86;fill-opacity:1;stroke:#f57d9a;stroke-width:3.43493;stroke-linecap:round;stroke-linejoin:miter;stroke-dasharray:none;stroke-opacity:1;paint-order:stroke fill markers"
       d="m 105.74306,16.302261 c -8.026734,0.261736 -15.433264,4.946048 -20.460414,11.006535 -4.6795,5.829764 -7.866616,13.189176 -7.486021,20.775167 -0.185557,5.218123 0.06495,10.500696 -0.42968,15.682729 -1.891162,0.951778 -4.302765,0.332269 -6.305024,1.165593 -4.252463,1.424019 -7.517337,5.391417 -8.601814,9.652759 0.0047,15.556934 -0.0093,31.115596 0.007,46.671446 1.218535,4.27477 4.378185,8.18129 8.577611,9.68208 25.189068,-0.006 50.381762,0.0195 75.568572,-0.005 5.00756,-1.93221 8.58385,-7.01528 8.38462,-12.42151 0.173,-14.04974 0.2448,-28.109554 -0.0439,-42.157487 -0.0967,-5.955059 -4.96761,-11.328593 -10.92917,-11.881395 -1.30291,-0.186449 -2.63937,-0.189606 -3.92098,-0.473242 -0.58458,-7.571726 0.0695,-15.235663 -1.00763,-22.76153 -2.7246,-11.491001 -11.72589,-21.781812 -23.4163,-24.538568 -3.28529,-0.408706 -6.63074,-0.357387 -9.93683,-0.397447 z m 2.93437,9.520911 c 11.9354,-0.307855 22.23247,11.052881 21.85835,22.789553 0.12199,5.142841 0.0532,10.287883 0.0815,15.431671 -14.55354,0.05567 -29.1071,0.1113 -43.660654,0.166878 -0.6495,-4.511563 -0.12232,-9.14559 -0.14206,-13.699622 -0.0266,-5.079436 0.85476,-10.300906 3.821,-14.54974 3.90429,-5.924125 10.776624,-10.399135 18.041844,-10.13874 z m 35.25947,48.378436 c 1.87144,1.181764 2.08998,3.047222 1.84428,5.105675 -0.001,13.414496 -0.002,26.828997 -0.003,40.243497 -0.92353,2.24251 -3.04827,1.9923 -5.09866,1.89593 -21.98689,-0.0546 -43.979834,0.31629 -65.963015,-0.10142 -1.573378,0.2686 -2.918456,-0.98706 -2.776347,-2.59323 -0.563402,-11.36044 -0.182582,-22.776927 -0.271334,-34.158212 0.257123,-3.145205 -0.390045,-6.585519 0.806997,-9.548299 1.671525,-1.277046 4.114718,-0.349438 6.059692,-0.704001 21.799297,-0.235476 43.601127,-0.105023 65.401287,-0.13994 z"
       id="path1" />
    <path
       style="fill:#f57d9a;stroke:#f57d9a;stroke-width:4.62206;stroke-linecap:round;paint-order:stroke fill markers;fill-opacity:1"
       d="m 269.50847,231.5499 c -72.03448,0.20915 -144.07061,0.22948 -216.103712,0.69137 -1.462188,0.24113 -3.917572,-0.62664 -4.175784,1.4153 -2.082464,5.44783 -1.02276,11.47789 -1.47249,17.17126 -0.359312,44.22082 -0.960788,88.4586 0.186892,132.67204 0.401339,4.39018 -0.110227,9.05058 1.268456,13.26223 1.962036,1.67253 5.04213,0.62231 7.404967,1.02302 81.714711,0.35666 163.431711,0.1199 245.147321,0.18442 3.6932,-0.24912 7.67676,0.4848 11.20034,-0.34295 3.03961,-1.08332 2.24722,-4.17404 2.29449,-6.73367 -0.0314,-48.77102 0.36951,-97.54401 0.0192,-146.3138 -0.40034,-3.80359 0.46204,-8.07416 -1.32825,-11.57821 -1.97971,-2.15791 -5.48442,-0.86794 -8.07012,-1.3473 -12.12297,-0.15465 -24.24763,-0.10201 -36.37128,-0.10371 z"
       id="path2"
       transform="matrix(0.26458333,0,0,0.26458333,60.741489,14.542941)" />
  </g>
</svg>
