<svg xmlns="http://www.w3.org/2000/svg" width="64" height="64"><defs><linearGradient id="a" x1="0%" x2="0%" y1="0%" y2="100%"><stop offset="0%" stop-color="#2EEDAE"/><stop offset="100%" stop-color="#0fc"/></linearGradient></defs><path d="M42 62c2.2 0 4-1.8 4-4V43.8s.4-3.7 2.8-3.7S51 44 55.5 44c2.3 0 6.2-1.2 6.2-8.2 0-7-3.9-7.9-6.2-7.9-4.5 0-4.3 3.7-6.7 3.7-2.4 0-2.8-3.8-2.8-3.8V22c0-2.2-1.8-4-4-4H31.5s-3.4-.6-3.4-3 3.8-2.6 3.8-7.1c0-2.3-1.3-5.9-8.3-5.9s-8 3.6-8 5.9c0 4.5 3.4 4.7 3.4 7.1 0 2.4-3.4 3-3.4 3H6c-2.2 0-4 1.8-4 4v7.8s-.4 6 4.4 6c3.1 0 3.2-4.1 7.3-4.1 2 0 4 1.9 4 6 0 4.2-2 6.3-4 6.3-4 0-4.2-4.1-7.3-4.1-4.8 0-4.4 5.8-4.4 5.8V58c0 2.2 1.8 4 4 4h13s6.3.4 6.3-4.4c0-3.1-4-3.6-4-7.7 0-2 2.2-4.5 6.4-4.5s6.6 2.5 6.6 4.5c0 4-3.9 4.6-3.9 7.7 0 4.9 6.3 4.4 6.3 4.4H42z" style="fill:url(#a)"/><svg width="32" height="32" x="32"><ellipse cx="16" cy="17" rx="14" ry="15" style="fill:#1b1d24;fill-opacity:.15"/><circle cx="16" cy="15" r="15" style="fill:#3c3b4c"/><circle cx="16" cy="15" r="12" style="fill:#2eedae"/><path d="M22.8 12.3s-6.7 8.1-6.9 8.3c-.4.5-1.5.3-1.7 0-.2-.3-5-5.8-5-5.8-.3-.3-.3-.7 0-1l1-1c.4-.4.9 0 1.2.3.3.4 3.4 3.8 3.4 3.8s5.2-6.1 5.4-6.4c.5-.8 1.6-.8 1.9-.5l.7.6c.3.5.3 1.4 0 1.7z" style="fill:#3c3f4c"/></svg></svg>