<svg width="64" height="64">
  <defs>
    <linearGradient id="addon-install-warning_svg__a" x1="0%" x2="0%" y1="0%" y2="100%">
      <stop offset="0%" stop-color="#556"/>
      <stop offset="100%" stop-color="#b2bfd9"/>
    </linearGradient>
  </defs>
  <path fill="url(#addon-install-warning_svg__a)" d="M42 62c2.2 0 4-1.8 4-4V43.8s.4-3.7 2.8-3.7S51 44 55.5 44c2.3 0 6.2-1.2 6.2-8.2 0-7-3.9-7.9-6.2-7.9-4.5 0-4.3 3.7-6.7 3.7-2.4 0-2.8-3.8-2.8-3.8V22c0-2.2-1.8-4-4-4H31.5s-3.4-.6-3.4-3 3.8-2.6 3.8-7.1c0-2.3-1.3-5.9-8.3-5.9s-8 3.6-8 5.9c0 4.5 3.4 4.7 3.4 7.1 0 2.4-3.4 3-3.4 3H6c-2.2 0-4 1.8-4 4v7.8s-.4 6 4.4 6c3.1 0 3.2-4.1 7.3-4.1 2 0 4 1.9 4 6 0 4.2-2 6.3-4 6.3-4 0-4.2-4.1-7.3-4.1-4.8 0-4.4 5.8-4.4 5.8V58c0 2.2 1.8 4 4 4h13s6.3.4 6.3-4.4c0-3.1-4-3.6-4-7.7 0-2 2.2-4.5 6.4-4.5s6.6 2.5 6.6 4.5c0 4-3.9 4.6-3.9 7.7 0 4.9 6.3 4.4 6.3 4.4H42z"/>
  <svg width="32" height="32" x="32">
    <path fill="#1b1d24" fill-opacity=".15" d="M29.5 25.8 18.7 4c-.6-1.2-1.6-2-2.7-2s-2.1.7-2.7 2L2.5 25.8c-.6 1.2-.6 2.5-.1 3.6.5 1 1.6 1.6 2.8 1.6h21.6c1.2 0 2.3-.6 2.8-1.6.6-1 .5-2.3-.1-3.6z"/>
    <path fill="#3c3f4c" d="M16 0c-1.7 0-3.2 1-4.1 2.7L1.7 21.9c-.9 1.7-.9 3.4 0 4.8.8 1.5 2.4 2.3 4.2 2.3H26c1.9 0 3.4-.8 4.3-2.2.9-1.4.8-3.2 0-4.8L20.1 2.7C19.2 1 17.7 0 16 0z"/>
    <path fill="#f9f871" d="M5.9 26c-1.7 0-2.4-1.2-1.6-2.7L14.6 4.1c.8-1.5 2.1-1.5 2.8 0l10.3 19.3c.8 1.5.1 2.7-1.6 2.7H5.9z"/>
    <path fill="#3c3f4c" d="M14.9 17.6s.1.7 1.1.7 1.1-.7 1.1-.7.7-2.9.8-4.2c.1-1.3.5-3.2-1.9-3.2s-2 1.9-1.9 3.2c.1 1.4.8 4.2.8 4.2zM16 20c-1.1 0-2 .9-2 2s.9 2 2 2 2-.9 2-2-.9-2-2-2z"/>
  </svg>
</svg>
