<svg width="64" height="64">
  <defs>
    <linearGradient id="addon-install-blocked_svg__a" x1="0%" x2="0%" y1="0%" y2="100%">
      <stop offset="0%" stop-color="#8b9cbe"/>
      <stop offset="100%" stop-color="#b2bfd9"/>
    </linearGradient>
  </defs>
  <path fill="url(#addon-install-blocked_svg__a)" d="M42 62c2.2 0 4-1.8 4-4V43.8s.4-3.7 2.8-3.7S51 44 55.5 44c2.3 0 6.2-1.2 6.2-8.2 0-7-3.9-7.9-6.2-7.9-4.5 0-4.3 3.7-6.7 3.7-2.4 0-2.8-3.8-2.8-3.8V22c0-2.2-1.8-4-4-4H31.5s-3.4-.6-3.4-3 3.8-2.6 3.8-7.1c0-2.3-1.3-5.9-8.3-5.9s-8 3.6-8 5.9c0 4.5 3.4 4.7 3.4 7.1 0 2.4-3.4 3-3.4 3H6c-2.2 0-4 1.8-4 4v7.8s-.4 6 4.4 6c3.1 0 3.2-4.1 7.3-4.1 2 0 4 1.9 4 6 0 4.2-2 6.3-4 6.3-4 0-4.2-4.1-7.3-4.1-4.8 0-4.4 5.8-4.4 5.8V58c0 2.2 1.8 4 4 4h13s6.3.4 6.3-4.4c0-3.1-4-3.6-4-7.7 0-2 2.2-4.5 6.4-4.5s6.6 2.5 6.6 4.5c0 4-3.9 4.6-3.9 7.7 0 4.9 6.3 4.4 6.3 4.4H42z"/>
  <svg width="32" height="32" x="32">
    <ellipse cx="16" cy="17" fill="#1b1d24" fill-opacity=".15" rx="14" ry="15"/>
    <circle cx="16" cy="15" r="15" fill="#3c3f4c"/>
    <circle cx="16" cy="15" r="12" fill="#e91e63"/>
    <rect width="14" height="4" x="9" y="13" fill="#3c3f4c" rx="1" ry="1"/>
  </svg>
</svg>
