<svg height="96" width="96"
    xmlns="http://www.w3.org/2000/svg">
    <g fill="#f4f4f7" fill-rule="evenodd">
        <path d="M54 87H15.282A12 12 0 0 1 4.548 69.66L34.266 10.2a12 12 0 0 1 21.468 0l19.044 38.088C66.374 49.806 60 57.158 60 66v1.01a10.501 10.501 0 0 0-6 9.49z" fill="#ffe900" fill-rule="nonzero"/>
        <path d="M39 27a6 6 0 1 1 12 0v24a6 6 0 1 1-12 0zm6 49.5a7.5 7.5 0 1 1 0-15 7.5 7.5 0 0 1 0 15z" fill="#3e2800"/>
        <path d="M89.295 61.939A11.98 11.98 0 0 1 90 66v6h1.5a4.5 4.5 0 0 1 4.5 4.44v15A4.5 4.5 0 0 1 91.5 96h-27a4.5 4.5 0 0 1-4.5-4.5v-15a4.5 4.5 0 0 1 4.5-4.5H66v-6c0-6.627 5.373-12 12-12 2.998 0 5.738 1.1 7.842 2.916l-4.266 4.266A6 6 0 0 0 72 66v6h12v-4.766z" fill="#b1b1b3" fill-rule="nonzero"/>
    </g>
</svg>
