<svg width="266" height="14">
  <svg x="14">
    <defs>
      <mask id="check-animation_svg__a">
        <path fill="#f4f4f7" stroke="#f4f4f7" stroke-width="1.881" d="M-2.91 5.508v7.07h4.488v-7.07H-2.91"/>
      </mask>
    </defs>
    <path fill="#f4f4f7" d="M6 14a.997.997 0 0 1-.707-.293l-3-3a1 1 0 0 1 1.414-1.414l2.157 2.157 6.316-9.023a1 1 0 0 1 1.64 1.146l-7 10a1 1 0 0 1-.733.427A1.262 1.262 0 0 1 6 14z" mask="url(#check-animation_svg__a)" transform="translate(-.938 -.938)"/>
  </svg>
  <svg x="28">
    <defs>
      <mask id="check-animation_svg__b">
        <path fill="#f4f4f7" stroke="#f4f4f7" stroke-width="3.877" d="M-2.91 5.508v7.07h4.488v-7.07H-2.91"/>
      </mask>
    </defs>
    <path fill="#f4f4f7" d="M6 14a.997.997 0 0 1-.707-.293l-3-3a1 1 0 0 1 1.414-1.414l2.157 2.157 6.316-9.023a1 1 0 0 1 1.64 1.146l-7 10a1 1 0 0 1-.733.427A1.262 1.262 0 0 1 6 14z" mask="url(#check-animation_svg__b)" transform="translate(-.938 -.938)"/>
  </svg>
  <svg x="42">
    <defs>
      <mask id="check-animation_svg__c">
        <path fill="#f4f4f7" stroke="#f4f4f7" stroke-width="5.732" d="M-2.91 5.508v7.07h4.488v-7.07H-2.91"/>
      </mask>
    </defs>
    <path fill="#f4f4f7" d="M6 14a.997.997 0 0 1-.707-.293l-3-3a1 1 0 0 1 1.414-1.414l2.157 2.157 6.316-9.023a1 1 0 0 1 1.64 1.146l-7 10a1 1 0 0 1-.733.427A1.262 1.262 0 0 1 6 14z" mask="url(#check-animation_svg__c)" transform="translate(-.938 -.938)"/>
  </svg>
  <svg x="56">
    <defs>
      <mask id="check-animation_svg__d">
        <path fill="#f4f4f7" stroke="#f4f4f7" stroke-width="7.323" d="M-2.91 5.508v7.07h4.488v-7.07H-2.91"/>
      </mask>
    </defs>
    <path fill="#f4f4f7" d="M6 14a.997.997 0 0 1-.707-.293l-3-3a1 1 0 0 1 1.414-1.414l2.157 2.157 6.316-9.023a1 1 0 0 1 1.64 1.146l-7 10a1 1 0 0 1-.733.427A1.262 1.262 0 0 1 6 14z" mask="url(#check-animation_svg__d)" transform="translate(-.938 -.938)"/>
  </svg>
  <svg x="70">
    <defs>
      <mask id="check-animation_svg__e">
        <path fill="#f4f4f7" stroke="#f4f4f7" stroke-width="8.501" d="M-2.91 5.508v7.07h4.488v-7.07H-2.91"/>
      </mask>
    </defs>
    <path fill="#f4f4f7" d="M6 14a.997.997 0 0 1-.707-.293l-3-3a1 1 0 0 1 1.414-1.414l2.157 2.157 6.316-9.023a1 1 0 0 1 1.64 1.146l-7 10a1 1 0 0 1-.733.427A1.262 1.262 0 0 1 6 14z" mask="url(#check-animation_svg__e)" transform="translate(-.938 -.938)"/>
  </svg>
  <svg x="84">
    <defs>
      <mask id="check-animation_svg__f">
        <path fill="#f4f4f7" stroke="#f4f4f7" stroke-width="9" d="M-2.91 5.508v7.07h4.488v-7.07H-2.91"/>
      </mask>
    </defs>
    <path fill="#f4f4f7" d="M6 14a.997.997 0 0 1-.707-.293l-3-3a1 1 0 0 1 1.414-1.414l2.157 2.157 6.316-9.023a1 1 0 0 1 1.64 1.146l-7 10a1 1 0 0 1-.733.427A1.262 1.262 0 0 1 6 14z" mask="url(#check-animation_svg__f)" transform="translate(-.938 -.938)"/>
  </svg>
  <svg x="98">
    <defs>
      <mask id="check-animation_svg__g">
        <path fill="#f4f4f7" stroke="#f4f4f7" stroke-width="13.388" d="M-2.91 5.508v7.07h4.488v-7.07H-2.91"/>
      </mask>
    </defs>
    <path fill="#f4f4f7" d="M6 14a.997.997 0 0 1-.707-.293l-3-3a1 1 0 0 1 1.414-1.414l2.157 2.157 6.316-9.023a1 1 0 0 1 1.64 1.146l-7 10a1 1 0 0 1-.733.427A1.262 1.262 0 0 1 6 14z" mask="url(#check-animation_svg__g)" transform="translate(-1.19 -1.19) scale(1.03134)"/>
  </svg>
  <svg x="112">
    <defs>
      <mask id="check-animation_svg__h">
        <path fill="#f4f4f7" stroke="#f4f4f7" stroke-width="18.046" d="M-2.91 5.508v7.07h4.488v-7.07H-2.91"/>
      </mask>
    </defs>
    <path fill="#f4f4f7" d="M6 14a.997.997 0 0 1-.707-.293l-3-3a1 1 0 0 1 1.414-1.414l2.157 2.157 6.316-9.023a1 1 0 0 1 1.64 1.146l-7 10a1 1 0 0 1-.733.427A1.262 1.262 0 0 1 6 14z" mask="url(#check-animation_svg__h)" transform="translate(-1.455 -1.455) scale(1.0646)"/>
  </svg>
  <svg x="126">
    <defs>
      <mask id="check-animation_svg__i">
        <path fill="#f4f4f7" stroke="#f4f4f7" stroke-width="22.375" d="M-2.91 5.508v7.07h4.488v-7.07H-2.91"/>
      </mask>
    </defs>
    <path fill="#f4f4f7" d="M6 14a.997.997 0 0 1-.707-.293l-3-3a1 1 0 0 1 1.414-1.414l2.157 2.157 6.316-9.023a1 1 0 0 1 1.64 1.146l-7 10a1 1 0 0 1-.733.427A1.262 1.262 0 0 1 6 14z" mask="url(#check-animation_svg__i)" transform="translate(-1.702 -1.702) scale(1.09553)"/>
  </svg>
  <svg x="140">
    <defs>
      <mask id="check-animation_svg__j">
        <path fill="#f4f4f7" stroke="#f4f4f7" stroke-width="26.086" d="M-2.91 5.508v7.07h4.488v-7.07H-2.91"/>
      </mask>
    </defs>
    <path fill="#f4f4f7" d="M6 14a.997.997 0 0 1-.707-.293l-3-3a1 1 0 0 1 1.414-1.414l2.157 2.157 6.316-9.023a1 1 0 0 1 1.64 1.146l-7 10a1 1 0 0 1-.733.427A1.262 1.262 0 0 1 6 14z" mask="url(#check-animation_svg__j)" transform="translate(-1.914 -1.914) scale(1.12205)"/>
  </svg>
  <svg x="154">
    <defs>
      <mask id="check-animation_svg__k">
        <path fill="#f4f4f7" stroke="#f4f4f7" stroke-width="28.836" d="M-2.91 5.508v7.07h4.488v-7.07H-2.91"/>
      </mask>
    </defs>
    <path fill="#f4f4f7" d="M6 14a.997.997 0 0 1-.707-.293l-3-3a1 1 0 0 1 1.414-1.414l2.157 2.157 6.316-9.023a1 1 0 0 1 1.64 1.146l-7 10a1 1 0 0 1-.733.427A1.262 1.262 0 0 1 6 14z" mask="url(#check-animation_svg__k)" transform="translate(-2.07 -2.07) scale(1.14168)"/>
  </svg>
  <svg x="168">
    <defs>
      <mask id="check-animation_svg__l">
        <path fill="#f4f4f7" stroke="#f4f4f7" stroke-width="30" d="M-2.91 5.508v7.07h4.488v-7.07H-2.91"/>
      </mask>
    </defs>
    <path fill="#f4f4f7" d="M6 14a.997.997 0 0 1-.707-.293l-3-3a1 1 0 0 1 1.414-1.414l2.157 2.157 6.316-9.023a1 1 0 0 1 1.64 1.146l-7 10a1 1 0 0 1-.733.427A1.262 1.262 0 0 1 6 14z" mask="url(#check-animation_svg__l)" transform="matrix(1.15 0 0 1.15 -2.14 -2.14)"/>
  </svg>
  <svg x="182">
    <defs>
      <mask id="check-animation_svg__m">
        <path fill="#f4f4f7" stroke="#f4f4f7" stroke-width="30" d="M-2.91 5.508v7.07h4.488v-7.07H-2.91"/>
      </mask>
    </defs>
    <path fill="#f4f4f7" d="M6 14a.997.997 0 0 1-.707-.293l-3-3a1 1 0 0 1 1.414-1.414l2.157 2.157 6.316-9.023a1 1 0 0 1 1.64 1.146l-7 10a1 1 0 0 1-.733.427A1.262 1.262 0 0 1 6 14z" mask="url(#check-animation_svg__m)" transform="matrix(1.12 0 0 1.12 -1.89 -1.89)"/>
  </svg>
  <svg x="196">
    <defs>
      <mask id="check-animation_svg__n">
        <path fill="#f4f4f7" stroke="#f4f4f7" stroke-width="30" d="M-2.91 5.508v7.07h4.488v-7.07H-2.91"/>
      </mask>
    </defs>
    <path fill="#f4f4f7" d="M6 14a.997.997 0 0 1-.707-.293l-3-3a1 1 0 0 1 1.414-1.414l2.157 2.157 6.316-9.023a1 1 0 0 1 1.64 1.146l-7 10a1 1 0 0 1-.733.427A1.262 1.262 0 0 1 6 14z" mask="url(#check-animation_svg__n)" transform="matrix(1.1 0 0 1.1 -1.62 -1.62)"/>
  </svg>
  <svg x="210">
    <defs>
      <mask id="check-animation_svg__o">
        <path fill="#f4f4f7" stroke="#f4f4f7" stroke-width="30" d="M-2.91 5.508v7.07h4.488v-7.07H-2.91"/>
      </mask>
    </defs>
    <path fill="#f4f4f7" d="M6 14a.997.997 0 0 1-.707-.293l-3-3a1 1 0 0 1 1.414-1.414l2.157 2.157 6.316-9.023a1 1 0 0 1 1.64 1.146l-7 10a1 1 0 0 1-.733.427A1.262 1.262 0 0 1 6 14z" mask="url(#check-animation_svg__o)" transform="matrix(1.05 0 0 1.05 -1.37 -1.37)"/>
  </svg>
  <svg x="224">
    <defs>
      <mask id="check-animation_svg__p">
        <path fill="#f4f4f7" stroke="#f4f4f7" stroke-width="30" d="M-2.91 5.508v7.07h4.488v-7.07H-2.91"/>
      </mask>
    </defs>
    <path fill="#f4f4f7" d="M6 14a.997.997 0 0 1-.707-.293l-3-3a1 1 0 0 1 1.414-1.414l2.157 2.157 6.316-9.023a1 1 0 0 1 1.64 1.146l-7 10a1 1 0 0 1-.733.427A1.262 1.262 0 0 1 6 14z" mask="url(#check-animation_svg__p)" transform="matrix(1.03 0 0 1.03 -1.16 -1.16)"/>
  </svg>
  <svg x="238">
    <defs>
      <mask id="check-animation_svg__q">
        <path fill="#f4f4f7" stroke="#f4f4f7" stroke-width="30" d="M-2.91 5.508v7.07h4.488v-7.07H-2.91"/>
      </mask>
    </defs>
    <path fill="#f4f4f7" d="M6 14a.997.997 0 0 1-.707-.293l-3-3a1 1 0 0 1 1.414-1.414l2.157 2.157 6.316-9.023a1 1 0 0 1 1.64 1.146l-7 10a1 1 0 0 1-.733.427A1.262 1.262 0 0 1 6 14z" mask="url(#check-animation_svg__q)" transform="translate(-1 -1)"/>
  </svg>
  <svg x="252">
    <defs>
      <mask id="check-animation_svg__r">
        <path fill="#f4f4f7" stroke="#f4f4f7" stroke-width="30" d="M-2.91 5.508v7.07h4.488v-7.07H-2.91"/>
      </mask>
    </defs>
    <path fill="#f4f4f7" d="M6 14a.997.997 0 0 1-.707-.293l-3-3a1 1 0 0 1 1.414-1.414l2.157 2.157 6.316-9.023a1 1 0 0 1 1.64 1.146l-7 10a1 1 0 0 1-.733.427A1.262 1.262 0 0 1 6 14z" mask="url(#check-animation_svg__r)" transform="translate(-.94 -.94)"/>
  </svg>
</svg>
