<svg xmlns="http://www.w3.org/2000/svg" width="16" height="16" fill="#f4f4f7" fill-opacity="context-fill-opacity">
    <path d="M16 4a3 3 0 0 0-3-3H3a3 3 0 0 0-3 3v8a3 3 0 0 0 3 3h4.519v-.006a.994.994 0 0 0 0-1.987V13H3a1 1 0 0 1-1-1V6h12v1.369h.01c0 .017-.01.031-.01.048a1 1 0 0 0 2 0c0-.017-.009-.031-.01-.048H16V4zM2 5V4a1 1 0 0 1 1-1h10a1 1 0 0 1 1 1v1H2z"/>
    <path d="m14.3 10-1.8 1.8-1.8-1.8c-.2-.2-.5-.2-.7 0s-.2.5 0 .7l1.8 1.8-1.8 1.8c-.2.2-.2.5 0 .7s.5.2.7 0l1.8-1.8 1.8 1.8c.2.2.5.2.7 0s.2-.5 0-.7l-1.8-1.8 1.8-1.8c.2-.2.2-.5 0-.7s-.5-.2-.7 0z"/>
</svg>
