<svg xmlns="http://www.w3.org/2000/svg" width="16" height="16" fill="#f4f4f7" fill-opacity="context-fill-opacity">
    <path d="M7.058 9.72c-.245.245-.62.27-.834.056-.214-.214-.189-.59.056-.834l.218-.218a.63.63 0 0 0-.89 0L4.496 9.836a.63.63 0 0 0 0 .89l.779.779a.63.63 0 0 0 .89 0l1.112-1.112a.63.63 0 0 0 0-.89l-.219.217zM10.726 4.496a.63.63 0 0 0-.89 0L8.723 5.608a.63.63 0 0 0 0 .89l.227-.226c.245-.245.62-.27.834-.056s.189.59-.056.834l-.226.227a.63.63 0 0 0 .89 0l1.112-1.112a.63.63 0 0 0 0-.89l-.778-.779z"/>
    <path d="M8 0a8 8 0 1 0 0 16A8 8 0 0 0 8 0zm4.527 6.81-1.489 1.489a1.625 1.625 0 0 1-2.293 0l-.133-.132-.445.445.133.133a1.625 1.625 0 0 1 0 2.293l-1.49 1.489a1.625 1.625 0 0 1-2.293 0l-1.044-1.044a1.625 1.625 0 0 1 0-2.293l1.489-1.489a1.625 1.625 0 0 1 2.293 0l.133.133.445-.445-.132-.134a1.625 1.625 0 0 1 0-2.293L9.19 3.473a1.625 1.625 0 0 1 2.293 0l1.044 1.044a1.625 1.625 0 0 1 0 2.293z"/>
</svg>
