<svg xmlns="http://www.w3.org/2000/svg" width="16" height="16" fill="#f4f4f7" fill-opacity="context-fill-opacity">
    <path d="M5.783 12.025a5.836 5.836 0 0 1 5.563-3.996h.039A5.81 5.81 0 0 1 14 8.65V5a2 2 0 0 0-2-2H4a2 2 0 0 0-2 2v6H1a1 1 0 0 0 0 2h4.784l-.007-.017a1.583 1.583 0 0 1 .006-.958z"/>
    <path d="M11.352 9.03a4.836 4.836 0 0 0-4.621 3.311.58.58 0 0 0 0 .345A4.835 4.835 0 0 0 11.352 16a4.836 4.836 0 0 0 4.621-3.311.577.577 0 0 0 0-.349 4.834 4.834 0 0 0-4.621-3.31zm.291 1.742a.871.871 0 1 1 0 1.742.871.871 0 0 1 0-1.742zm-.291 4.066A3.678 3.678 0 0 1 7.9 12.515a3.526 3.526 0 0 1 1.452-1.743 2.31 2.31 0 0 0-.324 1.162 2.323 2.323 0 1 0 4.646 0 2.298 2.298 0 0 0-.322-1.162 3.516 3.516 0 0 1 1.452 1.743 3.673 3.673 0 0 1-3.452 2.323z"/>
</svg>
