<svg width="16" height="16" fill="#f4f4f7" fill-opacity="context-fill-opacity">
  <path d="M10.19 11H11V9c0-.111.03-.214.063-.314-.895-.096-1.757-.408-1.757-.694a1.9 1.9 0 0 1 2.123-1.455h-.001c1.619.07 2.286 1.035 2.286 1.273 0 .072-.106.184-.271.305A.991.991 0 0 1 14 9v2h.616c.838-.889 1.369-2.341 1.384-4.282.015-2.067-.601-2.727-3.265-2.727S9.291 5.082 8 5.082s-2.07-1.09-4.735-1.09C.6 3.992-.015 4.651 0 6.719c.025 3.329 1.54 5.273 3.592 5.273 1.564 0 2.813-2 4.408-2 .802 0 1.491.505 2.19 1.008zM4.408 8.719c-1.049 0-2.122-.671-2.122-.909s.667-1.203 2.286-1.273a1.9 1.9 0 0 1 2.122 1.455c0 .343-1.237.727-2.286.727z"/>
  <path d="M15.5 12H13V9.5a.5.5 0 0 0-1 0V12H9.5a.5.5 0 0 0 0 1H12v2.5a.5.5 0 0 0 1 0V13h2.5a.5.5 0 0 0 0-1z"/>
</svg>
