<svg xmlns="http://www.w3.org/2000/svg" width="16" height="16" fill="#f4f4f7" fill-opacity="context-fill-opacity">
    <path d="M8 6a1 1 0 0 0 1-1V1a1 1 0 0 0-2 0v4a1 1 0 0 0 1 1zm7.5 6H13V9.5a.5.5 0 0 0-1 0V12H9.5a.5.5 0 0 0 0 1H12v2.5a.5.5 0 0 0 1 0V13h2.5a.5.5 0 0 0 0-1zm-2.628-5.115a.994.994 0 0 0 1.143.825.995.995 0 0 0 .829-1.105 6.957 6.957 0 0 0-.781-2.079 6.999 6.999 0 0 0-2.557-2.557H11.5a1 1 0 0 0-1 1.731c1.271.723 2.103 1.778 2.372 3.185zm-5.026 7.221a1.024 1.024 0 0 0-.78-1.22A4.925 4.925 0 0 1 3 8c0-1.779.954-3.42 2.5-4.3a1 1 0 0 0-1-1.732 7 7 0 0 0-2.557 9.563 6.961 6.961 0 0 0 4.736 3.356 1.019 1.019 0 0 0 1.167-.781z"/>
</svg>
