<svg xmlns="http://www.w3.org/2000/svg" width="468" height="20" fill="#f4f4f7" fill-opacity="context-fill-opacity">
    <path d="m10.414 10 5.293-5.293a1 1 0 0 0-1.414-1.414L9 8.586 3.707 3.293a1 1 0 0 0-1.414 1.414L7.586 10l-5.293 5.293a1 1 0 1 0 1.414 1.414L9 11.414l5.293 5.293a1 1 0 0 0 1.414-1.414z"/>
    <svg x="18">
        <path d="m10.414 10 5.293-5.293a1 1 0 0 0-1.414-1.414L9 8.586 3.707 3.293a1 1 0 0 0-1.414 1.414L7.586 10l-5.293 5.293a1 1 0 1 0 1.414 1.414L9 11.414l5.293 5.293a1 1 0 0 0 1.414-1.414z"/>
    </svg>
    <svg x="36">
        <path d="m10.414 10 5.293-5.293a1 1 0 0 0-1.414-1.414L9 8.586 3.707 3.293a1 1 0 0 0-1.414 1.414L7.586 10l-5.293 5.293a1 1 0 1 0 1.414 1.414L9 11.414l5.293 5.293a1 1 0 0 0 1.414-1.414z"/>
    </svg>
    <svg x="54">
        <path d="m10.414 10 5.293-5.293a1 1 0 0 0-1.414-1.414L9 8.586 3.707 3.293a1 1 0 0 0-1.414 1.414L7.586 10l-5.293 5.293a1 1 0 1 0 1.414 1.414L9 11.414l5.293 5.293a1 1 0 0 0 1.414-1.414z"/>
    </svg>
    <svg x="72">
        <defs>
            <mask id="a" mask-type="alpha" fill="#f4f4f7">
                <path d="M0-2.906A2.907 2.907 0 0 1 2.906 0 2.907 2.907 0 0 1 0 2.906 2.907 2.907 0 0 1-2.906 0 2.907 2.907 0 0 1 0-2.906z" transform="translate(1.177 18.622) scale(6.7782)"/>
            </mask>
        </defs>
        <path d="m10.414 10 5.293-5.293a1 1 0 0 0-1.414-1.414L9 8.586 3.707 3.293a1 1 0 0 0-1.414 1.414L7.586 10l-5.293 5.293a1 1 0 1 0 1.414 1.414L9 11.414l5.293 5.293a1 1 0 0 0 1.414-1.414z" mask="url(#a)"/>
    </svg>
    <svg x="90">
        <defs>
            <mask id="b" mask-type="alpha" fill="#f4f4f7">
                <path d="M0-2.906A2.907 2.907 0 0 1 2.906 0 2.907 2.907 0 0 1 0 2.906 2.907 2.907 0 0 1-2.906 0 2.907 2.907 0 0 1 0-2.906z" transform="translate(1.133 18.622) scale(6.49626)"/>
            </mask>
        </defs>
        <path d="m10.414 10 5.293-5.293a1 1 0 0 0-1.414-1.414L9 8.586 3.707 3.293a1 1 0 0 0-1.414 1.414L7.586 10l-5.293 5.293a1 1 0 1 0 1.414 1.414L9 11.414l5.293 5.293a1 1 0 0 0 1.414-1.414z" mask="url(#b)"/>
    </svg>
    <svg x="108">
        <defs>
            <mask id="c" mask-type="alpha" fill="#f4f4f7">
                <path d="M0-2.906A2.907 2.907 0 0 1 2.906 0 2.907 2.907 0 0 1 0 2.906 2.907 2.907 0 0 1-2.906 0 2.907 2.907 0 0 1 0-2.906z" transform="translate(1.075 18.622) scale(6.1231)"/>
            </mask>
        </defs>
        <path d="m10.414 10 5.293-5.293a1 1 0 0 0-1.414-1.414L9 8.586 3.707 3.293a1 1 0 0 0-1.414 1.414L7.586 10l-5.293 5.293a1 1 0 1 0 1.414 1.414L9 11.414l5.293 5.293a1 1 0 0 0 1.414-1.414z" mask="url(#c)"/>
    </svg>
    <svg x="126">
        <defs>
            <mask id="d" mask-type="alpha" fill="#f4f4f7">
                <path d="M0-2.906A2.907 2.907 0 0 1 2.906 0 2.907 2.907 0 0 1 0 2.906 2.907 2.907 0 0 1-2.906 0 2.907 2.907 0 0 1 0-2.906z" transform="translate(.996 18.622) scale(5.61712)"/>
            </mask>
        </defs>
        <path d="m10.414 10 5.293-5.293a1 1 0 0 0-1.414-1.414L9 8.586 3.707 3.293a1 1 0 0 0-1.414 1.414L7.586 10l-5.293 5.293a1 1 0 1 0 1.414 1.414L9 11.414l5.293 5.293a1 1 0 0 0 1.414-1.414z" mask="url(#d)"/>
    </svg>
    <svg x="144">
        <defs>
            <mask id="f" mask-type="alpha" fill="#f4f4f7">
                <path d="M0-2.906A2.907 2.907 0 0 1 2.906 0 2.907 2.907 0 0 1 0 2.906 2.907 2.907 0 0 1-2.906 0 2.907 2.907 0 0 1 0-2.906z" transform="translate(.884 18.622) scale(4.89783)"/>
            </mask>
            <mask id="e" mask-type="alpha" fill="#f4f4f7">
                <path d="M0-2.906A2.907 2.907 0 0 1 2.906 0 2.907 2.907 0 0 1 0 2.906 2.907 2.907 0 0 1-2.906 0 2.907 2.907 0 0 1 0-2.906z" transform="translate(1.097 1.705) scale(7.12503)"/>
            </mask>
        </defs>
        <g mask="url(#e)">
            <path d="m9 11.413 5.293 5.293a.999.999 0 0 0 1.414-.024 1.001 1.001 0 0 0 0-1.39l-5.293-5.293"/>
            <path d="M10.973 10.558 3.707 3.293a1 1 0 0 0-1.414.024 1.001 1.001 0 0 0 0 1.39l7.266 7.265"/>
        </g>
        <path d="m7.687 9.906-5.394 5.387a1 1 0 0 0-.025 1.414 1 1 0 0 0 1.439 0l5.394-5.387m1.212-1.232 5.393-5.381a.999.999 0 0 0-.024-1.414 1.001 1.001 0 0 0-1.39 0L8.899 8.674" mask="url(#f)"/>
    </svg>
    <svg x="162">
        <defs>
            <mask id="h" mask-type="alpha" fill="#f4f4f7">
                <path d="M0-2.906A2.907 2.907 0 0 1 2.906 0 2.907 2.907 0 0 1 0 2.906 2.907 2.907 0 0 1-2.906 0 2.907 2.907 0 0 1 0-2.906z" transform="translate(.71 18.622) scale(3.7902)"/>
            </mask>
            <mask id="g" mask-type="alpha" fill="#f4f4f7">
                <path d="M0-2.906A2.907 2.907 0 0 1 2.906 0 2.907 2.907 0 0 1 0 2.906 2.907 2.907 0 0 1-2.906 0 2.907 2.907 0 0 1 0-2.906z" transform="translate(1.07 1.705) scale(6.95173)"/>
            </mask>
        </defs>
        <g mask="url(#g)">
            <path d="m9 11.413 5.293 5.293a.999.999 0 0 0 1.414-.024 1.001 1.001 0 0 0 0-1.39l-5.293-5.293"/>
            <path d="M10.973 10.558 3.707 3.293a1 1 0 0 0-1.414.024 1.001 1.001 0 0 0 0 1.39l7.266 7.265"/>
        </g>
        <path d="m7.687 9.906-5.394 5.387a1 1 0 0 0-.025 1.414 1 1 0 0 0 1.439 0l5.394-5.387m1.212-1.232 5.393-5.381a.999.999 0 0 0-.024-1.414 1.001 1.001 0 0 0-1.39 0L8.899 8.674" mask="url(#h)"/>
    </svg>
    <svg x="180">
        <defs>
            <mask id="j" mask-type="alpha" fill="#f4f4f7">
                <path d="M0-2.906A2.907 2.907 0 0 1 2.906 0 2.907 2.907 0 0 1 0 2.906 2.907 2.907 0 0 1-2.906 0 2.907 2.907 0 0 1 0-2.906z" transform="translate(.454 18.622) scale(2.13915)"/>
            </mask>
            <mask id="i" mask-type="alpha" fill="#f4f4f7">
                <path d="M0-2.906A2.907 2.907 0 0 1 2.906 0 2.907 2.907 0 0 1 0 2.906 2.907 2.907 0 0 1-2.906 0 2.907 2.907 0 0 1 0-2.906z" transform="translate(1.034 1.705) scale(6.72397)"/>
            </mask>
        </defs>
        <g mask="url(#i)">
            <path d="m9 11.413 5.293 5.293a.999.999 0 0 0 1.414-.024 1.001 1.001 0 0 0 0-1.39l-5.293-5.293"/>
            <path d="M10.973 10.558 3.707 3.293a1 1 0 0 0-1.414.024 1.001 1.001 0 0 0 0 1.39l7.266 7.265"/>
        </g>
        <path d="m7.687 9.906-5.394 5.387a1 1 0 0 0-.025 1.414 1 1 0 0 0 1.439 0l5.394-5.387m1.212-1.232 5.393-5.381a.999.999 0 0 0-.024-1.414 1.001 1.001 0 0 0-1.39 0L8.899 8.674" mask="url(#j)"/>
    </svg>
    <svg x="198">
        <defs>
            <mask id="k" mask-type="alpha" fill="#f4f4f7">
                <path d="M0-2.906A2.907 2.907 0 0 1 2.906 0 2.907 2.907 0 0 1 0 2.906 2.907 2.907 0 0 1-2.906 0 2.907 2.907 0 0 1 0-2.906z" transform="translate(.987 1.705) scale(6.42492)"/>
            </mask>
        </defs>
        <g mask="url(#k)">
            <path d="m9 11.413 5.293 5.293a.999.999 0 0 0 1.414-.024 1.001 1.001 0 0 0 0-1.39l-5.293-5.293"/>
            <path d="M10.973 10.558 3.707 3.293a1 1 0 0 0-1.414.024 1.001 1.001 0 0 0 0 1.39l7.266 7.265"/>
        </g>
    </svg>
    <svg x="216">
        <defs>
            <mask id="l" mask-type="alpha" fill="#f4f4f7">
                <path d="M0-2.906A2.907 2.907 0 0 1 2.906 0 2.907 2.907 0 0 1 0 2.906 2.907 2.907 0 0 1-2.906 0 2.907 2.907 0 0 1 0-2.906z" transform="translate(.925 1.705) scale(6.02764)"/>
            </mask>
        </defs>
        <g mask="url(#l)">
            <path d="m9 11.413 5.293 5.293a.999.999 0 0 0 1.414-.024 1.001 1.001 0 0 0 0-1.39l-5.293-5.293"/>
            <path d="M10.973 10.558 3.707 3.293a1 1 0 0 0-1.414.024 1.001 1.001 0 0 0 0 1.39l7.266 7.265"/>
        </g>
    </svg>
    <svg x="234">
        <defs>
            <mask id="m" mask-type="alpha" fill="#f4f4f7">
                <path d="M0-2.906A2.907 2.907 0 0 1 2.906 0 2.907 2.907 0 0 1 0 2.906 2.907 2.907 0 0 1-2.906 0 2.907 2.907 0 0 1 0-2.906z" transform="translate(.84 1.705) scale(5.48475)"/>
            </mask>
        </defs>
        <g mask="url(#m)">
            <path d="m9 11.413 5.293 5.293a.999.999 0 0 0 1.414-.024 1.001 1.001 0 0 0 0-1.39l-5.293-5.293"/>
            <path d="M10.973 10.558 3.707 3.293a1 1 0 0 0-1.414.024 1.001 1.001 0 0 0 0 1.39l7.266 7.265"/>
        </g>
    </svg>
    <svg x="252">
        <defs>
            <mask id="n" mask-type="alpha" fill="#f4f4f7">
                <path d="M0-2.906A2.907 2.907 0 0 1 2.906 0 2.907 2.907 0 0 1 0 2.906 2.907 2.907 0 0 1-2.906 0 2.907 2.907 0 0 1 0-2.906z" transform="translate(.718 1.705) scale(4.70182)"/>
            </mask>
        </defs>
        <g mask="url(#n)">
            <path d="m9 11.413 5.293 5.293a.999.999 0 0 0 1.414-.024 1.001 1.001 0 0 0 0-1.39l-5.293-5.293"/>
            <path d="M10.973 10.558 3.707 3.293a1 1 0 0 0-1.414.024 1.001 1.001 0 0 0 0 1.39l7.266 7.265"/>
        </g>
    </svg>
    <svg x="270">
        <defs>
            <mask id="o" mask-type="alpha" fill="#f4f4f7">
                <path d="M0-2.906A2.907 2.907 0 0 1 2.906 0 2.907 2.907 0 0 1 0 2.906 2.907 2.907 0 0 1-2.906 0 2.907 2.907 0 0 1 0-2.906z" transform="translate(.527 1.705) scale(3.47447)"/>
            </mask>
        </defs>
        <path d="M10.973 10.558 3.707 3.293a1 1 0 0 0-1.414.024 1.001 1.001 0 0 0 0 1.39l7.266 7.265" mask="url(#o)"/>
    </svg>
    <svg x="288">
        <defs>
            <mask id="p" mask-type="alpha" fill="#f4f4f7">
                <path d="M0-2.906A2.907 2.907 0 0 1 2.906 0 2.907 2.907 0 0 1 0 2.906 2.907 2.907 0 0 1-2.906 0 2.907 2.907 0 0 1 0-2.906z" transform="translate(.267 1.705) scale(1.80625)"/>
            </mask>
        </defs>
        <path d="M10.973 10.558 3.707 3.293a1 1 0 0 0-1.414.024 1.001 1.001 0 0 0 0 1.39l7.266 7.265" mask="url(#p)"/>
    </svg>
    <svg x="306">
        <path d="M6.148 16.38a6.996 6.996 0 0 0 5.708-12.773 6.997 6.997 0 0 0-6.878.664 6.954 6.954 0 0 0-2.874 4.522 1 1 0 1 0 1.97.345 5.02 5.02 0 1 1 2.352 5.113" opacity=".066"/>
    </svg>
    <svg x="324">
        <path d="m4.934 13.615.584.08a.231.231 0 0 0 .062-.458l-1.144-.155a.231.231 0 0 0-.26.198l-.155 1.144a.231.231 0 0 0 .457.062l.075-.554" opacity=".231"/>
        <path d="M3.416 14.202a6.995 6.995 0 0 0 11.177-8.415 6.997 6.997 0 0 0-6.34-2.747A6.954 6.954 0 0 0 3.55 5.606a1 1 0 1 0 1.557 1.255 5.02 5.02 0 1 1-.417 5.612" opacity=".186"/>
    </svg>
    <svg x="342">
        <path d="m3.778 11.038.737.506a.35.35 0 0 0 .397-.578l-1.444-.993a.35.35 0 0 0-.488.09l-.993 1.445a.35.35 0 0 0 .578.397l.48-.699" opacity=".351"/>
        <path d="M2.08 10.974a6.996 6.996 0 0 0 13.854-1.953 6.997 6.997 0 0 0-4.219-5.473 6.954 6.954 0 0 0-5.358-.03 1 1 0 1 0 .755 1.852 5.02 5.02 0 1 1-3.081 4.71" opacity=".322"/>
    </svg>
    <svg x="360">
        <path d="m4.073 8.272.576 1.051a.47.47 0 0 0 .825-.451L4.345 6.81a.47.47 0 0 0-.638-.187L1.645 7.752a.47.47 0 0 0 .451.825l.998-.546" opacity=".47"/>
        <path d="M2.473 7.503a6.995 6.995 0 0 0 13.068 4.996 6.997 6.997 0 0 0-1.042-6.83 6.954 6.954 0 0 0-4.674-2.62 1 1 0 1 0-.236 1.986 5.02 5.02 0 1 1-4.976 2.63" opacity=".464"/>
    </svg>
    <svg x="378">
        <path d="m5.703 6.065.05 1.503a.59.59 0 0 0 1.179-.04l-.098-2.946a.59.59 0 0 0-.609-.57l-2.947.097a.59.59 0 0 0 .04 1.18l1.424-.048" opacity=".59"/>
        <path d="M4.497 4.656a6.995 6.995 0 0 0-.839 9.857 6.995 6.995 0 0 0 9.857.84 6.997 6.997 0 0 0 2.393-6.482 6.954 6.954 0 0 0-2.821-4.555A1 1 0 1 0 11.92 5.94a5.02 5.02 0 1 1-5.627-.107" opacity=".607"/>
    </svg>
    <svg x="396">
        <path d="m8.198 5.001-.761 1.64a.71.71 0 0 0 1.287.597l1.493-3.217a.71.71 0 0 0-.345-.942L6.655 1.586a.71.71 0 0 0-.597 1.287l1.556.722" opacity=".709"/>
        <path d="M7.646 3.145a6.995 6.995 0 0 0 2.714 13.724 6.997 6.997 0 0 0 5.232-4.514 6.954 6.954 0 0 0-.265-5.35 1 1 0 1 0-1.807.856 5.02 5.02 0 1 1-4.872-2.817" opacity=".747"/>
    </svg>
    <svg x="414">
        <path d="M10.865 5.35 9.207 6.66a.83.83 0 0 0 1.027 1.3l3.253-2.57a.83.83 0 0 0 .136-1.164L11.053.974a.83.83 0 0 0-1.3 1.028l1.243 1.573" opacity=".829"/>
        <path d="M11.133 3.346a6.993 6.993 0 0 0-8.795 4.527 6.995 6.995 0 0 0 4.527 8.796 6.997 6.997 0 0 0 6.763-1.417 6.954 6.954 0 0 0 2.358-4.811 1 1 0 1 0-1.996-.126 5.02 5.02 0 1 1-2.9-4.823" opacity=".877"/>
    </svg>
    <svg x="432">
        <path d="m12.97 6.998-2.37.482a.949.949 0 0 0 .38 1.86l4.647-.948a.949.949 0 0 0 .74-1.118l-.947-4.648a.949.949 0 0 0-1.859.379l.458 2.247" opacity=".949"/>
        <path d="M14.087 5.21A6.993 6.993 0 0 0 4.2 4.915a6.994 6.994 0 0 0-.296 9.888 6.997 6.997 0 0 0 6.604 2.033 6.954 6.954 0 0 0 4.392-3.069 1 1 0 1 0-1.685-1.076 5.02 5.02 0 1 1-.204-5.624" opacity=".981"/>
    </svg>
    <svg x="450">
        <path d="m13.548 7.997-2.549.001a1 1 0 0 0 .001 2l5-.003a1 1 0 0 0 .999-1l-.003-5a1 1 0 0 0-2 .002l.002 2.417"/>
        <path d="M14.998 6.414a6.995 6.995 0 0 0-9.594-2.412 6.995 6.995 0 0 0-2.413 9.594A6.997 6.997 0 0 0 9.004 17a6.954 6.954 0 0 0 4.95-2.053 1 1 0 1 0-1.415-1.413 5.02 5.02 0 1 1 1.01-5.537"/>
    </svg>
</svg>
