<svg xmlns="http://www.w3.org/2000/svg" width="16" height="16">
    <path fill="#f4f4f7" fill-opacity="context-fill-opacity" d="m15.707 4.293-4-4a1 1 0 0 0-1.414 1.414L12.585 4H11a7.008 7.008 0 0 0-7 7 1 1 0 0 0 2 0 5.006 5.006 0 0 1 5-5h1.585l-2.293 2.293a1 1 0 1 0 1.414 1.414l4-4a1 1 0 0 0 .001-1.414Z"/>
    <path fill="#f4f4f7" fill-opacity="context-fill-opacity" d="M13 11a1 1 0 0 0-1 1v1a1 1 0 0 1-1 1H3a1 1 0 0 1-1-1V6a1 1 0 0 1 1-1h1a1 1 0 0 0 0-2H3a3 3 0 0 0-3 3v7a3 3 0 0 0 3 3h8a3 3 0 0 0 3-3v-1a1 1 0 0 0-1-1Z"/>
</svg>
