<svg xmlns="http://www.w3.org/2000/svg" width="16" height="16" fill="#f4f4f7" fill-opacity="context-fill-opacity">
    <path d="m14.744 4.757-3.5-3.5a.875.875 0 0 0-1.237 1.237L12.013 4.5h-1.387A6.133 6.133 0 0 0 4.5 10.626a.875.875 0 0 0 1.75 0 4.38 4.38 0 0 1 4.375-4.375h1.387l-2.006 2.006a.875.875 0 0 0 1.215 1.259l.022-.022 3.5-3.5a.875.875 0 0 0 .001-1.237z"/>
    <path d="M12.375 10.626a.875.875 0 0 0-.875.875v.875a.875.875 0 0 1-.875.875h-7a.875.875 0 0 1-.875-.875V6.251c0-.483.392-.875.875-.875H4.5a.875.875 0 0 0 0-1.75h-.875A2.625 2.625 0 0 0 1 6.251v6.125a2.625 2.625 0 0 0 2.625 2.625h7a2.625 2.625 0 0 0 2.625-2.625v-.875a.875.875 0 0 0-.875-.875z"/>
</svg>
