<svg width="16" height="16" fill="#f4f4f7" fill-opacity="context-fill-opacity">
  <path d="M15.5 9a.5.5 0 0 0-.5.5v.573a3.474 3.474 0 0 0-5.887 1.58.5.5 0 0 0 .964.264l.006-.022A2.493 2.493 0 0 1 12.5 9.999a2.458 2.458 0 0 1 1.983 1H13.5a.5.5 0 0 0 0 1h2a.5.5 0 0 0 .5-.5v-2A.5.5 0 0 0 15.5 9zm.023 3.74a.5.5 0 0 0-.606.364A2.493 2.493 0 0 1 12.5 15a2.458 2.458 0 0 1-1.983-1h.983a.5.5 0 0 0 0-1h-2a.5.5 0 0 0-.5.5v2a.5.5 0 0 0 1 0v-.573a3.474 3.474 0 0 0 5.887-1.58.502.502 0 0 0-.364-.607z"/>
  <path d="M8.01 12.485a4.538 4.538 0 0 1 4.538-4.538c.511 0 .994.103 1.452.259V5a2 2 0 0 0-2-2H4a2 2 0 0 0-2 2v6H1a1 1 0 0 0 0 2h7.062c-.02-.171-.052-.339-.052-.515z"/>
</svg>
