<svg viewBox="0 0 40 40" xmlns="http://www.w3.org/2000/svg">
    <linearGradient id="a" gradientUnits="userSpaceOnUse" x1="20" x2="20" y1="2.85" y2="37.15">
        <stop offset="0" stop-color="#e63b2e"/>
        <stop offset="1" stop-color="#c33931"/>
    </linearGradient>
    <path clip-rule="evenodd" d="M39.048 6.798H19.004c-2.289-.016-2.809-1.142-3.165-2.401C15.48 3.128 14.763 2 12.61 2H6.443C4.29 2 3.573 3.127 3.214 4.397 2.855 5.666 2.332 6.8 0 6.8h.94a.954.954 0 0 0-.937.958v27.583c0 .53.426.959.952.959h38.093a.955.955 0 0 0 .952-.959V7.757a.955.955 0 0 0-.952-.959zM8.441 17.082c0-2.119 1.705-3.837 3.809-3.837 2.103 0 3.809 1.718 3.809 3.837s-1.705 3.837-3.809 3.837-3.809-1.718-3.809-3.837zM26.717 30.98c-1.525 0-1.525-2.305-6.864-2.305s-5.339 2.305-6.864 2.305c-.842 0-1.526-.512-1.526-1.537 0-1.024 1.271-3.842 8.39-3.842s8.39 2.804 8.39 3.842-.683 1.537-1.526 1.537zm.768-10.061c-2.104 0-3.809-1.718-3.809-3.837s1.705-3.837 3.809-3.837 3.809 1.718 3.809 3.837-1.706 3.837-3.809 3.837z" fill="url(#a)" fill-rule="evenodd"/>
</svg>
