<svg width="16" height="16" fill="#f4f4f7" fill-opacity="context-fill-opacity">
  <path d="M16 8V6a2 2 0 0 0-2-2H2a2 2 0 0 0-2 2v2h4v1.333H0v5.333c0 .368.298.667.667.667h14.667a.667.667 0 0 0 .667-.667V9.333h-4V8H16zm-4.667 2.667H10.6a2.652 2.652 0 0 1-.267.667l.533.533-.933.933-.533-.533-.667.267v.8h-1.4V12.6l-.667-.267-.533.533-.933-1 .533-.533a2.66 2.66 0 0 1-.267-.667h-.8V9.333H5.4a2.63 2.63 0 0 1 .267-.666l-.534-.534.934-.933.533.533.667-.267v-.8H8.6V7.4l.667.267.533-.534.933.933-.533.534c.119.209.208.433.267.667h.867l-.001 1.4z"/>
  <circle cx="8" cy="10" r="1.333"/>
  <path d="M6 2h4v1.333h1.333v-2a.667.667 0 0 0-.667-.667H5.333a.667.667 0 0 0-.667.667v2H6V2z"/>
</svg>
