<svg width="272" height="16">
  <defs>
    <path id="tracking-protection-animation-brighttext_svg__a" d="M-4-4.3c0 1.625-.049 2.76 0 3.3a7.57 7.57 0 0 0 1.487 4.382A4.22 4.22 0 0 0 0 4.987a4.218 4.218 0 0 0 2.512-1.605A7.57 7.57 0 0 0 4-1c.049-.54 0-1.675 0-3.3l-4-.685-4 .685zM0 7.006l-.112-.012a6.247 6.247 0 0 1-4.012-2.426 9.273 9.273 0 0 1-1.8-5.287C-6-1.558-6-3.4-6-4.425a1.846 1.846 0 0 1 1.527-1.822L0-7.015l4.471.768A1.845 1.845 0 0 1 6-4.424c0 1.023 0 2.866-.08 3.705a9.266 9.266 0 0 1-1.8 5.287A6.25 6.25 0 0 1 .108 6.994L0 7.006z"/>
    <path id="tracking-protection-animation-brighttext_svg__b" d="m1.25-3.451-2.5.428c.009.942.03 1.655.062 2a5.77 5.77 0 0 0 1.13 3.531 2.689 2.689 0 0 0 1.3.943h.008v-6.902z"/>
    <linearGradient id="tracking-protection-animation-brighttext_svg__c" x1="-5.224" x2="-2.95" y1="-6.263" y2="10.923" gradientUnits="userSpaceOnUse" spreadMethod="pad">
      <stop offset="0%" stop-color="#C689FF"/>
      <stop offset="50%" stop-color="#639EF9"/>
      <stop offset="100%" stop-color="#00B3F4"/>
    </linearGradient>
  </defs>
  <svg width="16" height="16">
    <use fill="#BABABA" href="#tracking-protection-animation-brighttext_svg__a" transform="translate(8 8)"/>
    <g transform="translate(6.75 7.988)">
      <use fill="#BABABA" fill-opacity=".99" href="#tracking-protection-animation-brighttext_svg__b"/>
      <use fill="url(#tracking-protection-animation-brighttext_svg__c)" fill-opacity="0" href="#tracking-protection-animation-brighttext_svg__b"/>
    </g>
  </svg>
  <svg width="16" height="16" x="16">
    <defs>
      <mask id="tracking-protection-animation-brighttext_svg__d" mask-type="alpha">
        <path fill="red" d="M3.062 4.125s-.018.131-.044.353"/>
        <path fill-opacity="0" stroke="#D60021" stroke-linecap="round" stroke-linejoin="round" stroke-width="3" d="M3.062 4.125s-.018.131-.044.353"/>
      </mask>
    </defs>
    <use fill="#BABABA" href="#tracking-protection-animation-brighttext_svg__a" transform="translate(8 8)"/>
    <g transform="translate(6.75 7.988)">
      <use fill="#BABABA" fill-opacity=".99" href="#tracking-protection-animation-brighttext_svg__b"/>
      <use fill="url(#tracking-protection-animation-brighttext_svg__c)" fill-opacity="0" href="#tracking-protection-animation-brighttext_svg__b"/>
    </g>
    <g mask="url(#tracking-protection-animation-brighttext_svg__d)">
      <use fill="url(#tracking-protection-animation-brighttext_svg__c)" href="#tracking-protection-animation-brighttext_svg__a" transform="translate(8 8)"/>
    </g>
  </svg>
  <svg width="16" height="16" x="32">
    <defs>
      <mask id="tracking-protection-animation-brighttext_svg__e" mask-type="alpha">
        <path fill="red" d="M3.062 4.125s-.114.822-.172 1.847"/>
        <path fill-opacity="0" stroke="#D60021" stroke-linecap="round" stroke-linejoin="round" stroke-width="3" d="M3.062 4.125s-.114.822-.172 1.847"/>
      </mask>
    </defs>
    <use fill="#BABABA" href="#tracking-protection-animation-brighttext_svg__a" transform="translate(8 8)"/>
    <g transform="translate(6.75 7.988)">
      <use fill="#BABABA" fill-opacity=".99" href="#tracking-protection-animation-brighttext_svg__b"/>
      <use fill="url(#tracking-protection-animation-brighttext_svg__c)" fill-opacity="0" href="#tracking-protection-animation-brighttext_svg__b"/>
    </g>
    <g mask="url(#tracking-protection-animation-brighttext_svg__e)">
      <use fill="url(#tracking-protection-animation-brighttext_svg__c)" href="#tracking-protection-animation-brighttext_svg__a" transform="translate(8 8)"/>
    </g>
  </svg>
  <svg width="16" height="16" x="48">
    <defs>
      <mask id="tracking-protection-animation-brighttext_svg__f" mask-type="alpha">
        <path fill="red" d="M3.062 4.125s-.625 4.501.313 5.563a12.49 12.49 0 0 1 .238.278"/>
        <path fill-opacity="0" stroke="#D60021" stroke-linecap="round" stroke-linejoin="round" stroke-width="3" d="M3.062 4.125s-.625 4.501.313 5.563a12.49 12.49 0 0 1 .238.278"/>
      </mask>
    </defs>
    <use fill="#BABABA" href="#tracking-protection-animation-brighttext_svg__a" transform="translate(8 8)"/>
    <g transform="translate(6.75 7.988)">
      <use fill="#BABABA" fill-opacity=".99" href="#tracking-protection-animation-brighttext_svg__b"/>
      <use fill="url(#tracking-protection-animation-brighttext_svg__c)" fill-opacity="0" href="#tracking-protection-animation-brighttext_svg__b"/>
    </g>
    <g mask="url(#tracking-protection-animation-brighttext_svg__f)">
      <use fill="url(#tracking-protection-animation-brighttext_svg__c)" href="#tracking-protection-animation-brighttext_svg__a" transform="translate(8 8)"/>
    </g>
  </svg>
  <svg width="16" height="16" x="64">
    <defs>
      <mask id="tracking-protection-animation-brighttext_svg__g" mask-type="alpha">
        <path fill="red" d="M3.062 4.125s-.625 4.501.313 5.563c.938 1.062 3.251 4.25 4.563 4.25.551 0 1.322-.54 2.091-1.244"/>
        <path fill-opacity="0" stroke="#D60021" stroke-linecap="round" stroke-linejoin="round" stroke-width="3" d="M3.062 4.125s-.625 4.501.313 5.563c.938 1.062 3.251 4.25 4.563 4.25.551 0 1.322-.54 2.091-1.244"/>
      </mask>
    </defs>
    <use fill="#BABABA" href="#tracking-protection-animation-brighttext_svg__a" transform="translate(8 8)"/>
    <g transform="translate(6.75 7.988)">
      <use fill="#BABABA" fill-opacity=".99" href="#tracking-protection-animation-brighttext_svg__b"/>
      <use fill="url(#tracking-protection-animation-brighttext_svg__c)" fill-opacity=".1" href="#tracking-protection-animation-brighttext_svg__b"/>
    </g>
    <g mask="url(#tracking-protection-animation-brighttext_svg__g)">
      <use fill="url(#tracking-protection-animation-brighttext_svg__c)" href="#tracking-protection-animation-brighttext_svg__a" transform="translate(8 8)"/>
    </g>
  </svg>
  <svg width="16" height="16" x="80">
    <defs>
      <mask id="tracking-protection-animation-brighttext_svg__h" mask-type="alpha">
        <path fill="red" d="M3.062 4.125s-.625 4.501.313 5.563c.938 1.062 3.251 4.25 4.563 4.25 1.312 0 3.875-3.064 4.687-4.126.326-.426.451-1.508.483-2.649"/>
        <path fill-opacity="0" stroke="#D60021" stroke-linecap="round" stroke-linejoin="round" stroke-width="3" d="M3.062 4.125s-.625 4.501.313 5.563c.938 1.062 3.251 4.25 4.563 4.25 1.312 0 3.875-3.064 4.687-4.126.326-.426.451-1.508.483-2.649"/>
      </mask>
    </defs>
    <use fill="#BABABA" href="#tracking-protection-animation-brighttext_svg__a" transform="translate(8 8)"/>
    <g transform="translate(6.75 7.988)">
      <use fill="#BABABA" fill-opacity=".99" href="#tracking-protection-animation-brighttext_svg__b"/>
      <use fill="url(#tracking-protection-animation-brighttext_svg__c)" fill-opacity=".2" href="#tracking-protection-animation-brighttext_svg__b"/>
    </g>
    <g mask="url(#tracking-protection-animation-brighttext_svg__h)">
      <use fill="url(#tracking-protection-animation-brighttext_svg__c)" href="#tracking-protection-animation-brighttext_svg__a" transform="translate(8 8)"/>
    </g>
  </svg>
  <svg width="16" height="16" x="96">
    <defs>
      <mask id="tracking-protection-animation-brighttext_svg__i" mask-type="alpha">
        <path fill="red" d="M3.062 4.125s-.625 4.501.313 5.563c.938 1.062 3.251 4.25 4.563 4.25 1.312 0 3.875-3.064 4.687-4.126.812-1.062.375-6.187.375-6.187s-.152-.084-.413-.214"/>
        <path fill-opacity="0" stroke="#D60021" stroke-linecap="round" stroke-linejoin="round" stroke-width="3" d="M3.062 4.125s-.625 4.501.313 5.563c.938 1.062 3.251 4.25 4.563 4.25 1.312 0 3.875-3.064 4.687-4.126.812-1.062.375-6.187.375-6.187s-.152-.084-.413-.214"/>
      </mask>
    </defs>
    <use fill="#BABABA" href="#tracking-protection-animation-brighttext_svg__a" transform="translate(8 8)"/>
    <g transform="translate(6.75 7.988)">
      <use fill="#BABABA" fill-opacity=".99" href="#tracking-protection-animation-brighttext_svg__b"/>
      <use fill="url(#tracking-protection-animation-brighttext_svg__c)" fill-opacity=".3" href="#tracking-protection-animation-brighttext_svg__b"/>
    </g>
    <g mask="url(#tracking-protection-animation-brighttext_svg__i)">
      <use fill="url(#tracking-protection-animation-brighttext_svg__c)" href="#tracking-protection-animation-brighttext_svg__a" transform="translate(8 8)"/>
    </g>
  </svg>
  <svg width="16" height="16" x="112">
    <defs>
      <mask id="tracking-protection-animation-brighttext_svg__j" mask-type="alpha">
        <path fill="red" d="M3.062 4.125s-.625 4.501.313 5.563c.938 1.062 3.251 4.25 4.563 4.25 1.312 0 3.875-3.064 4.687-4.126.812-1.062.375-6.187.375-6.187s-1.348-.749-2.904-1.21"/>
        <path fill-opacity="0" stroke="#D60021" stroke-linecap="round" stroke-linejoin="round" stroke-width="3" d="M3.062 4.125s-.625 4.501.313 5.563c.938 1.062 3.251 4.25 4.563 4.25 1.312 0 3.875-3.064 4.687-4.126.812-1.062.375-6.187.375-6.187s-1.348-.749-2.904-1.21"/>
      </mask>
    </defs>
    <use fill="#BABABA" href="#tracking-protection-animation-brighttext_svg__a" transform="translate(8 8)"/>
    <g transform="translate(6.75 7.988)">
      <use fill="#BABABA" fill-opacity=".99" href="#tracking-protection-animation-brighttext_svg__b"/>
      <use fill="url(#tracking-protection-animation-brighttext_svg__c)" fill-opacity=".4" href="#tracking-protection-animation-brighttext_svg__b"/>
    </g>
    <g mask="url(#tracking-protection-animation-brighttext_svg__j)">
      <use fill="url(#tracking-protection-animation-brighttext_svg__c)" href="#tracking-protection-animation-brighttext_svg__a" transform="translate(8 8)"/>
    </g>
  </svg>
  <svg width="16" height="16" x="128">
    <defs>
      <mask id="tracking-protection-animation-brighttext_svg__k" mask-type="alpha">
        <path fill="red" d="M3.062 4.125s-.625 4.501.313 5.563c.938 1.062 3.251 4.25 4.563 4.25 1.312 0 3.875-3.064 4.687-4.126.812-1.062.375-6.187.375-6.187S10.364 2.16 8.21 2.067"/>
        <path fill-opacity="0" stroke="#D60021" stroke-linecap="round" stroke-linejoin="round" stroke-width="3" d="M3.062 4.125s-.625 4.501.313 5.563c.938 1.062 3.251 4.25 4.563 4.25 1.312 0 3.875-3.064 4.687-4.126.812-1.062.375-6.187.375-6.187S10.364 2.16 8.21 2.067"/>
      </mask>
    </defs>
    <use fill="#BABABA" href="#tracking-protection-animation-brighttext_svg__a" transform="translate(8 8)"/>
    <g transform="translate(6.75 7.988)">
      <use fill="#BABABA" fill-opacity=".99" href="#tracking-protection-animation-brighttext_svg__b"/>
      <use fill="url(#tracking-protection-animation-brighttext_svg__c)" fill-opacity=".5" href="#tracking-protection-animation-brighttext_svg__b"/>
    </g>
    <g mask="url(#tracking-protection-animation-brighttext_svg__k)">
      <use fill="url(#tracking-protection-animation-brighttext_svg__c)" href="#tracking-protection-animation-brighttext_svg__a" transform="translate(8 8)"/>
    </g>
  </svg>
  <svg width="16" height="16" x="144">
    <defs>
      <mask id="tracking-protection-animation-brighttext_svg__l" mask-type="alpha">
        <path fill="red" d="M3.062 4.125s-.625 4.501.313 5.563c.938 1.062 3.251 4.25 4.563 4.25 1.312 0 3.875-3.064 4.687-4.126.812-1.062.375-6.187.375-6.187s-2.812-1.563-5-1.563a8.02 8.02 0 0 0-1.206.097"/>
        <path fill-opacity="0" stroke="#D60021" stroke-linecap="round" stroke-linejoin="round" stroke-width="3" d="M3.062 4.125s-.625 4.501.313 5.563c.938 1.062 3.251 4.25 4.563 4.25 1.312 0 3.875-3.064 4.687-4.126.812-1.062.375-6.187.375-6.187s-2.812-1.563-5-1.563a8.02 8.02 0 0 0-1.206.097"/>
      </mask>
    </defs>
    <use fill="#BABABA" href="#tracking-protection-animation-brighttext_svg__a" transform="translate(8 8)"/>
    <g transform="translate(6.75 7.988)">
      <use fill="#BABABA" fill-opacity=".99" href="#tracking-protection-animation-brighttext_svg__b"/>
      <use fill="url(#tracking-protection-animation-brighttext_svg__c)" fill-opacity=".6" href="#tracking-protection-animation-brighttext_svg__b"/>
    </g>
    <g mask="url(#tracking-protection-animation-brighttext_svg__l)">
      <use fill="url(#tracking-protection-animation-brighttext_svg__c)" href="#tracking-protection-animation-brighttext_svg__a" transform="translate(8 8)"/>
    </g>
  </svg>
  <svg width="16" height="16" x="160">
    <defs>
      <mask id="tracking-protection-animation-brighttext_svg__m" mask-type="alpha">
        <path fill="red" d="M3.062 4.125s-.625 4.501.313 5.563c.938 1.062 3.251 4.25 4.563 4.25 1.312 0 3.875-3.064 4.687-4.126.812-1.062.375-6.187.375-6.187s-2.812-1.563-5-1.563c-.783 0-1.566.136-2.248.311"/>
        <path fill-opacity="0" stroke="#D60021" stroke-linecap="round" stroke-linejoin="round" stroke-width="3" d="M3.062 4.125s-.625 4.501.313 5.563c.938 1.062 3.251 4.25 4.563 4.25 1.312 0 3.875-3.064 4.687-4.126.812-1.062.375-6.187.375-6.187s-2.812-1.563-5-1.563c-.783 0-1.566.136-2.248.311"/>
      </mask>
    </defs>
    <use fill="#BABABA" href="#tracking-protection-animation-brighttext_svg__a" transform="translate(8 8)"/>
    <g transform="translate(6.75 7.988)">
      <use fill="#BABABA" fill-opacity=".792" href="#tracking-protection-animation-brighttext_svg__b"/>
      <use fill="url(#tracking-protection-animation-brighttext_svg__c)" fill-opacity=".7" href="#tracking-protection-animation-brighttext_svg__b"/>
    </g>
    <g mask="url(#tracking-protection-animation-brighttext_svg__m)">
      <use fill="url(#tracking-protection-animation-brighttext_svg__c)" href="#tracking-protection-animation-brighttext_svg__a" transform="translate(8 8)"/>
    </g>
  </svg>
  <svg width="16" height="16" x="176">
    <defs>
      <mask id="tracking-protection-animation-brighttext_svg__n" mask-type="alpha">
        <path fill="red" d="M3.062 4.125s-.625 4.501.313 5.563c.938 1.062 3.251 4.25 4.563 4.25 1.312 0 3.875-3.064 4.687-4.126.812-1.062.375-6.187.375-6.187s-2.812-1.563-5-1.563c-1.096 0-2.191.267-3.011.533"/>
        <path fill-opacity="0" stroke="#D60021" stroke-linecap="round" stroke-linejoin="round" stroke-width="3" d="M3.062 4.125s-.625 4.501.313 5.563c.938 1.062 3.251 4.25 4.563 4.25 1.312 0 3.875-3.064 4.687-4.126.812-1.062.375-6.187.375-6.187s-2.812-1.563-5-1.563c-1.096 0-2.191.267-3.011.533"/>
      </mask>
    </defs>
    <use fill="#BABABA" href="#tracking-protection-animation-brighttext_svg__a" transform="translate(8 8)"/>
    <g transform="translate(6.75 7.988)">
      <use fill="#BABABA" fill-opacity=".594" href="#tracking-protection-animation-brighttext_svg__b"/>
      <use fill="url(#tracking-protection-animation-brighttext_svg__c)" fill-opacity=".8" href="#tracking-protection-animation-brighttext_svg__b"/>
    </g>
    <g mask="url(#tracking-protection-animation-brighttext_svg__n)">
      <use fill="url(#tracking-protection-animation-brighttext_svg__c)" href="#tracking-protection-animation-brighttext_svg__a" transform="translate(8 8)"/>
    </g>
  </svg>
  <svg width="16" height="16" x="192">
    <defs>
      <mask id="tracking-protection-animation-brighttext_svg__o" mask-type="alpha">
        <path fill="red" d="M3.062 4.125s-.625 4.501.313 5.563c.938 1.062 3.251 4.25 4.563 4.25 1.312 0 3.875-3.064 4.687-4.126.812-1.062.375-6.187.375-6.187s-2.812-1.563-5-1.563c-1.365 0-2.729.414-3.563.725"/>
        <path fill-opacity="0" stroke="#D60021" stroke-linecap="round" stroke-linejoin="round" stroke-width="3" d="M3.062 4.125s-.625 4.501.313 5.563c.938 1.062 3.251 4.25 4.563 4.25 1.312 0 3.875-3.064 4.687-4.126.812-1.062.375-6.187.375-6.187s-2.812-1.563-5-1.563c-1.365 0-2.729.414-3.563.725"/>
      </mask>
    </defs>
    <use fill="#BABABA" href="#tracking-protection-animation-brighttext_svg__a" transform="translate(8 8)"/>
    <g transform="translate(6.75 7.988)">
      <use fill="#BABABA" fill-opacity=".396" href="#tracking-protection-animation-brighttext_svg__b"/>
      <use fill="url(#tracking-protection-animation-brighttext_svg__c)" fill-opacity=".9" href="#tracking-protection-animation-brighttext_svg__b"/>
    </g>
    <g mask="url(#tracking-protection-animation-brighttext_svg__o)">
      <use fill="url(#tracking-protection-animation-brighttext_svg__c)" href="#tracking-protection-animation-brighttext_svg__a" transform="translate(8 8)"/>
    </g>
  </svg>
  <svg width="16" height="16" x="208">
    <defs>
      <mask id="tracking-protection-animation-brighttext_svg__p" mask-type="alpha">
        <path fill="red" d="M3.062 4.125s-.625 4.501.313 5.563c.938 1.062 3.251 4.25 4.563 4.25 1.312 0 3.875-3.064 4.687-4.126.812-1.062.375-6.187.375-6.187s-2.812-1.563-5-1.563c-1.602 0-3.204.57-3.947.875"/>
        <path fill-opacity="0" stroke="#D60021" stroke-linecap="round" stroke-linejoin="round" stroke-width="3" d="M3.062 4.125s-.625 4.501.313 5.563c.938 1.062 3.251 4.25 4.563 4.25 1.312 0 3.875-3.064 4.687-4.126.812-1.062.375-6.187.375-6.187s-2.812-1.563-5-1.563c-1.602 0-3.204.57-3.947.875"/>
      </mask>
    </defs>
    <use fill="#BABABA" href="#tracking-protection-animation-brighttext_svg__a" transform="translate(8 8)"/>
    <g transform="translate(6.75 7.988)">
      <use fill="#BABABA" fill-opacity=".198" href="#tracking-protection-animation-brighttext_svg__b"/>
      <use fill="url(#tracking-protection-animation-brighttext_svg__c)" href="#tracking-protection-animation-brighttext_svg__b"/>
    </g>
    <g mask="url(#tracking-protection-animation-brighttext_svg__p)">
      <use fill="url(#tracking-protection-animation-brighttext_svg__c)" href="#tracking-protection-animation-brighttext_svg__a" transform="translate(8 8)"/>
    </g>
  </svg>
  <svg width="16" height="16" x="224">
    <defs>
      <mask id="tracking-protection-animation-brighttext_svg__q" mask-type="alpha">
        <path fill="red" d="M3.062 4.125s-.625 4.501.313 5.563c.938 1.062 3.251 4.25 4.563 4.25 1.312 0 3.875-3.064 4.687-4.126.812-1.062.375-6.187.375-6.187s-2.812-1.563-5-1.563c-1.816 0-3.631.732-4.196.981"/>
        <path fill-opacity="0" stroke="#D60021" stroke-linecap="round" stroke-linejoin="round" stroke-width="3" d="M3.062 4.125s-.625 4.501.313 5.563c.938 1.062 3.251 4.25 4.563 4.25 1.312 0 3.875-3.064 4.687-4.126.812-1.062.375-6.187.375-6.187s-2.812-1.563-5-1.563c-1.816 0-3.631.732-4.196.981"/>
      </mask>
    </defs>
    <g opacity=".75">
      <use fill="#BABABA" href="#tracking-protection-animation-brighttext_svg__a" opacity="1" transform="translate(8 8)"/>
    </g>
    <g transform="translate(6.75 7.988)">
      <use fill="#BABABA" fill-opacity="0" href="#tracking-protection-animation-brighttext_svg__b"/>
      <use fill="url(#tracking-protection-animation-brighttext_svg__c)" href="#tracking-protection-animation-brighttext_svg__b"/>
    </g>
    <g mask="url(#tracking-protection-animation-brighttext_svg__q)">
      <use fill="url(#tracking-protection-animation-brighttext_svg__c)" href="#tracking-protection-animation-brighttext_svg__a" transform="translate(8 8)"/>
    </g>
  </svg>
  <svg width="16" height="16" x="240">
    <defs>
      <mask id="tracking-protection-animation-brighttext_svg__r" mask-type="alpha">
        <path fill="red" d="M3.062 4.125s-.625 4.501.313 5.563c.938 1.062 3.251 4.25 4.563 4.25 1.312 0 3.875-3.064 4.687-4.126.812-1.062.375-6.187.375-6.187s-2.812-1.563-5-1.563c-2.01 0-4.018.897-4.333 1.043"/>
        <path fill-opacity="0" stroke="#D60021" stroke-linecap="round" stroke-linejoin="round" stroke-width="3" d="M3.062 4.125s-.625 4.501.313 5.563c.938 1.062 3.251 4.25 4.563 4.25 1.312 0 3.875-3.064 4.687-4.126.812-1.062.375-6.187.375-6.187s-2.812-1.563-5-1.563c-2.01 0-4.018.897-4.333 1.043"/>
      </mask>
    </defs>
    <g opacity=".5">
      <use fill="#BABABA" href="#tracking-protection-animation-brighttext_svg__a" opacity="1" transform="translate(8 8)"/>
    </g>
    <g transform="translate(6.75 7.988)">
      <use fill="#BABABA" fill-opacity="0" href="#tracking-protection-animation-brighttext_svg__b"/>
      <use fill="url(#tracking-protection-animation-brighttext_svg__c)" href="#tracking-protection-animation-brighttext_svg__b"/>
    </g>
    <g mask="url(#tracking-protection-animation-brighttext_svg__r)">
      <use fill="url(#tracking-protection-animation-brighttext_svg__c)" href="#tracking-protection-animation-brighttext_svg__a" transform="translate(8 8)"/>
    </g>
  </svg>
  <svg width="16" height="16" x="256">
    <defs>
      <mask id="tracking-protection-animation-brighttext_svg__s" mask-type="alpha">
        <path fill="red" d="M3.062 4.125s-.625 4.501.313 5.563c.938 1.062 3.251 4.25 4.563 4.25 1.312 0 3.875-3.064 4.687-4.126.812-1.062.375-6.187.375-6.187s-2.812-1.563-5-1.563-4.375 1.063-4.375 1.063"/>
        <path fill-opacity="0" stroke="#D60021" stroke-linecap="round" stroke-linejoin="round" stroke-width="3" d="M3.062 4.125s-.625 4.501.313 5.563c.938 1.062 3.251 4.25 4.563 4.25 1.312 0 3.875-3.064 4.687-4.126.812-1.062.375-6.187.375-6.187s-2.812-1.563-5-1.563-4.375 1.063-4.375 1.063"/>
      </mask>
    </defs>
    <g opacity=".25">
      <use fill="#BABABA" href="#tracking-protection-animation-brighttext_svg__a" opacity="1" transform="translate(8 8)"/>
    </g>
    <g transform="translate(6.75 7.988)">
      <use fill="#BABABA" fill-opacity="0" href="#tracking-protection-animation-brighttext_svg__b"/>
      <use fill="url(#tracking-protection-animation-brighttext_svg__c)" href="#tracking-protection-animation-brighttext_svg__b"/>
    </g>
    <g mask="url(#tracking-protection-animation-brighttext_svg__s)">
      <use fill="url(#tracking-protection-animation-brighttext_svg__c)" href="#tracking-protection-animation-brighttext_svg__a" transform="translate(8 8)"/>
    </g>
  </svg>
  <svg width="16" height="16" x="272">
    <use fill="#BABABA" href="#tracking-protection-animation-brighttext_svg__a" transform="translate(8 8)"/>
    <g transform="translate(6.75 7.988)">
      <use fill="#BABABA" fill-opacity=".99" href="#tracking-protection-animation-brighttext_svg__b"/>
      <use fill="url(#tracking-protection-animation-brighttext_svg__c)" fill-opacity="0" href="#tracking-protection-animation-brighttext_svg__b"/>
    </g>
    <g mask="url(#tracking-protection-animation-brighttext_svg__M)">
      <use fill="url(#tracking-protection-animation-brighttext_svg__c)" href="#tracking-protection-animation-brighttext_svg__a" transform="translate(8 8)"/>
    </g>
  </svg>
</svg>
