<svg xmlns="http://www.w3.org/2000/svg" width="272" height="16"><defs><path id="a" d="M-4-4.3c0 1.625-.049 2.76 0 3.3a7.57 7.57 0 0 0 1.487 4.382A4.22 4.22 0 0 0 0 4.987a4.218 4.218 0 0 0 2.512-1.605A7.57 7.57 0 0 0 4-1c.049-.54 0-1.675 0-3.3l-4-.685-4 .685zM0 7.006l-.112-.012a6.247 6.247 0 0 1-4.012-2.426 9.273 9.273 0 0 1-1.8-5.287C-6-1.558-6-3.4-6-4.425a1.846 1.846 0 0 1 1.527-1.822L0-7.015l4.471.768A1.845 1.845 0 0 1 6-4.424c0 1.023 0 2.866-.08 3.705a9.266 9.266 0 0 1-1.8 5.287A6.25 6.25 0 0 1 .108 6.994L0 7.006z"/><path id="b" d="m1.25-3.451-2.5.428c.009.942.03 1.655.062 2a5.77 5.77 0 0 0 1.13 3.531 2.689 2.689 0 0 0 1.3.943h.008v-6.902z"/><linearGradient id="c" x1="-5.224" x2="-2.95" y1="-6.263" y2="10.923" gradientUnits="userSpaceOnUse" spreadMethod="pad"><stop offset="0%" stop-color="#C689FF"/><stop offset="50%" stop-color="#639EF9"/><stop offset="100%" stop-color="#00B3F4"/></linearGradient></defs><svg width="16" height="16"><use fill="#BABABA" href="#a" transform="translate(8 8)"/><g transform="translate(6.75 7.988)"><use fill="#BABABA" fill-opacity=".99" href="#b"/><use fill="url(#c)" fill-opacity="0" href="#b"/></g></svg><svg width="16" height="16" x="16"><defs><mask id="d" mask-type="alpha"><path fill="red" d="M-4.938-3.875s-.018.131-.044.353" transform="translate(8 8)"/><path fill-opacity="0" stroke="#D60021" stroke-linecap="round" stroke-linejoin="round" stroke-width="3" d="M3.062 4.125s-.018.131-.044.353"/></mask></defs><use fill="#BABABA" href="#a" transform="translate(8 8)"/><g transform="translate(6.75 7.988)"><use fill="#BABABA" fill-opacity=".99" href="#b"/><use fill="url(#c)" fill-opacity="0" href="#b"/></g><g mask="url(#d)"><use fill="url(#c)" href="#a" transform="translate(8 8)"/></g></svg><svg width="16" height="16" x="32"><defs><mask id="e" mask-type="alpha"><path fill="red" d="M-4.938-3.875s-.114.822-.172 1.847" transform="translate(8 8)"/><path fill-opacity="0" stroke="#D60021" stroke-linecap="round" stroke-linejoin="round" stroke-width="3" d="M3.062 4.125s-.114.822-.172 1.847"/></mask></defs><use fill="#BABABA" href="#a" transform="translate(8 8)"/><g transform="translate(6.75 7.988)"><use fill="#BABABA" fill-opacity=".99" href="#b"/><use fill="url(#c)" fill-opacity="0" href="#b"/></g><g mask="url(#e)"><use fill="url(#c)" href="#a" transform="translate(8 8)"/></g></svg><svg width="16" height="16" x="48"><defs><mask id="f" mask-type="alpha"><path fill="red" d="M-4.938-3.875s-.625 4.501.313 5.563a12.49 12.49 0 0 1 .238.278" transform="translate(8 8)"/><path fill-opacity="0" stroke="#D60021" stroke-linecap="round" stroke-linejoin="round" stroke-width="3" d="M3.062 4.125s-.625 4.501.313 5.563a12.49 12.49 0 0 1 .238.278"/></mask></defs><use fill="#BABABA" href="#a" transform="translate(8 8)"/><g transform="translate(6.75 7.988)"><use fill="#BABABA" fill-opacity=".99" href="#b"/><use fill="url(#c)" fill-opacity="0" href="#b"/></g><g mask="url(#f)"><use fill="url(#c)" href="#a" transform="translate(8 8)"/></g></svg><svg width="16" height="16" x="64"><defs><mask id="g" mask-type="alpha"><path fill="red" d="M-4.938-3.875s-.625 4.501.313 5.563c.938 1.062 3.251 4.25 4.563 4.25.551 0 1.322-.54 2.091-1.244" transform="translate(8 8)"/><path fill-opacity="0" stroke="#D60021" stroke-linecap="round" stroke-linejoin="round" stroke-width="3" d="M3.062 4.125s-.625 4.501.313 5.563c.938 1.062 3.251 4.25 4.563 4.25.551 0 1.322-.54 2.091-1.244"/></mask></defs><use fill="#BABABA" href="#a" transform="translate(8 8)"/><g transform="translate(6.75 7.988)"><use fill="#BABABA" fill-opacity=".99" href="#b"/><use fill="url(#c)" fill-opacity=".1" href="#b"/></g><g mask="url(#g)"><use fill="url(#c)" href="#a" transform="translate(8 8)"/></g></svg><svg width="16" height="16" x="80"><defs><mask id="h" mask-type="alpha"><path fill="red" d="M-4.938-3.875s-.625 4.501.313 5.563c.938 1.062 3.251 4.25 4.563 4.25 1.312 0 3.875-3.064 4.687-4.126.326-.426.451-1.508.483-2.649" transform="translate(8 8)"/><path fill-opacity="0" stroke="#D60021" stroke-linecap="round" stroke-linejoin="round" stroke-width="3" d="M3.062 4.125s-.625 4.501.313 5.563c.938 1.062 3.251 4.25 4.563 4.25 1.312 0 3.875-3.064 4.687-4.126.326-.426.451-1.508.483-2.649"/></mask></defs><use fill="#BABABA" href="#a" transform="translate(8 8)"/><g transform="translate(6.75 7.988)"><use fill="#BABABA" fill-opacity=".99" href="#b"/><use fill="url(#c)" fill-opacity=".2" href="#b"/></g><g mask="url(#h)"><use fill="url(#c)" href="#a" transform="translate(8 8)"/></g></svg><svg width="16" height="16" x="96"><defs><mask id="i" mask-type="alpha"><path fill="red" d="M-4.938-3.875s-.625 4.501.313 5.563c.938 1.062 3.251 4.25 4.563 4.25 1.312 0 3.875-3.064 4.687-4.126C5.437.75 5-4.375 5-4.375s-.152-.084-.413-.214" transform="translate(8 8)"/><path fill-opacity="0" stroke="#D60021" stroke-linecap="round" stroke-linejoin="round" stroke-width="3" d="M3.062 4.125s-.625 4.501.313 5.563c.938 1.062 3.251 4.25 4.563 4.25 1.312 0 3.875-3.064 4.687-4.126.812-1.062.375-6.187.375-6.187s-.152-.084-.413-.214"/></mask></defs><use fill="#BABABA" href="#a" transform="translate(8 8)"/><g transform="translate(6.75 7.988)"><use fill="#BABABA" fill-opacity=".99" href="#b"/><use fill="url(#c)" fill-opacity=".3" href="#b"/></g><g mask="url(#i)"><use fill="url(#c)" href="#a" transform="translate(8 8)"/></g></svg><svg width="16" height="16" x="112"><defs><mask id="j" mask-type="alpha"><path fill="red" d="M-4.938-3.875s-.625 4.501.313 5.563c.938 1.062 3.251 4.25 4.563 4.25 1.312 0 3.875-3.064 4.687-4.126C5.437.75 5-4.375 5-4.375s-1.348-.749-2.904-1.21" transform="translate(8 8)"/><path fill-opacity="0" stroke="#D60021" stroke-linecap="round" stroke-linejoin="round" stroke-width="3" d="M3.062 4.125s-.625 4.501.313 5.563c.938 1.062 3.251 4.25 4.563 4.25 1.312 0 3.875-3.064 4.687-4.126.812-1.062.375-6.187.375-6.187s-1.348-.749-2.904-1.21"/></mask></defs><use fill="#BABABA" href="#a" transform="translate(8 8)"/><g transform="translate(6.75 7.988)"><use fill="#BABABA" fill-opacity=".99" href="#b"/><use fill="url(#c)" fill-opacity=".4" href="#b"/></g><g mask="url(#j)"><use fill="url(#c)" href="#a" transform="translate(8 8)"/></g></svg><svg width="16" height="16" x="128"><defs><mask id="k" mask-type="alpha"><path fill="red" d="M-4.938-3.875s-.625 4.501.313 5.563c.938 1.062 3.251 4.25 4.563 4.25 1.312 0 3.875-3.064 4.687-4.126C5.437.75 5-4.375 5-4.375S2.364-5.84.21-5.933" transform="translate(8 8)"/><path fill-opacity="0" stroke="#D60021" stroke-linecap="round" stroke-linejoin="round" stroke-width="3" d="M3.062 4.125s-.625 4.501.313 5.563c.938 1.062 3.251 4.25 4.563 4.25 1.312 0 3.875-3.064 4.687-4.126.812-1.062.375-6.187.375-6.187S10.364 2.16 8.21 2.067"/></mask></defs><use fill="#BABABA" href="#a" transform="translate(8 8)"/><g transform="translate(6.75 7.988)"><use fill="#BABABA" fill-opacity=".99" href="#b"/><use fill="url(#c)" fill-opacity=".5" href="#b"/></g><g mask="url(#k)"><use fill="url(#c)" href="#a" transform="translate(8 8)"/></g></svg><svg width="16" height="16" x="144"><defs><mask id="l" mask-type="alpha"><path fill="red" d="M-4.938-3.875s-.625 4.501.313 5.563c.938 1.062 3.251 4.25 4.563 4.25 1.312 0 3.875-3.064 4.687-4.126C5.437.75 5-4.375 5-4.375S2.188-5.938 0-5.938a8.02 8.02 0 0 0-1.206.097" transform="translate(8 8)"/><path fill-opacity="0" stroke="#D60021" stroke-linecap="round" stroke-linejoin="round" stroke-width="3" d="M3.062 4.125s-.625 4.501.313 5.563c.938 1.062 3.251 4.25 4.563 4.25 1.312 0 3.875-3.064 4.687-4.126.812-1.062.375-6.187.375-6.187s-2.812-1.563-5-1.563a8.02 8.02 0 0 0-1.206.097"/></mask></defs><use fill="#BABABA" href="#a" transform="translate(8 8)"/><g transform="translate(6.75 7.988)"><use fill="#BABABA" fill-opacity=".99" href="#b"/><use fill="url(#c)" fill-opacity=".6" href="#b"/></g><g mask="url(#l)"><use fill="url(#c)" href="#a" transform="translate(8 8)"/></g></svg><svg width="16" height="16" x="160"><defs><mask id="m" mask-type="alpha"><path fill="red" d="M-4.938-3.875s-.625 4.501.313 5.563c.938 1.062 3.251 4.25 4.563 4.25 1.312 0 3.875-3.064 4.687-4.126C5.437.75 5-4.375 5-4.375S2.188-5.938 0-5.938c-.783 0-1.566.136-2.248.311" transform="translate(8 8)"/><path fill-opacity="0" stroke="#D60021" stroke-linecap="round" stroke-linejoin="round" stroke-width="3" d="M3.062 4.125s-.625 4.501.313 5.563c.938 1.062 3.251 4.25 4.563 4.25 1.312 0 3.875-3.064 4.687-4.126.812-1.062.375-6.187.375-6.187s-2.812-1.563-5-1.563c-.783 0-1.566.136-2.248.311"/></mask></defs><use fill="#BABABA" href="#a" transform="translate(8 8)"/><g transform="translate(6.75 7.988)"><use fill="#BABABA" fill-opacity=".792" href="#b"/><use fill="url(#c)" fill-opacity=".7" href="#b"/></g><g mask="url(#m)"><use fill="url(#c)" href="#a" transform="translate(8 8)"/></g></svg><svg width="16" height="16" x="176"><defs><mask id="n" mask-type="alpha"><path fill="red" d="M-4.938-3.875s-.625 4.501.313 5.563c.938 1.062 3.251 4.25 4.563 4.25 1.312 0 3.875-3.064 4.687-4.126C5.437.75 5-4.375 5-4.375S2.188-5.938 0-5.938c-1.096 0-2.191.267-3.011.533" transform="translate(8 8)"/><path fill-opacity="0" stroke="#D60021" stroke-linecap="round" stroke-linejoin="round" stroke-width="3" d="M3.062 4.125s-.625 4.501.313 5.563c.938 1.062 3.251 4.25 4.563 4.25 1.312 0 3.875-3.064 4.687-4.126.812-1.062.375-6.187.375-6.187s-2.812-1.563-5-1.563c-1.096 0-2.191.267-3.011.533"/></mask></defs><use fill="#BABABA" href="#a" transform="translate(8 8)"/><g transform="translate(6.75 7.988)"><use fill="#BABABA" fill-opacity=".594" href="#b"/><use fill="url(#c)" fill-opacity=".8" href="#b"/></g><g mask="url(#n)"><use fill="url(#c)" href="#a" transform="translate(8 8)"/></g></svg><svg width="16" height="16" x="192"><defs><mask id="o" mask-type="alpha"><path fill="red" d="M-4.938-3.875s-.625 4.501.313 5.563c.938 1.062 3.251 4.25 4.563 4.25 1.312 0 3.875-3.064 4.687-4.126C5.437.75 5-4.375 5-4.375S2.188-5.938 0-5.938c-1.365 0-2.729.414-3.563.725" transform="translate(8 8)"/><path fill-opacity="0" stroke="#D60021" stroke-linecap="round" stroke-linejoin="round" stroke-width="3" d="M3.062 4.125s-.625 4.501.313 5.563c.938 1.062 3.251 4.25 4.563 4.25 1.312 0 3.875-3.064 4.687-4.126.812-1.062.375-6.187.375-6.187s-2.812-1.563-5-1.563c-1.365 0-2.729.414-3.563.725"/></mask></defs><use fill="#BABABA" href="#a" transform="translate(8 8)"/><g transform="translate(6.75 7.988)"><use fill="#BABABA" fill-opacity=".396" href="#b"/><use fill="url(#c)" fill-opacity=".9" href="#b"/></g><g mask="url(#o)"><use fill="url(#c)" href="#a" transform="translate(8 8)"/></g></svg><svg width="16" height="16" x="208"><defs><mask id="p" mask-type="alpha"><path fill="red" d="M-4.938-3.875s-.625 4.501.313 5.563c.938 1.062 3.251 4.25 4.563 4.25 1.312 0 3.875-3.064 4.687-4.126C5.437.75 5-4.375 5-4.375S2.188-5.938 0-5.938c-1.602 0-3.204.57-3.947.875" transform="translate(8 8)"/><path fill-opacity="0" stroke="#D60021" stroke-linecap="round" stroke-linejoin="round" stroke-width="3" d="M3.062 4.125s-.625 4.501.313 5.563c.938 1.062 3.251 4.25 4.563 4.25 1.312 0 3.875-3.064 4.687-4.126.812-1.062.375-6.187.375-6.187s-2.812-1.563-5-1.563c-1.602 0-3.204.57-3.947.875"/></mask></defs><use fill="#BABABA" href="#a" transform="translate(8 8)"/><g transform="translate(6.75 7.988)"><use fill="#BABABA" fill-opacity=".198" href="#b"/><use fill="url(#c)" href="#b"/></g><g mask="url(#p)"><use fill="url(#c)" href="#a" transform="translate(8 8)"/></g></svg><svg width="16" height="16" x="224"><defs><mask id="q" mask-type="alpha"><path fill="red" d="M-4.938-3.875s-.625 4.501.313 5.563c.938 1.062 3.251 4.25 4.563 4.25 1.312 0 3.875-3.064 4.687-4.126C5.437.75 5-4.375 5-4.375S2.188-5.938 0-5.938c-1.816 0-3.631.732-4.196.981" transform="translate(8 8)"/><path fill-opacity="0" stroke="#D60021" stroke-linecap="round" stroke-linejoin="round" stroke-width="3" d="M3.062 4.125s-.625 4.501.313 5.563c.938 1.062 3.251 4.25 4.563 4.25 1.312 0 3.875-3.064 4.687-4.126.812-1.062.375-6.187.375-6.187s-2.812-1.563-5-1.563c-1.816 0-3.631.732-4.196.981"/></mask></defs><g opacity=".75"><use fill="#BABABA" href="#a" opacity="1" transform="translate(8 8)"/></g><g transform="translate(6.75 7.988)"><use fill="#BABABA" fill-opacity="0" href="#b"/><use fill="url(#c)" href="#b"/></g><g mask="url(#q)"><use fill="url(#c)" href="#a" transform="translate(8 8)"/></g></svg><svg width="16" height="16" x="240"><defs><mask id="r" mask-type="alpha"><path fill="red" d="M-4.938-3.875s-.625 4.501.313 5.563c.938 1.062 3.251 4.25 4.563 4.25 1.312 0 3.875-3.064 4.687-4.126C5.437.75 5-4.375 5-4.375S2.188-5.938 0-5.938c-2.01 0-4.018.897-4.333 1.043" transform="translate(8 8)"/><path fill-opacity="0" stroke="#D60021" stroke-linecap="round" stroke-linejoin="round" stroke-width="3" d="M3.062 4.125s-.625 4.501.313 5.563c.938 1.062 3.251 4.25 4.563 4.25 1.312 0 3.875-3.064 4.687-4.126.812-1.062.375-6.187.375-6.187s-2.812-1.563-5-1.563c-2.01 0-4.018.897-4.333 1.043"/></mask></defs><g opacity=".5"><use fill="#BABABA" href="#a" opacity="1" transform="translate(8 8)"/></g><g transform="translate(6.75 7.988)"><use fill="#BABABA" fill-opacity="0" href="#b"/><use fill="url(#c)" href="#b"/></g><g mask="url(#r)"><use fill="url(#c)" href="#a" transform="translate(8 8)"/></g></svg><svg width="16" height="16" x="256"><defs><mask id="s" mask-type="alpha"><path fill="red" d="M-4.938-3.875s-.625 4.501.313 5.563c.938 1.062 3.251 4.25 4.563 4.25 1.312 0 3.875-3.064 4.687-4.126C5.437.75 5-4.375 5-4.375S2.188-5.938 0-5.938s-4.375 1.063-4.375 1.063" transform="translate(8 8)"/><path fill-opacity="0" stroke="#D60021" stroke-linecap="round" stroke-linejoin="round" stroke-width="3" d="M3.062 4.125s-.625 4.501.313 5.563c.938 1.062 3.251 4.25 4.563 4.25 1.312 0 3.875-3.064 4.687-4.126.812-1.062.375-6.187.375-6.187s-2.812-1.563-5-1.563-4.375 1.063-4.375 1.063"/></mask></defs><g opacity=".25"><use fill="#BABABA" href="#a" opacity="1" transform="translate(8 8)"/></g><g transform="translate(6.75 7.988)"><use fill="#BABABA" fill-opacity="0" href="#b"/><use fill="url(#c)" href="#b"/></g><g mask="url(#s)"><use fill="url(#c)" href="#a" transform="translate(8 8)"/></g></svg><svg width="16" height="16" x="272"><use fill="#BABABA" href="#a" transform="translate(8 8)"/><g transform="translate(6.75 7.988)"><use fill="#BABABA" fill-opacity=".99" href="#b"/><use fill="url(#c)" fill-opacity="0" href="#b"/></g><g mask="url(#M)"><use fill="url(#c)" href="#a" transform="translate(8 8)"/></g></svg></svg>