<svg xmlns="http://www.w3.org/2000/svg" width="16" height="16"><path fill="#f4f4f7" fill-opacity="context-fill-opacity" d="M12.46 2.057A6.077 6.077 0 0 0 8.05.195C4.654.195 2 2.894 2 6.34c0 3.192 4.917 8.626 5.479 9.237a.795.795 0 0 0 1.17-1.076 42.157 42.157 0 0 1-2.579-3.164C3.91 8.39 3.588 6.939 3.588 6.34c0-2.557 1.952-4.557 4.455-4.557a4.501 4.501 0 0 1 3.274 1.376 4.367 4.367 0 0 1 1.22 3.221c-.047 1.267-1.321 3.27-2.555 4.808-1.479-1.756-2.967-3.814-3.084-4.683-.047-.32.053-.643.27-.882.236-.254.571-.392.918-.378.31.012.602.154.804.39.239.276.354.638.318 1.001a1.55 1.55 0 0 1-.217.716.792.792 0 1 0 1.247.976c.324-.457.512-.996.542-1.555a2.927 2.927 0 0 0-.706-2.2 2.689 2.689 0 0 0-1.951-.924c-.813-.03-1.599.3-2.146.901a2.679 2.679 0 0 0-.66 2.158c.076.568.61 2.293 3.926 6.06.19.218.468.34.757.336a.99.99 0 0 0 .745-.345c.78-.901 3.296-4.02 3.382-6.32a5.94 5.94 0 0 0-1.667-4.382z"/></svg>