<svg xmlns="http://www.w3.org/2000/svg" viewBox="0 0 60 60">
    <defs>
        <linearGradient id="a" gradientUnits="userSpaceOnUse" x1="0" y1="30" x2="60" y2="30">
            <stop offset="0" style="stop-color:#fd6b0c"/>
            <stop offset="1" style="stop-color:#e65206"/>
        </linearGradient>
    </defs>
    <path fill="url(#a)" d="M45.844 41.272c.018-.08.039-.156.055-.239.097-.35.164-.735.215-1.136.375-.835.747-2.172.5-3.936a8.298 8.298 0 0 0-.14-1.018c4.957-3.957 24.499-20.957 5.137-29.039 0 0 4.23 6.9-2.898 13.92-4.332 4.266-5.37 8.436-5.058 11.538l.096.564c-1.62-2.178-5.652-4.53-14.256-2.022-8.736 2.544-7.476 4.518-9.234 3.606 0 0-.93-2.166-3.564-4.452 0 0 .726-4.416-.42-5.472-1.146-1.062-2.628 2.244-5.346 3.432-2.712 1.188-6.234 2.928-6.57 6.024L.971 35.37s-1.446.684-.81 1.32c.636.636 1.698 1.44 3.012 1.314 1.314-.126 2.928-.51 4.158-.168 1.23.336 2.202 2.67 4.872 6.102 0 0 2.142 4.542 6.936 5.412.036.024.072.054.108.078 1.404 1.026 4.584 3.336 5.148 3.834.744.636 7.422 1.158 9.486.474 0 0-.6-3.408-5.04-1.944 0 0-2.082.078-4.59-2.892.228-.072.456-.156.69-.252 1.056-.402 2.184-.966 3.39-1.728 0 0 1.542-.774 3.846-1.356 0 0 2.497-.555 4.376.455 2.542 1.829 6.483 2.442 12.58-.566 0 0 5.357 5.102 7.575 8.644 0 0 4.916-1.89-5.065-11.76 0-.001-4.188.464-5.799-1.065z"/>
</svg>
