<svg xmlns="http://www.w3.org/2000/svg" width="64" height="64">
    <style>
        .gray {
            fill: #d5d5d5
        }
    </style>
    <defs>
        <clipPath id="clip-path">
            <path d="M32 52.35 78.88 6.06h-93.76L32 52.35z" />
        </clipPath>
    </defs>
    <circle cx="32" cy="52" r="6" class="gray" />
    <g clip-path="url('#clip-path')">
        <path
            d="M71.63 52A39.63 39.63 0 1 1 32 12.38 39.63 39.63 0 0 1 71.63 52ZM32 7.63A44.38 44.38 0 1 0 76.38 52 44.38 44.38 0 0 0 32 7.63Z"
            class="gray" />
        <path
            d="M47.75 52A15.75 15.75 0 1 1 32 36.25 15.75 15.75 0 0 1 47.75 52ZM32 31.65A20.35 20.35 0 1 0 52.35 52 20.35 20.35 0 0 0 32 31.65Z"
            class="gray" />
        <path
            d="M59.58 52A27.58 27.58 0 1 1 32 24.42 27.58 27.58 0 0 1 59.58 52ZM32 19.38A32.63 32.63 0 1 0 64.63 52 32.63 32.63 0 0 0 32 19.38Z"
            class="gray" />
    </g>
</svg>