<svg xmlns="http://www.w3.org/2000/svg" width="16" height="16" fill="#f4f4f7" fill-opacity="context-fill-opacity">
    <path d="m15.82 14.13-3.19-6.41a1.28 1.28 0 0 0-2.3 0l-3.19 6.41A1.29 1.29 0 0 0 8.29 16h6.38a1.29 1.29 0 0 0 1.15-1.87zM11 9.5a.5.5 0 0 1 1 0v2a.5.5 0 0 1-1 0zm.5 4.69a.69.69 0 1 1 .69-.69.69.69 0 0 1-.69.69zm-7.61-3.38A1 1 0 0 1 4 9.58C5 8.36 6.48 10 8 10h.12l.53-1.07A2.82 2.82 0 0 1 8 9a3 3 0 1 1 3-3v.07a2.33 2.33 0 0 1 .52-.07 2.28 2.28 0 0 1 2.05 1.27l1.21 2.44A6.91 6.91 0 0 0 15 8a7 7 0 1 0-8.95 6.72 2.26 2.26 0 0 1 .24-1l.42-.85a5 5 0 0 1-2.82-2.06z"/>
</svg>
