<svg width="16" height="16" fill="#f4f4f7" fill-opacity="context-fill-opacity">
  <path d="M15.5 10h-6a.5.5 0 0 0-.5.5v.32l3.5 2.1 3.5-2.1v-.32a.5.5 0 0 0-.5-.5z"/>
  <path d="M12.5 14a.475.475 0 0 1-.26-.07L9 12v3.5a.5.5 0 0 0 .5.5h6a.5.5 0 0 0 .5-.5V12l-3.24 1.95a.477.477 0 0 1-.26.05z"/>
  <path d="M8 15.5v-1.834a5.662 5.662 0 0 1-3.25-1.016c-.56-.39-1.05-.88-1.44-1.44-.29-.44-.24-1.02.13-1.41 1.13-1.39 2.82.49 4.56.49l.021-.001A1.498 1.498 0 0 1 9.5 9h6c.147 0 .286.028.421.067.046-.35.079-.704.079-1.067 0-4.42-3.58-8-8-8S0 3.58 0 8s3.58 8 8 8c.031 0 .06-.004.091-.005A1.478 1.478 0 0 1 8 15.5zM8 2.29c1.89 0 3.43 1.54 3.43 3.43 0 1.89-1.54 3.42-3.43 3.42S4.57 7.61 4.57 5.71c0-1.9 1.54-3.42 3.43-3.42z"/>
</svg>
