<svg xmlns="http://www.w3.org/2000/svg" xmlns:xlink="http://www.w3.org/1999/xlink" width="73" height="73" version="1.1" viewBox="0 0 73 73"><defs><linearGradient id="linearGradient-1" x1="93.093%" x2="68.513%" y1="52.773%" y2="119.326%"><stop offset="0%" stop-color="#0A84FF" stop-opacity="0"/><stop offset="69.37%" stop-color="#0A84FF"/><stop offset="100%" stop-color="#0A84FF"/><stop offset="100%" stop-color="#2484C6" stop-opacity=".005"/><stop offset="100%" stop-color="#2484C6" stop-opacity="0"/><stop offset="100%" stop-color="#2484C6" stop-opacity="0"/></linearGradient><rect id="path-2" width="48" height="60" x="0" y="0"/></defs><g id="Page-1" fill="none" fill-rule="evenodd" stroke="none" stroke-width="1"><g id="Shape" transform="translate(-5.000000, -1.000000)"><path fill="url(#linearGradient-1)" d="M41.8,73.8 C21.9,73.8 5.8,57.7 5.8,37.8 C5.8,18.1 21.6,2.2 41.1,1.8 C41.3,1.8 41.4,1.8 41.4,1.8 C41.5,1.8 41.7,1.8 41.8,1.8 C44.6,2.2 46.8,4.5 46.8,7.3 C46.8,10.1 44.6,12.5 41.8,12.7 C28,12.8 16.8,24 16.8,37.8 C16.8,51.6 28,62.8 41.8,62.8 C55.6,62.8 66.8,51.6 66.8,37.8 L77.8,37.8 C77.8,57.7 61.7,73.8 41.8,73.8 Z"/><mask id="mask-3" fill="#fff"><use xlink:href="#path-2"/></mask><path fill="#0A84FF" d="M41.8,73.8 C21.9,73.8 5.8,57.7 5.8,37.8 C5.8,18.1 21.6,2.2 41.1,1.8 C41.3,1.8 41.4,1.8 41.4,1.8 C41.5,1.8 41.7,1.8 41.8,1.8 C44.6,2.2 46.8,4.5 46.8,7.3 C46.8,10.1 44.6,12.5 41.8,12.7 C28,12.8 16.8,24 16.8,37.8 C16.8,51.6 28,62.8 41.8,62.8 C55.6,62.8 66.8,51.6 66.8,37.8 L77.8,37.8 C77.8,57.7 61.7,73.8 41.8,73.8 Z" mask="url(#mask-3)"/></g></g></svg>