<svg xmlns="http://www.w3.org/2000/svg" xmlns:xlink="http://www.w3.org/1999/xlink" width="73" height="73"><defs><linearGradient id="a" x1="93.093%" x2="68.513%" y1="52.773%" y2="119.326%"><stop offset="0%" stop-color="#0A84FF" stop-opacity="0"/><stop offset="69.37%" stop-color="#0A84FF"/><stop offset="100%" stop-color="#0A84FF"/><stop offset="100%" stop-color="#2484C6" stop-opacity=".005"/><stop offset="100%" stop-color="#2484C6" stop-opacity="0"/><stop offset="100%" stop-color="#2484C6" stop-opacity="0"/></linearGradient><path id="b" d="M0 0h48v60H0z"/></defs><g fill="#f4f4f7" fill-rule="evenodd" transform="translate(-5 -1)"><path fill="url(#a)" d="M41.8 73.8c-19.9 0-36-16.1-36-36 0-19.7 15.8-35.6 35.3-36h.7c2.8.4 5 2.7 5 5.5s-2.2 5.2-5 5.4c-13.8.1-25 11.3-25 25.1s11.2 25 25 25 25-11.2 25-25h11c0 19.9-16.1 36-36 36Z"/><mask id="c" fill="#f4f4f7"><use xlink:href="#b"/></mask><path fill="#0A84FF" d="M41.8 73.8c-19.9 0-36-16.1-36-36 0-19.7 15.8-35.6 35.3-36h.7c2.8.4 5 2.7 5 5.5s-2.2 5.2-5 5.4c-13.8.1-25 11.3-25 25.1s11.2 25 25 25 25-11.2 25-25h11c0 19.9-16.1 36-36 36Z" mask="url(#c)"/></g></svg>