<svg height="16" width="16" xmlns="http://www.w3.org/2000/svg" xmlns:xlink="http://www.w3.org/1999/xlink">
    <linearGradient id="a" gradientUnits="userSpaceOnUse" x1="11.048" x2="3.442" y1="1.867" y2="15.04">
        <stop offset="0" stop-color="#ff9640" />
        <stop offset=".6" stop-color="#fc4055" />
        <stop offset="1" stop-color="#e31587" />
    </linearGradient>
    <linearGradient id="b" gradientUnits="userSpaceOnUse" x1="11.048" x2="3.442" y1="1.867" y2="15.04">
        <stop offset="0" stop-color="#f4f4f736e" stop-opacity=".8" />
        <stop offset=".094" stop-color="#f4f4f736e" stop-opacity=".699" />
        <stop offset=".752" stop-color="#f4f4f736e" stop-opacity="0" />
    </linearGradient>
    <linearGradient id="c" gradientUnits="userSpaceOnUse" x1="7.47" x2="13.655" y1="10.491" y2="4.306">
        <stop offset="0" stop-color="#0090ed" />
        <stop offset=".325" stop-color="#5b6df8" />
        <stop offset=".529" stop-color="#9059ff" />
        <stop offset="1" stop-color="#b833e1" />
    </linearGradient>
    <linearGradient id="d" gradientUnits="userSpaceOnUse" x1="12.222" x2="14.968" y1="13.939" y2="6.773">
        <stop offset="0" stop-color="#054096" stop-opacity=".5" />
        <stop offset=".054" stop-color="#0f3d9c" stop-opacity=".441" />
        <stop offset=".261" stop-color="#2f35b1" stop-opacity=".249" />
        <stop offset=".466" stop-color="#462fbf" stop-opacity=".111" />
        <stop offset=".669" stop-color="#542bc8" stop-opacity=".028" />
        <stop offset=".864" stop-color="#592acb" stop-opacity="0" />
    </linearGradient>
    <linearGradient id="e" gradientUnits="userSpaceOnUse" x1="8.46" x2="14.98" y1="1.312" y2="6.859">
        <stop offset="0" stop-color="#722291" stop-opacity=".5" />
        <stop offset=".5" stop-color="#722291" stop-opacity="0" />
    </linearGradient>
    <linearGradient id="f" gradientUnits="userSpaceOnUse" x1="9.229" x2="10.299" y1="11.053" y2="12.327">
        <stop offset="0" stop-color="#960e18" stop-opacity=".6" />
        <stop offset=".192" stop-color="#ac1624" stop-opacity=".476" />
        <stop offset=".579" stop-color="#e42c41" stop-opacity=".156" />
        <stop offset=".75" stop-color="#ff3750" stop-opacity="0" />
    </linearGradient>
    <symbol id="g" viewBox="0 0 15 15.929">
        <path
            d="M13.7 3.049 8.7.308a2.5 2.5 0 0 0-2.4 0l-5 2.741A2.5 2.5 0 0 0 0 5.241v5.566a2.5 2.5 0 0 0 1.264 2.173l4.954 2.82a.99.99 0 0 0 .493.131 1 1 0 0 0 .5-1.869L2.758 11.53A1.5 1.5 0 0 1 2 10.226V5.833a1.5 1.5 0 0 1 .779-1.315l4-2.193a1.5 1.5 0 0 1 1.442 0l4 2.193A1.5 1.5 0 0 1 13 5.833v4.351a1.5 1.5 0 0 1-.791 1.322l-1.007.54-.834-1.34A3.992 3.992 0 1 0 7.5 11.929a3.953 3.953 0 0 0 1.156-.19L10 13.9a1 1 0 0 0 1.321.353l2.361-1.267A2.5 2.5 0 0 0 15 10.782V5.241a2.5 2.5 0 0 0-1.3-2.192zm-8.2 4.88a2 2 0 1 1 2 2 2 2 0 0 1-2-2z"
            fill="url(#a)" />
        <path
            d="M13.7 3.049 8.7.308a2.5 2.5 0 0 0-2.4 0l-5 2.741A2.5 2.5 0 0 0 0 5.241v5.566a2.5 2.5 0 0 0 1.264 2.173l4.954 2.82a.99.99 0 0 0 .493.131 1 1 0 0 0 .5-1.869L2.758 11.53A1.5 1.5 0 0 1 2 10.226V5.833a1.5 1.5 0 0 1 .779-1.315l4-2.193a1.5 1.5 0 0 1 1.442 0l4 2.193A1.5 1.5 0 0 1 13 5.833v4.351a1.5 1.5 0 0 1-.791 1.322l-1.007.54-.834-1.34A3.992 3.992 0 1 0 7.5 11.929a3.953 3.953 0 0 0 1.156-.19L10 13.9a1 1 0 0 0 1.321.353l2.361-1.267A2.5 2.5 0 0 0 15 10.782V5.241a2.5 2.5 0 0 0-1.3-2.192zm-8.2 4.88a2 2 0 1 1 2 2 2 2 0 0 1-2-2z"
            fill="url(#b)" />
        <use height="-32766" transform="translate(16390.518 16390.929)" width="-32766" xlink:href="#c" />
        <path
            d="m13.288 13.2.394-.211A2.5 2.5 0 0 0 15 10.782V5.241a2.5 2.5 0 0 0-1.3-2.192l-2.47-1.355a3.434 3.434 0 0 0-3.305 0l-1.146.63a1.5 1.5 0 0 1 1.442 0l4 2.193A1.5 1.5 0 0 1 13 5.833v4.351a1.5 1.5 0 0 1-.791 1.322l-1.007.54.429.7a1.249 1.249 0 0 0 1.657.454z"
            fill="url(#c)" />
        <path
            d="M13 10.184a1.5 1.5 0 0 1-.791 1.322l-1.007.54.429.7a1.25 1.25 0 0 0 1.658.449l.393-.211A2.5 2.5 0 0 0 15 10.781V7.964h-2z"
            fill="url(#d)" opacity=".9" />
        <path
            d="m13.7 3.049-2.47-1.355a3.434 3.434 0 0 0-3.305 0l-1.146.63a1.5 1.5 0 0 1 1.442 0l4 2.193A1.5 1.5 0 0 1 13 5.833v2.131h2V5.241a2.5 2.5 0 0 0-1.3-2.192z"
            fill="url(#e)" />
        <path d="m11.2 12.046-.834-1.34a3.991 3.991 0 0 1-1.713 1.033l.808 1.3z" fill="url(#f)" opacity=".9" />
    </symbol>
    <use height="15.929" transform="translate(.5 .071)" width="15" xlink:href="#g" />
</svg>