<svg xmlns="http://www.w3.org/2000/svg" width="16" height="16"><style><![CDATA[:root>g:not(:target),:root>use:not(:target){display:none}]]></style><defs><path id="arrow-icon" d="M7.293 12.725a1 1 0 0 0 1.414 0l5-5a1 1 0 0 0-1.414-1.413L9 9.605V1.019a1 1 0 0 0-2 0v8.586L3.707 6.312a1 1 0 0 0-1.414 1.413l5 5z"/><path id="short-bar-icon" d="M13 14a1 1 0 1 1 0 2H3a1 1 0 1 1 0-2z"/><path id="long-bar-icon" d="M14 14a1 1 0 1 1 0 2H2a1 1 0 1 1 0-2"/></defs><use id="arrow" fill="#f4f4f7" fill-opacity="context-fill-opacity" href="#arrow-icon"/><g id="arrow-with-bar" fill="#f4f4f7" fill-opacity="context-fill-opacity"><use href="#arrow-icon"/><use href="#short-bar-icon"/></g><use id="default-bar" fill="#f4f4f7" fill-opacity="context-fill-opacity" href="#short-bar-icon"/><use id="progress-bar-bg" fill="#f4f4f7" fill-opacity=".2" href="#long-bar-icon"/><use id="progress-bar-fg" fill="#f4f4f7" fill-opacity="context-fill-opacity" href="#long-bar-icon"/></svg>