<svg xmlns="http://www.w3.org/2000/svg" width="32" height="32">
    <path fill="#f4f4f700"
        d="M26.2 31.4H6.8c-1.8 0-3.4-1.5-3.4-3.3V3.8C3.4 2 5 .5 6.8.5H23l5.6 6.4V28c.1 1.9-.6 3.4-2.4 3.4z" />
    <path fill="#f4f4f7"
        d="M26.2 31.9H6.8c-2 0-3.8-1.7-3.8-3.8V3.8C3 1.7 4.8 0 6.8 0h16.4L29 6.7v21.4c0 2.1-.8 3.8-2.8 3.8zM6.8 1C5.2 1 4 2.3 4 3.8V28c0 1.6 1.4 3 2.9 3h19.2c1.6 0 2-1.5 2-3V7.1L22.7 1H6.8z" />
    <path fill="#f4f4f7"
        d="M22.5 18.2 17 23.6c-.3.3-.6.4-1.1.4-.3 0-.8-.1-1.1-.4l-5.5-5.4c-.5-.5-.4-1.1.4-1.1H13v-5.9c0-.5.4-1 1-1h3.9c.5 0 1 .4 1 1v5.9H22c.8.1 1 .5.5 1.1z" />
    <path fill="#f4f4f7" d="M27 9h-6V1.9h1V8h5z" />
</svg>