<svg height="98" width="1344" xmlns="http://www.w3.org/2000/svg">
    <svg height="98" width="42"/>
    <svg height="98" width="42" x="42"/>
    <svg height="98" width="42" x="84">
        <path d="M18.52 44.464a3.51 3.51 0 0 0 4.962 0l17.546-17.546a3.51 3.51 0 0 0-4.962-4.959L24.51 33.515V3.385a3.51 3.51 0 0 0-7.019 0v30.13L5.935 21.96a3.51 3.51 0 0 0-4.962.088 3.506 3.506 0 0 0 0 4.87z" fill="#f4f4f7" opacity=".333"/>
    </svg>
    <svg height="98" width="42" x="126">
        <path d="M18.586 44.84a3.414 3.414 0 0 0 4.828 0l17.07-17.071a3.414 3.414 0 0 0-4.827-4.825L24.414 34.187V4.873a3.414 3.414 0 0 0-6.828 0v29.314L6.343 22.944a3.414 3.414 0 0 0-4.828.086 3.41 3.41 0 0 0 0 4.739z" fill="#f4f4f7" opacity=".667"/>
    </svg>
    <svg height="98" width="42" x="168">
        <path d="M18.655 45.224a3.317 3.317 0 0 0 4.69 0L39.93 28.639a3.317 3.317 0 0 0-4.69-4.687L24.317 34.875V6.395a3.317 3.317 0 0 0-6.634 0v28.48L6.761 23.952a3.317 3.317 0 0 0-4.69.083 3.314 3.314 0 0 0 0 4.604z" fill="#f4f4f7"/>
    </svg>
    <svg height="98" width="42" x="210">
        <path d="M18.724 45.613a3.219 3.219 0 0 0 4.551 0L39.368 29.52a3.219 3.219 0 0 0-4.55-4.548l-10.6 10.599V7.936a3.219 3.219 0 0 0-6.437 0v27.635L7.183 24.972a3.219 3.219 0 0 0-4.551.08 3.215 3.215 0 0 0 0 4.468z" fill="#f4f4f7"/>
    </svg>
    <svg height="98" width="42" x="252">
        <path d="M18.795 46.005a3.12 3.12 0 0 0 4.41 0l15.599-15.598A3.12 3.12 0 0 0 34.393 26L24.12 36.272V9.488a3.12 3.12 0 0 0-6.24 0v26.784L7.609 26a3.12 3.12 0 0 0-4.41.078 3.116 3.116 0 0 0 0 4.33z" fill="#f4f4f7"/>
    </svg>
    <svg height="98" width="42" x="294">
        <path d="M18.865 46.398a3.02 3.02 0 0 0 4.27 0l15.101-15.1a3.02 3.02 0 0 0-4.27-4.268l-9.946 9.945v-25.93a3.02 3.02 0 0 0-6.04 0v25.93L8.034 27.03a3.02 3.02 0 0 0-4.27.075 3.017 3.017 0 0 0 0 4.192z" fill="#f4f4f7"/>
    </svg>
    <svg height="98" width="42" x="336">
        <path d="M18.935 46.79a2.92 2.92 0 0 0 4.13 0L37.67 32.188a2.92 2.92 0 0 0-4.13-4.127l-9.618 9.618V12.601a2.92 2.92 0 0 0-5.841 0v25.077L8.462 28.06a2.92 2.92 0 0 0-4.13.073 2.918 2.918 0 0 0 0 4.054z" fill="#f4f4f7"/>
    </svg>
    <svg height="98" width="42" x="378">
        <path d="M19.005 47.184a2.821 2.821 0 0 0 3.99 0L37.1 33.077a2.821 2.821 0 0 0-3.99-3.986l-9.29 9.29V14.157a2.821 2.821 0 0 0-5.642 0v24.224l-9.291-9.29a2.821 2.821 0 0 0-3.99.07 2.819 2.819 0 0 0 0 3.916z" fill="#f4f4f7"/>
    </svg>
    <svg height="98" width="42" x="420">
        <path d="M19.076 47.576a2.722 2.722 0 0 0 3.849 0l13.61-13.61a2.722 2.722 0 0 0-3.848-3.847l-8.964 8.964V15.71a2.722 2.722 0 0 0-5.445 0v23.373l-8.964-8.964a2.722 2.722 0 0 0-3.849.068 2.72 2.72 0 0 0 0 3.778z" fill="#f4f4f7"/>
    </svg>
    <svg height="98" width="42" x="462">
        <path d="M19.145 47.967a2.623 2.623 0 0 0 3.71 0L35.97 34.851a2.623 2.623 0 0 0-3.71-3.707l-8.638 8.639V17.259a2.623 2.623 0 0 0-5.246 0v22.524l-8.639-8.639a2.623 2.623 0 0 0-3.71.066 2.62 2.62 0 0 0 0 3.64z" fill="#f4f4f7"/>
    </svg>
    <svg height="98" width="42" x="504">
        <path d="M19.215 48.357a2.525 2.525 0 0 0 3.57 0L35.41 35.733a2.525 2.525 0 0 0-3.57-3.568l-8.315 8.314V18.801a2.525 2.525 0 0 0-5.05 0V40.48l-8.314-8.314a2.525 2.525 0 0 0-3.57.063 2.522 2.522 0 0 0 0 3.505z" fill="#f4f4f7"/>
    </svg>
    <svg height="98" width="42" x="546">
        <path d="M19.284 48.744a2.427 2.427 0 0 0 3.432 0L34.85 36.609a2.427 2.427 0 0 0-3.431-3.429l-7.992 7.992V20.335a2.427 2.427 0 0 0-4.854 0v20.837l-7.992-7.992a2.427 2.427 0 0 0-3.432.06 2.424 2.424 0 0 0 0 3.37z" fill="#f4f4f7"/>
    </svg>
    <svg height="98" width="42" x="588">
        <path d="M19.353 49.129a2.33 2.33 0 0 0 3.294 0L34.295 37.48a2.33 2.33 0 0 0-3.294-3.292L23.33 41.86V21.858a2.33 2.33 0 0 0-4.66 0V41.86L11 34.19a2.33 2.33 0 0 0-3.295.058 2.327 2.327 0 0 0 0 3.234z" fill="#f4f4f7"/>
    </svg>
    <svg height="98" width="42" x="630">
        <path d="M19.421 49.51a2.233 2.233 0 0 0 3.158 0l11.164-11.164a2.233 2.233 0 0 0-3.157-3.155l-7.353 7.353V23.37a2.233 2.233 0 0 0-4.466 0v19.173l-7.353-7.353a2.233 2.233 0 0 0-3.158.055 2.23 2.23 0 0 0 0 3.1z" fill="#f4f4f7"/>
    </svg>
    <svg height="98" width="42" x="672">
        <path d="M19.488 49.888a2.137 2.137 0 0 0 3.022 0l10.686-10.686a2.137 2.137 0 0 0-3.022-3.02l-7.038 7.038V24.87a2.137 2.137 0 0 0-4.274 0v18.35l-7.038-7.038a2.137 2.137 0 0 0-3.022.053 2.135 2.135 0 0 0 0 2.967z" fill="#f4f4f7"/>
    </svg>
    <svg height="98" width="42" x="714">
        <path d="M19.556 50.262a2.042 2.042 0 0 0 2.888 0l10.211-10.211a2.042 2.042 0 0 0-2.888-2.886l-6.725 6.726V26.355a2.042 2.042 0 0 0-4.085 0v17.536l-6.725-6.726a2.042 2.042 0 0 0-2.888.051 2.04 2.04 0 0 0 0 2.835z" fill="#f4f4f7"/>
    </svg>
    <svg height="98" width="42" x="756">
        <path d="M19.623 50.633a1.948 1.948 0 0 0 2.755 0l9.742-9.743a1.948 1.948 0 0 0-2.755-2.753l-6.416 6.417v-16.73a1.948 1.948 0 0 0-3.897 0v16.73l-6.417-6.417a1.948 1.948 0 0 0-2.755.049 1.947 1.947 0 0 0 0 2.704z" fill="#f4f4f7"/>
    </svg>
    <svg height="98" width="42" x="798">
        <path d="M19.689 50.998a1.856 1.856 0 0 0 2.624 0l9.28-9.279a1.856 1.856 0 0 0-2.625-2.622l-6.111 6.111V29.274a1.856 1.856 0 0 0-3.712 0v15.934l-6.112-6.111a1.856 1.856 0 0 0-2.624.046 1.854 1.854 0 0 0 0 2.576z" fill="#f4f4f7"/>
    </svg>
    <svg height="98" width="42" x="840">
        <path d="M19.753 51.358a1.765 1.765 0 0 0 2.495 0l8.823-8.824a1.765 1.765 0 0 0-2.495-2.493l-5.811 5.81v-15.15a1.765 1.765 0 0 0-3.53 0v15.15l-5.81-5.81a1.765 1.765 0 0 0-2.496.044 1.763 1.763 0 0 0 0 2.45z" fill="#f4f4f7"/>
    </svg>
    <svg height="98" width="42" x="882">
        <path d="M19.815 51.711a1.675 1.675 0 0 0 2.369 0l8.374-8.374a1.675 1.675 0 0 0-2.368-2.367l-5.515 5.515v-14.38a1.675 1.675 0 0 0-3.35 0v14.38l-5.516-5.515a1.675 1.675 0 0 0-2.368.042 1.673 1.673 0 0 0 0 2.325z" fill="#f4f4f7"/>
    </svg>
    <svg height="98" width="42" x="924">
        <path d="M19.878 52.057a1.587 1.587 0 0 0 2.244 0l7.935-7.935a1.587 1.587 0 0 0-2.244-2.243l-5.226 5.226V33.48a1.587 1.587 0 0 0-3.174 0v13.626l-5.226-5.226a1.587 1.587 0 0 0-2.244.04 1.585 1.585 0 0 0 0 2.203z" fill="#f4f4f7"/>
    </svg>
    <svg height="98" width="42" x="966">
        <path d="M19.94 52.395a1.501 1.501 0 0 0 2.122 0l7.506-7.507a1.501 1.501 0 0 0-2.123-2.12l-4.943 4.943V34.82a1.501 1.501 0 0 0-3.003 0v12.89l-4.943-4.944a1.501 1.501 0 0 0-2.123.038 1.5 1.5 0 0 0 0 2.083z" fill="#f4f4f7"/>
    </svg>
    <svg height="98" width="42" x="1008">
        <path d="M19.997 52.722a1.418 1.418 0 0 0 2.005 0l7.09-7.09a1.418 1.418 0 0 0-2.005-2.004l-4.67 4.67V36.123a1.418 1.418 0 0 0-2.835 0v12.175l-4.67-4.67a1.418 1.418 0 0 0-2.004.036 1.417 1.417 0 0 0 0 1.968z" fill="#f4f4f7"/>
    </svg>
    <svg height="98" width="42" x="1050">
        <path d="M20.055 53.037a1.338 1.338 0 0 0 1.891 0l6.688-6.688a1.338 1.338 0 0 0-1.891-1.89l-4.405 4.405V37.379a1.338 1.338 0 0 0-2.675 0v11.485l-4.405-4.405a1.338 1.338 0 0 0-1.891.033 1.336 1.336 0 0 0 0 1.857z" fill="#f4f4f7"/>
    </svg>
    <svg height="98" width="42" x="1092">
        <path d="M20.108 53.337a1.26 1.26 0 0 0 1.783 0l6.304-6.304a1.26 1.26 0 0 0-1.782-1.782l-4.152 4.153V38.578a1.26 1.26 0 0 0-2.522 0v10.826l-4.152-4.153a1.26 1.26 0 0 0-1.783.032 1.26 1.26 0 0 0 0 1.75z" fill="#f4f4f7"/>
    </svg>
    <svg height="98" width="42" x="1134">
        <path d="M20.16 53.62a1.189 1.189 0 0 0 1.68 0l5.944-5.944a1.189 1.189 0 0 0-1.68-1.68l-3.915 3.914V39.704a1.189 1.189 0 0 0-2.378 0V49.91l-3.914-3.914a1.189 1.189 0 0 0-1.681.03 1.188 1.188 0 0 0 0 1.65z" fill="#f4f4f7"/>
    </svg>
    <svg height="98" width="42" x="1176">
        <path d="M20.207 53.877a1.123 1.123 0 0 0 1.587 0l5.614-5.614a1.123 1.123 0 0 0-1.588-1.586l-3.697 3.697v-9.64a1.123 1.123 0 0 0-2.245 0v9.64l-3.697-3.697a1.123 1.123 0 0 0-1.588.028 1.122 1.122 0 0 0 0 1.558z" fill="#f4f4f7"/>
    </svg>
    <svg height="98" width="42" x="1218">
        <path d="M20.247 54.1a1.065 1.065 0 0 0 1.506 0l5.325-5.326a1.065 1.065 0 0 0-1.506-1.505l-3.507 3.508v-9.145a1.065 1.065 0 0 0-2.13 0v9.145l-3.508-3.508a1.065 1.065 0 0 0-1.506.027 1.064 1.064 0 0 0 0 1.478z" fill="#f4f4f7"/>
    </svg>
    <svg height="98" width="42" x="1260">
        <path d="M20.278 54.272a1.02 1.02 0 0 0 1.443 0l5.103-5.102a1.02 1.02 0 0 0-1.443-1.442l-3.36 3.36v-8.762a1.02 1.02 0 0 0-2.042 0v8.762l-3.36-3.36a1.02 1.02 0 0 0-1.443.025 1.02 1.02 0 0 0 0 1.417z" fill="#f4f4f7"/>
    </svg>
    <svg height="98" width="42" x="1302"/>
</svg>
