<svg xmlns="http://www.w3.org/2000/svg" width="540" height="20"><defs><path id="ab" d="M9.293,14.725c0.391,0.39,1.024,0.39,1.414,0l5-5c0.378-0.403,0.357-1.036-0.045-1.413c-0.385-0.361-0.984-0.361-1.369,0	L11,11.605V3.019c0-0.552-0.448-1-1-1c-0.552,0-1,0.448-1,1v8.586L5.707,8.312C5.304,7.934,4.672,7.954,4.293,8.356	c-0.361,0.385-0.361,0.984,0,1.369L9.293,14.725z"/><path id="aa" d="M15,16c0.552,0,1,0.448,1,1s-0.448,1-1,1H5c-0.552,0-1-0.448-1-1s0.448-1,1-1H15z"/><path id="i" fill="none" stroke="context-fill" stroke-width="1.8" d="M5.838 8.706c0 0 3.487 3.488 3.487 3.488 0 0 4.387-5.175 4.387-5.175"/><path id="d" fill="#15141A" d="M-1.17 3c0 0-2.65-2.64-2.65-2.64a.625.625 0 0 1-.161-.7.638.638 0 0 1 .351-.35.625.625 0 0 1 .496.011.625.625 0 0 1 .204.149c0 0 2.07 2.08 2.07 2.08 0 0 3.79-3.8 3.79-3.8a.63.63 0 0 1 .89.89C3.82-1.36-.55 3-.55 3c0 0-.62 0-.62 0z"/><path id="c" fill="none" stroke="context-fill" stroke-linecap="round" stroke-width="2" d="M9.991 1.6a8.4 8.4 0 1 1 0 16.8 8.4 8.4 0 0 1 0-16.8z"/><path id="b" fill="context-fill" d="M0-4.752a4.753 4.753 0 1 0 .001 9.505A4.753 4.753 0 0 0 0-4.752z"/><path id="a" fill="none" stroke="context-fill" stroke-linecap="round" stroke-width="2" d="M0-8A8 8 0 1 1 0 8 8 8 0 0 1 0-8z"/></defs><svg width="20" height="20" viewBox="0 0 20 20"><use href="#a" transform="matrix(1.05 0 0 1.05 9.991 10)"/><use href="#b" transform="matrix(1.35 0 0 1.35 10 10)"/></svg><svg width="20" height="20" x="20" viewBox="0 0 20 20"><use href="#a" transform="matrix(1.05 0 0 1.05 9.991 10)"/><use href="#b" transform="matrix(1.35 0 0 1.35 10 10)"/></svg><svg width="20" height="20" x="40" viewBox="0 0 20 20"><use href="#a" transform="matrix(1.05 0 0 1.05 9.991 10)"/><use href="#b" transform="matrix(1.35 0 0 1.35 10 10)"/></svg><svg width="20" height="20" x="60" viewBox="0 0 20 20"><use href="#a" transform="matrix(1.05 0 0 1.05 9.991 10)"/><use href="#b" transform="matrix(1.35 0 0 1.35 10 10)"/></svg><svg width="20" height="20" x="80" viewBox="0 0 20 20"><use href="#a" transform="matrix(1.05 0 0 1.05 9.991 10)"/><use href="#b" transform="matrix(1.35 0 0 1.35 10 10)"/></svg><svg width="20" height="20" x="100" viewBox="0 0 20 20"><use href="#a" transform="matrix(1.05 0 0 1.05 9.991 10)"/><use href="#b" transform="matrix(1.35 0 0 1.35 10 10)"/></svg><svg width="20" height="20" x="120" viewBox="0 0 20 20"><use href="#a" transform="matrix(1.05 0 0 1.05 9.991 10)"/><use href="#b" transform="matrix(1.35 0 0 1.35 10 10)"/></svg><svg width="20" height="20" x="140" viewBox="0 0 20 20"><use href="#a" transform="matrix(1.05 0 0 1.05 9.991 10)"/><use href="#b" transform="matrix(1.35 0 0 1.35 10 10)"/></svg><svg width="20" height="20" x="160" viewBox="0 0 20 20"><use href="#a" transform="matrix(1.05 0 0 1.05 9.991 10)"/><use href="#b" transform="translate(10 10) scale(1.20948)"/></svg><svg width="20" height="20" x="180" viewBox="0 0 20 20"><use href="#a" transform="matrix(1.05 0 0 1.05 9.991 10)"/><use href="#b" transform="translate(10 10) scale(.8747)"/></svg><svg width="20" height="20" x="200" viewBox="0 0 20 20"><use href="#a" transform="matrix(1.05 0 0 1.05 9.991 10)"/><use href="#b" transform="translate(10 10) scale(.4753)"/></svg><svg width="20" height="20" x="220" viewBox="0 0 20 20"><use href="#a" transform="matrix(1.05 0 0 1.05 9.991 10)"/><use href="#b" transform="translate(10 10) scale(.14052)"/></svg><svg width="20" height="20" x="240" viewBox="0 0 20 20"><use fill="none" href="#c"/><use href="#b" transform="matrix(0 0 0 0 10 10)"/></svg><svg width="20" height="20" x="260" viewBox="0 0 20 20"><use fill="none" href="#c"/><use href="#b" transform="matrix(0 0 0 0 10 10)"/></svg><svg width="20" height="20" x="280" viewBox="0 0 20 20"><defs><mask id="e" mask-type="alpha"><use fill="#15141A" href="#d" transform="translate(10 10)"/></mask></defs><use fill="none" href="#c"/><use href="#b" transform="matrix(0 0 0 0 10 10)"/><g mask="url(#e)"><path fill="none" stroke="context-fill" stroke-width="1.8" d="M5.838 8.706c0 0 1.927 1.928 2.916 2.918"/></g></svg><svg width="20" height="20" x="300" viewBox="0 0 20 20"><defs><mask id="f" mask-type="alpha"><use fill="#15141A" href="#d" transform="translate(10 10)"/></mask></defs><use fill="none" href="#c"/><use href="#b" transform="matrix(0 0 0 0 10 10)"/><g mask="url(#f)"><path fill="none" stroke="context-fill" stroke-width="1.8" d="M5.838 8.706c0 0 3.487 3.488 3.487 3.488 0 0 .802-.945 1.72-2.028"/></g></svg><svg width="20" height="20" x="320" viewBox="0 0 20 20"><defs><mask id="g" mask-type="alpha"><use fill="#15141A" href="#d" transform="translate(10 10)"/></mask></defs><use fill="none" href="#c"/><use href="#b" transform="matrix(0 0 0 0 10 10)"/><g mask="url(#g)"><path fill="none" stroke="context-fill" stroke-width="1.8" d="M5.838 8.706c0 0 3.487 3.488 3.487 3.488 0 0 2.335-2.755 3.6-4.244"/></g></svg><svg width="20" height="20" x="340" viewBox="0 0 20 20"><defs><mask id="h" mask-type="alpha"><use fill="#15141A" href="#d" transform="translate(10 10)"/></mask></defs><use fill="none" href="#c"/><use href="#b" transform="matrix(0 0 0 0 10 10)"/><g mask="url(#h)"><use fill="none" stroke="context-fill" stroke-width="1.8" href="#i"/></g></svg><svg width="20" height="20" x="360" viewBox="0 0 20 20"><defs><mask id="W" mask-type="alpha"><use fill="#15141A" href="#d" transform="translate(10 10)"/></mask></defs><use fill="none" href="#c"/><use href="#b" transform="matrix(0 0 0 0 10 10)"/><g mask="url(#W)"><use fill="none" stroke="context-fill" stroke-width="1.8" href="#i"/></g></svg><svg width="20" height="20" x="380" viewBox="0 0 20 20"><defs><mask id="X" mask-type="alpha"><use fill="#15141A" href="#d" transform="translate(10 10)"/></mask></defs><use fill="none" href="#c"/><use href="#b" transform="matrix(0 0 0 0 10 10)"/><g mask="url(#X)"><use fill="none" stroke="context-fill" stroke-width="1.8" href="#i"/></g></svg><svg width="20" height="20" x="400" viewBox="0 0 20 20"><defs><mask id="Y" mask-type="alpha"><use fill="#15141A" href="#d" transform="translate(10 10)"/></mask></defs><use fill="none" href="#c" opacity=".74"/><g mask="url(#Y)"><path fill="none" stroke="context-fill" stroke-width="1.67" d="M6.146 8.802c0 0 3.23 3.23 3.23 3.23 0 0 4.061-4.792 4.061-4.792"/></g></svg><svg width="20" height="20" x="420" viewBox="0 0 20 20"><defs><mask id="Z" mask-type="alpha"><use fill="#15141A" href="#d" transform="translate(10 10)"/></mask></defs><use fill="none" href="#c" opacity=".26"/><use fill="context-stroke" href="#aa" transform="scale(0.25)" transform-origin="center 16px"/><use fill="context-stroke" href="#ab" opacity=".7" transform="scale(0.25)" transform-origin="center"/><g mask="url(#Z)"><path fill="none" stroke="context-fill" stroke-width="1.33" d="M6.917 9.041c0 0 2.583 2.584 2.583 2.584 0 0 3.25-3.833 3.25-3.833"/></g></svg><svg width="20" height="20" x="440" viewBox="0 0 20 20"><use fill="none" href="#c" opacity=".26"/><use href="#b" transform="matrix(0 0 0 0 10 10)"/><use fill="context-stroke" href="#aa" transform="scale(0.5)" transform-origin="center 16px"/><use fill="context-stroke" href="#ab" transform="scale(0.5)" transform-origin="center"/></svg><svg width="20" height="20" x="460" viewBox="0 0 20 20"><use fill="none" href="#c" opacity=".26"/><use fill="context-stroke" href="#aa" transform="scale(0.7)" transform-origin="center 16px"/><use fill="context-stroke" href="#ab" transform="scale(0.7)" transform-origin="center"/></svg><svg width="20" height="20" x="480" viewBox="0 0 20 20"><use fill="none" href="#c" opacity=".26"/><use fill="context-stroke" href="#aa" transform="scale(0.9)" transform-origin="center 16px"/><use fill="context-stroke" href="#ab" transform="scale(0.9)" transform-origin="center"/></svg><svg width="20" height="20" x="500" viewBox="0 0 20 20"><use fill="none" href="#c" opacity=".26"/><use fill="context-stroke" href="#aa"/><use fill="context-stroke" href="#ab"/></svg><svg width="20" height="20" x="520" viewBox="0 0 20 20"><use fill="context-fill" href="#c" opacity=".26"/><use fill="context-stroke" href="#aa"/><use fill="context-stroke" href="#ab"/></svg></svg>