<svg xmlns="http://www.w3.org/2000/svg" width="16" height="16" fill="#f4f4f7" fill-opacity="context-fill-opacity" stroke="#1b1d24" stroke-width=".5">
    <path d="M8.505 1.02A6.996 6.996 0 0 0 1.02 8.505c.252 3.704 3.487 6.497 7.198 6.497h2.584c.385 0 .7-.315.7-.7 0-.385-.315-.7-.7-.7h-2.57c-2.612 0-5.006-1.694-5.657-4.222-1.044-4.061 2.737-7.849 6.798-6.799 2.535.644 4.229 3.039 4.229 5.65v.77c0 .553-.497 1.099-1.05 1.099s-1.05-.546-1.05-1.099v-.874c0-1.757-1.246-3.34-2.983-3.585a3.506 3.506 0 0 0-1.358 6.869c1.288.301 2.514-.112 3.319-.931a2.589 2.589 0 0 0 3.011.847c.938-.371 1.512-1.33 1.512-2.339v-.763c-.001-3.718-2.794-6.953-6.498-7.205zm-.504 9.081c-1.162 0-2.1-.938-2.1-2.1s.938-2.1 2.1-2.1 2.1.938 2.1 2.1-.938 2.1-2.1 2.1z"/>
</svg>
