<svg xmlns="http://www.w3.org/2000/svg" width="16" height="16" fill="#f4f4f7" fill-opacity="context-fill-opacity"><path d="m13.821 4.371.438-.947.947-.438a.447.447 0 0 0 0-.813l-.947-.438-.438-.938a.447.447 0 0 0-.813 0l-.438.948-.938.438a.447.447 0 0 0 0 .813l.947.438.438.938a.44.44 0 0 0 .804-.001zm-7.933 0 .438-.947.947-.438a.447.447 0 0 0 0-.813l-.948-.428-.437-.947a.44.44 0 0 0-.804 0l-.438.947-.947.438a.447.447 0 0 0 0 .813l.947.438.438.938a.44.44 0 0 0 .804-.001zm7.129 4.36-.438.947-.947.438a.447.447 0 0 0 0 .813l.947.438.438.947a.447.447 0 0 0 .813 0l.438-.947.938-.447a.447.447 0 0 0 0-.813l-.947-.438-.438-.947c-.152-.34-.653-.34-.804.009zM11.876 5.72l-1.592-1.592a.56.56 0 0 0-.793 0L1.12 12.494a.56.56 0 0 0 0 .793l1.592 1.592a.56.56 0 0 0 .793 0l8.366-8.366a.556.556 0 0 0 .005-.793zm-.672.499-.755.755a.132.132 0 0 1-.186 0L9.035 5.745a.132.132 0 0 1 0-.186l.755-.754a.132.132 0 0 1 .186 0l1.229 1.229a.13.13 0 0 1-.001.185z"/></svg>