<svg width="16" height="16" fill="#f4f4f7" fill-opacity="context-fill-opacity">
  <path d="M14.655 1.948H4.569c-.464 0-.827.235-1.069.592L.111 7.63a.682.682 0 0 0 0 .746L3.5 13.46c.242.35.605.592 1.069.592h10.086c.74 0 1.345-.605 1.345-1.345V3.293c0-.74-.605-1.345-1.345-1.345zm-2.488 8.943a.67.67 0 0 1-.948 0L9.276 8.948l-1.943 1.943a.67.67 0 1 1-.948-.948L8.328 8 6.385 6.057a.67.67 0 1 1 .948-.948l1.943 1.943 1.943-1.943a.67.67 0 1 1 .948.948L10.224 8l1.943 1.943a.681.681 0 0 1 0 .948z"/>
</svg>
