<svg width="16" height="16" fill="#f4f4f7" fill-opacity="context-fill-opacity">
  <path d="M13.571 4.655h-1.44a4.758 4.758 0 0 0-1.448-1.56l.74-.74a.793.793 0 1 0-1.122-1.122l-1.17 1.17a4.736 4.736 0 0 0-2.253-.001L5.7 1.233a.793.793 0 1 0-1.122 1.122l.732.74a4.82 4.82 0 0 0-1.44 1.56H2.43a.798.798 0 0 0-.796.796c0 .438.358.796.796.796h.867c-.04.263-.072.525-.072.796v.796h-.796c-.438 0-.796.358-.796.796s.358.796.796.796h.796v.796c0 .271.032.533.072.796h-.868a.798.798 0 0 0-.796.796c0 .438.358.796.796.796h1.44C4.697 14.037 6.233 15 8 15s3.303-.963 4.13-2.387h1.44a.798.798 0 0 0 .796-.796.798.798 0 0 0-.796-.796h-.867c.04-.263.072-.525.072-.796v-.796h.796c.438 0 .796-.358.796-.796s-.358-.796-.796-.796h-.796v-.795c0-.271-.032-.533-.072-.796h.867a.798.798 0 0 0 .796-.796.798.798 0 0 0-.795-.795zm-4.775 6.366H7.204c-.438 0-.796-.358-.796-.796s.358-.796.796-.796h1.592c.438 0 .796.358.796.796s-.359.796-.796.796zm0-3.183H7.204a.798.798 0 0 1-.796-.796c0-.438.358-.796.796-.796h1.592c.438 0 .796.358.796.796a.799.799 0 0 1-.796.796z"/>
</svg>
