<svg xmlns="http://www.w3.org/2000/svg" width="16" height="16" fill="#f4f4f7" fill-opacity="context-fill-opacity"><path d="M8 5.5H5v3h3v-3zm1 5v1H4v-1h5zm0-6v5H4v-5h5zm5 6v1h-4v-1h4zm0-2v1h-4v-1h4zm0-2v1h-4v-1h4zm0-2v1h-4v-1h4zM2 12V4.5H1V12c0 .135.049.253.148.351.099.1.217.149.352.149s.252-.049.351-.149A.479.479 0 0 0 2 12zm13 0V3.5H3V12c0 .172-.029.339-.086.5H14.5a.475.475 0 0 0 .351-.149A.475.475 0 0 0 15 12zm1-9.5V12c0 .417-.146.771-.438 1.062a1.443 1.443 0 0 1-1.062.438h-13c-.417 0-.771-.146-1.062-.438A1.443 1.443 0 0 1 0 12V3.5h2v-1h14z"/></svg>