<svg xmlns="http://www.w3.org/2000/svg" width="16" height="16" fill="#f4f4f7" fill-opacity="context-fill-opacity">
    <path d="M14 5.333v-.666L12 6l-2-1.333v.667l1.813 1.213c.113.073.26.073.367 0L14 5.333zM14.667 2H1.333C.6 2 0 2.6 0 3.333v9.333C0 13.4.6 14 1.333 14h13.333c.733 0 1.327-.6 1.327-1.333L16 3.333C16 2.6 15.4 2 14.667 2zM5.333 4c1.107 0 2 .893 2 2s-.893 2-2 2-2-.893-2-2 .894-2 2-2zm4 8h-8v-.667c0-1.333 2.667-2.067 4-2.067s4 .733 4 2.067V12zm5-4H9.667a.33.33 0 0 1-.334-.333V4.333A.33.33 0 0 1 9.667 4h4.667a.33.33 0 0 1 .333.333v3.333a.33.33 0 0 1-.334.334z"/>
</svg>
