<svg xmlns="http://www.w3.org/2000/svg" width="16" height="16" fill="#f4f4f7" fill-opacity="context-fill-opacity">
    <path d="m12.9 6.097 2.1-2.1v4.765a1.05 1.05 0 1 1-2.1 0V6.097zm-6.3 6.611c0 1.129.726 1.623 1.325 1.839a.714.714 0 0 0 .93-.516l.388-1.712 1.898-2.108c.232-.257.36-.591.36-.937V7.497l-4.879 4.879a3.468 3.468 0 0 0-.022.332zm8.116-11.412-.006-.006a1 1 0 0 0-1.414-.006l-.006.006-1.79 1.791v-.269a1.4 1.4 0 0 0-1.4-1.4H4.478c-.519 0-.988.305-1.199.779L1.178 6.92A2.044 2.044 0 0 0 1 7.753v.659c0 .77.63 1.4 1.4 1.4h2.375L1.3 13.29a1 1 0 0 0-.006 1.414l.006.006a1 1 0 0 0 1.414.006l.006-.006 12-12a1 1 0 0 0-.004-1.414z"/>
</svg>
