<svg xmlns="http://www.w3.org/2000/svg" width="16" height="16" fill="#f4f4f7" fill-opacity="context-fill-opacity">
    <path d="M11.889 1H4.111a.78.78 0 0 0-.778.778c0 .428.35.778.778.778h7.778a.78.78 0 0 0 .778-.778.78.78 0 0 0-.778-.778zm0 2.333H4.111c-.856 0-1.556.7-1.556 1.556v8.556A1.561 1.561 0 0 0 4.111 15h7.778c.856 0 1.556-.7 1.556-1.556V4.889a1.562 1.562 0 0 0-1.556-1.556zm-1.945 7h-.777v.778c0 .646-.521 1.167-1.167 1.167a1.165 1.165 0 0 1-1.167-1.167v-.778h-.777a1.165 1.165 0 0 1-1.167-1.167C4.889 8.521 5.41 8 6.056 8h.778v-.778c0-.646.521-1.167 1.167-1.167s1.167.521 1.167 1.167V8h.778c.646 0 1.167.521 1.167 1.167a1.168 1.168 0 0 1-1.169 1.166z"/>
</svg>
