<svg width="16" height="16" fill="#f4f4f7" fill-opacity="context-fill-opacity">
  <path d="m9.18 10.95 1.18 4.13H5.64l1.18-4.13-.885-1.77h4.13l-.885 1.77zm2.36-5.31H4.46L2.1 6.82h11.8l-2.36-1.18zM10.36.92 8 2.1 5.64.92 4.46 4.46h7.08L10.36.92zm4.757 9.145L11.54 9.18l1.18 2.36-2.36 3.54h3.798c.27 0 .51-.083.719-.249s.35-.378.424-.636l.664-2.692c.074-.32.031-.615-.129-.885a1.216 1.216 0 0 0-.719-.553zM4.46 9.18l-3.577.885c-.32.098-.559.283-.719.553-.16.27-.203.565-.129.885l.664 2.692c.074.258.215.47.424.636.209.166.449.249.719.249H5.64l-2.36-3.54 1.18-2.36z"/>
</svg>
