<svg xmlns="http://www.w3.org/2000/svg" width="16" height="16" fill-opacity="context-fill-opacity"><path fill="#f4f4f7" d="M13.6 6c0-1.04-.672-1.92-1.6-2.256V1.2c0-.44-.36-.8-.8-.8-.44 0-.8.36-.8.8v2.544C9.472 4.08 8.8 4.96 8.8 6s.672 1.92 1.6 2.256v2.408c0 1.672-1.216 3.168-2.88 3.328A3.216 3.216 0 0 1 4 10.8V10h1.432c.36 0 .536-.432.28-.68L3.08 6.68a.4.4 0 0 0-.68.288v3.664c0 2.44 1.752 4.616 4.168 4.928A4.805 4.805 0 0 0 12 10.8V8.256A2.408 2.408 0 0 0 13.6 6zm-2.4.8c-.44 0-.8-.36-.8-.8s.36-.8.8-.8.8.36.8.8-.36.8-.8.8z"/><path fill="#1b1d24" d="M12.4 3.479V1.2a1.201 1.201 0 0 0-2.4 0v2.279C9.033 3.944 8.4 4.924 8.4 6s.633 2.056 1.6 2.521v2.143c0 1.507-1.106 2.794-2.517 2.93a2.79 2.79 0 0 1-2.139-.699c-.631-.562-.944-1.401-.944-2.246V10.4h1.032l.958.002c.36 0 .571-.473.28-.68-.453-.322-.864-.575-1.535-1.194-1.066-.983-1.38-1.381-2.455-3.039a.4.4 0 0 0-.68.288v4.855c0 2.702 1.942 4.991 4.517 5.325a5.201 5.201 0 0 0 5.481-3.155c.29-.683.402-1.429.402-2.171v-2.11C13.367 8.056 14 7.076 14 6s-.633-2.056-1.6-2.521zm-.536 4.401-.264.095V10.8a4.403 4.403 0 0 1-1.497 3.305 4.348 4.348 0 0 1-3.484 1.059c-2.177-.282-3.819-2.23-3.819-4.532l-.003-3.67L5.432 9.6H3.6v1.2c0 1.009.429 1.978 1.178 2.661a3.652 3.652 0 0 0 2.78.93c1.818-.175 3.242-1.812 3.242-3.727V7.975l-.264-.095C9.737 7.591 9.2 6.835 9.2 6s.537-1.591 1.336-1.88l.264-.095V1.2a.4.4 0 0 1 .8 0v2.825l.264.096C12.663 4.409 13.2 5.165 13.2 6s-.537 1.591-1.336 1.88z"/></svg>