<svg xmlns="http://www.w3.org/2000/svg" width="16" height="16" fill="#f4f4f7" fill-opacity="context-fill-opacity"><path d="m14.777 13.693-3.784-3.806 2.7-2.7a.769.769 0 0 0 0-1.084l-.07-.07c-.255-.255-.645-.277-.965-.098a2.3 2.3 0 0 1-2.76-.374L7.188 2.85l.542-.542a.769.769 0 0 0 0-1.084.769.769 0 0 0-1.084 0L1.224 6.645a.769.769 0 0 0 0 1.084.769.769 0 0 0 1.084 0l.542-.542 2.711 2.711c.748.748.873 1.881.374 2.759-.178.32-.157.71.098.965l.071.07a.769.769 0 0 0 1.084 0l2.721-2.721 3.784 3.806a.769.769 0 0 0 1.084 0 .769.769 0 0 0 0-1.084z"/></svg>