<svg viewBox="0 0 16 16">
  <path fill="#f4f4f7" fill-opacity="context-fill-opacity" d="M12.739 2.688 8.495 1.096a1.37 1.37 0 0 0-.99-.007L3.262 2.681c-.552.212-.92.735-.92 1.329v3.324c0 3.416 2.214 6.626 5.255 7.602.262.085.545.085.806 0 3.041-.976 5.255-4.18 5.255-7.602V4.01c0-.587-.368-1.117-.919-1.322zM10.567 7.3c-1.718 2.997-2.715 4.746-3.002 5.247a.301.301 0 0 1-.559-.194l.47-3.31H5.648c-.459 0-.172-.392-.162-.407.658-1.164 1.645-2.887 2.95-5.185a.301.301 0 0 1 .559.194l-.47 3.31h1.833c.209.001.323.1.209.345z"/>
</svg>
