<svg xmlns="http://www.w3.org/2000/svg" width="32" height="32" fill="#f4f4f7" fill-opacity="context-fill-opacity">
    <path d="M26 2H6C3.8 2 2 3.8 2 6v20c0 2.2 1.8 4 4 4h20c2.2 0 4-1.8 4-4V6c0-2.2-1.8-4-4-4zM12 20a1 1 0 0 1-1-1v-6h16v7H12zM5 6c0-.542.458-1 1-1h20c.542 0 1 .458 1 1v6.012H6V12a1 1 0 0 1-1-1V6zm21 21h-8a1 1 0 0 1-1-1v-5.013h10V26c0 .542-.458 1-1 1z"/>
    <path d="M10 8.5c0 .825-.675 1.5-1.5 1.5S7 9.325 7 8.5 7.675 7 8.5 7s1.5.675 1.5 1.5zm6 8c0 .825-.675 1.5-1.5 1.5s-1.5-.675-1.5-1.5.675-1.5 1.5-1.5 1.5.675 1.5 1.5zm6 7c0 .825-.675 1.5-1.5 1.5s-1.5-.675-1.5-1.5.675-1.5 1.5-1.5 1.5.675 1.5 1.5z"/>
</svg>
