<svg xmlns="http://www.w3.org/2000/svg" width="16" height="16" fill="#f4f4f7" fill-opacity="context-fill-opacity"><path d="M14.707 1.293a1 1 0 0 0-1.414 0L9.462 5.124 7.188 2.85l.542-.542a.769.769 0 0 0 0-1.084.769.769 0 0 0-1.084 0L1.224 6.645a.769.769 0 0 0 0 1.084.769.769 0 0 0 1.084 0l.542-.542 2.275 2.275-3.831 3.831a1 1 0 0 0 1.389 1.439l.025-.025 12-12a1.002 1.002 0 0 0-.001-1.414zm.07 12.4-3.783-3.805 2.677-2.677a.81.81 0 0 0-1.145-1.145L6.081 12.51a.81.81 0 1 0 1.125 1.165l.02-.02 2.684-2.684 3.783 3.805a.769.769 0 0 0 1.084 0 .768.768 0 0 0 0-1.083z"/></svg>