<svg width="16" height="16" fill="#f4f4f7" fill-opacity="context-fill-opacity">
  <path d="m16 8-1.775-2.029.247-2.684-2.625-.596L10.472.364 8 1.425 5.527.364l-1.375 2.32-2.625.589.247 2.691L0 8l1.775 2.029-.248 2.691 2.625.596 1.375 2.32L8 14.567l2.473 1.062 1.375-2.32 2.625-.596-.247-2.684L16 8zm-9.905 2.916L4.364 9.171a.723.723 0 0 1 0-1.025l.051-.051a.733.733 0 0 1 1.033 0l1.171 1.178 3.745-3.753a.733.733 0 0 1 1.033 0l.051.051a.723.723 0 0 1 0 1.025l-4.305 4.32a.751.751 0 0 1-1.048 0z"/>
</svg>
