<svg xmlns="http://www.w3.org/2000/svg" width="16" height="16" fill="#f4f4f7" fill-opacity="context-fill-opacity"><path d="m16 8-1.775-2.029.247-2.684-2.625-.596L10.472.364 8 1.425 5.527.364l-1.375 2.32-2.625.589.247 2.691L0 8l1.775 2.029-.248 2.691 2.625.596 1.375 2.32L8 14.567l2.473 1.062 1.375-2.32 2.625-.596-.247-2.684L16 8zm-5.218-.576c-.299.3-.787.3-1.086 0l-.927-.928v4.863a.769.769 0 1 1-1.538 0V6.496l-.927.928a.769.769 0 0 1-1.087-1.087l2.239-2.239a.754.754 0 0 1 .247-.165.795.795 0 0 1 .595 0 .746.746 0 0 1 .245.165l2.239 2.239c.301.3.301.787 0 1.087z"/></svg>